<svg width="96" height="68" viewBox="0 0 96 68" fill="none" xmlns="http://www.w3.org/2000/svg">
<path d="M0 14.875H42.0674L45.3034 21.25H3.23595L0 14.875ZM4.31461 27.625H46.382L49.618 34H7.55056L4.31461 27.625ZM74.427 61.625C78.0081 61.625 80.8989 58.7775 80.8989 55.25C80.8989 51.7225 78.0081 48.875 74.427 48.875C70.8458 48.875 67.9551 51.7225 67.9551 55.25C67.9551 58.7775 70.8458 61.625 74.427 61.625ZM80.8989 23.375H70.1124V34H89.3555L80.8989 23.375ZM31.2809 61.625C34.862 61.625 37.7528 58.7775 37.7528 55.25C37.7528 51.7225 34.862 48.875 31.2809 48.875C27.6998 48.875 24.809 51.7225 24.809 55.25C24.809 58.7775 27.6998 61.625 31.2809 61.625ZM83.0562 17L96 34V55.25H87.3708C87.3708 62.305 81.5892 68 74.427 68C67.2647 68 61.4831 62.305 61.4831 55.25H44.2247C44.2247 62.305 38.4 68 31.2809 68C24.1187 68 18.3371 62.305 18.3371 55.25H9.70786V40.375H18.3371V46.75H21.6162C23.9892 44.1575 27.4409 42.5 31.2809 42.5C35.1209 42.5 38.5726 44.1575 40.9456 46.75H61.4831V8.5H9.70786C9.70786 3.7825 13.5479 0 18.3371 0H70.1124V17H83.0562Z" fill="#5A5AF6"/>
</svg>
