<svg width="98" height="73" viewBox="0 0 98 73" fill="none" xmlns="http://www.w3.org/2000/svg">
<path d="M96.1742 40.7705C94.1667 38.95 91.0363 39.0691 88.9267 40.7705L73.2067 53.3437C71.2843 54.892 68.8854 55.7257 66.4015 55.7257H46.2752C44.7781 55.7257 43.5532 54.5007 43.5532 53.0034C43.5532 51.5062 44.7781 50.2812 46.2752 50.2812H59.5964C62.3014 50.2812 64.8193 48.4267 65.2617 45.7555C65.8231 42.3527 63.2031 39.3923 59.8856 39.3923H32.6649C28.0714 39.3923 23.631 40.9746 20.0583 43.867L12.1472 50.2812H2.72207C1.22493 50.2812 0 51.5062 0 53.0034V69.3368C0 70.834 1.22493 72.059 2.72207 72.059H63.4243C65.8912 72.059 68.29 71.2253 70.2295 69.6771L95.953 49.0903C98.539 47.0316 98.7432 43.0843 96.1742 40.7705Z" fill="#5A5AF6"/>
<path d="M59.5687 0C56.5283 0 53.5561 0.901584 51.0281 2.59074C48.5001 4.2799 46.5298 6.68076 45.3663 9.48973C44.2028 12.2987 43.8983 15.3896 44.4915 18.3716C45.0846 21.3536 46.5487 24.0927 48.6986 26.2426C50.8485 28.3925 53.5876 29.8566 56.5696 30.4497C59.5516 31.0429 62.6425 30.7384 65.4515 29.5749C68.2604 28.4114 70.6613 26.4411 72.3505 23.9131C74.0396 21.3851 74.9412 18.413 74.9412 15.3725C74.9412 11.2955 73.3216 7.38543 70.4387 4.50252C67.5558 1.6196 63.6457 0 59.5687 0ZM65.2181 8.64706H67.2549C67.5098 8.64706 67.7541 8.74828 67.9343 8.92847C68.1145 9.10865 68.2157 9.35303 68.2157 9.60784C68.2157 9.86266 68.1145 10.107 67.9343 10.2872C67.7541 10.4674 67.5098 10.5686 67.2549 10.5686H65.5832V10.7512C65.5972 11.5212 65.459 12.2864 65.1766 13.0029C64.8943 13.7194 64.4732 14.3731 63.9376 14.9265C63.4021 15.4799 62.7625 15.9222 62.0556 16.2279C61.3488 16.5336 60.5885 16.6968 59.8185 16.708H57.8969L64.4494 24.452C64.6558 24.6953 64.7571 25.0107 64.731 25.3287C64.7049 25.6467 64.5535 25.9413 64.3101 26.1477C64.0668 26.3541 63.7514 26.4554 63.4334 26.4293C63.1154 26.4032 62.8207 26.2518 62.6143 26.0084L54.4093 16.2757C54.2578 16.0981 54.1614 15.8802 54.1319 15.6487C54.1023 15.4171 54.1409 15.182 54.2428 14.9721C54.3447 14.7621 54.5056 14.5864 54.7058 14.4664C54.906 14.3464 55.1368 14.2874 55.37 14.2965H59.8953C60.8085 14.2688 61.6735 13.88 62.3003 13.2153C62.9272 12.5507 63.2647 11.6644 63.2389 10.7512V10.559H54.5918C54.337 10.559 54.0926 10.4578 53.9124 10.2776C53.7322 10.0974 53.631 9.85305 53.631 9.59824C53.631 9.34342 53.7322 9.09904 53.9124 8.91886C54.0926 8.73868 54.337 8.63745 54.5918 8.63745H62.5855C62.2896 8.19962 61.8921 7.83988 61.427 7.58893C60.9619 7.33798 60.443 7.20326 59.9145 7.19627H54.5245C54.206 7.19627 53.9006 7.06974 53.6753 6.84452C53.4501 6.61929 53.3236 6.31381 53.3236 5.99529C53.3236 5.67677 53.4501 5.3713 53.6753 5.14607C53.9006 4.92085 54.206 4.79431 54.5245 4.79431H67.2549C67.5098 4.79431 67.7541 4.89554 67.9343 5.07572C68.1145 5.2559 68.2157 5.50028 68.2157 5.7551C68.2157 6.00991 68.1145 6.25429 67.9343 6.43447C67.7541 6.61466 67.5098 6.71588 67.2549 6.71588H64.0651C64.568 7.28097 64.9592 7.93626 65.2181 8.64706Z" fill="#5A5AF6"/>
</svg>
