<svg width="80" height="72" viewBox="0 0 80 72" fill="none" xmlns="http://www.w3.org/2000/svg">
<path d="M3 25.6875L40.125 3L77.25 25.6875M69 40.125V66.525C69 67.1814 68.7392 67.8109 68.2751 68.2751C67.8109 68.7392 67.1814 69 66.525 69H13.725C13.0686 69 12.4391 68.7392 11.9749 68.2751C11.5108 67.8109 11.25 67.1814 11.25 66.525V40.125" stroke="#5A5AF6" stroke-width="5" stroke-linecap="round" stroke-linejoin="round"/>
<path d="M48.375 36H50.025C50.6814 36 51.3109 36.2608 51.7751 36.7249C52.2392 37.1891 52.5 37.8186 52.5 38.475V50.025C52.5 50.6814 52.2392 51.3109 51.7751 51.7751C51.3109 52.2392 50.6814 52.5 50.025 52.5H30.225C29.5686 52.5 28.9391 52.2392 28.4749 51.7751C28.0108 51.3109 27.75 50.6814 27.75 50.025V38.475C27.75 37.8186 28.0108 37.1891 28.4749 36.7249C28.9391 36.2608 29.5686 36 30.225 36H31.875M48.375 36V27.75C48.375 24.9986 46.725 19.5 40.125 19.5C33.525 19.5 31.875 24.9986 31.875 27.75V36M48.375 36H31.875" stroke="#5A5AF6" stroke-width="5" stroke-linecap="round" stroke-linejoin="round"/>
</svg>
