<svg width="24" height="24" viewBox="0 0 24 24" fill="none" xmlns="http://www.w3.org/2000/svg">
<path d="M20.8948 3.32102L11.8051 21.5028C11.6442 21.8343 11.3743 22 10.9956 22C10.9482 22 10.8772 21.9905 10.7825 21.9716C10.5742 21.9242 10.4062 21.8177 10.2784 21.652C10.1505 21.4863 10.0866 21.2992 10.0866 21.0909V12.9091H1.90592C1.69762 12.9091 1.51062 12.8452 1.34492 12.7173C1.17922 12.5895 1.0727 12.4214 1.02536 12.2131C0.97802 12.0047 0.996957 11.8059 1.08217 11.6165C1.16739 11.4271 1.30468 11.285 1.49405 11.1903L19.6734 2.09943C19.7965 2.03314 19.9338 2 20.0852 2C20.3409 2 20.5539 2.08996 20.7244 2.26989C20.8664 2.40246 20.954 2.56581 20.9871 2.75994C21.0203 2.95407 20.9895 3.1411 20.8948 3.32102Z" fill="#5A5AF6"/>
</svg>
