<svg width="64" height="64" viewBox="0 0 64 64" fill="none" xmlns="http://www.w3.org/2000/svg">
<circle cx="32" cy="32" r="26" stroke="#FFFDFC" stroke-width="12"/>
<circle opacity="0.2" cx="32" cy="32" r="28.5" stroke="#5A5AF6"/>
<circle cx="32" cy="32" r="19" fill="#5A5AF6"/>
<path d="M26.44 27.016H28.576C28.792 25.336 30.016 24.184 32.056 24.184C34.144 24.184 35.248 25.336 35.248 26.992C35.248 29.008 33.688 29.896 30.784 29.92H30.208V31.744H30.76C33.88 31.744 35.584 32.68 35.584 35.128C35.584 36.904 34.48 38.272 32.152 38.272C29.848 38.272 28.504 36.856 28.288 35.008H26.176C26.44 38.368 28.888 40.12 32.176 40.12C35.8 40.12 37.672 38.008 37.672 35.32C37.672 32.824 36.304 31.336 34.288 30.856V30.736C36.112 30.328 37.36 28.768 37.36 26.776C37.36 24.28 35.512 22.312 32.128 22.312C28.912 22.312 26.656 24.04 26.44 27.016Z" fill="white"/>
</svg>
