<svg width="48" height="48" viewBox="0 0 48 48" fill="none" xmlns="http://www.w3.org/2000/svg">
<path d="M5.5 27L4 24H14.5L13.3 21H3.5L2 18H17.6L16.4 15H1.72L0 12H7.5C7.5 10.9391 7.92143 9.92172 8.67157 9.17157C9.42172 8.42143 10.4391 8 11.5 8H35.5V16H41.5L47.5 24V34H43.5C43.5 35.5913 42.8679 37.1174 41.7426 38.2426C40.6174 39.3679 39.0913 40 37.5 40C35.9087 40 34.3826 39.3679 33.2574 38.2426C32.1321 37.1174 31.5 35.5913 31.5 34H23.5C23.5 35.5913 22.8679 37.1174 21.7426 38.2426C20.6174 39.3679 19.0913 40 17.5 40C15.9087 40 14.3826 39.3679 13.2574 38.2426C12.1321 37.1174 11.5 35.5913 11.5 34H7.5V27H5.5ZM37.5 37C38.2956 37 39.0587 36.6839 39.6213 36.1213C40.1839 35.5587 40.5 34.7956 40.5 34C40.5 33.2044 40.1839 32.4413 39.6213 31.8787C39.0587 31.3161 38.2956 31 37.5 31C36.7044 31 35.9413 31.3161 35.3787 31.8787C34.8161 32.4413 34.5 33.2044 34.5 34C34.5 34.7956 34.8161 35.5587 35.3787 36.1213C35.9413 36.6839 36.7044 37 37.5 37ZM40.5 19H35.5V24H44.42L40.5 19ZM17.5 37C18.2956 37 19.0587 36.6839 19.6213 36.1213C20.1839 35.5587 20.5 34.7956 20.5 34C20.5 33.2044 20.1839 32.4413 19.6213 31.8787C19.0587 31.3161 18.2956 31 17.5 31C16.7044 31 15.9413 31.3161 15.3787 31.8787C14.8161 32.4413 14.5 33.2044 14.5 34C14.5 34.7956 14.8161 35.5587 15.3787 36.1213C15.9413 36.6839 16.7044 37 17.5 37Z" fill="#5A5AF6"/>
</svg>
