<svg width="48" height="48" viewBox="0 0 48 48" fill="none" xmlns="http://www.w3.org/2000/svg">
<path d="M41.1941 43.302L29.8822 31.9901L32.0029 29.8701L43.3148 41.182L41.1941 43.302Z" fill="#3A3A3A" stroke="white"/>
<path d="M20 36.5C29.1127 36.5 36.5 29.1127 36.5 20C36.5 10.8873 29.1127 3.5 20 3.5C10.8873 3.5 3.5 10.8873 3.5 20C3.5 29.1127 10.8873 36.5 20 36.5Z" fill="white" stroke="#3A3A3A"/>
<path d="M32.45 35.34L35.277 32.512L43.973 41.208L41.145 44.036L32.45 35.34Z" fill="#5A5AF6"/>
<path d="M20 36C28.8366 36 36 28.8366 36 20C36 11.1634 28.8366 4 20 4C11.1634 4 4 11.1634 4 20C4 28.8366 11.1634 36 20 36Z" fill="#5A5AF6"/>
<path d="M26.9 14.2C25.2 12.2 22.7 11 20 11C17.3 11 14.8 12.2 13.1 14.2C12.7 14.6 12.8 15.3 13.2 15.6C13.6 16 14.3 15.9 14.6 15.5C16 13.9 17.9 13 20 13C22.1 13 24 13.9 25.4 15.5C25.6 15.7 25.9 15.9 26.2 15.9C26.4 15.9 26.7 15.8 26.8 15.7C27.2 15.3 27.2 14.6 26.9 14.2V14.2Z" fill="#BBDEFB"/>
</svg>
