<svg width="48" height="48" viewBox="0 0 48 48" fill="none" xmlns="http://www.w3.org/2000/svg">
<path d="M38 18C38.0009 15.5898 37.3795 13.2202 36.1961 11.1205C35.0126 9.02089 33.3072 7.26234 31.2448 6.01511C29.1824 4.76787 26.8329 4.0742 24.4238 4.00123C22.0147 3.92826 19.6276 4.47848 17.4935 5.59862C15.3594 6.71875 13.5507 8.37086 12.2423 10.395C10.934 12.4192 10.1703 14.7469 10.0254 17.1527C9.88038 19.5585 10.359 21.961 11.4148 24.1277C12.4706 26.2943 14.0679 28.1517 16.052 29.52L10 40L14.512 40.186L16.928 44L23.86 31.992C23.908 31.992 23.952 32 24 32C24.048 32 24.092 31.994 24.14 31.992L31.072 44L33.536 40.268L38 40L31.948 29.52C33.8152 28.2344 35.3418 26.514 36.3961 24.5071C37.4504 22.5002 38.0009 20.267 38 18ZM14 18C14 16.0222 14.5865 14.0888 15.6853 12.4443C16.7841 10.7998 18.3459 9.51805 20.1732 8.76118C22.0004 8.0043 24.0111 7.80627 25.9509 8.19212C27.8907 8.57797 29.6725 9.53038 31.0711 10.9289C32.4696 12.3274 33.422 14.1093 33.8079 16.0491C34.1937 17.9889 33.9957 19.9995 33.2388 21.8268C32.4819 23.6541 31.2002 25.2159 29.5557 26.3147C27.9112 27.4135 25.9778 28 24 28C21.3478 28 18.8043 26.9464 16.9289 25.071C15.0536 23.1957 14 20.6521 14 18V18Z" fill="#5A5AF6"/>
<path d="M24 24C27.3137 24 30 21.3137 30 18C30 14.6863 27.3137 12 24 12C20.6863 12 18 14.6863 18 18C18 21.3137 20.6863 24 24 24Z" fill="#5A5AF6"/>
</svg>
