<svg width="20" height="21" viewBox="0 0 20 21" fill="none" xmlns="http://www.w3.org/2000/svg">
<path d="M2 14C3.10457 14 4 13.1046 4 12C4 10.8954 3.10457 10 2 10C0.89543 10 0 10.8954 0 12C0 13.1046 0.89543 14 2 14Z" fill="#FFA726"/>
<path d="M16 14C17.1046 14 18 13.1046 18 12C18 10.8954 17.1046 10 16 10C14.8954 10 14 10.8954 14 12C14 13.1046 14.8954 14 16 14Z" fill="#FFA726"/>
<path d="M16.5 8.49983C16.5 2.14983 1.5 4.34983 1.5 8.49983V13.4998C1.5 17.6498 4.85 20.9998 9 20.9998C13.15 20.9998 16.5 17.6498 16.5 13.4998V8.49983Z" fill="#FFB74D"/>
<path d="M9 0.5C4.3 0.5 0.5 4.3 0.5 9V10.7L1.5 11.5V10L12 5.1L16.5 10V11.5L17.5 10.7V9C17.5 5 14.65 0.5 9 0.5Z" fill="#FF5722"/>
<path d="M12.5 13C13.0523 13 13.5 12.5523 13.5 12C13.5 11.4477 13.0523 11 12.5 11C11.9477 11 11.5 11.4477 11.5 12C11.5 12.5523 11.9477 13 12.5 13Z" fill="#784719"/>
<path d="M5.5 13C6.05228 13 6.5 12.5523 6.5 12C6.5 11.4477 6.05228 11 5.5 11C4.94772 11 4.5 11.4477 4.5 12C4.5 12.5523 4.94772 13 5.5 13Z" fill="#784719"/>
<path d="M18.5 11C18.2 11 18 11.2 18 11.5V8C18 3.6 14.4 0 10 0H6.5C6.2 0 6 0.2 6 0.5C6 0.8 6.2 1 6.5 1H10C13.85 1 17 4.15 17 8V13C17 13.3 17.2 13.5 17.5 13.5C17.8 13.5 18 13.3 18 13V14C18 15.95 16.45 17.5 14.5 17.5H9C8.7 17.5 8.5 17.7 8.5 18C8.5 18.3 8.7 18.5 9 18.5H14.5C17 18.5 19 16.5 19 14V11.5C19 11.2 18.8 11 18.5 11Z" fill="#757575"/>
<path d="M18.5 10H18C17.45 10 17 10.45 17 11V13C17 13.55 17.45 14 18 14H18.5C19.05 14 19.5 13.55 19.5 13V11C19.5 10.45 19.05 10 18.5 10Z" fill="#37474F"/>
<path d="M9 19C9.55228 19 10 18.5523 10 18C10 17.4477 9.55228 17 9 17C8.44772 17 8 17.4477 8 18C8 18.5523 8.44772 19 9 19Z" fill="#37474F"/>
</svg>
