<svg xmlns="http://www.w3.org/2000/svg" xmlns:xlink="http://www.w3.org/1999/xlink" viewBox="0 0 853.44 360"><defs><style>.b0af67be-6508-44b2-9117-9aa1efe27c9d{isolation:isolate;}.a7cea997-3c98-4bc3-8011-2d2a20689431{fill:url(#a9c0c811-b082-4fd9-963c-38dbe8260859);}.eb62e591-1731-4f57-8ab8-d80cd9c35c4e{opacity:0;}.edb7dfc4-bf04-47cd-a402-8d1d4932a0ee{opacity:0.01;}.f366e639-bcb2-44b1-8168-ba222dfd5b4e{opacity:0.03;}.f1de0d1b-77d0-452d-b78c-ce7250228b76{opacity:0.04;}.a6e82bff-cf8e-405e-96f0-3d5bb3c733dd{opacity:0.06;}.ae1bf436-943c-476e-849f-f0fac5fb026e{opacity:0.07;}.e4fb08fb-8808-47f6-81bc-1d4f3a45c4c3{opacity:0.09;}.bf8181e5-10d3-4bda-9aa7-02293a68b8d2{opacity:0.1;}.ad97e86e-6cba-4736-8199-5ada90cb4fae{opacity:0.11;}.b7751448-85e7-476c-8c1b-014b2ab62876{opacity:0.13;}.f3d71af4-3da6-4a9e-ad88-018e7ced2d45{opacity:0.14;}.fd4b5a20-0fc2-4e0b-b20f-5526d0f8a03f{opacity:0.16;}.b4b85877-1819-4583-931d-86b7d79fb52a{opacity:0.17;}.a6a8ab20-5b68-4968-9af6-576048a30c61{opacity:0.19;}.a0a07e6c-6231-4232-ac25-665a665bfdd1{opacity:0.2;}.bc8bcda0-5b71-4787-9319-b6ac717823d2{opacity:0.21;}.a2777960-6b66-4603-922d-f14489025915{opacity:0.23;}.a1d061f2-ac3d-4b32-a2e6-5d88e43efb91{opacity:0.24;}.a4501739-a034-42a4-bddd-c5a4cb5a499d{opacity:0.26;}.eaad28e7-d113-498c-a9e3-9d46305a4887{opacity:0.27;}.f42031a8-22ce-4bd6-b153-23ce1f4075b9{opacity:0.29;}.e40e542e-c679-4dd6-9f69-e24c7eb506c0{opacity:0.3;}.bbc56caf-88bf-41e3-a510-e572de1ef527,.e14cade0-d718-46e0-83c4-c2b16bb8432c{opacity:0.5;}.a7ff666d-7c0c-44d1-b958-0f355573ab96,.a8a29110-8e05-40a9-b2b6-4141d1b5d580,.bbc56caf-88bf-41e3-a510-e572de1ef527,.bf6c2728-a585-41bd-bef0-e6d9737df86b,.f78a42e2-7d73-42b6-b51f-8b76b306db16{mix-blend-mode:color-dodge;}.bbc56caf-88bf-41e3-a510-e572de1ef527{fill:url(#b8c7b1e9-5c98-4b82-adb8-9b0c7ffeab3f);}.b132b473-8959-4aa0-945f-f9350ec98ac1,.b8c280e9-7f2e-4a28-af52-a5a3cc085fce,.e14cade0-d718-46e0-83c4-c2b16bb8432c,.e8b0c348-bfc7-4342-bbea-7b924bea5746,.fb7a69cc-baa9-42b8-b829-50e08500e465{mix-blend-mode:screen;}.e14cade0-d718-46e0-83c4-c2b16bb8432c{fill:url(#b9edc2ef-6f29-4838-a8f8-0ec8f9321d65);}.e8b0c348-bfc7-4342-bbea-7b924bea5746{fill:url(#a1477b4d-eb81-402d-adf0-85ba7419449b);}.b132b473-8959-4aa0-945f-f9350ec98ac1{fill:url(#a212ecb5-43c8-4dd6-882b-71788d95c566);}.ab55f108-1e9e-4376-abe1-a52b6980dea6{fill:url(#b1194862-420b-4e89-a7c4-52aa811203cc);}.a3861ae0-61be-44ed-9283-ebe5b850306f,.ab0d3754-f149-40f5-a86c-7d723841c004,.baa28300-2177-44d9-ae3e-2bee91acfa0a,.bb67285a-cd46-4bea-99b6-32ecac31a1d5{mix-blend-mode:multiply;}.baa28300-2177-44d9-ae3e-2bee91acfa0a{fill:url(#ac396243-c550-4621-822c-f17da5b72727);}.b7f0c983-632a-4bc9-a966-0f801b387977{fill:url(#eeb94d42-d198-447b-879c-5666726de66e);}.f47aaca7-5b4e-4443-bf60-b1fb4da7542a{fill:url(#a4be7b00-5533-412a-a239-ad79caef011a);}.a3861ae0-61be-44ed-9283-ebe5b850306f{fill:url(#b938a0ae-d8e1-43b8-b345-fdcbed843a2a);}.b2d9b1ee-e31d-4c8d-afa3-04265026e080{fill:url(#b2447621-e81d-402d-a0ae-764ab90d5bf1);}.bc372e3a-4ce8-41e4-938e-453d2d946175{fill:#fff;}.a7e8741c-2dfe-440d-8316-f9b7762191d1{fill:url(#ab32019f-a2b8-41b6-bdae-7e9538df9460);}.aec4917b-9ca4-4763-a9eb-6f3e413e0ba5{fill:url(#fdd58f78-f0cd-4667-ba18-4bed14516e23);}.a7ff666d-7c0c-44d1-b958-0f355573ab96{fill:url(#af109985-135f-45b2-9fea-1736547b622c);}.ab0d3754-f149-40f5-a86c-7d723841c004{fill:#bcbec0;}.e38393fe-750f-4ce0-87f2-33e1eb110b59{fill:#d1d3d4;}.e5e8068a-c3cf-4697-acd3-79bb17adb43f{fill:#603913;}.e8c33d6e-f4c2-44fc-b9a4-e2234cd56a73{fill:#9d9eb3;}.e6586463-bc29-4acc-bbcc-587660ec62f6{fill:url(#b6bf27fa-7466-4ca1-b3a6-f75bc713648c);}.aa907fec-4a00-4355-9fdb-2bf5cc4c6d8b{fill:url(#b4ca3be2-0b93-4563-ab68-d3fe9e2d8314);}.af0a363a-8df4-4a59-a7ca-36113fa5e7db{fill:url(#b61af472-82f1-40de-9e69-fc08c8b0ab3e);}.bd8b79cc-1073-4bc0-b757-7fc426e42d95{fill:url(#edc8b9da-4172-41e1-917b-b77e73f275a4);}.bc2360dd-6f39-41c5-9f0f-07e92b7eb003{fill:url(#fd70ba4b-8817-4d09-9ad4-b16021d5a784);}.bd1fd53e-2ddb-4781-b2b5-14117529258b{fill:url(#e7ad30f6-957c-432a-8c5c-9a6d5df549ae);}.bd276058-ce75-4060-ac7b-25c5b0e4991d{fill:url(#aee961a9-6f71-48c2-bd89-ad9ccedebe35);}.fb7a69cc-baa9-42b8-b829-50e08500e465{fill:url(#ece91b8e-a77f-4e5a-9ce7-dca44ab8ee83);}.a6ebd85c-ecac-4403-9761-394e5e212c9d{fill:url(#a6ebfaed-9620-4630-a5bc-273f57374155);}.eda6a832-3e1a-46cf-8f96-e9128e84d87e{fill:url(#b7d809de-d07d-4b6e-b76d-91ea32c6384e);}.f78a42e2-7d73-42b6-b51f-8b76b306db16{fill:url(#b4372d8c-7960-4913-8aea-5ca41bc22667);}.be54876a-c385-4802-b970-f0ae96ad1715{fill:url(#b205277d-19c2-427a-a0df-e9d0d926c492);}.bd600c0f-eb35-438c-a3a1-3284ea553805{fill:url(#aedbe78b-9748-4577-8493-25626788b099);}.a8a29110-8e05-40a9-b2b6-4141d1b5d580{fill:url(#eb8f531f-e4aa-4a80-87ee-ae7343e30908);}.e6c00dda-09e5-48f4-aa36-445987373aa3{fill:url(#f8b6701d-6ec5-4578-a47e-e77802b11ca3);}.e530910d-11a6-4e08-b609-c03f639f70fd{fill:url(#f706b91b-6980-4733-bc01-46faf02db1ff);}.f41fcb32-aa33-4d33-afd1-35155af03282{fill:url(#a4f7b8fa-55e0-4283-94af-732c607e6486);}.a38c7e7d-b257-472d-8473-0bc9da57bef5{fill:url(#a724abb9-f187-47b7-9f7e-81c8a81b9eba);}.a9bbc753-3850-49a1-9ebb-7d0478b4aa9a{fill:url(#e4c2a15c-39b2-4663-b677-a979e0f6bf8a);}.e6e1252a-a3ee-4282-bdc5-52fc5b20f887{fill:url(#e247cd06-46cc-456d-b034-de48d03349bd);}.ea775a3f-7c3c-4b48-9a7d-f5903eb9f5b7{fill:url(#a246414e-955c-4f5b-adde-3c9f542aa8d8);}.b8c280e9-7f2e-4a28-af52-a5a3cc085fce{fill:url(#edf70f1c-9ebe-4eb9-a12f-d04e7991be06);}.f13c5080-c273-46a9-bf93-320d90dfb73a{fill:url(#e72b974c-a689-4016-97c7-4073132e214f);}.bed542da-1eb4-4107-85ca-f877e593f725{fill:url(#f32cb7dd-1ba1-44f7-a182-de3eedefd9f0);}.bf6c2728-a585-41bd-bef0-e6d9737df86b{fill:url(#a8ee3a86-86f3-43aa-b680-8cabfdad0806);}</style><linearGradient id="a9c0c811-b082-4fd9-963c-38dbe8260859" x1="783.04" y1="449.36" x2="58.93" y2="-98.04" gradientUnits="userSpaceOnUse"><stop offset="0.02" stop-color="#45108a"/><stop offset="0.29" stop-color="#3d065f"/><stop offset="1" stop-color="#12054e"/><stop offset="1" stop-color="#10054d"/></linearGradient><radialGradient id="b8c7b1e9-5c98-4b82-adb8-9b0c7ffeab3f" cx="884.39" cy="-1831.4" r="128.19" gradientTransform="matrix(1.08, 0.07, -0.05, 0.75, -585.44, 1414.48)" gradientUnits="userSpaceOnUse"><stop offset="0" stop-color="#ff63ce"/><stop offset="0.02" stop-color="#f760c7"/><stop offset="0.18" stop-color="#b64793"/><stop offset="0.34" stop-color="#7f3166"/><stop offset="0.49" stop-color="#512042"/><stop offset="0.64" stop-color="#2e1225"/><stop offset="0.78" stop-color="#150811"/><stop offset="0.9" stop-color="#050204"/><stop offset="1"/></radialGradient><linearGradient id="b9edc2ef-6f29-4838-a8f8-0ec8f9321d65" x1="-119.57" y1="244.29" x2="-227.39" y2="347.54" gradientTransform="translate(700.36 -99.01) rotate(32.86)" gradientUnits="userSpaceOnUse"><stop offset="0" stop-color="#2af6ff"/><stop offset="0.02" stop-color="#29eef7"/><stop offset="0.13" stop-color="#1fb7be"/><stop offset="0.25" stop-color="#17868b"/><stop offset="0.37" stop-color="#105d60"/><stop offset="0.49" stop-color="#0a3b3e"/><stop offset="0.62" stop-color="#062123"/><stop offset="0.74" stop-color="#030f0f"/><stop offset="0.87" stop-color="#010404"/><stop offset="1"/></linearGradient><linearGradient id="a1477b4d-eb81-402d-adf0-85ba7419449b" x1="-91.41" y1="268.39" x2="-252.61" y2="332.16" gradientTransform="translate(700.36 -99.01) rotate(32.86)" gradientUnits="userSpaceOnUse"><stop offset="0" stop-color="#43e8e1"/><stop offset="0.09" stop-color="#36bdb7"/><stop offset="0.22" stop-color="#288b87"/><stop offset="0.34" stop-color="#1c605d"/><stop offset="0.47" stop-color="#123e3c"/><stop offset="0.6" stop-color="#0a2321"/><stop offset="0.73" stop-color="#040f0f"/><stop offset="0.86" stop-color="#010404"/><stop offset="1"/></linearGradient><linearGradient id="a212ecb5-43c8-4dd6-882b-71788d95c566" x1="-73.2" y1="293.48" x2="-169.62" y2="389.39" xlink:href="#a1477b4d-eb81-402d-adf0-85ba7419449b"/><linearGradient id="b1194862-420b-4e89-a7c4-52aa811203cc" x1="-79.73" y1="335.71" x2="-100.39" y2="263.01" gradientTransform="translate(700.36 -99.01) rotate(32.86)" gradientUnits="userSpaceOnUse"><stop offset="0" stop-color="#d4d1d8"/><stop offset="1" stop-color="#fff"/></linearGradient><linearGradient id="ac396243-c550-4621-822c-f17da5b72727" x1="-92.53" y1="292.61" x2="-98.91" y2="278.58" gradientTransform="translate(700.36 -99.01) rotate(32.86)" gradientUnits="userSpaceOnUse"><stop offset="0" stop-color="#fff"/><stop offset="1" stop-color="#e6e7e8"/></linearGradient><linearGradient id="eeb94d42-d198-447b-879c-5666726de66e" x1="-232.15" y1="204.7" x2="-115.49" y2="274.04" xlink:href="#b1194862-420b-4e89-a7c4-52aa811203cc"/><linearGradient id="a4be7b00-5533-412a-a239-ad79caef011a" x1="-149.1" y1="307.38" x2="-89.41" y2="299.15" xlink:href="#b1194862-420b-4e89-a7c4-52aa811203cc"/><linearGradient id="b938a0ae-d8e1-43b8-b345-fdcbed843a2a" x1="-92.35" y1="357.93" x2="-90.78" y2="325.09" gradientTransform="translate(700.36 -99.01) rotate(32.86)" gradientUnits="userSpaceOnUse"><stop offset="0" stop-color="#fff"/><stop offset="1" stop-color="#dedfe0"/></linearGradient><linearGradient id="b2447621-e81d-402d-a0ae-764ab90d5bf1" x1="1.21" y1="344.12" x2="-89.98" y2="284.94" xlink:href="#b1194862-420b-4e89-a7c4-52aa811203cc"/><linearGradient id="ab32019f-a2b8-41b6-bdae-7e9538df9460" x1="804.67" y1="317.58" x2="863.44" y2="299.99" gradientUnits="userSpaceOnUse"><stop offset="0.04" stop-color="#ffa98c"/><stop offset="0.32" stop-color="#ffb892"/><stop offset="0.86" stop-color="#fee1a3"/><stop offset="1" stop-color="#feeca8"/></linearGradient><linearGradient id="fdd58f78-f0cd-4667-ba18-4bed14516e23" x1="760.13" y1="327" x2="867.43" y2="302.94" xlink:href="#ab32019f-a2b8-41b6-bdae-7e9538df9460"/><radialGradient id="af109985-135f-45b2-9fea-1736547b622c" cx="816.14" cy="315.23" r="20.26" gradientUnits="userSpaceOnUse"><stop offset="0" stop-color="#fff"/><stop offset="0.07" stop-color="#d8d8d8"/><stop offset="0.16" stop-color="#a6a6a6"/><stop offset="0.26" stop-color="#797979"/><stop offset="0.37" stop-color="#545454"/><stop offset="0.47" stop-color="#353535"/><stop offset="0.59" stop-color="#1e1e1e"/><stop offset="0.7" stop-color="#0d0d0d"/><stop offset="0.84" stop-color="#030303"/><stop offset="1"/></radialGradient><radialGradient id="b6bf27fa-7466-4ca1-b3a6-f75bc713648c" cx="795.57" cy="219.38" r="59.78" gradientUnits="userSpaceOnUse"><stop offset="0" stop-color="#eeebf2"/><stop offset="0.58" stop-color="#d4d1d8"/><stop offset="0.94" stop-color="#a5a6b9"/><stop offset="1" stop-color="#9d9eb3"/></radialGradient><radialGradient id="b4ca3be2-0b93-4563-ab68-d3fe9e2d8314" cx="795.56" cy="219.38" r="59.78" xlink:href="#b6bf27fa-7466-4ca1-b3a6-f75bc713648c"/><radialGradient id="b61af472-82f1-40de-9e69-fc08c8b0ab3e" cx="795.57" cy="219.38" r="59.77" xlink:href="#b6bf27fa-7466-4ca1-b3a6-f75bc713648c"/><radialGradient id="edc8b9da-4172-41e1-917b-b77e73f275a4" cx="799.78" cy="221.17" r="51" gradientUnits="userSpaceOnUse"><stop offset="0" stop-color="#a56ef4"/><stop offset="1" stop-color="#6b24d6"/></radialGradient><radialGradient id="fd70ba4b-8817-4d09-9ad4-b16021d5a784" cx="799.78" cy="221.17" r="50.99" xlink:href="#edc8b9da-4172-41e1-917b-b77e73f275a4"/><radialGradient id="e7ad30f6-957c-432a-8c5c-9a6d5df549ae" cx="799.78" cy="221.17" r="51" xlink:href="#edc8b9da-4172-41e1-917b-b77e73f275a4"/><radialGradient id="aee961a9-6f71-48c2-bd89-ad9ccedebe35" cx="799.78" cy="221.17" r="51" xlink:href="#edc8b9da-4172-41e1-917b-b77e73f275a4"/><linearGradient id="ece91b8e-a77f-4e5a-9ce7-dca44ab8ee83" x1="786.56" y1="197.41" x2="808.97" y2="237.81" gradientUnits="userSpaceOnUse"><stop offset="0" stop-color="#fff"/><stop offset="1"/></linearGradient><linearGradient id="a6ebfaed-9620-4630-a5bc-273f57374155" x1="-3411.87" y1="329.42" x2="-3426.96" y2="309.2" gradientTransform="translate(4251.38)" gradientUnits="userSpaceOnUse"><stop offset="0.04" stop-color="#6b24d6"/><stop offset="0.2" stop-color="#7733dc"/><stop offset="0.5" stop-color="#975ced"/><stop offset="0.63" stop-color="#a56ef4"/><stop offset="0.87" stop-color="#6b24d6"/></linearGradient><linearGradient id="b7d809de-d07d-4b6e-b76d-91ea32c6384e" x1="-3446.61" y1="326.84" x2="-3397.17" y2="315.76" gradientTransform="translate(4251.38)" gradientUnits="userSpaceOnUse"><stop offset="0.04" stop-color="#6b24d6"/><stop offset="0.29" stop-color="#7733dc"/><stop offset="0.79" stop-color="#975ced"/><stop offset="1" stop-color="#a56ef4"/></linearGradient><radialGradient id="b4372d8c-7960-4913-8aea-5ca41bc22667" cx="-3416.86" cy="319.99" r="9.43" gradientTransform="translate(4251.38)" xlink:href="#af109985-135f-45b2-9fea-1736547b622c"/><linearGradient id="b205277d-19c2-427a-a0df-e9d0d926c492" x1="51.63" y1="316.3" x2="110.4" y2="298.71" xlink:href="#ab32019f-a2b8-41b6-bdae-7e9538df9460"/><linearGradient id="aedbe78b-9748-4577-8493-25626788b099" x1="7.09" y1="325.71" x2="114.38" y2="301.66" xlink:href="#ab32019f-a2b8-41b6-bdae-7e9538df9460"/><radialGradient id="eb8f531f-e4aa-4a80-87ee-ae7343e30908" cx="63.1" cy="313.95" r="20.26" xlink:href="#af109985-135f-45b2-9fea-1736547b622c"/><radialGradient id="f8b6701d-6ec5-4578-a47e-e77802b11ca3" cx="43.66" cy="218.48" r="56.29" xlink:href="#b6bf27fa-7466-4ca1-b3a6-f75bc713648c"/><radialGradient id="f706b91b-6980-4733-bc01-46faf02db1ff" cx="43.66" cy="218.48" r="56.29" xlink:href="#b6bf27fa-7466-4ca1-b3a6-f75bc713648c"/><radialGradient id="a4f7b8fa-55e0-4283-94af-732c607e6486" cx="43.66" cy="218.49" r="56.3" xlink:href="#b6bf27fa-7466-4ca1-b3a6-f75bc713648c"/><radialGradient id="a724abb9-f187-47b7-9f7e-81c8a81b9eba" cx="46.73" cy="219.89" r="50.99" gradientUnits="userSpaceOnUse"><stop offset="0" stop-color="#ff63ce"/><stop offset="1" stop-color="#9f19ab"/></radialGradient><radialGradient id="e4c2a15c-39b2-4663-b677-a979e0f6bf8a" cx="46.73" cy="219.89" r="51" xlink:href="#a724abb9-f187-47b7-9f7e-81c8a81b9eba"/><radialGradient id="e247cd06-46cc-456d-b034-de48d03349bd" cx="46.73" cy="219.89" r="50.99" xlink:href="#a724abb9-f187-47b7-9f7e-81c8a81b9eba"/><radialGradient id="a246414e-955c-4f5b-adde-3c9f542aa8d8" cx="46.73" cy="219.89" r="50.99" xlink:href="#a724abb9-f187-47b7-9f7e-81c8a81b9eba"/><linearGradient id="edf70f1c-9ebe-4eb9-a12f-d04e7991be06" x1="33.52" y1="196.13" x2="55.93" y2="236.53" xlink:href="#ece91b8e-a77f-4e5a-9ce7-dca44ab8ee83"/><linearGradient id="e72b974c-a689-4016-97c7-4073132e214f" x1="-4164.92" y1="328.14" x2="-4180.01" y2="307.92" gradientTransform="translate(4251.38)" gradientUnits="userSpaceOnUse"><stop offset="0.04" stop-color="#9f19ab"/><stop offset="0.16" stop-color="#ae25b1"/><stop offset="0.41" stop-color="#d744bf"/><stop offset="0.63" stop-color="#ff63ce"/><stop offset="0.87" stop-color="#dc48c1"/></linearGradient><linearGradient id="f32cb7dd-1ba1-44f7-a182-de3eedefd9f0" x1="-4199.65" y1="325.56" x2="-4150.21" y2="314.47" gradientTransform="translate(4251.38)" gradientUnits="userSpaceOnUse"><stop offset="0.04" stop-color="#9f19ab"/><stop offset="0.24" stop-color="#ae25b1"/><stop offset="0.65" stop-color="#d744bf"/><stop offset="1" stop-color="#ff63ce"/></linearGradient><radialGradient id="a8ee3a86-86f3-43aa-b680-8cabfdad0806" cx="-4169.9" cy="318.71" r="9.43" gradientTransform="translate(4251.38)" xlink:href="#af109985-135f-45b2-9fea-1736547b622c"/></defs><g class="b0af67be-6508-44b2-9117-9aa1efe27c9d"><g id="f1440dd8-223d-4491-bd8e-d9f76fbdb49e" data-name="Layer 1"><rect class="a7cea997-3c98-4bc3-8011-2d2a20689431" width="853.44" height="360"/><path class="eb62e591-1731-4f57-8ab8-d80cd9c35c4e" d="M369.11,46.64,372,52.4l10.38,6.08c5.32,3.12,8.9,8.4,9.4,13.89l.52,5.68a11.66,11.66,0,0,0,6.07,8.79l5.8,3.26A20.09,20.09,0,0,1,413,99.92l1.58,3.92,10.17,10.53a11.63,11.63,0,0,0,10.23,3.52L472.61,111l37.67-6.89c4-.73,3.79-6-.31-7.67L441.81,69.34,373.66,42.22C370.4,40.93,367.61,43.63,369.11,46.64Z" transform="translate(0)"/><path class="edb7dfc4-bf04-47cd-a402-8d1d4932a0ee" d="M371.74,48l2.82,5.58,10,6c5.07,3,8.7,8.27,9.18,13.49l.57,5.5A11.41,11.41,0,0,0,400.21,87l5.58,3.17a19.69,19.69,0,0,1,8.5,9.48l1.57,3.81,9.88,10.26a11.46,11.46,0,0,0,9.94,3.34l31.18-5.67,5.32-1,36.51-6.63c3.81-.7,3.45-5.83-.45-7.38l-66-26.28-66-26.3C373.1,42.62,370.32,45.14,371.74,48Z" transform="translate(0)"/><path class="f366e639-bcb2-44b1-8168-ba222dfd5b4e" d="M374.37,49.37l2.76,5.4,9.7,5.86c4.82,2.82,8.49,8.12,8.95,13.09l.61,5.3a11.14,11.14,0,0,0,5.68,8.17l5.36,3.09a19.27,19.27,0,0,1,8.2,9.14l1.55,3.7,9.6,10a11.26,11.26,0,0,0,9.63,3.14l30.19-5.45,5.15-.93,35.35-6.39c3.62-.66,3.11-5.6-.59-7.07L442.66,71,378.74,45.48C375.8,44.31,373,46.65,374.37,49.37Z" transform="translate(0)"/><path class="f1de0d1b-77d0-452d-b78c-ce7250228b76" d="M377,50.73l2.7,5.23,9.35,5.74c4.57,2.68,8.3,8,8.73,12.69l.66,5.12a10.88,10.88,0,0,0,5.48,7.86l5.14,3a18.89,18.89,0,0,1,7.9,8.81l1.53,3.57,9.32,9.74a11.08,11.08,0,0,0,9.33,3l29.19-5.25,5-.89,34.19-6.14c3.43-.63,2.77-5.38-.74-6.77L443.08,71.77,381.29,47.11C378.5,46,375.72,48.16,377,50.73Z" transform="translate(0)"/><path class="a6e82bff-cf8e-405e-96f0-3d5bb3c733dd" d="M379.64,52.1l2.65,5,9,5.63c4.31,2.52,8.09,7.84,8.5,12.28l.7,4.94a10.72,10.72,0,0,0,5.29,7.55l4.92,2.9a18.43,18.43,0,0,1,7.59,8.48l1.52,3.46,9,9.48a10.87,10.87,0,0,0,9,2.76l28.2-5,4.81-.86,33-5.89c3.24-.59,2.43-5.15-.88-6.47L443.5,72.58,383.83,48.74C381.2,47.69,378.43,49.67,379.64,52.1Z" transform="translate(0)"/><path class="ae1bf436-943c-476e-849f-f0fac5fb026e" d="M382.27,53.46l2.6,4.87,8.66,5.52c4.06,2.38,7.89,7.7,8.28,11.88l.75,4.75c.25,2.67,2.48,5.78,5.09,7.25l4.7,2.81a18.08,18.08,0,0,1,7.29,8.15l1.5,3.34,8.76,9.21a10.67,10.67,0,0,0,8.72,2.57L465.83,109l4.64-.82,31.86-5.64c3.05-.56,2.1-4.94-1-6.18l-57.38-23-57.54-23C383.9,49.38,381.13,51.17,382.27,53.46Z" transform="translate(0)"/><path class="e4fb08fb-8808-47f6-81bc-1d4f3a45c4c3" d="M384.9,54.83l2.54,4.69,8.33,5.41c3.8,2.22,7.68,7.55,8,11.47l.81,4.57c.23,2.5,2.45,5.56,4.89,6.93L414,90.63a17.63,17.63,0,0,1,7,7.81l1.49,3.23,8.48,9c1.94,2,5.88,2.84,8.42,2.38l26.21-4.61,4.47-.78,30.7-5.39c2.86-.52,1.76-4.72-1.17-5.88L444.34,74.21,388.92,52C386.6,51.07,383.83,52.68,384.9,54.83Z" transform="translate(0)"/><path class="bf8181e5-10d3-4bda-9aa7-02293a68b8d2" d="M387.54,56.19,390,60.7l8,5.3c3.55,2.08,7.49,7.42,7.82,11.08l.85,4.37c.22,2.34,2.42,5.35,4.7,6.63l4.26,2.64a17.34,17.34,0,0,1,6.68,7.47l1.47,3.11L432,110c1.81,1.87,5.75,2.62,8.12,2.19l25.22-4.39,4.29-.75,29.54-5.14c2.67-.49,1.42-4.49-1.31-5.58L444.76,75,391.47,53.63C389.29,52.76,386.54,54.19,387.54,56.19Z" transform="translate(0)"/><path class="ad97e86e-6cba-4736-8199-5ada90cb4fae" d="M390.17,57.56l2.43,4.33,7.64,5.19c3.3,1.93,7.28,7.27,7.59,10.67l.9,4.19c.2,2.17,2.38,5.13,4.51,6.32l4,2.55A16.87,16.87,0,0,1,423.64,98l1.46,3,7.92,8.42c1.68,1.74,5.61,2.41,7.82,2l24.22-4.17,4.12-.71,28.38-4.89c2.48-.46,1.08-4.28-1.46-5.29L445.18,75.83,394,55.26C392,54.45,389.24,55.7,390.17,57.56Z" transform="translate(0)"/><path class="b7751448-85e7-476c-8c1b-014b2ab62876" d="M392.8,58.92l2.37,4.15,7.3,5.08c3,1.78,7.08,7.13,7.37,10.27l1,4c.18,2,2.35,4.91,4.31,6l3.82,2.45A16.72,16.72,0,0,1,425,97.7l1.44,2.88,7.64,8.16c1.55,1.6,5.48,2.18,7.51,1.81l23.23-4,3.95-.67L496,101.27c2.29-.42.74-4.06-1.6-5L445.6,76.64l-49-19.76C394.69,56.14,392,57.2,392.8,58.92Z" transform="translate(0)"/><path class="f3d71af4-3da6-4a9e-ad88-018e7ced2d45" d="M395.43,60.29l2.32,4,7,5c2.79,1.64,6.88,7,7.14,9.87l1,3.82c.17,1.84,2.32,4.69,4.12,5.7l3.6,2.37a16.37,16.37,0,0,1,5.75,6.47l1.43,2.77,7.36,7.89c1.42,1.47,5.35,2,7.21,1.62L464.55,106l3.78-.64L494.38,101c2.1-.38.4-3.83-1.74-4.69L446,77.45,399.1,58.51C397.39,57.84,394.65,58.71,395.43,60.29Z" transform="translate(0)"/><path class="fd4b5a20-0fc2-4e0b-b20f-5526d0f8a03f" d="M398.07,61.65l2.26,3.79L407,70.3c2.53,1.48,6.67,6.85,6.91,9.46l1,3.64c.15,1.67,2.29,4.47,3.92,5.39l3.38,2.28a16.19,16.19,0,0,1,5.45,6.14l1.41,2.64,7.08,7.64c1.29,1.34,5.21,1.73,6.91,1.42l21.24-3.53,3.61-.6,24.89-4.15c1.91-.34.06-3.61-1.89-4.39l-44.46-18-44.8-18.12C400.09,59.53,397.35,60.22,398.07,61.65Z" transform="translate(0)"/><path class="b4b85877-1819-4583-931d-86b7d79fb52a" d="M400.7,63l2.21,3.62,6.27,4.74c2.28,1.34,6.47,6.71,6.69,9.07L417,83.88c.14,1.5,2.26,4.26,3.73,5.09l3.16,2.19A15.93,15.93,0,0,1,429,97l1.4,2.53,6.8,7.37c1.16,1.21,5.08,1.52,6.6,1.24L464,104.77l3.44-.56,23.74-3.89c1.71-.32-.28-3.4-2-4.1L446.86,79.08,404.19,61.77C402.79,61.22,400.06,61.73,400.7,63Z" transform="translate(0)"/><path class="a6a8ab20-5b68-4968-9af6-576048a30c61" d="M403.33,64.38l2.15,3.43,5.94,4.64c2,1.19,6.26,6.57,6.45,8.66L419,84.37c.12,1.34,2.23,4,3.53,4.78l2.94,2.1a15.82,15.82,0,0,1,4.84,5.47l1.38,2.41,6.52,7.11c1,1.07,4.94,1.29,6.3,1l19.25-3.11,3.27-.53L489.62,100c1.52-.28-.62-3.17-2.18-3.79L447.28,79.89,406.73,63.4C405.49,62.91,402.76,63.23,403.33,64.38Z" transform="translate(0)"/><path class="a0a07e6c-6231-4232-ac25-665a665bfdd1" d="M406,65.74l2.1,3.26,5.59,4.52c1.78,1,6.07,6.43,6.23,8.26l1.19,3.08c.1,1.16,2.19,3.82,3.33,4.46l2.72,2a16.09,16.09,0,0,1,4.53,5.14l1.37,2.3,6.24,6.84c.9.94,4.81,1.07,6,.85l18.26-2.89,3.09-.49L488,99.68c1.33-.24-1-3-2.33-3.49l-38-15.49L409.28,65C408.19,64.6,405.46,64.74,406,65.74Z" transform="translate(0)"/><path class="bc8bcda0-5b71-4787-9319-b6ac717823d2" d="M408.6,67.11l2,3.08,5.25,4.41c1.52.89,5.86,6.28,6,7.85l1.23,2.89c.1,1,2.16,3.61,3.14,4.16l2.5,1.92a16.39,16.39,0,0,1,4.23,4.8l1.35,2.18,6,6.58c.77.81,4.68.85,5.69.67L463.26,103l2.93-.46,20.25-3.14c1.14-.21-1.3-2.74-2.47-3.2L448.12,81.51l-36.3-14.85C410.89,66.29,408.17,66.25,408.6,67.11Z" transform="translate(0)"/><path class="a2777960-6b66-4603-922d-f14489025915" d="M411.23,68.47l2,2.9,4.91,4.3c1.27.74,5.66,6.15,5.78,7.46l1.28,2.7c.08.83,2.13,3.39,2.94,3.85l2.28,1.83A16.66,16.66,0,0,1,434.32,96L435.66,98l5.68,6.32c.64.67,4.54.63,5.39.47L463,102.36l2.76-.42,19.09-2.89c.95-.18-1.64-2.51-2.61-2.9l-33.7-13.83-34.17-14C413.59,68,410.87,67.76,411.23,68.47Z" transform="translate(0)"/><path class="a1d061f2-ac3d-4b32-a2e6-5d88e43efb91" d="M413.86,69.84l1.93,2.72,4.57,4.19c1,.59,5.45,6,5.55,7l1.33,2.52A10.39,10.39,0,0,0,430,89.86L432,91.6a17.74,17.74,0,0,1,3.62,4.13l1.32,2,5.4,6c.51.54,4.41.41,5.09.28l15.28-2.25,2.58-.38,17.93-2.65c.76-.14-2-2.29-2.76-2.6L449,83.13l-32-13.21C416.29,69.67,413.58,69.26,413.86,69.84Z" transform="translate(0)"/><path class="a4501739-a034-42a4-bddd-c5a4cb5a499d" d="M416.49,71.2l1.88,2.54,4.22,4.08c.76.45,5.26,5.86,5.33,6.65l1.37,2.33A11.7,11.7,0,0,0,431.85,90l1.84,1.66a20.09,20.09,0,0,1,3.3,3.79l1.31,1.84,5.12,5.79c.38.4,4.28.18,4.78.09l14.29-2,2.41-.35,16.77-2.4c.57-.1-2.32-2.07-2.9-2.3L449.38,83.94,419.46,71.55C419,71.36,416.28,70.77,416.49,71.2Z" transform="translate(0)"/><path class="eaad28e7-d113-498c-a9e3-9d46305a4887" d="M419.12,72.57,421,74.93l3.88,4c.5.29,5.05,5.72,5.1,6.24l1.42,2.15a14.4,14.4,0,0,0,2.36,2.92l1.62,1.56a25.92,25.92,0,0,1,3,3.47L439.62,97l4.83,5.53c.26.27,4.15,0,4.49-.1l13.29-1.83,2.24-.31,15.61-2.14c.38-.07-2.66-1.85-3.05-2L449.8,84.76,422,73.18C421.69,73.05,419,72.28,419.12,72.57Z" transform="translate(0)"/><path class="f42031a8-22ce-4bd6-b153-23ce1f4075b9" d="M421.76,73.93l1.76,2.18L427.06,80c.26.15,4.85,5.58,4.88,5.84l1.47,2a23.91,23.91,0,0,0,2.16,2.61l1.4,1.47A39.69,39.69,0,0,1,439.66,95l1.28,1.6,4.55,5.27a37.51,37.51,0,0,0,4.19-.29L462,100l2.07-.27,14.45-1.9a29.17,29.17,0,0,0-3.19-1.71l-25.08-10.5L424.54,74.8A22.51,22.51,0,0,0,421.76,73.93Z" transform="translate(0)"/><polygon class="e40e542e-c679-4dd6-9f69-e24c7eb506c0" points="424.39 75.29 435.46 88.26 441 94.75 446.54 101.23 461.72 99.35 476.9 97.46 450.65 86.38 424.39 75.29"/><path class="bbc56caf-88bf-41e3-a510-e572de1ef527" d="M598.9,111.09c-3.52,53.18-68.35,92.19-144.8,87.12s-135.56-52.29-132-105.47S390.42.54,466.87,5.61,602.43,57.91,598.9,111.09Z" transform="translate(0)"/><polygon class="e14cade0-d718-46e0-83c4-c2b16bb8432c" points="410.94 54.25 270.14 15.54 301.11 125.73 501.87 98.42 410.94 54.25"/><polygon class="e8b0c348-bfc7-4342-bbea-7b924bea5746" points="545.36 92.5 276.4 56.62 290.07 42.98 276.67 16.72 545.36 92.5"/><polygon class="b132b473-8959-4aa0-945f-f9350ec98ac1" points="545.36 92.5 320.8 103.53 328.15 151.39 358.02 171.61 545.36 92.5"/><polygon class="ab55f108-1e9e-4376-abe1-a52b6980dea6" points="545.36 92.5 392.3 71.82 380.26 114.91 545.36 92.5"/><polygon class="baa28300-2177-44d9-ae3e-2bee91acfa0a" points="545.36 92.5 392.3 71.82 380.26 114.91 545.36 92.5"/><polygon class="b7f0c983-632a-4bc9-a966-0f801b387977" points="545.36 92.5 392.3 71.82 371.88 60.53 367.23 42.35 545.36 92.5"/><polygon class="f47aaca7-5b4e-4443-bf60-b1fb4da7542a" points="545.36 92.5 406.21 99.18 380.26 114.91 545.36 92.5"/><polygon class="a3861ae0-61be-44ed-9283-ebe5b850306f" points="545.36 92.5 406.21 99.18 380.26 114.91 545.36 92.5"/><polygon class="b2d9b1ee-e31d-4c8d-afa3-04265026e080" points="545.36 92.5 406.21 99.18 410.49 125.1 424.42 143.51 545.36 92.5"/><polygon class="bc372e3a-4ce8-41e4-938e-453d2d946175" points="424.42 143.51 410.49 125.1 406.21 99.18 380.26 114.91 392.3 71.82 371.88 60.53 367.23 42.35 372.52 60.49 392.72 71.91 381.33 113.48 406.21 99.18 411 124.44 424.42 143.51"/><path class="a7e8741c-2dfe-440d-8316-f9b7762191d1" d="M830.37,318.78l-25.62-26.63c-1.57-1.64-3.36-1.8-4-.36l-6.1,13.83c-.63,1.44.13,3.93,1.7,5.56L822,337.82c1.57,1.63,3.36,1.79,4,.35l6.1-13.82C832.69,322.91,831.94,320.42,830.37,318.78Z" transform="translate(0)"/><path class="aec4917b-9ca4-4763-a9eb-6f3e413e0ba5" d="M829.62,319,804,292.4c-1.58-1.64-3.36-1.8-4-.36l-6.09,13.83c-.64,1.44.13,3.93,1.7,5.56l25.6,26.64c1.58,1.63,3.37,1.79,4,.35l6.09-13.82C832,323.16,831.19,320.67,829.62,319Z" transform="translate(0)"/><path class="a7ff666d-7c0c-44d1-b958-0f355573ab96" d="M829.62,319,804,292.4c-1.16-1.2-2.42-1.6-3.26-1.17a3.88,3.88,0,0,1,2.43,1.33l25.61,26.64c1.57,1.63,2.33,4.12,1.7,5.56l-6.1,13.83a1.61,1.61,0,0,1-.74.8,1.55,1.55,0,0,0,1.57-1l6.09-13.82C832,323.16,831.19,320.67,829.62,319Z" transform="translate(0)"/><path class="ab0d3754-f149-40f5-a86c-7d723841c004" d="M802.06,291.15h0l8.67,28.46,20.43,1.83s0-.06,0-.08l-19.54-3.7Z" transform="translate(0)"/><g class="bb67285a-cd46-4bea-99b6-32ecac31a1d5"><path class="e38393fe-750f-4ce0-87f2-33e1eb110b59" d="M816.48,320.12l6.79,19h.06l-5.77-18.88Z" transform="translate(0)"/><path class="e38393fe-750f-4ce0-87f2-33e1eb110b59" d="M807.77,310l-13.56-1.21,0,.08,14,2.64Z" transform="translate(0)"/></g><path class="e5e8068a-c3cf-4697-acd3-79bb17adb43f" d="M803.24,297.21a2.64,2.64,0,0,1-1.72-1.92c-.26-1,.1-1.63.79-1.52a2.63,2.63,0,0,1,1.73,1.92C804.3,296.63,803.94,297.32,803.24,297.21Z" transform="translate(0)"/><path class="e8c33d6e-f4c2-44fc-b9a4-e2234cd56a73" d="M803,296.23a.57.57,0,0,1-.47-.25l-26.48-39.13.94-.63,26,38.43,26-38.43,1,.63L803.48,296A.55.55,0,0,1,803,296.23Z" transform="translate(0)"/><path class="e8c33d6e-f4c2-44fc-b9a4-e2234cd56a73" d="M803,296.23a.58.58,0,0,1-.54-.39l-12.91-39.13,1.08-.35L803,293.84l12.38-37.48,1.08.35-12.91,39.13A.58.58,0,0,1,803,296.23Z" transform="translate(0)"/><path class="e6586463-bc29-4acc-bbcc-587660ec62f6" d="M837.11,244.77a25.46,25.46,0,0,0-.37-4.3,43,43,0,0,0-.81-4.81,35.24,35.24,0,0,0-6.09-12.44c-10.05-11.3-26.94-7.94-26.94-7.94S786,211.92,776,223.21a35.23,35.23,0,0,0-6.1,12.47,40.81,40.81,0,0,0-.81,4.79,25.55,25.55,0,0,0-.37,4.3c0,3.9.86,8.06,6.32,10.48,6.2,4.6,16.38,7.61,27.89,7.61s21.69-3,27.89-7.61C836,253.22,837.11,248.7,837.11,244.77Z" transform="translate(0)"/><path class="aa907fec-4a00-4355-9fdb-2bf5cc4c6d8b" d="M792,261.92c4.65,4.08,17,4.28,21.74,0-.15-25.87-5-46.64-10.87-46.64S792.18,236.05,792,261.92Z" transform="translate(0)"/><path class="af0a363a-8df4-4a59-a7ca-36113fa5e7db" d="M809.16,210.38a33,33,0,0,0-12.53,0,41.33,41.33,0,0,1,6.27,4.9A41.53,41.53,0,0,1,809.16,210.38Z" transform="translate(0)"/><path class="bd8b79cc-1073-4bc0-b757-7fc426e42d95" d="M802.9,215.28c-15.13,0-27.43,17.79-27.87,40,0,6.43,12.4,9,17,6.67C792.18,236.05,797,215.28,802.9,215.28Z" transform="translate(0)"/><path class="bc2360dd-6f39-41c5-9f0f-07e92b7eb003" d="M802.9,215.28c5.91,0,10.72,20.77,10.87,46.64,3.94,2.31,16.52-.24,17-6.67C830.34,233.07,818,215.28,802.9,215.28Z" transform="translate(0)"/><path class="bd1fd53e-2ddb-4781-b2b5-14117529258b" d="M776,223.21c10-11.29,26.93-7.93,26.93-7.93a41.33,41.33,0,0,0-6.27-4.9A34.09,34.09,0,0,0,776,223.21Z" transform="translate(0)"/><path class="bd276058-ce75-4060-ac7b-25c5b0e4991d" d="M829.84,223.22a34,34,0,0,0-20.68-12.84,41.53,41.53,0,0,0-6.26,4.9S819.79,211.92,829.84,223.22Z" transform="translate(0)"/><path class="fb7a69cc-baa9-42b8-b829-50e08500e465" d="M827.05,227.33c0,9-10.7,16.36-23.89,16.36s-23.89-7.33-23.89-16.36S790,211,803.16,211,827.05,218.29,827.05,227.33Z" transform="translate(0)"/><path class="a6ebd85c-ecac-4403-9761-394e5e212c9d" d="M840.55,324.76c0,2.7-.94,4.61-2.46,5.54l-2.63,1.63c-1.58.88-.57-1.12-3-2.5-4.82-2.78-8.72-9.53-8.72-15.06,0-2.73-2.54-2.76-1-3.67l2.93-1.67c1.58-.86,3.73-.7,6.09.67C836.63,312.48,840.55,319.22,840.55,324.76Z" transform="translate(0)"/><path class="eda6a832-3e1a-46cf-8f96-e9128e84d87e" d="M837.69,326.46c0,5.53-3.91,7.76-8.73,5s-8.73-9.52-8.73-15.05,3.91-7.76,8.73-5S837.69,320.92,837.69,326.46Z" transform="translate(0)"/><path class="f78a42e2-7d73-42b6-b51f-8b76b306db16" d="M829.38,311.19c-2.32-1.33-4.41-1.51-6-.73a6.83,6.83,0,0,1,5.21,1c4.82,2.79,8.73,9.53,8.73,15.06,0,2.88-1.06,4.86-2.76,5.71,2.14-.6,3.52-2.71,3.52-6C838.11,320.71,834.2,314,829.38,311.19Z" transform="translate(0)"/><path class="bc372e3a-4ce8-41e4-938e-453d2d946175" d="M828.58,327a.6.6,0,0,1-.1-.32v-8.18l-2.08.64a.28.28,0,0,1-.21,0,.67.67,0,0,1-.26-.31l-.6-1.23a.74.74,0,0,1-.06-.27c0-.12,0-.2.15-.22l3.09-1a.63.63,0,0,1,.35.09l1.24.72a.66.66,0,0,1,.23.24.65.65,0,0,1,.1.33v10.33c0,.11,0,.18-.1.21a.22.22,0,0,1-.23,0l-1.29-.74A.62.62,0,0,1,828.58,327Z" transform="translate(0)"/><path class="be54876a-c385-4802-b970-f0ae96ad1715" d="M77.32,317.5,51.71,290.87c-1.57-1.64-3.36-1.8-4-.36l-6.1,13.83c-.63,1.43.13,3.92,1.7,5.56l25.61,26.64c1.57,1.63,3.36,1.79,4,.35L79,323.07C79.65,321.63,78.89,319.14,77.32,317.5Z" transform="translate(0)"/><path class="bd600c0f-eb35-438c-a3a1-3284ea553805" d="M76.57,317.75,51,291.11c-1.57-1.63-3.36-1.79-4-.35l-6.1,13.83c-.63,1.43.13,3.92,1.7,5.56l25.61,26.64c1.57,1.63,3.36,1.79,4,.35l6.1-13.83C78.9,321.88,78.14,319.39,76.57,317.75Z" transform="translate(0)"/><path class="a8a29110-8e05-40a9-b2b6-4141d1b5d580" d="M76.57,317.75,51,291.11c-1.15-1.19-2.41-1.59-3.26-1.16a3.85,3.85,0,0,1,2.43,1.33l25.61,26.64c1.58,1.63,2.34,4.12,1.7,5.56l-6.09,13.83a1.66,1.66,0,0,1-.74.8,1.52,1.52,0,0,0,1.56-1l6.1-13.83C78.9,321.88,78.14,319.39,76.57,317.75Z" transform="translate(0)"/><path class="ab0d3754-f149-40f5-a86c-7d723841c004" d="M49,289.87h0l8.68,28.46,20.44,1.83,0-.08-19.54-3.7Z" transform="translate(0)"/><g class="bb67285a-cd46-4bea-99b6-32ecac31a1d5"><path class="e38393fe-750f-4ce0-87f2-33e1eb110b59" d="M63.43,318.84l6.8,19h0l-5.76-18.89Z" transform="translate(0)"/><path class="e38393fe-750f-4ce0-87f2-33e1eb110b59" d="M54.72,308.75l-13.56-1.22,0,.08,14,2.65Z" transform="translate(0)"/></g><path class="e5e8068a-c3cf-4697-acd3-79bb17adb43f" d="M50.2,295.93A2.65,2.65,0,0,1,48.47,294c-.25-.95.1-1.63.8-1.52A2.65,2.65,0,0,1,51,294.41C51.25,295.35,50.9,296,50.2,295.93Z" transform="translate(0)"/><path class="e8c33d6e-f4c2-44fc-b9a4-e2234cd56a73" d="M50,295a.56.56,0,0,1-.47-.25L23,255.57l.94-.64,26,38.44,26-38.44.94.64L50.44,294.7A.55.55,0,0,1,50,295Z" transform="translate(0)"/><path class="e8c33d6e-f4c2-44fc-b9a4-e2234cd56a73" d="M50,295a.57.57,0,0,1-.54-.39L36.51,255.43l1.08-.35L50,292.57l12.37-37.49,1.08.35L50.51,294.56A.56.56,0,0,1,50,295Z" transform="translate(0)"/><path class="e6c00dda-09e5-48f4-aa36-445987373aa3" d="M84.06,243.49a26.76,26.76,0,0,0-.36-4.31,43.14,43.14,0,0,0-.82-4.8,35,35,0,0,0-6.09-12.45c-10-11.29-26.93-7.93-26.93-7.93S33,210.64,22.93,221.93a35.08,35.08,0,0,0-6.11,12.47,43.07,43.07,0,0,0-.8,4.79,25.46,25.46,0,0,0-.37,4.3c0,3.91.85,8,6.32,10.48,6.2,4.6,16.38,7.61,27.89,7.61s21.68-3,27.88-7.61C83,251.94,84.06,247.42,84.06,243.49Z" transform="translate(0)"/><path class="e530910d-11a6-4e08-b609-c03f639f70fd" d="M39,260.64c4.64,4.08,17,4.28,21.74,0-.15-25.87-5-46.64-10.87-46.64S39.14,234.77,39,260.64Z" transform="translate(0)"/><path class="f41fcb32-aa33-4d33-afd1-35155af03282" d="M56.12,209.09a33.56,33.56,0,0,0-12.53,0A41.73,41.73,0,0,1,49.86,214,41.3,41.3,0,0,1,56.12,209.09Z" transform="translate(0)"/><path class="a38c7e7d-b257-472d-8473-0bc9da57bef5" d="M49.86,214C34.73,214,22.42,231.79,22,254c0,6.43,12.4,9,17,6.67C39.14,234.77,44,214,49.86,214Z" transform="translate(0)"/><path class="a9bbc753-3850-49a1-9ebb-7d0478b4aa9a" d="M49.86,214c5.91,0,10.72,20.77,10.87,46.64,3.94,2.31,16.52-.24,17-6.67C77.29,231.79,65,214,49.86,214Z" transform="translate(0)"/><path class="e6e1252a-a3ee-4282-bdc5-52fc5b20f887" d="M22.93,221.93C33,210.64,49.86,214,49.86,214a41.73,41.73,0,0,0-6.27-4.91A34.09,34.09,0,0,0,22.93,221.93Z" transform="translate(0)"/><path class="ea775a3f-7c3c-4b48-9a7d-f5903eb9f5b7" d="M76.79,221.93a34.11,34.11,0,0,0-20.67-12.84A41.3,41.3,0,0,0,49.86,214S66.75,210.64,76.79,221.93Z" transform="translate(0)"/><path class="b8c280e9-7f2e-4a28-af52-a5a3cc085fce" d="M74,226c0,9-10.69,16.37-23.88,16.37S26.23,235.08,26.23,226s10.7-16.36,23.89-16.36S74,217,74,226Z" transform="translate(0)"/><path class="f13c5080-c273-46a9-bf93-320d90dfb73a" d="M87.5,323.47c0,2.71-.93,4.62-2.45,5.55l-2.63,1.63c-1.58.88-.57-1.12-3-2.5-4.82-2.79-8.73-9.53-8.73-15.06,0-2.74-2.53-2.76-1-3.67l2.94-1.68c1.57-.85,3.72-.69,6.09.68C83.59,311.2,87.5,317.94,87.5,323.47Z" transform="translate(0)"/><path class="bed542da-1eb4-4107-85ca-f877e593f725" d="M84.65,325.18c0,5.53-3.92,7.76-8.74,5s-8.72-9.52-8.72-15,3.9-7.76,8.72-5S84.65,319.64,84.65,325.18Z" transform="translate(0)"/><path class="bf6c2728-a585-41bd-bef0-e6d9737df86b" d="M76.33,309.91c-2.31-1.33-4.41-1.51-6-.73a6.86,6.86,0,0,1,5.22,1c4.82,2.79,8.73,9.53,8.73,15.06,0,2.88-1.06,4.86-2.76,5.71,2.13-.59,3.51-2.71,3.51-6C85.06,319.44,81.15,312.69,76.33,309.91Z" transform="translate(0)"/><path class="bc372e3a-4ce8-41e4-938e-453d2d946175" d="M72.6,323.61a.68.68,0,0,1-.09-.32v-.83a.49.49,0,0,1,.34-.54L75,320.71a15,15,0,0,0,1.51-.58,2.31,2.31,0,0,0,.79-.58,1.24,1.24,0,0,0,.26-.78,2.82,2.82,0,0,0-.34-1.38,2.74,2.74,0,0,0-1-1c-.46-.27-.82-.32-1.09-.16a1.2,1.2,0,0,0-.48.93c0,.11-.08.17-.16.19a.43.43,0,0,1-.26-.06L73,316.54a.64.64,0,0,1-.21-.22.6.6,0,0,1-.08-.28,2.53,2.53,0,0,1,.45-1.49,1.53,1.53,0,0,1,1.21-.62,3.45,3.45,0,0,1,1.85.57A7.41,7.41,0,0,1,78,316a6.39,6.39,0,0,1,1.16,1.86,5.31,5.31,0,0,1,.39,2,2.29,2.29,0,0,1-.52,1.62,3.66,3.66,0,0,1-1.61.92l-1.92,1.12,3.91,2.26a.75.75,0,0,1,.25.25.77.77,0,0,1,.1.34v1.15a.23.23,0,0,1-.1.22.27.27,0,0,1-.25,0l-6.61-3.82A.64.64,0,0,1,72.6,323.61Z" transform="translate(0)"/></g></g></svg>