<svg width="27" height="19" viewBox="0 0 27 19" fill="none" xmlns="http://www.w3.org/2000/svg">
<path d="M8.7 18.575L0.275 10.175C0.175 10.075 0.104333 9.96667 0.0629997 9.85C0.0209997 9.73333 0 9.60833 0 9.475C0 9.34167 0.0209997 9.21667 0.0629997 9.1C0.104333 8.98333 0.175 8.875 0.275 8.775L8.7 0.35C8.93333 0.116667 9.225 0 9.575 0C9.925 0 10.225 0.125 10.475 0.375C10.725 0.625 10.85 0.916667 10.85 1.25C10.85 1.58333 10.725 1.875 10.475 2.125L3.125 9.475L10.475 16.825C10.7083 17.0583 10.825 17.3457 10.825 17.687C10.825 18.029 10.7 18.325 10.45 18.575C10.2 18.825 9.90833 18.95 9.575 18.95C9.24167 18.95 8.95 18.825 8.7 18.575Z" fill="#1C4017"/>
<path d="M16.7 18.575L8.275 10.175C8.175 10.075 8.10433 9.96667 8.063 9.85C8.021 9.73333 8 9.60833 8 9.475C8 9.34167 8.021 9.21667 8.063 9.1C8.10433 8.98333 8.175 8.875 8.275 8.775L16.7 0.35C16.9333 0.116667 17.225 0 17.575 0C17.925 0 18.225 0.125 18.475 0.375C18.725 0.625 18.85 0.916667 18.85 1.25C18.85 1.58333 18.725 1.875 18.475 2.125L11.125 9.475L18.475 16.825C18.7083 17.0583 18.825 17.3457 18.825 17.687C18.825 18.029 18.7 18.325 18.45 18.575C18.2 18.825 17.9083 18.95 17.575 18.95C17.2417 18.95 16.95 18.825 16.7 18.575Z" fill="#1C4017"/>
<path d="M24.7 18.575L16.275 10.175C16.175 10.075 16.1043 9.96667 16.063 9.85C16.021 9.73333 16 9.60833 16 9.475C16 9.34167 16.021 9.21667 16.063 9.1C16.1043 8.98333 16.175 8.875 16.275 8.775L24.7 0.35C24.9333 0.116667 25.225 0 25.575 0C25.925 0 26.225 0.125 26.475 0.375C26.725 0.625 26.85 0.916667 26.85 1.25C26.85 1.58333 26.725 1.875 26.475 2.125L19.125 9.475L26.475 16.825C26.7083 17.0583 26.825 17.3457 26.825 17.687C26.825 18.029 26.7 18.325 26.45 18.575C26.2 18.825 25.9083 18.95 25.575 18.95C25.2417 18.95 24.95 18.825 24.7 18.575Z" fill="#1C4017"/>
</svg>
