<svg xmlns="http://www.w3.org/2000/svg" viewBox="0 0 704.07 365.09"><defs><style>.a065d377-b191-4d69-b5d1-91375671677d,.a33636ee-efa2-42d2-a04e-353e3a4d0ce3,.bb8ad8b8-63f3-48cb-9302-ab34d9e407bf,.bdc75539-0264-46b0-aa5d-5d328ad7c354{fill:none;stroke:#1a1a1a;}.a065d377-b191-4d69-b5d1-91375671677d,.bb8ad8b8-63f3-48cb-9302-ab34d9e407bf,.bdc75539-0264-46b0-aa5d-5d328ad7c354{stroke-miterlimit:10;}.bdc75539-0264-46b0-aa5d-5d328ad7c354{stroke-width:1.08px;}.b5baa54c-2ee9-4e32-a86a-ae531b3065fb{fill:#fcf6f0;}.bc5358bf-9bba-47ab-be9d-865b74bbef76{fill:#c4c3bd;}.beda2f81-5a16-4756-9a75-3a78f73bf86a{fill:#ffc725;}.bb8ad8b8-63f3-48cb-9302-ab34d9e407bf{stroke-width:2px;}.af5b983f-daa5-4a4a-96e3-30dc91587b89{fill:#008e6c;}.ba4a6de5-032f-46a3-a734-c4bda0768622{fill:#1a1a1a;}.bd329d60-f2de-43e8-8c3f-db024d321a1e{fill:#f6444e;}.a33636ee-efa2-42d2-a04e-353e3a4d0ce3{stroke-linecap:round;stroke-linejoin:round;}.eeb6afdd-3bf5-4f7d-a287-4fa62fd45419{fill:#fc9ea6;}</style></defs><g id="a81a3674-a720-4010-afef-a37acb906193" data-name="OBJECTS"><rect class="bdc75539-0264-46b0-aa5d-5d328ad7c354" x="51.99" y="98.51" width="90.91" height="69.33" transform="translate(206.33 -32.23) rotate(90)"/><path class="bdc75539-0264-46b0-aa5d-5d328ad7c354" d="M147.56,184.14a4.61,4.61,0,0,0-3.45-7.64V89.68A4.61,4.61,0,0,0,147.56,82a7.22,7.22,0,1,0-9.81-9.8,4.55,4.55,0,0,0-3-1.14,4.62,4.62,0,0,0-4.63,4.62H64.74a4.62,4.62,0,0,0-4.63-4.62,4.55,4.55,0,0,0-3,1.14A7.22,7.22,0,1,0,47.29,82a4.61,4.61,0,0,0,3.49,7.64V176.5a4.61,4.61,0,0,0-3.49,7.64A7.22,7.22,0,1,0,57.1,194a4.59,4.59,0,0,0,7.62-3.32h65.41a4.59,4.59,0,0,0,7.62,3.32,7.22,7.22,0,1,0,9.81-9.81Z" transform="translate(-24.29 -67.96)"/><rect class="bdc75539-0264-46b0-aa5d-5d328ad7c354" x="85.85" y="176.97" width="269.93" height="115.05"/><rect class="bdc75539-0264-46b0-aa5d-5d328ad7c354" x="199.59" y="181.5" width="91.05" height="241.92" transform="translate(523.28 -10.62) rotate(90)"/><rect class="bdc75539-0264-46b0-aa5d-5d328ad7c354" x="139.11" y="241.98" width="91.05" height="120.96" transform="translate(462.8 49.86) rotate(90)"/><path class="bdc75539-0264-46b0-aa5d-5d328ad7c354" d="M141.88,189H180a0,0,0,0,1,0,0v6.75a4.32,4.32,0,0,1-4.32,4.32H146.2a4.32,4.32,0,0,1-4.32-4.32V189A0,0,0,0,1,141.88,189Z"/><path class="bdc75539-0264-46b0-aa5d-5d328ad7c354" d="M269.24,189h38.13a0,0,0,0,1,0,0v6.75A4.32,4.32,0,0,1,303,200H273.56a4.32,4.32,0,0,1-4.32-4.32V189A0,0,0,0,1,269.24,189Z"/><polygon class="bdc75539-0264-46b0-aa5d-5d328ad7c354" points="110.85 364.1 98.85 364.1 118.85 292.02 140.85 292.02 110.85 364.1"/><polygon class="bdc75539-0264-46b0-aa5d-5d328ad7c354" points="330.79 364.1 342.79 364.1 322.79 292.02 300.79 292.02 330.79 364.1"/><rect class="b5baa54c-2ee9-4e32-a86a-ae531b3065fb" x="245.69" y="271.4" width="176" height="92.69"/><rect class="bc5358bf-9bba-47ab-be9d-865b74bbef76" x="328.79" y="271.4" width="92.9" height="92.69"/><rect class="beda2f81-5a16-4756-9a75-3a78f73bf86a" x="272.19" y="271.4" width="19" height="46.35"/><line class="bb8ad8b8-63f3-48cb-9302-ab34d9e407bf" x1="395.69" y1="338.59" x2="415.69" y2="338.59"/><line class="bb8ad8b8-63f3-48cb-9302-ab34d9e407bf" x1="395.69" y1="345.09" x2="415.69" y2="345.09"/><line class="bb8ad8b8-63f3-48cb-9302-ab34d9e407bf" x1="395.69" y1="351.59" x2="408.69" y2="351.59"/><polygon class="af5b983f-daa5-4a4a-96e3-30dc91587b89" points="589.07 109.59 480.57 109.59 510.57 39.36 559.07 39.36 589.07 109.59"/><polygon class="ba4a6de5-032f-46a3-a734-c4bda0768622" points="559.07 39.36 544.07 39.36 557.07 109.59 589.07 109.59 559.07 39.36"/><polygon class="bc5358bf-9bba-47ab-be9d-865b74bbef76" points="537.82 352.52 537.82 109.59 531.82 109.59 531.82 352.52 500.82 352.52 500.82 363.28 568.82 363.28 568.82 352.52 537.82 352.52"/><rect class="ba4a6de5-032f-46a3-a734-c4bda0768622" x="531.82" y="109.59" width="6" height="9.93"/><rect class="b5baa54c-2ee9-4e32-a86a-ae531b3065fb" x="554.57" y="264.24" width="131.5" height="99.86"/><rect class="bc5358bf-9bba-47ab-be9d-865b74bbef76" x="635.59" y="264.24" width="50.47" height="99.86"/><line class="a065d377-b191-4d69-b5d1-91375671677d" x1="554.57" y1="279.76" x2="686.07" y2="279.76"/><path class="ba4a6de5-032f-46a3-a734-c4bda0768622" d="M629.93,370.39H607.32a5.72,5.72,0,0,1-5.7-5.7h0a5.71,5.71,0,0,1,5.7-5.69h22.61a5.71,5.71,0,0,1,5.69,5.69h0A5.71,5.71,0,0,1,629.93,370.39Z" transform="translate(-24.29 -67.96)"/><polygon class="ba4a6de5-032f-46a3-a734-c4bda0768622" points="574.07 264.24 635.59 275.1 686.07 275.1 686.07 264.24 574.07 264.24"/><rect class="beda2f81-5a16-4756-9a75-3a78f73bf86a" x="571.45" y="312.43" width="45.75" height="10.64"/><rect class="b5baa54c-2ee9-4e32-a86a-ae531b3065fb" x="572.57" y="164.38" width="131.5" height="99.86"/><rect class="bc5358bf-9bba-47ab-be9d-865b74bbef76" x="653.59" y="164.38" width="50.47" height="99.86"/><line class="a065d377-b191-4d69-b5d1-91375671677d" x1="572.57" y1="179.9" x2="704.07" y2="179.9"/><path class="ba4a6de5-032f-46a3-a734-c4bda0768622" d="M647.93,270.53H625.32a5.71,5.71,0,0,1-5.7-5.69h0a5.72,5.72,0,0,1,5.7-5.7h22.61a5.71,5.71,0,0,1,5.69,5.7h0A5.71,5.71,0,0,1,647.93,270.53Z" transform="translate(-24.29 -67.96)"/><rect class="beda2f81-5a16-4756-9a75-3a78f73bf86a" x="589.57" y="210.45" width="45.75" height="10.64"/><line class="bb8ad8b8-63f3-48cb-9302-ab34d9e407bf" x1="6.07" y1="364.09" x2="704.07" y2="364.09"/><polygon class="bd329d60-f2de-43e8-8c3f-db024d321a1e" points="671.32 127.43 669.73 127.43 634.59 127.43 633.07 127.43 633.07 136.59 635.34 136.59 637.59 164.38 666.73 164.38 668.99 136.59 671.32 136.59 671.32 127.43"/><line class="a065d377-b191-4d69-b5d1-91375671677d" x1="635.34" y1="136.59" x2="668.99" y2="136.59"/><circle class="af5b983f-daa5-4a4a-96e3-30dc91587b89" cx="652.16" cy="104.09" r="16.83"/><line class="a065d377-b191-4d69-b5d1-91375671677d" x1="652.16" y1="127.43" x2="652.16" y2="104.09"/><line class="a065d377-b191-4d69-b5d1-91375671677d" x1="645.32" y1="109.59" x2="652.16" y2="115.34"/><line class="a065d377-b191-4d69-b5d1-91375671677d" x1="652.16" y1="108.34" x2="658.69" y2="104.09"/><path class="bc5358bf-9bba-47ab-be9d-865b74bbef76" d="M241.77,299.79h0a6.58,6.58,0,0,1-6.54-7.32l5.18-46.18h16.83l-9,48.13A6.58,6.58,0,0,1,241.77,299.79Z" transform="translate(-24.29 -67.96)"/><polygon class="ba4a6de5-032f-46a3-a734-c4bda0768622" points="213.49 201.71 228.57 201.71 232.94 178.33 216.11 178.33 213.49 201.71"/><path class="bc5358bf-9bba-47ab-be9d-865b74bbef76" d="M363.73,299.79h0a6.58,6.58,0,0,0,6.54-7.32l-5.18-46.18H348.26l9,48.13A6.6,6.6,0,0,0,363.73,299.79Z" transform="translate(-24.29 -67.96)"/><polygon class="ba4a6de5-032f-46a3-a734-c4bda0768622" points="343.42 201.71 328.33 201.71 323.96 178.33 340.8 178.33 343.42 201.71"/><path class="bd329d60-f2de-43e8-8c3f-db024d321a1e" d="M307,254.17h-6.5c-42.9,0-78-28.1-78-71v-33.5c0-42.9-2-78,78-78H307c78,0,78,35.1,78,78v33.5C385,226.07,349.92,254.17,307,254.17Z" transform="translate(-24.29 -67.96)"/><path class="ba4a6de5-032f-46a3-a734-c4bda0768622" d="M349.29,173.17H258.24a35.82,35.82,0,0,1-35.7-34.73c0,4,0,8.07,0,12.23v32.5c0,42.9,35.1,71,78,71H307c42.9,0,78-28.1,78-71v-32.5c0-3.83,0-7.59-.06-11.27A35.84,35.84,0,0,1,349.29,173.17Z" transform="translate(-24.29 -67.96)"/><path class="bd329d60-f2de-43e8-8c3f-db024d321a1e" d="M370.09,263.49H238l-7-62.26a26.39,26.39,0,0,1,26.25-29.06h93.73a26.39,26.39,0,0,1,26.25,29.06Z" transform="translate(-24.29 -67.96)"/><line class="a33636ee-efa2-42d2-a04e-353e3a4d0ce3" x1="240.72" y1="104.21" x2="337.66" y2="104.21"/><path class="ba4a6de5-032f-46a3-a734-c4bda0768622" d="M337.44,211.17H270.61a40,40,0,0,1-36.86-24.79,26.22,26.22,0,0,0-2.84,14.85l7,62.26H370.09l7.05-62.26a26.22,26.22,0,0,0-2.84-14.85A40,40,0,0,1,337.44,211.17Z" transform="translate(-24.29 -67.96)"/><path class="bd329d60-f2de-43e8-8c3f-db024d321a1e" d="M401,126.92h0a21.74,21.74,0,0,0-24.91,18l-12.8,76.19H244.74L231.94,145a21.74,21.74,0,0,0-24.91-18h0a21.74,21.74,0,0,0-18,24.91l19.63,103.41a10,10,0,0,0,9.84,8.25H389.59a10,10,0,0,0,9.84-8.25l19.63-103.41A21.74,21.74,0,0,0,401,126.92Z" transform="translate(-24.29 -67.96)"/><line class="a33636ee-efa2-42d2-a04e-353e3a4d0ce3" x1="218.89" y1="140.66" x2="224.94" y2="171.38"/><line class="a33636ee-efa2-42d2-a04e-353e3a4d0ce3" x1="340.32" y1="139.1" x2="334.99" y2="171.38"/><path class="a33636ee-efa2-42d2-a04e-353e3a4d0ce3" d="M273.43,124.17a2.92,2.92,0,1,1,2.92,2.92A2.92,2.92,0,0,1,273.43,124.17Z" transform="translate(-24.29 -67.96)"/><path class="a33636ee-efa2-42d2-a04e-353e3a4d0ce3" d="M331.85,124.17a2.92,2.92,0,1,1,2.92,2.92A2.92,2.92,0,0,1,331.85,124.17Z" transform="translate(-24.29 -67.96)"/><path class="ba4a6de5-032f-46a3-a734-c4bda0768622" d="M89.43,226.81s-3.5,63.5,9.5,96.12c0,0-13.84-6.66-33.74,6.48A66.17,66.17,0,0,0,47,347.59l-14.24,21L24.29,370l6,36a3.79,3.79,0,0,0,7.47,0l2.84-17.36,95-36.67a24,24,0,0,0,15.11-16.93l22.45-92.49Z" transform="translate(-24.29 -67.96)"/><polygon class="eeb6afdd-3bf5-4f7d-a287-4fa62fd45419" points="153.27 50.91 144.19 71.83 128.38 62.71 141 43.82 153.27 50.91"/><path class="ba4a6de5-032f-46a3-a734-c4bda0768622" d="M165.29,111.78l-1.41,2.11s2.38,13,8.21,17.58l5.47-12.6Z" transform="translate(-24.29 -67.96)"/><path class="eeb6afdd-3bf5-4f7d-a287-4fa62fd45419" d="M194.26,106.12c0-1-1.12-1.74-2.5-1.74l-.24,0a15.64,15.64,0,1,0,.57,4.16c0-.25,0-.49,0-.73C193.3,107.73,194.26,107,194.26,106.12Z" transform="translate(-24.29 -67.96)"/><path class="ba4a6de5-032f-46a3-a734-c4bda0768622" d="M174.65,93a15.66,15.66,0,0,0-12.07,22.89l5.68-6.82h5.46a6,6,0,0,0,5.94-5.16l.77-5.34,5.76-2.24A15.58,15.58,0,0,0,174.65,93Z" transform="translate(-24.29 -67.96)"/><path class="beda2f81-5a16-4756-9a75-3a78f73bf86a" d="M195.59,88l-11.68,6.07-2.61-5a9,9,0,0,0-12.14-3.84L160.76,90a9,9,0,0,0-3.84,12.14l2.61,5a1,1,0,0,0,.93,1.77l36-19.14a1,1,0,0,0-.92-1.78Z" transform="translate(-24.29 -67.96)"/><path class="eeb6afdd-3bf5-4f7d-a287-4fa62fd45419" d="M173.09,109.06a4.83,4.83,0,1,1-4.83-4.84A4.83,4.83,0,0,1,173.09,109.06Z" transform="translate(-24.29 -67.96)"/><path class="beda2f81-5a16-4756-9a75-3a78f73bf86a" d="M89.43,226.81l83.66,15.75s17.67-76,0-99.75-42-16.39-53.91,0C101.93,166.56,89.43,226.81,89.43,226.81Z" transform="translate(-24.29 -67.96)"/><path class="beda2f81-5a16-4756-9a75-3a78f73bf86a" d="M148.68,130.06l5.75-8.44s21.34,9.69,16.29,21.94Z" transform="translate(-24.29 -67.96)"/><path class="eeb6afdd-3bf5-4f7d-a287-4fa62fd45419" d="M262,263.18c-14.36-4.18-17.27-17.45-14.18-19.63s6.54-8,3.27-10.72c-2.3-1.92-11.51,2.72-16.78,5.64a18.15,18.15,0,0,0-2.19-2.29c-14-12.21-43.36-59.76-58.6-86.86A18,18,0,1,0,142.14,167c4.18,7.43,40.19,70.94,63.58,93.8l-.08.06c7.09,7.82,23.44,15.27,27.44,15.81s8-2.18,8-2.18l5.27.55a9,9,0,0,0,8-3.27s2.55.9,7.27,0,7.82-8.54,7.82-8.54Z" transform="translate(-24.29 -67.96)"/><path class="ba4a6de5-032f-46a3-a734-c4bda0768622" d="M196.24,187.37c-8.57-13.59-16.75-27.4-22.74-38.05A18,18,0,1,0,142.14,167c2.27,4,13.9,24.57,27.81,46.16Z" transform="translate(-24.29 -67.96)"/><line class="a33636ee-efa2-42d2-a04e-353e3a4d0ce3" x1="230.05" y1="203.76" x2="219.01" y2="195.81"/><line class="a33636ee-efa2-42d2-a04e-353e3a4d0ce3" x1="216.78" y1="206.48" x2="209.22" y2="200.44"/><path class="beda2f81-5a16-4756-9a75-3a78f73bf86a" d="M164.82,207c-13-20.71-23.2-38.79-23.63-39.55a19.08,19.08,0,1,1,33.27-18.7c.1.17,10.17,18.06,22.66,37.93Z" transform="translate(-24.29 -67.96)"/><path class="a33636ee-efa2-42d2-a04e-353e3a4d0ce3" d="M164.82,207c-13-20.71-23.2-38.79-23.63-39.55" transform="translate(-24.29 -67.96)"/><line class="a33636ee-efa2-42d2-a04e-353e3a4d0ce3" x1="124.48" y1="112.67" x2="110.94" y2="107.8"/><path class="af5b983f-daa5-4a4a-96e3-30dc91587b89" d="M89.43,226.81s0,59.25,63.24,102.25c0,0-11.26,23,0,56l12.44,34h21.08s29.24-78,19.24-104.5-32.34-72-32.34-72Z" transform="translate(-24.29 -67.96)"/><path class="ba4a6de5-032f-46a3-a734-c4bda0768622" d="M89.43,226.81a73.08,73.08,0,0,0,1.12,10.79l82.54,5Z" transform="translate(-24.29 -67.96)"/><path class="ba4a6de5-032f-46a3-a734-c4bda0768622" d="M165.11,419.06v13h36.53a3.79,3.79,0,0,0,3.79-3.79h0a3.78,3.78,0,0,0-2.58-3.58l-16.66-5.63Z" transform="translate(-24.29 -67.96)"/><path class="ba4a6de5-032f-46a3-a734-c4bda0768622" d="M407.63,228.13s-3.94,64.75,10.56,99.75c0,0-21.16,9.21-27.5,23-8.5,18.5-16.32,67.36-16.32,67.36l-2.92,13L408,431a3.79,3.79,0,0,0,1.16-7.38l-13-5.26h.14L460.12,345a33.72,33.72,0,0,0,6.71-12.73l24.47-88.4Z" transform="translate(-24.29 -67.96)"/><path class="af5b983f-daa5-4a4a-96e3-30dc91587b89" d="M407.63,228.13s0,59.25,63.24,102.25c0,0,.2,1,.86,3.45a156.56,156.56,0,0,0,34.33,63.67l21.78,23,18.18-9.3s-12.39-68.8-22.39-95.3-32.33-72-32.33-72Z" transform="translate(-24.29 -67.96)"/><path class="ba4a6de5-032f-46a3-a734-c4bda0768622" d="M407.63,228.13a79.83,79.83,0,0,0,1.75,14.15l81.87,1.59Z" transform="translate(-24.29 -67.96)"/><path class="ba4a6de5-032f-46a3-a734-c4bda0768622" d="M527.84,420.48l5.92,11.58,32.52-16.64a3.78,3.78,0,0,0,1.65-5.09h0a3.78,3.78,0,0,0-3.93-2l-17.4,2.57Z" transform="translate(-24.29 -67.96)"/><polygon class="eeb6afdd-3bf5-4f7d-a287-4fa62fd45419" points="451 43.44 447.8 66.03 430.14 61.42 437.3 39.86 451 43.44"/><path class="ba4a6de5-032f-46a3-a734-c4bda0768622" d="M461.59,107.82l-.8,2.41s5.74,11.89,12.58,14.77l1.93-13.6Z" transform="translate(-24.29 -67.96)"/><path class="eeb6afdd-3bf5-4f7d-a287-4fa62fd45419" d="M488,94.67c-.26-.92-1.54-1.37-2.87-1l-.23.08a15.61,15.61,0,1,0,1.66,3.85c-.07-.24-.16-.46-.23-.69C487.52,96.48,488.25,95.53,488,94.67Z" transform="translate(-24.29 -67.96)"/><path class="ba4a6de5-032f-46a3-a734-c4bda0768622" d="M486.35,96.91l-9.68,3.56a3,3,0,0,1-3.3-.86,5.32,5.32,0,0,0,.82-3.4l-1.52-5.16,5-3.68a15.65,15.65,0,0,0-17.57,25.12l3.66-8.09,4.66-1.28h0c1.05,4.34,1.55,7.84,4.89,11.68s13.05.89,15.59-5S486.35,96.91,486.35,96.91Z" transform="translate(-24.29 -67.96)"/><path class="beda2f81-5a16-4756-9a75-3a78f73bf86a" d="M491.11,80.82l-11.76,5.92-2.54-5.07a9,9,0,0,0-12.09-4l-8.46,4.66a9,9,0,0,0-4,12.08l2.55,5.06a1,1,0,1,0,.89,1.79L492,82.61a1,1,0,1,0-.9-1.79Z" transform="translate(-24.29 -67.96)"/><path class="eeb6afdd-3bf5-4f7d-a287-4fa62fd45419" d="M468.39,103.12a4.83,4.83,0,1,1-5.94-3.38A4.82,4.82,0,0,1,468.39,103.12Z" transform="translate(-24.29 -67.96)"/><path class="beda2f81-5a16-4756-9a75-3a78f73bf86a" d="M406.25,231.72l85.45,12.16s7.22-85.39-13.78-106.26-44-10-53.32,8C411.06,171.66,406.25,231.72,406.25,231.72Z" transform="translate(-24.29 -67.96)"/><path class="beda2f81-5a16-4756-9a75-3a78f73bf86a" d="M452,128l4.65-9.09s22.39,6.94,18.91,19.72Z" transform="translate(-24.29 -67.96)"/><path class="eeb6afdd-3bf5-4f7d-a287-4fa62fd45419" d="M462.1,137.26a18,18,0,0,0-25.21,3.41c-5,6.61-46.24,62-62.45,95.33h0c-.38.78-.75,1.56-1.11,2.32h0l-3.64,7.86s-11.14,3.63-11.39,17.13h-10a26.55,26.55,0,0,0,19.75,14.5l6.36-1.5s9,3.66,13.81.83c0,0,8,3.84,11.77-1.87s6.31-26.71,6.31-26.71c11.89-21.59,44.36-66.65,59.18-86.1A18,18,0,0,0,462.1,137.26Z" transform="translate(-24.29 -67.96)"/><path class="ba4a6de5-032f-46a3-a734-c4bda0768622" d="M462.1,137.26a18,18,0,0,0-25.21,3.41c-2.76,3.61-16.46,21.54-30.84,43.23l31.57,16.83c10.29-15,21.24-29.53,27.89-38.26A18,18,0,0,0,462.1,137.26Z" transform="translate(-24.29 -67.96)"/><line class="a33636ee-efa2-42d2-a04e-353e3a4d0ce3" x1="350.15" y1="208.36" x2="353.01" y2="202.03"/><line class="a33636ee-efa2-42d2-a04e-353e3a4d0ce3" x1="363.95" y1="209.19" x2="366.87" y2="203.36"/><path class="beda2f81-5a16-4756-9a75-3a78f73bf86a" d="M409.08,177.38C422.93,157.21,435.49,140.7,436,140a19.08,19.08,0,1,1,30.36,23.12c-.13.16-12.55,16.5-25.84,35.85Z" transform="translate(-24.29 -67.96)"/><path class="a33636ee-efa2-42d2-a04e-353e3a4d0ce3" d="M462.28,168.81s-8.45,10.82-21.74,30.17" transform="translate(-24.29 -67.96)"/><line class="a33636ee-efa2-42d2-a04e-353e3a4d0ce3" x1="433.22" y1="107.17" x2="443.75" y2="107.17"/></g></svg>