<svg width="318" height="167" viewBox="0 0 318 167" fill="none" xmlns="http://www.w3.org/2000/svg">
<path d="M310.062 122.797L303.803 122.93L300.626 122.983C299.562 123.007 298.493 122.983 297.43 123.011H297.22V122.797L297.191 117.444V117.206H297.43L303.746 117.234C305.854 117.234 307.958 117.287 310.062 117.311H310.195V117.444C310.195 118.351 310.157 119.252 310.133 120.144L310.062 122.797ZM310.062 122.797L309.995 120.101C309.971 119.214 309.943 118.336 309.933 117.459L310.062 117.592C307.958 117.616 305.854 117.669 303.746 117.669L297.43 117.697L297.668 117.459V122.797L297.453 122.587C298.493 122.587 299.533 122.587 300.578 122.611L303.684 122.692L310.062 122.797Z" fill="#DDDDDE"/>
<path d="M303.016 129.528L296.757 129.661L293.575 129.714C292.516 129.714 291.447 129.714 290.384 129.743H290.174V129.528V124.19V123.951H290.412L296.728 123.985C298.832 123.985 300.941 124.037 303.044 124.061H303.178V124.19C303.178 125.096 303.14 125.998 303.116 126.89L303.016 129.528ZM303.016 129.528L302.949 126.833C302.925 125.945 302.897 125.068 302.887 124.19L303.016 124.323C300.912 124.347 298.803 124.4 296.7 124.4L290.384 124.428L290.622 124.19V129.528L290.407 129.318C291.447 129.318 292.487 129.318 293.532 129.342L296.666 129.399L303.016 129.528Z" fill="#DDDDDE"/>
<path d="M317.108 129.528L310.849 129.661L307.672 129.714C306.608 129.714 305.539 129.714 304.476 129.743H304.266V129.528L304.237 124.19V123.951H304.476L310.792 123.985C312.9 123.985 315.004 124.037 317.108 124.061H317.241V124.19C317.241 125.096 317.198 125.998 317.179 126.89L317.108 129.528ZM317.108 129.528L317.041 126.833C317.041 125.945 316.989 125.068 316.979 124.19L317.108 124.323C315.004 124.347 312.9 124.4 310.792 124.4L304.476 124.428L304.714 124.19V129.528L304.499 129.318C305.544 129.318 306.579 129.318 307.624 129.342L310.763 129.399L317.108 129.528Z" fill="#DDDDDE"/>
<path d="M129.938 59.2779L123.679 59.4115L120.502 59.464C119.438 59.464 118.37 59.464 117.306 59.464H117.096V59.2493L117.067 53.9111V53.6726H117.306L123.622 53.7012C125.731 53.7012 127.834 53.7537 129.938 53.7776H130.072V53.9064C130.072 54.8127 130.029 55.7096 130.005 56.6017L129.938 59.2779ZM129.938 59.2779L129.871 56.5778C129.871 55.6905 129.819 54.8127 129.809 53.9398L129.938 54.0686C127.834 54.0686 125.731 54.1449 123.622 54.1449L117.306 54.1783L117.545 53.9398L117.521 59.2779L117.306 59.0632C118.346 59.0632 119.386 59.0632 120.431 59.0919L123.57 59.1443L129.938 59.2779Z" fill="#DDDDDE"/>
<path d="M122.883 66.009L116.624 66.1426L113.442 66.1951C112.383 66.1951 111.314 66.1951 110.25 66.2189H110.041V66.0043L110.002 60.6757V60.4371H110.241L116.557 60.4658C118.661 60.4658 120.769 60.5182 122.873 60.5421H123.007V60.6757C123.007 61.582 122.969 62.4789 122.945 63.371L122.883 66.009ZM122.883 66.009L122.816 63.309C122.792 62.4217 122.763 61.5439 122.754 60.6709L122.883 60.7997C120.779 60.8235 118.67 60.876 116.567 60.876L110.25 60.9094L110.489 60.6709L110.479 66.009L110.265 65.7944C111.305 65.7944 112.345 65.7944 113.389 65.823L116.524 65.8755L122.883 66.009Z" fill="#DDDDDE"/>
<path d="M136.984 66.009L130.725 66.1426L127.548 66.1951C126.484 66.1951 125.421 66.1951 124.352 66.2189H124.142V66.0043L124.113 60.6757V60.4371H124.352L130.668 60.4658C132.777 60.4658 134.88 60.5182 136.984 60.5421H137.118V60.6757C137.118 61.582 137.075 62.4789 137.056 63.371L136.984 66.009ZM136.984 66.009L136.917 63.309C136.917 62.4217 136.865 61.5439 136.855 60.6709L136.984 60.7997C134.88 60.8235 132.777 60.876 130.668 60.876L124.352 60.9094L124.591 60.6709L124.567 66.009L124.352 65.7944C125.397 65.7944 126.432 65.7944 127.477 65.823L130.616 65.8755L136.984 66.009Z" fill="#DDDDDE"/>
<path d="M26.9389 94.5985L20.68 94.7321L17.4981 94.7846C16.4391 94.7846 15.3705 94.7846 14.3067 94.8084H14.1158V94.5937V89.2556V89.0171H14.3544L20.6705 89.0457C22.7743 89.0457 24.8828 89.0982 26.9866 89.122H27.1202V89.2508C27.1202 90.1572 27.082 91.0541 27.0581 91.9461L26.9389 94.5985ZM26.9389 94.5985L26.8721 91.8984C26.8721 91.0111 26.8196 90.1333 26.8101 89.2604L26.9389 89.3892C24.8351 89.413 22.7266 89.4655 20.6228 89.4655L14.3067 89.4989L14.5452 89.2604L14.5213 94.5985L14.3067 94.3838C15.3466 94.3838 16.3866 94.3838 17.4313 94.4125L20.5655 94.4649L26.9389 94.5985Z" fill="#DDDDDE"/>
<path d="M236.353 59.2731L230.094 59.4067L226.917 59.4592C225.853 59.483 224.785 59.4592 223.721 59.483H223.511V59.2684L223.482 53.9302V53.6917H223.721L230.037 53.7203C232.146 53.7203 234.249 53.7775 236.353 53.8014H236.487V53.9302C236.487 54.8366 236.449 55.7382 236.425 56.6255L236.353 59.2731ZM236.353 59.2731L236.286 56.5778C236.263 55.6857 236.234 54.808 236.224 53.935L236.353 54.0638C234.249 54.0876 232.146 54.1401 230.037 54.1449L223.721 54.1735L223.96 53.935L223.936 59.2731L223.721 59.0585C224.761 59.0585 225.801 59.0585 226.846 59.0871L229.985 59.1396L236.353 59.2731Z" fill="#DDDDDE"/>
<path d="M309.332 7.42764L303.073 7.56121L299.891 7.61368C298.832 7.61368 297.764 7.61369 296.7 7.64231H296.49V7.42764V2.08948V1.85095H296.728L303.044 1.87958C305.148 1.87958 307.257 1.93682 309.361 1.96067H309.494V2.08948C309.494 2.99587 309.456 3.89749 309.432 4.78479L309.332 7.42764ZM309.332 7.42764L309.265 4.73232C309.241 3.84024 309.213 2.96247 309.203 2.08948L309.332 2.21828C307.228 2.21828 305.12 2.29461 303.016 2.29938L296.7 2.328L296.938 2.08948L296.914 7.42764L296.7 7.21297C297.74 7.21297 298.78 7.21297 299.824 7.24159L302.959 7.29406L309.332 7.42764Z" fill="#DDDDDE"/>
<path d="M316.378 14.1588L310.119 14.2924L306.942 14.3448C305.878 14.3687 304.81 14.3448 303.746 14.3687H303.536V14.154L303.507 8.81586V8.57733H303.746L310.062 8.60595C312.17 8.60595 314.274 8.6632 316.378 8.68705H316.512V8.81586C316.512 9.72225 316.469 10.6239 316.445 11.5112L316.378 14.1588ZM316.378 14.1588L316.311 11.4635C316.311 10.5714 316.259 9.69362 316.249 8.82063L316.378 8.94943C314.274 8.97328 312.17 9.02575 310.062 9.03053L303.746 9.05915L303.984 8.82063V14.1588L303.77 13.9441C304.81 13.9441 305.849 13.9441 306.894 13.9727L310.033 14.0252L316.378 14.1588Z" fill="#DDDDDE"/>
<path d="M12.8469 7.4324L6.58326 7.56597L3.40612 7.61845C2.34707 7.61845 1.27849 7.61844 0.214672 7.64707H0V7.4324V2.09424V1.85571H0.243293L6.5594 1.88911C8.66318 1.88911 10.767 1.94158 12.8755 1.96543H13.0043V2.09424C13.0043 3.00063 12.9614 3.90225 12.9423 4.79433L12.8469 7.4324ZM12.8469 7.4324L12.7753 4.73708C12.7753 3.845 12.7229 2.96723 12.7133 2.09424L12.8469 2.22304C10.7383 2.25166 8.63456 2.29937 6.53078 2.30414L0.214672 2.33276L0.453196 2.09424L0.424572 7.4324L0.214672 7.24635C1.25464 7.24635 2.28983 7.24635 3.33456 7.24635L6.47354 7.29882L12.8469 7.4324Z" fill="#DDDDDE"/>
<path d="M167.572 73.6466C166.987 74.1995 166.261 74.5807 165.473 74.7486C164.996 74.8726 164.467 74.9442 163.961 75.0348H162.234C161.524 74.9251 160.803 74.8392 160.111 74.7009C157.526 74.1461 155.078 73.0822 152.908 71.5714C147.194 67.7942 142.38 62.8075 138.807 56.9642C137.608 55.0361 136.783 52.9 136.374 50.6672C136.269 50.0804 136.188 49.4889 136.097 48.8974V47.1705C136.24 46.5074 136.354 45.8347 136.531 45.1812C136.705 44.5678 137.034 44.0093 137.485 43.5592C137.571 43.6355 137.647 43.6976 137.724 43.7739C140.471 46.5185 143.221 49.2631 145.972 52.0077C146.061 52.0818 146.124 52.182 146.153 52.2941C146.183 52.4062 146.176 52.5246 146.134 52.6326C145.925 53.3128 145.897 54.0357 146.052 54.7301C146.208 55.4244 146.542 56.0662 147.021 56.5921C149.368 59.2575 151.88 61.7718 154.544 64.12C155.075 64.6021 155.723 64.9372 156.423 65.092C157.124 65.2468 157.852 65.216 158.537 65.0025C158.738 64.95 158.881 64.9166 159.052 65.0884C161.861 67.9125 164.675 70.7302 167.496 73.5416C167.51 73.556 167.53 73.5989 167.572 73.6466Z" fill="#DDDDDE"/>
<path d="M172.973 67.4784V68.0508C172.724 68.4094 172.455 68.7534 172.166 69.0812C171.317 69.9638 170.44 70.8177 169.576 71.6812L169.309 71.934L160.827 63.4569C161.939 62.3596 163.045 61.2386 164.19 60.1461C164.314 60.0309 164.46 59.9418 164.619 59.8841C164.779 59.8264 164.948 59.8013 165.117 59.8102C165.286 59.8191 165.451 59.8618 165.604 59.9359C165.756 60.01 165.892 60.114 166.003 60.2416C166.642 60.8617 167.262 61.4962 167.911 62.1211C169.385 63.6 170.869 65.0693 172.329 66.5577C172.567 66.8472 172.782 67.1551 172.973 67.4784V67.4784Z" fill="#DDDDDE"/>
<path d="M150.737 47.2134C149.688 48.2295 148.615 49.2218 147.575 50.2045L139.16 41.7941C139.346 41.6272 139.56 41.4507 139.756 41.2598C140.529 40.4918 141.287 39.7047 142.074 38.9509C142.394 38.6704 142.73 38.4091 143.081 38.1686H143.658C143.98 38.3661 144.286 38.5878 144.574 38.8317C146.635 40.8734 148.688 42.9247 150.733 44.9856C151.506 45.7584 151.506 46.4549 150.737 47.2134Z" fill="#DDDDDE"/>
<path d="M9.70792 51.8932H64.9166V16.8684H9.70792V51.8932Z" fill="#DDDDDE"/>
<path d="M75.2447 51.8932H64.9166V41.1358L75.2447 51.8932Z" fill="#DDDDDE"/>
<path d="M58.5242 22.9221H16.0956V23.59H58.5242V22.9221Z" fill="white"/>
<path d="M38.0255 26.519H16.0956V27.1869H38.0255V26.519Z" fill="white"/>
<path d="M50.4048 33.7082H16.0956V34.3761H50.4048V33.7082Z" fill="white"/>
<path d="M58.5242 37.3004H16.0956V37.9682H58.5242V37.3004Z" fill="white"/>
<path d="M58.5242 40.8925H16.0956V41.5604H58.5242V40.8925Z" fill="white"/>
<path d="M31.1703 44.4894H16.0956V45.1573H31.1703V44.4894Z" fill="white"/>
<path d="M307.615 65.8802H252.406V96.7691H307.615V65.8802Z" fill="#D9D9D9"/>
<path d="M242.078 96.7738H252.406V86.0164L242.078 96.7738Z" fill="#D9D9D9"/>
<path d="M295.86 82.0092H258.922V82.6771H295.86V82.0092Z" fill="white"/>
<path d="M288.266 85.6062H258.922V86.274H288.266V85.6062Z" fill="white"/>
<path d="M290.479 74.8201H258.922V75.488H290.479V74.8201Z" fill="white"/>
<path d="M300.125 71.228H258.922V71.8958H300.125V71.228Z" fill="white"/>
<path d="M291.309 89.1983H258.922V89.8662H291.309V89.1983Z" fill="white"/>
<path d="M279.722 33.0499H178.344V37.496H279.722V33.0499Z" fill="#DDDDDE"/>
<path d="M188.472 37.5007H184.026V52.2033H188.472V37.5007Z" fill="#DDDDDE"/>
<path d="M188.472 37.5007H184.026V42.047H188.472V37.5007Z" fill="#D9D9D9"/>
<path d="M274.04 37.5007H269.594V52.2033H274.04V37.5007Z" fill="#DDDDDE"/>
<path d="M274.04 37.5007H269.594V42.047H274.04V37.5007Z" fill="#D9D9D9"/>
<path d="M204.405 33.0499V4.71802H197.269V33.0499H204.405Z" fill="#C7C7C7"/>
<path d="M204.405 6.31611V3.20099L197.269 3.20099V6.31611H204.405Z" fill="#D9D9D9"/>
<path d="M204.401 11.4635V10.309H197.264V11.4635H204.401Z" fill="#D9D9D9"/>
<path d="M205.293 29.3384V26.2233H197.269V29.3384H205.293Z" fill="#D9D9D9"/>
<path d="M209.39 33.0498V0L204.405 0V33.0498H209.39Z" fill="#D9D9D9"/>
<path d="M208.374 15.8189V3.10559H205.383V15.8189H208.374Z" fill="#DDDDDE"/>
<path d="M244.849 29.5195L221.345 6.28473L217.84 9.83001L241.344 33.0648L244.849 29.5195Z" fill="#C7C7C7"/>
<path d="M238.647 24.7683L229.605 15.8306L227.503 17.9577L236.544 26.8955L238.647 24.7683Z" fill="#D9D9D9"/>
<path d="M217.853 33.0594V7.95239L209.386 7.95239V33.0594H217.853Z" fill="#A6A6A6"/>
<path d="M217.853 30.3927V28.0552H209.386V30.3927H217.853Z" fill="#C7C7C7"/>
<path d="M217.853 26.5238V25.6174H209.386V26.5238H217.853Z" fill="#C7C7C7"/>
<path d="M197.269 33.0594V9.4646H191.42V33.0594H197.269Z" fill="#A6A6A6"/>
<path d="M197.269 30.5549V28.3557H191.42V30.5549H197.269Z" fill="#C7C7C7"/>
<path d="M197.269 16.5249V14.3257H191.42V16.5249H197.269Z" fill="#C7C7C7"/>
<path d="M197.269 18.8863V18.0324H191.42V18.8863H197.269Z" fill="#C7C7C7"/>
<path d="M269.064 22.0586L268.43 23.7426L268.039 24.7683L267.399 26.457L264.909 33.0546H251.442L248.942 26.457L248.303 24.7683L247.917 23.7426L247.278 22.0586L252.248 14.8123L249.672 10.037H266.684L264.094 14.8123L269.064 22.0586Z" fill="#D9D9D9"/>
<path d="M269.064 22.0587L268.43 23.7426H247.917L247.278 22.0587H269.064Z" fill="#A6A6A6"/>
<path d="M268.039 24.7683L267.399 26.4571H248.942L248.303 24.7683H268.039Z" fill="#A6A6A6"/>
<path d="M6.39722 161.633L44.4656 161.519L82.5292 161.476L158.661 161.399L234.793 161.476L272.857 161.519L310.925 161.633L272.857 161.752L234.793 161.795L158.661 161.872L82.5292 161.795L44.4656 161.752L6.39722 161.633Z" fill="#263238"/>
<path d="M154.53 161.624H213.045L201.381 93.7542H157.621L154.53 161.624Z" fill="#D9D9D9"/>
<path d="M154.53 161.624H159.663L162.54 93.7542H157.621L154.53 161.624Z" fill="#A6A6A6"/>
<path d="M205.374 107.059C211.995 121.847 227.995 146.392 235.156 140.309C245.866 131.217 253.117 111.104 255.979 102.971C257.587 98.4149 234.378 90.7917 232.957 94.9277C230.934 100.805 227.762 113.089 225.925 114.83C224.971 115.741 217.367 105.07 211.614 100.008C203.308 92.7142 203.26 102.336 205.374 107.059Z" fill="#EBB5AD"/>
<path d="M261.775 96.1251C259.709 100.772 251.757 108.628 249.114 109.788C246.471 110.947 232.513 98.3386 232.804 95.3713C233.095 92.4041 241.424 76.8619 246.037 74.4766C250.65 72.0914 263.917 91.3069 261.775 96.1251Z" fill="#EBB5AD"/>
<path d="M233.896 92.1083C233.896 92.1083 234.23 85.4964 232.561 79.9055C231.158 75.2065 228.549 68.3895 231.044 67.5404C236.177 65.7992 242.684 82.8059 242.684 82.8059C242.684 82.8059 244.353 90.7726 239.425 92.9479C236.334 94.3123 233.896 92.1083 233.896 92.1083Z" fill="#EBB5AD"/>
<path d="M239.683 79.5668C240.017 82.243 242.979 80.3157 242.979 80.3157C242.979 80.3157 239.387 84.1321 240.799 86.7416C242.173 89.2651 245.665 86.8083 245.918 86.6366C245.727 86.8417 242.521 90.4196 244.215 92.9098C245.975 95.4954 249.057 92.4327 249.257 92.2324C249.138 92.4757 247.64 95.7721 249.358 97.3749C252.306 100.118 256.37 91.7983 259.5 90.868C259.5 90.868 261.684 95.9867 261.775 96.1155C261.775 96.1155 265.806 88.2729 264.318 84.1226C264.109 83.5162 263.7 82.9991 263.158 82.6566C262.616 82.314 261.973 82.1665 261.336 82.2382C261.336 82.2382 262.915 79.853 261.646 77.8494C260.988 76.8237 258.784 76.9573 258.784 76.9573C258.784 76.9573 259.967 74.9967 258.727 73.2888C257.739 71.9197 255.664 72.2679 255.664 72.2679C255.664 72.2679 255.926 69.8541 254.467 68.7855C251.499 66.6292 238.963 73.8374 239.683 79.5668Z" fill="#EBB5AD"/>
<path d="M255.306 72.2822C255.349 72.2584 255.306 72.1964 255.282 72.2107C250.579 73.575 245.832 76.5041 242.808 80.4016C242.707 80.5304 242.87 80.7451 243.008 80.6258C246.915 77.2149 250.612 74.51 255.306 72.2822Z" fill="#263238"/>
<path d="M258.813 76.8953C258.865 76.8714 258.813 76.7856 258.77 76.7999C253.928 78.231 248.675 81.6944 245.713 86.5841C245.613 86.7511 245.689 87.0039 245.823 86.8226C248.036 83.7314 254.576 78.8846 258.813 76.8953Z" fill="#263238"/>
<path d="M249.167 92.6379C252.186 88.0582 256.37 84.9049 261.136 82.2859C261.193 82.2525 261.136 82.1714 261.083 82.1858C258.402 82.8298 255.54 84.8143 253.451 86.5507C251.473 88.1216 249.943 90.1846 249.014 92.5329C248.971 92.6379 249.105 92.7428 249.167 92.6379Z" fill="#263238"/>
<path d="M242.884 80.3109C242.765 80.4636 243.123 80.4684 243.008 80.6258C242.531 81.2841 239.979 85.506 241.148 86.8274C242.102 87.8817 244.148 87.3474 244.864 86.8274L246.653 85.5346L245.422 87.3903C244.868 88.2034 244.449 89.1007 244.182 90.0475C244.033 90.4786 243.978 90.9363 244.02 91.3903C244.062 91.8442 244.2 92.2841 244.425 92.6808C244.635 93.0484 244.966 93.3321 245.362 93.4842C245.757 93.6363 246.193 93.6474 246.595 93.5156C247.493 93.2068 248.296 92.673 248.928 91.9652L250.741 90.057L249.653 92.4423C249.349 93.1022 249.13 93.7978 249 94.5126C248.854 95.1846 248.909 95.8846 249.157 96.5258C249.28 96.8081 249.479 97.0507 249.732 97.2267C249.984 97.4027 250.281 97.5052 250.588 97.5228C251.285 97.4521 251.947 97.184 252.497 96.75C253.701 95.8297 254.832 94.8168 255.879 93.7207C256.427 93.1865 256.976 92.6474 257.553 92.1322C258.095 91.5897 258.745 91.1671 259.461 90.8919C258.781 91.2366 258.175 91.7115 257.677 92.2896C257.148 92.8382 256.642 93.4107 256.136 93.9879C255.143 95.1796 254.041 96.2767 252.845 97.2652C252.203 97.8094 251.418 98.1557 250.584 98.2622C250.124 98.2666 249.672 98.1379 249.284 97.8916C248.895 97.6453 248.586 97.2919 248.394 96.874C248.06 96.087 247.969 95.2183 248.132 94.3791C248.26 93.5809 248.492 92.803 248.823 92.0654L249.548 92.5424C248.813 93.3908 247.869 94.0322 246.81 94.4029C246.217 94.5928 245.575 94.5692 244.997 94.3361C244.439 94.0913 243.967 93.6841 243.643 93.1674C243.358 92.664 243.184 92.1061 243.132 91.5304C243.079 90.9548 243.149 90.3746 243.337 89.828C243.642 88.7912 244.117 87.8125 244.744 86.9324L245.303 87.4762C244.349 88.0964 242.135 88.9455 240.47 87.5C238.629 85.2627 242.183 81.0361 242.884 80.3109Z" fill="#263238"/>
<path d="M242.979 80.3157C242.464 80.5214 241.92 80.6485 241.367 80.6926C241.145 80.7155 240.921 80.6785 240.717 80.5854C240.514 80.4923 240.34 80.3464 240.213 80.1631C239.988 79.7217 239.897 79.2243 239.95 78.7319C239.979 78.1881 240.036 77.6204 240.122 77.0336C239.759 77.513 239.502 78.0643 239.368 78.6508C239.276 78.9673 239.248 79.2989 239.285 79.6264C239.322 79.9538 239.423 80.2708 239.583 80.559C239.792 80.8585 240.086 81.0879 240.427 81.2173C240.756 81.3247 241.108 81.3379 241.443 81.2555C242.042 81.1119 242.579 80.783 242.979 80.3157V80.3157Z" fill="#263238"/>
<path d="M231.545 95.3713L255.702 112.197C255.702 112.197 241.272 142.093 232.356 142.012C223.44 141.931 210.559 119.539 206.118 109.859C201.677 100.18 204.324 91.9795 213.312 100.795C222.299 109.611 225.519 113.246 225.81 113.127C226.354 112.908 231.545 95.3713 231.545 95.3713Z" fill="#4B3685"/>
<path d="M255.702 112.197C255.702 112.197 245.684 132.929 237.198 139.818C235.495 141.201 233.858 142.027 232.356 142.007C223.44 141.931 210.559 119.534 206.094 109.859C203.332 103.868 203.308 98.4435 205.817 97.2747C207.368 96.5544 209.872 97.4417 213.293 100.81C222.357 109.688 225.496 113.256 225.791 113.137C226.354 112.908 231.549 95.3761 231.549 95.3761L255.702 112.197Z" fill="#4B3685"/>
<path d="M240.752 136.288C240.456 136.631 240.155 136.965 239.855 137.289C237.136 139.001 234.086 140.118 230.905 140.567C230.028 140.664 229.145 140.699 228.262 140.672L227.714 140.328C228.767 140.392 229.824 140.365 230.872 140.247C232.127 140.11 233.362 139.825 234.55 139.398L235.452 139.102L236.325 138.735C236.616 138.611 236.916 138.506 237.198 138.363L238.042 137.934C238.981 137.447 239.887 136.897 240.752 136.288V136.288ZM222.423 109.95C219.667 111.204 217.153 112.933 214.996 115.059C213.597 116.437 212.304 117.919 211.127 119.491C211.184 119.596 211.246 119.706 211.313 119.81C212.504 118.212 213.816 116.708 215.239 115.312C217.046 113.536 219.106 112.037 221.35 110.861L222.194 110.432C222.349 110.353 222.509 110.283 222.671 110.222L222.423 109.95ZM243.289 111.472C240.998 110.35 238.601 109.46 236.134 108.815C235.876 108.753 235.619 108.69 235.356 108.638C235.189 108.6 235.017 108.562 234.851 108.533C232.765 108.096 230.625 107.987 228.506 108.209C228.196 108.252 227.89 108.299 227.58 108.357C227.547 108.466 227.509 108.581 227.475 108.686C227.828 108.624 228.186 108.571 228.544 108.528C230.511 108.321 232.497 108.403 234.44 108.772L234.96 108.867C235.328 108.943 235.695 109.024 236.062 109.115C238.509 109.746 240.887 110.618 243.161 111.72C246.567 113.391 249.871 115.262 253.055 117.325C253.102 117.244 253.145 117.163 253.183 117.087C250 115.02 246.696 113.145 243.289 111.472V111.472ZM245.794 105.299C241.926 105.458 238.158 106.569 234.822 108.533L234.412 108.772C233.569 109.276 232.755 109.827 231.974 110.422C227.886 113.533 224.623 117.53 221.517 121.552C219.962 123.57 218.435 125.602 216.823 127.567C216.708 127.71 216.589 127.849 216.47 127.992L216.651 128.254C216.789 128.092 216.928 127.93 217.061 127.777C218.683 125.807 220.215 123.775 221.775 121.762C224.88 117.754 228.138 113.785 232.184 110.718C233.061 110.049 233.978 109.436 234.932 108.881C235.06 108.8 235.194 108.724 235.328 108.652C236.439 108.029 237.597 107.493 238.791 107.049L239.683 106.725C239.979 106.62 240.289 106.549 240.594 106.458L241.505 106.205L242.459 106.019C243.691 105.741 244.951 105.61 246.214 105.628H246.271L245.794 105.299ZM216.145 103.634C214.479 104.374 212.737 104.933 210.95 105.299L210.02 105.48C209.71 105.537 209.395 105.556 209.066 105.599L208.112 105.709L207.158 105.747C206.287 105.808 205.412 105.792 204.544 105.699L204.63 106.014C208.662 106.309 212.703 105.58 216.379 103.896C216.327 103.806 216.236 103.72 216.145 103.634ZM209.266 97.7089C207.577 98.8565 205.825 99.9092 204.019 100.862C204.019 100.991 204.019 101.12 204.019 101.253C205.946 100.245 207.81 99.1206 209.6 97.8854C209.486 97.8234 209.376 97.7613 209.266 97.7089Z" fill="white"/>
<path d="M249.992 115.002C249.353 114.472 248.709 113.957 248.06 113.442C246.743 112.402 245.427 111.367 244.11 110.336C241.486 108.29 238.805 106.315 236.105 104.373C234.574 103.266 233.066 102.102 231.487 101.067C231.48 101.062 231.471 101.058 231.462 101.055C231.453 101.053 231.444 101.052 231.434 101.054C231.425 101.055 231.416 101.058 231.408 101.063C231.4 101.068 231.393 101.074 231.387 101.082C231.381 101.089 231.377 101.098 231.375 101.107C231.373 101.116 231.372 101.125 231.374 101.135C231.375 101.144 231.378 101.153 231.383 101.161C231.388 101.169 231.394 101.176 231.401 101.182C232.656 102.289 234.001 103.3 235.304 104.354C236.606 105.408 237.899 106.467 239.22 107.498C241.847 109.54 244.506 111.542 247.196 113.504C247.945 114.057 248.685 114.639 249.462 115.159C249.858 115.426 250.235 115.722 250.636 115.98C251.037 116.237 251.466 116.457 251.857 116.748C251.866 116.753 251.877 116.755 251.887 116.753C251.897 116.751 251.906 116.745 251.912 116.737C251.919 116.729 251.922 116.719 251.921 116.709C251.921 116.698 251.917 116.689 251.91 116.681C251.256 116.132 250.646 115.536 249.992 115.002Z" fill="#263238"/>
<path d="M225.997 112.593C225.074 115.085 224.316 117.635 223.726 120.226C223.411 121.504 223.163 122.797 222.92 124.085C222.662 125.365 222.49 126.66 222.404 127.963C222.404 128.011 222.476 128.011 222.485 127.963C222.886 126.718 223.182 125.421 223.468 124.147C223.754 122.873 224.079 121.59 224.365 120.33C224.942 117.764 225.62 115.221 226.121 112.64C226.124 112.632 226.125 112.624 226.125 112.615C226.125 112.606 226.123 112.598 226.119 112.59C226.116 112.582 226.111 112.574 226.104 112.568C226.098 112.562 226.091 112.558 226.082 112.555C226.074 112.551 226.066 112.55 226.057 112.55C226.048 112.55 226.04 112.552 226.032 112.556C226.024 112.559 226.016 112.565 226.01 112.571C226.004 112.577 226 112.585 225.997 112.593V112.593Z" fill="#263238"/>
<path opacity="0.1" d="M237.198 139.818C235.495 141.201 233.858 142.027 232.356 142.007C223.44 141.931 210.559 119.534 206.094 109.859C203.332 103.868 203.308 98.4435 205.817 97.2747L237.198 139.818Z" fill="#9B9B9B"/>
<path d="M223.368 161.624H165.373C164.734 160.45 174.237 109.654 193.796 95.3475C198.137 92.1751 205.836 94.2169 207.974 97.3034C218.736 112.812 223.368 161.624 223.368 161.624Z" fill="#4B3685"/>
<path d="M220.353 139.074C218.905 138.561 217.486 137.97 216.103 137.304C214.161 136.374 212.286 135.343 210.421 134.255L210.149 134.093C208.241 132.963 206.333 131.765 204.463 130.558L204.195 130.387L202.926 129.566C198.633 126.814 194.406 123.98 189.822 121.776C187.556 120.643 185.15 119.815 182.666 119.314C181.42 119.092 180.151 119.022 178.888 119.104C178.573 119.104 178.263 119.171 177.934 119.214C177.719 119.257 177.505 119.286 177.285 119.329C177.319 119.252 177.347 119.181 177.385 119.104C177.557 119.071 177.734 119.042 177.905 119.004C178.22 118.966 178.54 118.918 178.859 118.895C180.135 118.809 181.417 118.878 182.676 119.1C185.186 119.596 187.618 120.426 189.908 121.566C194.516 123.77 198.771 126.604 203.055 129.347L204.315 130.153L204.587 130.325C206.495 131.551 208.403 132.767 210.383 133.917L210.655 134.079C212.467 135.133 214.314 136.135 216.212 137.037C217.539 137.671 218.897 138.236 220.281 138.73L220.353 139.074ZM215.191 114.854L214.996 115.04C211.318 118.623 208.57 122.992 205.98 127.362C205.433 128.294 204.882 129.224 204.329 130.153C204.286 130.234 204.243 130.31 204.195 130.387C203.494 131.57 202.788 132.748 202.053 133.907C201.409 134.928 200.737 135.935 200.021 136.908C199.954 136.999 199.892 137.089 199.826 137.175C199.102 138.153 198.321 139.088 197.488 139.975C196.62 140.896 195.661 141.728 194.626 142.456L194.239 142.728C194.111 142.818 193.968 142.89 193.834 142.971L193.018 143.448C192.456 143.732 191.876 143.979 191.282 144.188C188.875 144.987 186.356 145.394 183.821 145.395C181.294 145.384 178.776 145.098 176.312 144.541C173.927 144.035 171.613 143.358 169.28 142.68C169.28 142.756 169.242 142.833 169.218 142.904C171.546 143.587 173.884 144.273 176.26 144.784C178.753 145.353 181.301 145.647 183.859 145.662C186.423 145.663 188.971 145.254 191.406 144.45C192.014 144.241 192.607 143.991 193.18 143.701L194.015 143.224C194.156 143.149 194.293 143.066 194.425 142.976L194.821 142.699C195.872 141.963 196.846 141.123 197.727 140.19C198.615 139.239 199.446 138.237 200.217 137.189C200.288 137.099 200.35 137.013 200.412 136.922C201.09 135.997 201.729 135.047 202.321 134.084C203.06 132.925 203.752 131.746 204.467 130.568L204.606 130.334L206.261 127.539C208.856 123.174 211.604 118.842 215.244 115.302L215.306 115.245C215.263 115.107 215.225 114.978 215.191 114.854ZM217.944 126.184C217.577 126.661 217.205 127.109 216.828 127.567C215.248 129.553 213.483 131.383 211.556 133.034C211.175 133.335 210.793 133.635 210.397 133.917L210.149 134.093C209.597 134.483 209.018 134.834 208.417 135.143L208.002 135.367C207.864 135.443 207.711 135.496 207.568 135.563L206.7 135.935C206.108 136.148 205.502 136.322 204.887 136.455C203.409 136.771 201.901 136.931 200.389 136.932H200.021C199.124 136.932 198.228 136.86 197.335 136.765C194.818 136.448 192.343 135.854 189.956 134.995C187.57 134.17 185.218 133.154 182.881 132.133C180.554 131.08 178.165 130.174 175.725 129.418C175.005 129.213 174.294 129.032 173.531 128.898L173.459 129.103C174.203 129.242 174.943 129.418 175.663 129.628C178.088 130.386 180.464 131.294 182.776 132.347C185.114 133.354 187.451 134.375 189.86 135.21C192.268 136.076 194.764 136.677 197.302 137.003C198.142 137.099 198.981 137.161 199.821 137.175C199.945 137.175 200.064 137.175 200.188 137.175C201.79 137.201 203.39 137.051 204.959 136.727C205.586 136.588 206.204 136.411 206.81 136.197L207.697 135.815C207.845 135.749 207.993 135.696 208.136 135.62L208.56 135.391C209.212 135.059 209.837 134.678 210.43 134.251L210.679 134.074C211.041 133.812 211.399 133.535 211.752 133.254C213.698 131.596 215.481 129.756 217.076 127.758C217.394 127.367 217.712 126.971 218.03 126.57C218.001 126.446 217.973 126.313 217.944 126.184ZM211.952 105.074C211.618 105.156 211.284 105.232 210.95 105.299L210.02 105.48C209.71 105.537 209.395 105.556 209.066 105.599L208.112 105.709L207.158 105.747C205.898 105.829 204.633 105.761 203.389 105.547C201.438 105.209 199.547 104.584 197.779 103.691L197.302 103.457C196.968 103.286 196.639 103.104 196.315 102.918C194.131 101.636 192.082 100.137 190.199 98.4435L189.989 98.6534C191.89 100.365 193.956 101.883 196.157 103.185C196.386 103.319 196.634 103.448 196.854 103.572L197.331 103.81C199.217 104.8 201.244 105.493 203.342 105.866C206.249 106.274 209.207 106.112 212.052 105.389C212.033 105.284 211.99 105.179 211.952 105.074ZM208.556 98.1812C206.022 99.8805 203.319 101.311 200.489 102.451C199.463 102.851 198.413 103.187 197.345 103.457L196.897 103.572C195.657 103.86 194.397 104.056 193.128 104.159L192.174 104.221C191.859 104.244 191.544 104.221 191.22 104.221H190.266L189.312 104.144C188.162 104.078 187.023 103.887 185.915 103.577C185.848 103.667 185.781 103.758 185.719 103.853C189.529 104.81 193.518 104.795 197.321 103.81L197.798 103.691C198.75 103.439 199.686 103.133 200.603 102.775C203.448 101.628 206.165 100.189 208.713 98.4817L208.556 98.1812ZM222.824 156.634C222.347 156.634 221.832 156.677 221.336 156.691H221.298L221.007 156.715C218.562 156.971 216.186 157.678 213.999 158.8C212.434 159.617 210.939 160.561 209.529 161.624H209.829C211.175 160.627 212.598 159.741 214.085 158.971C216.291 157.845 218.689 157.144 221.154 156.906H221.331H221.445C221.923 156.906 222.371 156.853 222.829 156.858C222.838 156.772 222.834 156.705 222.824 156.634ZM223.072 158.828C222.554 158.17 222.018 157.523 221.465 156.887C221.412 156.82 221.355 156.758 221.298 156.696L221.102 156.467C219.435 154.524 217.518 152.811 215.401 151.372C214.327 150.671 213.17 150.105 211.957 149.688C211.656 149.588 211.342 149.502 211.036 149.416C210.731 149.33 210.411 149.263 210.082 149.22C209.453 149.101 208.808 149.092 208.174 149.03C205.609 148.936 203.051 149.343 200.641 150.227C198.254 151.135 195.975 152.302 193.844 153.709C190.027 156.166 186.549 159.057 182.833 161.624H182.991C186.688 159.1 190.146 156.262 193.925 153.857C196.048 152.46 198.32 151.303 200.699 150.408C203.084 149.535 205.617 149.135 208.155 149.23C208.78 149.297 209.419 149.306 210.039 149.426C210.354 149.469 210.655 149.559 210.965 149.621C211.275 149.683 211.575 149.788 211.871 149.888C213.067 150.302 214.206 150.863 215.263 151.558C217.362 152.987 219.26 154.691 220.906 156.624C220.935 156.658 220.964 156.686 220.988 156.72L221.154 156.906C221.822 157.683 222.476 158.475 223.106 159.291C223.11 159.138 223.091 158.99 223.063 158.828H223.072Z" fill="white"/>
<path d="M186.096 101.573C174.289 115.231 158.375 139.355 164.877 144.688C175.568 153.457 206.791 158.523 213.956 159.372C217.047 159.744 223.239 139.536 221.174 136.922C219.108 134.308 186.096 132.462 185.872 130.434C185.743 129.285 190.757 119.286 193.982 107.021C197.688 92.8811 189.421 97.7232 186.096 101.573Z" fill="#EBB5AD"/>
<path d="M215.764 135.257C215.764 135.257 225.238 135.186 231.435 135.429C234.893 135.563 240.799 136.326 243.294 137.59C247.025 139.474 261.422 149.755 259.008 153.299C256.819 156.505 245.57 146.105 245.57 146.105C245.57 146.105 257.849 155.599 254.505 158.986C251.161 162.373 240.012 148.929 240.012 148.929C240.012 148.929 252.415 158.947 248.413 161.905C245.388 164.123 234.607 152.522 234.607 152.522C234.607 152.522 245.202 161.218 242.192 163.637C238.853 166.308 228.239 156.224 228.239 156.224C219.556 161.08 213.45 159.84 209.157 158.442C208.15 158.084 215.764 135.257 215.764 135.257Z" fill="#EBB5AD"/>
<path d="M241.534 142.551C243.018 143.615 244.525 144.679 245.908 145.891C247.292 147.102 248.632 148.319 249.901 149.636C253.007 152.86 254.448 155.36 254.338 155.217C251.838 151.787 246.953 147.451 245.57 146.258C244.186 145.065 242.865 143.811 241.486 142.623C241.453 142.57 241.501 142.527 241.534 142.551Z" fill="#263238"/>
<path d="M237.145 147.47C238.977 148.901 240.852 150.265 242.622 151.787C244.391 153.309 246.786 155.503 248.442 157.135C248.566 157.259 248.442 157.497 248.308 157.378C246.591 155.813 244.038 153.676 242.302 152.13C240.566 150.585 238.891 148.977 237.107 147.503C237.078 147.498 237.116 147.446 237.145 147.47Z" fill="#263238"/>
<path d="M232.604 151.009C235.518 153.065 238.052 155.656 240.475 158.256C240.599 158.385 240.475 158.404 240.322 158.28C237.751 155.823 235.747 153.876 232.532 151.124C232.494 151.067 232.556 150.966 232.604 151.009Z" fill="#263238"/>
<path d="M214.433 134.957C218.755 134.928 231.449 134.895 235.762 135.229C239.578 135.52 242.722 136.34 245.923 138.458C252.792 143 257.219 148.333 258.326 149.907C258.994 150.861 259.962 152.402 259.08 153.471C257.997 154.769 254.014 153.5 249.811 149.697C249.658 149.559 249.753 149.473 249.911 149.602C255.812 154.373 258.159 153.829 258.774 153.013C259.175 152.483 258.774 151.582 258.431 150.866C257.856 149.854 257.154 148.919 256.342 148.085C253.631 145.185 250.632 142.569 247.392 140.276C243.92 137.685 239.785 136.131 235.466 135.796C231.048 135.434 218.826 135.548 214.414 135.124C214.323 135.095 214.337 134.961 214.433 134.957Z" fill="#263238"/>
<path d="M255.206 157.077C254.963 155.899 254.114 154.821 253.441 153.848C252.624 152.623 251.686 151.484 250.641 150.446C250.598 150.404 250.517 150.446 250.56 150.513C251.45 151.554 252.276 152.646 253.036 153.786C253.439 154.413 253.805 155.062 254.133 155.732C254.443 156.376 254.81 157.12 254.648 157.855C254.343 159.258 252.559 159.224 251.504 158.847C250.821 158.59 250.163 158.271 249.539 157.893C248.688 157.351 247.881 156.743 247.125 156.076C247.063 156.018 246.891 156.042 246.958 156.104C248.532 157.602 251.514 160.717 253.947 159.577C254.414 159.371 254.794 159.009 255.024 158.553C255.254 158.097 255.318 157.575 255.206 157.077V157.077Z" fill="#263238"/>
<path d="M215.907 134.031L204.558 159.792C204.558 159.792 164.896 150.838 162.597 143.31C160.298 135.782 172.725 115.641 183.94 103.066C194.969 90.7106 196.601 99.0923 193.858 108.648C191.115 118.203 186.616 129.218 187.117 130.043C187.618 130.868 215.907 134.031 215.907 134.031Z" fill="#4B3685"/>
<path d="M189.669 121.452C189.641 121.523 189.617 121.599 189.588 121.671C187.385 120.587 185.05 119.795 182.642 119.314C181.396 119.092 180.127 119.022 178.864 119.104C178.549 119.104 178.239 119.171 177.91 119.214C177.581 119.257 177.29 119.31 176.985 119.395C176.364 119.529 175.778 119.768 175.172 119.954C172.834 120.843 170.69 122.174 168.856 123.875L169.156 123.355C170.906 121.81 172.919 120.593 175.1 119.763C175.711 119.572 176.307 119.329 176.937 119.195C177.247 119.109 177.567 119.071 177.891 119.004C178.215 118.937 178.525 118.918 178.845 118.895C180.121 118.809 181.402 118.878 182.661 119.1C185.09 119.576 187.446 120.366 189.669 121.452V121.452ZM210.659 134.079L210.387 133.917L209.3 133.273L208.642 133.196C209.119 133.497 209.639 133.802 210.139 134.093L210.411 134.255C211.843 135.09 213.274 135.892 214.743 136.641L214.857 136.378C213.445 135.648 212.048 134.88 210.659 134.079ZM202.917 132.5C202.631 132.977 202.34 133.454 202.044 133.907C201.4 134.928 200.727 135.935 200.012 136.908C199.945 136.999 199.883 137.089 199.816 137.175C199.092 138.153 198.312 139.088 197.479 139.975C196.61 140.896 195.651 141.728 194.616 142.456L194.23 142.728C194.101 142.818 193.958 142.89 193.824 142.971L193.009 143.448C192.446 143.732 191.866 143.979 191.272 144.188C188.866 144.987 186.347 145.394 183.811 145.395C181.288 145.384 178.773 145.097 176.312 144.541C173.827 144.011 171.389 143.291 168.942 142.58C166.771 141.95 164.586 141.316 162.354 140.901C162.354 140.977 162.354 141.053 162.354 141.125C164.562 141.54 166.723 142.179 168.884 142.804C171.327 143.52 173.774 144.235 176.269 144.784C178.763 145.353 181.311 145.647 183.868 145.662C186.433 145.663 188.98 145.254 191.415 144.45C192.023 144.241 192.616 143.991 193.19 143.701L194.025 143.224C194.166 143.149 194.303 143.066 194.435 142.976L194.831 142.699C195.882 141.963 196.855 141.123 197.736 140.19C198.624 139.239 199.456 138.237 200.226 137.189C200.298 137.099 200.36 137.013 200.422 136.922C201.099 135.997 201.739 135.047 202.33 134.084C202.655 133.578 202.969 133.063 203.284 132.552L202.917 132.5ZM210.989 133.454C210.793 133.607 210.593 133.759 210.387 133.902L210.139 134.079C209.587 134.469 209.009 134.819 208.408 135.128L207.993 135.353C207.854 135.429 207.702 135.482 207.559 135.548L206.69 135.92C206.098 136.134 205.493 136.308 204.878 136.44C203.399 136.757 201.891 136.917 200.379 136.917H200.012C199.115 136.917 198.218 136.846 197.326 136.75C194.808 136.433 192.333 135.84 189.946 134.981C187.561 134.155 185.209 133.139 182.871 132.118C180.545 131.066 178.155 130.159 175.716 129.404C173.268 128.703 170.659 128.321 168.126 128.817C167.32 128.979 166.54 129.25 165.807 129.623C165.76 129.719 165.712 129.819 165.669 129.914C166.453 129.496 167.293 129.194 168.164 129.018C170.654 128.54 173.23 128.913 175.654 129.614C178.079 130.372 180.454 131.28 182.766 132.333C185.104 133.34 187.442 134.36 189.851 135.195C192.261 136.067 194.76 136.673 197.302 137.003C198.142 137.099 198.981 137.161 199.821 137.175C199.945 137.175 200.064 137.175 200.188 137.175C201.79 137.201 203.39 137.051 204.959 136.727C205.586 136.588 206.204 136.411 206.81 136.197L207.697 135.815C207.845 135.749 207.993 135.696 208.136 135.62L208.56 135.391C209.212 135.059 209.837 134.678 210.43 134.251L210.679 134.074C210.927 133.893 211.156 133.702 211.423 133.511L210.989 133.454ZM190.218 98.4197C190.013 98.2384 189.812 98.0619 189.612 97.8759L189.354 98.0428L190.022 98.6391C191.575 100.03 193.234 101.298 194.984 102.432C194.984 102.312 194.984 102.193 194.984 102.079C193.309 100.985 191.719 99.7663 190.227 98.434L190.218 98.4197ZM193.118 104.144L192.164 104.206C191.849 104.23 191.535 104.206 191.21 104.206H190.256L189.302 104.13C188.04 104.055 186.792 103.834 185.581 103.472C185.052 103.314 184.527 103.133 184.012 102.923L183.897 103.052L183.787 103.176C184.343 103.409 184.912 103.611 185.49 103.782C188.512 104.588 191.667 104.764 194.759 104.297C194.759 104.178 194.793 104.063 194.812 103.944C194.282 104.049 193.705 104.116 193.128 104.159L193.118 104.144ZM208.174 149.015C205.608 148.926 203.05 149.338 200.641 150.227C198.254 151.135 195.975 152.302 193.843 153.709C192.651 154.482 191.487 155.293 190.337 156.128L190.523 156.181C191.64 155.374 192.77 154.597 193.929 153.857C196.053 152.46 198.325 151.304 200.703 150.408C203.089 149.535 205.621 149.135 208.16 149.23C208.489 149.263 208.818 149.282 209.147 149.311L209.238 149.111C208.899 149.082 208.537 149.063 208.184 149.03L208.174 149.015Z" fill="white"/>
<path d="M200.007 155.532C200.393 154.797 200.765 154.062 201.138 153.323C201.885 151.825 202.629 150.324 203.37 148.82C204.839 145.833 206.232 142.809 207.573 139.756C208.341 138.029 209.176 136.321 209.868 134.561C209.876 134.543 209.877 134.523 209.87 134.504C209.863 134.486 209.849 134.471 209.832 134.463C209.814 134.455 209.794 134.454 209.775 134.461C209.757 134.467 209.742 134.481 209.734 134.499C208.909 135.954 208.193 137.476 207.43 138.969C206.667 140.462 205.889 141.941 205.154 143.448C203.691 146.435 202.273 149.445 200.899 152.479C200.513 153.328 200.093 154.167 199.745 155.036C199.563 155.479 199.353 155.909 199.177 156.357C199 156.806 198.867 157.263 198.7 157.707C198.698 157.712 198.696 157.717 198.696 157.722C198.696 157.727 198.697 157.732 198.699 157.737C198.7 157.742 198.703 157.747 198.706 157.751C198.71 157.754 198.714 157.757 198.719 157.76C198.724 157.762 198.729 157.763 198.734 157.763C198.739 157.763 198.744 157.763 198.749 157.761C198.754 157.759 198.758 157.756 198.762 157.753C198.766 157.749 198.769 157.745 198.771 157.741C199.158 157.001 199.611 156.286 200.007 155.532Z" fill="#263238"/>
<path d="M205.412 158.022L204.615 159.825L204.591 159.882H204.515C200.761 159.186 197.03 158.351 193.324 157.421C189.617 156.491 185.939 155.436 182.299 154.263C178.646 153.108 175.064 151.742 171.57 150.17C169.817 149.381 168.124 148.466 166.504 147.432C165.696 146.904 164.931 146.313 164.219 145.662C163.484 145.032 162.921 144.226 162.583 143.319C163.004 144.171 163.621 144.911 164.381 145.48C165.134 146.059 165.933 146.574 166.771 147.021C168.428 147.942 170.139 148.763 171.895 149.478C175.401 150.933 179.003 152.173 182.623 153.337C186.244 154.501 189.898 155.584 193.562 156.624C197.226 157.664 200.904 158.695 204.587 159.682L204.491 159.73L205.412 158.022Z" fill="#263238"/>
<path d="M215.454 135.033L215.85 134.007L215.893 134.079C211.914 133.817 207.94 133.497 203.966 133.082C199.993 132.667 196.043 132.214 192.093 131.622C191.105 131.47 190.118 131.307 189.13 131.116C188.653 131.016 188.143 130.921 187.632 130.778C187.504 130.74 187.38 130.701 187.241 130.649C187.162 130.623 187.085 130.59 187.012 130.549C186.956 130.519 186.904 130.484 186.855 130.444C186.803 130.401 186.76 130.349 186.726 130.291C186.707 130.254 186.689 130.216 186.673 130.177C186.671 130.158 186.671 130.138 186.673 130.119C186.654 129.938 186.664 129.754 186.702 129.576C186.726 129.447 186.75 129.308 186.783 129.189C187.289 127.209 187.928 125.339 188.577 123.465C189.874 119.691 191.287 115.965 192.775 112.264C191.625 116.08 190.447 119.896 189.273 123.713C188.71 125.621 188.09 127.529 187.656 129.437C187.628 129.557 187.613 129.666 187.589 129.781C187.566 129.895 187.589 130.029 187.566 129.981C187.542 129.933 187.566 129.981 187.566 129.981C187.56 129.956 187.551 129.932 187.537 129.91C187.537 129.862 187.451 129.814 187.47 129.824C187.489 129.833 187.446 129.824 187.47 129.824L187.589 129.871L187.904 129.972C188.381 130.096 188.858 130.186 189.335 130.282C190.289 130.458 191.287 130.611 192.264 130.759C194.23 131.054 196.199 131.333 198.17 131.594L204.09 132.39C208.036 132.915 211.981 133.478 215.926 134.055H215.998L215.969 134.117L215.454 135.033Z" fill="#263238"/>
<path d="M193.199 114.706C192.92 115.379 192.566 116.019 192.145 116.614C191.75 117.223 191.268 117.771 190.714 118.241C191.077 117.607 191.463 117.005 191.873 116.409C192.272 115.809 192.715 115.239 193.199 114.706V114.706Z" fill="#263238"/>
<path d="M204.758 105.895C201.39 106.849 195.322 101.921 192.832 97.8138C192.66 97.5324 193.338 85.9306 193.233 83.6169C193.233 83.1398 207.897 86.4792 207.897 86.4792C207.897 86.4792 206.69 91.3928 206.9 95.4238C206.915 95.7673 208.007 104.97 204.758 105.895Z" fill="#EBB5AD"/>
<path d="M193.009 90.8823C199.873 95.7291 206.562 93.8686 206.843 93.7828C206.956 91.3237 207.296 88.8803 207.859 86.4839C207.859 86.4839 193.166 83.1446 193.19 83.6217C193.276 84.7046 193.157 87.834 193.009 90.8823Z" fill="#263238"/>
<path d="M207.826 76.9239C208.203 80.3491 210.946 82.8584 213.946 82.5244C216.947 82.1905 219.079 79.1517 218.717 75.7313C218.354 72.3109 215.602 69.7968 212.596 70.1308C209.591 70.4647 207.449 73.5035 207.826 76.9239Z" fill="#BCB1D2"/>
<path d="M206.089 77.3342C206.509 81.1506 209.557 83.9317 212.897 83.5644C216.236 83.1971 218.621 79.8148 218.187 76.0032C217.753 72.1916 214.724 69.4056 211.38 69.773C208.036 70.1403 205.67 73.5273 206.089 77.3342Z" fill="#C7C7C7"/>
<path d="M191.201 66.1856C189.598 71.3281 192.226 86.2216 195.866 89.5609C201.147 94.4029 209.839 94.9134 213.961 88.5591C217.958 82.3956 214.19 63.0514 210.116 60.0126C204.119 55.5283 193.567 58.5957 191.201 66.1856Z" fill="#EBB5AD"/>
<path d="M203.575 75.5357C203.575 75.5023 203.508 75.5977 203.518 75.6407C203.737 76.6329 203.828 77.8112 202.989 78.3169C202.96 78.3169 202.989 78.3837 202.989 78.3694C204.081 78.002 203.947 76.4421 203.575 75.5357Z" fill="#263238"/>
<path d="M202.483 74.6627C200.851 74.8488 201.343 78.1022 202.855 77.9305C204.367 77.7587 203.852 74.5101 202.483 74.6627Z" fill="#263238"/>
<path d="M209.367 74.7533C209.367 74.7152 209.452 74.7915 209.457 74.8344C209.577 75.8458 209.887 76.9812 210.845 77.1815C210.874 77.1815 210.884 77.2388 210.845 77.2388C209.705 77.2483 209.319 75.7313 209.367 74.7533Z" fill="#263238"/>
<path d="M210.106 73.5559C211.709 73.1886 212.324 76.4182 210.841 76.7617C209.357 77.1052 208.751 73.8756 210.106 73.5559Z" fill="#263238"/>
<path d="M200.975 73.3699C201.385 73.1811 201.783 72.9693 202.168 72.7354C202.619 72.5707 203.003 72.2623 203.26 71.8577C203.316 71.7144 203.323 71.5568 203.28 71.4092C203.237 71.2616 203.146 71.1325 203.022 71.0419C202.75 70.8995 202.446 70.8324 202.14 70.8475C201.833 70.8626 201.537 70.9594 201.281 71.1278C200.706 71.387 200.248 71.8514 199.997 72.4301C199.947 72.5652 199.938 72.712 199.97 72.8524C200.002 72.9928 200.074 73.1208 200.178 73.2207C200.282 73.3205 200.413 73.3878 200.555 73.4143C200.696 73.4408 200.842 73.4254 200.975 73.3699V73.3699Z" fill="#263238"/>
<path d="M211.136 71.7384C210.686 71.7162 210.237 71.67 209.791 71.6001C209.312 71.6181 208.841 71.4772 208.451 71.1993C208.343 71.0879 208.276 70.944 208.26 70.7903C208.244 70.6365 208.279 70.4817 208.36 70.3502C208.56 70.117 208.818 69.9407 209.108 69.8394C209.398 69.738 209.709 69.7151 210.011 69.773C210.64 69.7991 211.237 70.0594 211.685 70.5029C211.781 70.609 211.844 70.7407 211.867 70.882C211.89 71.0234 211.871 71.1682 211.813 71.2991C211.755 71.4299 211.66 71.541 211.54 71.619C211.42 71.697 211.28 71.7385 211.136 71.7384V71.7384Z" fill="#263238"/>
<path d="M204.129 84.9765C204.405 85.1768 204.696 85.4535 205.083 85.4535C205.456 85.3904 205.812 85.249 206.127 85.0385C206.133 85.0315 206.141 85.0271 206.15 85.0262C206.159 85.0253 206.168 85.028 206.175 85.0337C206.182 85.0394 206.187 85.0476 206.187 85.0566C206.188 85.0655 206.186 85.0745 206.18 85.0814C206.067 85.3022 205.895 85.4878 205.684 85.6181C205.473 85.7485 205.231 85.8186 204.983 85.8209C204.769 85.7993 204.568 85.7147 204.403 85.5779C204.238 85.4411 204.118 85.2583 204.057 85.0528C204.014 85.0051 204.086 84.9479 204.129 84.9765Z" fill="#263238"/>
<path d="M204.73 81.8041C205.046 82.1635 205.433 82.4536 205.866 82.6564C206.299 82.8591 206.77 82.9701 207.249 82.9824C207.668 82.9989 208.087 82.9556 208.494 82.8536C208.572 82.8393 208.649 82.8169 208.723 82.7868C208.795 82.7683 208.867 82.746 208.937 82.7201C208.99 82.7024 209.035 82.6682 209.066 82.6225C209.097 82.5769 209.112 82.5223 209.109 82.4672V82.4672C209.106 82.4328 209.098 82.399 209.085 82.367V82.367V82.2812C208.985 81.5036 208.732 80.3348 208.732 80.3348C209.037 80.435 210.583 80.8643 210.497 80.4636C209.791 77.1243 209.004 73.4415 207.597 70.2882C207.587 70.2674 207.571 70.2508 207.55 70.2412C207.529 70.2317 207.505 70.23 207.484 70.2363C207.462 70.2427 207.443 70.2567 207.43 70.2759C207.418 70.295 207.412 70.318 207.415 70.3407C207.969 73.5607 209.085 76.6615 209.696 79.8816C209.146 79.7203 208.575 79.6384 208.002 79.6383C207.897 79.686 208.532 81.8852 208.546 82.2382C208.549 82.2508 208.549 82.2639 208.546 82.2764C207.268 82.6389 206.228 82.3957 204.83 81.7135C204.725 81.6658 204.658 81.7326 204.73 81.8041Z" fill="#263238"/>
<path d="M207.974 82.5292C207.634 83.1466 207.141 83.6659 206.542 84.0367C206.208 84.2271 205.824 84.3103 205.441 84.2752C204.606 84.1846 204.486 83.4499 204.525 82.7964C204.556 82.4489 204.628 82.1063 204.739 81.7755C205.71 82.3645 206.843 82.6286 207.974 82.5292V82.5292Z" fill="#263238"/>
<path d="M206.538 84.051C206.203 84.2414 205.819 84.3247 205.436 84.2895C204.601 84.1989 204.482 83.4642 204.52 82.8107C205.412 82.7534 206.337 83.2114 206.538 84.051Z" fill="#D16488"/>
<path opacity="0.2" d="M193.643 71.476C193.056 72.9549 191.849 76.4278 191.162 76.6711C190.509 71.8434 190.485 67.4641 191.682 64.7735C192.178 63.6623 192.873 62.6516 193.734 61.792C193.834 63.0848 194.268 69.9304 193.643 71.476Z" fill="#263238"/>
<path d="M206.547 64.5732C206.139 65.2811 205.555 65.8723 204.853 66.29C204.15 66.7076 203.352 66.9378 202.535 66.9584C201.704 66.9802 200.88 66.7891 200.143 66.4034C199.406 66.0177 198.779 65.4501 198.323 64.7544C198.32 64.7501 198.317 64.7462 198.313 64.7431C198.309 64.74 198.305 64.7377 198.3 64.7364C198.295 64.7351 198.29 64.7347 198.285 64.7354C198.28 64.736 198.275 64.7376 198.271 64.7401C198.266 64.7426 198.262 64.746 198.259 64.75C198.256 64.754 198.254 64.7585 198.252 64.7634C198.251 64.7683 198.251 64.7734 198.251 64.7784C198.252 64.7834 198.254 64.7882 198.256 64.7926C198.671 65.569 199.29 66.2173 200.047 66.6671C200.804 67.1169 201.669 67.3513 202.55 67.3448C203.412 67.2962 204.246 67.0215 204.969 66.5484C205.692 66.0753 206.277 65.4204 206.667 64.6495C206.677 64.6337 206.68 64.6145 206.676 64.5961C206.672 64.5778 206.661 64.5618 206.645 64.5517C206.629 64.5416 206.61 64.5381 206.592 64.5422C206.573 64.5462 206.557 64.5573 206.547 64.5732Z" fill="#263238"/>
<path d="M216.498 56.8975C215.811 55.6298 214.698 54.6463 213.355 54.121C211.494 53.3864 209.629 53.8778 207.783 54.4073C207.773 54.4073 207.763 54.4113 207.756 54.4185C207.749 54.4256 207.745 54.4353 207.745 54.4454C207.745 54.4556 207.749 54.4653 207.756 54.4724C207.763 54.4796 207.773 54.4836 207.783 54.4836C209.352 54.04 210.974 53.6822 212.577 54.1688C213.904 54.5657 215.053 55.4081 215.831 56.554C216.589 57.7405 216.895 59.1604 216.693 60.5541C216.49 61.9477 215.793 63.222 214.729 64.1438C214.101 64.6587 213.375 65.0398 212.595 65.2638C211.815 65.4877 210.997 65.5498 210.192 65.4462C210.13 65.4462 210.101 65.532 210.168 65.5416C211.264 65.7275 212.39 65.6042 213.419 65.1855C214.449 64.7668 215.342 64.0693 215.997 63.1714C216.652 62.2735 217.044 61.2107 217.128 60.1024C217.212 58.9941 216.986 57.8843 216.475 56.8975H216.498Z" fill="#263238"/>
<path d="M190.767 69.1576C190.767 69.1576 187.317 64.7258 188.987 61.5248C189.941 59.7073 194.049 59.2064 194.049 59.2064C194.049 59.2064 195.003 57.1026 198.251 55.7382C201.5 54.3739 205.884 55.1753 205.884 55.1753C205.884 55.1753 208.799 52.7519 212.138 53.9541C216.794 55.6333 217.386 62.1736 213.493 64.9882C210.755 66.9679 206.232 65.0311 206.232 65.0311C205.851 65.1504 202.273 68.2607 198.628 65.2219C198.628 65.2219 196.553 67.8362 194.077 66.6912C193.843 67.3911 193.4 68.0024 192.808 68.4433C192.217 68.8842 191.504 69.1334 190.767 69.1576V69.1576Z" fill="#263238"/>
<path d="M194.306 78.3264C194.306 78.3264 190.876 73.5559 188.71 74.7915C186.545 76.027 189.188 82.9585 191.744 83.8554C192.066 83.9967 192.412 84.0716 192.763 84.0757C193.113 84.0799 193.461 84.0131 193.786 83.8794C194.11 83.7458 194.404 83.548 194.65 83.2979C194.896 83.0479 195.089 82.7507 195.217 82.4243L194.306 78.3264Z" fill="#EBB5AD"/>
<path d="M189.512 76.7665C189.469 76.7665 189.464 76.819 189.512 76.8333C191.32 77.5393 192.288 79.1899 192.975 80.9073C192.431 80.2489 191.702 79.8959 190.819 80.5447C190.771 80.5781 190.819 80.6497 190.867 80.6401C191.181 80.5399 191.518 80.5388 191.833 80.637C192.148 80.7351 192.425 80.9277 192.627 81.1887C192.966 81.6327 193.256 82.1126 193.49 82.6199C193.576 82.7773 193.863 82.6866 193.801 82.5054V82.4624C193.801 80.144 191.973 76.9621 189.512 76.7665Z" fill="#263238"/>
<path d="M191.449 74.9871C191.449 74.9871 189.593 67.5928 191.038 63.0609C192.646 58.0233 198.709 53.0906 205.875 55.1848C205.875 55.1848 197.922 56.2105 194.058 62.8558C192.284 65.9089 193.987 74.7247 193.987 74.7247L191.449 74.9871Z" fill="#C7C7C7"/>
<path d="M199.148 77.4773C199.873 81.2937 197.76 84.8906 194.421 85.5298C191.081 86.1691 187.78 83.6217 187.05 79.8053C186.32 75.9889 188.439 72.392 191.778 71.7527C195.117 71.1135 198.418 73.6704 199.148 77.4773Z" fill="#C7C7C7"/>
<path d="M197.345 77.6013C197.999 81.0218 196.095 84.28 193.095 84.8381C190.094 85.3963 187.127 83.0969 186.473 79.6813C185.82 76.2656 187.718 73.0026 190.719 72.4444C193.719 71.8863 196.687 74.1761 197.345 77.6013Z" fill="#BCB1D2"/>
<path d="M8.05731 161.624H66.572L54.9034 93.7542H11.1486L8.05731 161.624Z" fill="#D9D9D9"/>
<path d="M8.05731 161.624H13.1856L16.0669 93.7542H11.1486L8.05731 161.624Z" fill="#A6A6A6"/>
<path d="M42.7387 64.1534C37.3051 69.5583 35.7452 78.4648 35.7452 78.4648C35.7452 78.4648 30.5358 87.4285 31.9908 92.2992C32.3757 93.6802 33.0898 94.9472 34.0719 95.9916C35.054 97.0361 36.2747 97.8267 37.6295 98.2956L37.1143 95.6051C37.1143 95.6051 38.8603 99.0637 44.6946 100.457C50.5289 101.85 58.2475 100.056 62.2642 98.0237C64.6449 96.8319 66.6764 95.0437 68.1605 92.8335L66.6578 96.7452C66.6578 96.7452 72.3204 96.5449 75.6836 90.5198C79.0468 84.4947 69.3866 75.8362 68.566 73.971C67.7455 72.1057 66.7055 58.5147 52.4084 60.857C52.4275 60.8236 46.4978 60.4324 42.7387 64.1534Z" fill="#263238"/>
<path d="M35.583 97.9092C34.0946 96.7977 32.6253 95.524 31.8048 93.9497C30.91 92.318 30.5923 90.432 30.9031 88.5972C31.2991 86.3981 32.4583 84.4565 33.5841 82.5626C34.71 80.6687 36.0648 78.7462 37.1954 76.7569C37.2574 76.6472 37.0904 76.5566 37.0141 76.6424C35.7438 78.1343 34.5588 79.6967 33.4649 81.3223C32.3457 82.8087 31.4043 84.4209 30.6598 86.1261C29.964 87.6963 29.7355 89.4337 30.0015 91.1304C30.2829 92.5094 30.8952 93.7995 31.7857 94.8895C32.8399 96.2014 34.1709 97.041 35.5066 98.0285C35.583 98.0905 35.6641 97.9712 35.583 97.9092Z" fill="#263238"/>
<path d="M76.9096 84.2895C75.1922 79.2853 70.708 76.1082 67.9554 71.7432C66.4766 69.3818 65.3269 66.7676 63.3996 64.7163C63.3471 64.659 63.2517 64.7497 63.2994 64.8069C64.8832 66.6531 65.7992 68.8761 66.9441 71.0085C68.1639 73.107 69.5893 75.0789 71.1993 76.8953C74.033 80.2919 77.4248 84.3134 76.776 89.0695C76.4755 91.264 75.1779 93.6969 72.9263 94.3791C72.8404 94.4077 72.8929 94.5508 72.9787 94.5127C73.8667 94.1561 74.6728 93.6224 75.3478 92.9442C76.0228 92.2659 76.5526 91.4572 76.9048 90.5675C77.6636 88.5439 77.6653 86.3143 76.9096 84.2895Z" fill="#263238"/>
<path d="M77.1147 85.6348C77.2696 83.7395 76.833 81.8428 75.8649 80.206C74.8774 78.5936 73.327 77.4296 71.7766 76.3896C69.9876 75.2018 68.1033 74.0712 66.9679 72.1868C66.9202 72.1057 66.8057 72.1868 66.8487 72.2679C68.6519 75.3783 72.0962 76.8285 74.4003 79.4475C77.0479 82.4386 77.0527 86.794 75.2304 90.2144C74.0722 92.2994 72.4376 94.0812 70.4599 95.4143C70.4265 95.4143 70.4599 95.4858 70.4981 95.462C73.8708 93.2485 76.8428 89.8423 77.1147 85.6348Z" fill="#263238"/>
<path d="M55.4949 108.433C69.9733 116.38 87.3045 126.356 97.9235 124.008C102.632 122.969 123.775 95.2521 124.672 92.0463C125.44 89.2937 106.296 78.2119 104.159 80.3825C100.552 84.0224 90.8012 104.516 89.3701 104.86C87.9389 105.203 75.7838 102.737 63.1325 100.452C50.9582 98.267 45.4435 102.918 55.4949 108.433Z" fill="#E9AFA2"/>
<path d="M122.616 95.5001C124.266 93.4202 131.002 83.2209 132.238 79.9627C133.473 76.7045 136.364 67.0824 133.969 65.8707C131.574 64.659 130.515 67.4021 130.515 67.4021C130.515 67.4021 131.093 63.142 128.569 62.1545C126.045 61.167 124.519 65.4939 124.519 65.4939C124.519 65.4939 124.791 61.0764 122.2 60.2463C119.61 59.4163 118.809 64.0627 118.809 64.0627C118.809 64.0627 119.248 60.0364 116.834 60.2463C113.933 60.5278 113.971 68.0461 112.33 71.5381C111.958 72.33 103.643 87.0803 103.643 87.0803L122.616 95.5001Z" fill="#E9AFA2"/>
<path d="M118.866 63.6858C118.866 69.2148 117.912 71.6382 115.05 76.2465C114.992 76.3324 115.112 76.4373 115.183 76.3514C118.427 72.0962 120.059 69.2339 119.152 63.6715C119.09 63.3996 118.866 63.4235 118.866 63.6858Z" fill="#263238"/>
<path d="M124.49 65.0597C124.013 70.7843 122.992 73.4367 120.316 78.4886C120.278 78.5602 120.397 78.6317 120.44 78.5602C123.479 73.8279 125.044 70.9274 124.777 65.1313C124.791 64.8689 124.514 64.7974 124.49 65.0597Z" fill="#263238"/>
<path d="M130.353 67.6549C129.48 73.1791 128.498 76.1177 125.273 80.6878C125.264 80.6981 125.258 80.71 125.254 80.7228C125.25 80.7356 125.249 80.749 125.25 80.7623C125.251 80.7756 125.255 80.7885 125.262 80.8003C125.268 80.8121 125.277 80.8225 125.287 80.8309C125.297 80.8394 125.309 80.8457 125.322 80.8496C125.335 80.8534 125.348 80.8547 125.361 80.8534C125.375 80.8521 125.388 80.8481 125.399 80.8418C125.411 80.8355 125.422 80.8269 125.43 80.8166C129.175 76.4755 130.43 72.8213 130.52 67.6978C130.515 67.3543 130.41 67.3066 130.353 67.6549Z" fill="#263238"/>
<path d="M99.5455 88.7499C99.5455 88.7499 99.14 81.8375 99.6361 78.7605C100.132 75.6836 106.186 64.8928 108.571 66.0663C111.677 67.5881 109.406 74.5053 107.851 77.7492C107.851 77.7492 115.035 81.2507 114.482 86.5698C113.928 91.8889 99.5455 88.7499 99.5455 88.7499Z" fill="#E9AFA2"/>
<path d="M109.306 66.7628C111.138 70.1928 108.829 74.3192 107.55 77.5775C107.529 77.6246 107.52 77.676 107.524 77.7274C107.527 77.7788 107.543 77.8286 107.569 77.8727C107.596 77.9167 107.633 77.9536 107.677 77.9803C107.721 78.007 107.771 78.0226 107.822 78.0259C110.737 79.6956 114.363 82.9013 114.673 86.4315C114.673 86.453 114.681 86.4736 114.696 86.4888C114.712 86.504 114.732 86.5126 114.754 86.5126C114.775 86.5126 114.796 86.504 114.811 86.4888C114.826 86.4736 114.835 86.453 114.835 86.4315C115.016 82.6151 111.71 79.1613 108.404 77.5345C109.759 74.1952 111.901 69.9733 109.358 66.7437C109.325 66.7294 109.296 66.7437 109.306 66.7628Z" fill="#263238"/>
<path d="M85.9258 103.729L68.4992 118.336C68.4992 118.336 57.8611 112.803 50.0041 106.444C42.1471 100.085 50.8485 96.9933 64.3394 99.2593C77.8303 101.525 85.9258 103.729 85.9258 103.729Z" fill="#4B3685"/>
<path d="M65.2839 106.663C64.7902 105.989 64.2185 105.376 63.5809 104.836C64.2865 106.353 65.306 107.702 66.572 108.795C66.23 108.035 65.7975 107.319 65.2839 106.663V106.663ZM50.0184 106.453L50.2283 106.615C50.3667 106.467 50.505 106.31 50.6338 106.138C50.4144 106.238 50.2092 106.343 50.0089 106.472L50.0184 106.453ZM79.1899 106.549C78.3655 106.428 77.5299 106.402 76.6997 106.472C77.4784 106.766 78.2884 106.969 79.1135 107.078C79.9375 107.203 80.7734 107.23 81.6037 107.159C80.8223 106.863 80.009 106.658 79.1803 106.549H79.1899ZM73.3556 100.9C73.3448 101.219 73.356 101.538 73.389 101.854C73.5053 101.568 73.6041 101.275 73.6847 100.977L73.3556 100.9Z" fill="white"/>
<path d="M64.597 115.217C68.1415 111.81 71.9292 108.648 75.7695 105.566C76.8571 104.698 77.9639 103.848 79.1088 103.033C79.1422 103.009 79.1851 103.033 79.1517 103.076C77.3485 104.741 75.4737 106.329 73.6084 107.927C71.7432 109.525 69.8541 111.123 67.9411 112.674C66.8582 113.552 65.7801 114.429 64.6829 115.283C64.6161 115.317 64.5541 115.259 64.597 115.217Z" fill="#263238"/>
<path d="M75.903 112.13L68.4945 118.332C68.4945 118.332 57.8563 112.803 49.9993 106.444C47.2086 104.187 46.5074 102.346 47.3613 101.005L75.903 112.13Z" fill="#263238"/>
<path d="M72.3156 161.566H16.7825C16.7825 161.566 28.847 114.973 40.0147 101.854C40.2628 101.554 40.5204 101.268 40.778 101.001C40.8305 100.938 40.8782 100.896 40.9307 100.843C41.7952 99.9195 42.8017 99.1401 43.9122 98.5342C44.1078 98.4292 44.3034 98.329 44.5085 98.2432C48.8019 96.2634 53.353 97.9045 56.6303 100.71C57.6702 101.597 69.4438 116.929 70.4647 122.754C71.3663 127.911 67.8838 133.449 67.8838 133.449L72.3156 161.566Z" fill="#4B3685"/>
<path d="M59.5641 131.455C57.1996 131.686 54.8556 132.093 52.5516 132.672C51.4066 132.977 50.2903 133.33 49.1693 133.707C48.6111 133.898 48.053 134.069 47.4901 134.236C46.904 134.427 46.2968 134.546 45.6821 134.589C45.6707 134.589 45.6598 134.594 45.6517 134.602C45.6436 134.61 45.6391 134.621 45.6391 134.632C45.6391 134.644 45.6436 134.655 45.6517 134.663C45.6598 134.671 45.6707 134.675 45.6821 134.675C46.2645 134.7 46.8479 134.684 47.4281 134.628C47.9867 134.558 48.5398 134.449 49.0834 134.303C50.2474 134.003 51.3923 133.654 52.5516 133.349C54.8891 132.729 57.2218 132.109 59.5975 131.656C59.6241 131.651 59.6478 131.636 59.6635 131.614C59.6791 131.592 59.6855 131.565 59.681 131.539C59.6766 131.512 59.6618 131.488 59.6399 131.473C59.618 131.457 59.5907 131.451 59.5641 131.455V131.455Z" fill="#263238"/>
<path d="M65.4318 133.502C63.4802 133.314 61.5197 133.236 59.5594 133.268C58.6053 133.292 57.6082 133.368 56.6303 133.468C56.1532 133.521 55.6762 133.578 55.2373 133.64C54.7984 133.702 54.226 133.845 53.7155 133.907C53.6631 133.907 53.6631 133.998 53.7155 133.993C54.1926 133.95 54.6935 133.993 55.1801 133.969L56.6446 133.917C57.5987 133.888 58.5957 133.864 59.5737 133.821C61.5296 133.74 63.4807 133.678 65.4366 133.659C65.5415 133.664 65.532 133.511 65.4318 133.502Z" fill="#263238"/>
<path d="M34.7386 112.807C34.4762 112.473 34.2091 112.144 33.9181 111.853L33.7129 112.283C33.9038 112.578 34.1089 112.869 34.3188 113.151C34.813 113.82 35.3847 114.429 36.0219 114.964C35.6736 114.2 35.2434 113.477 34.7386 112.807V112.807ZM41.1835 100.585C41.0863 101.33 41.0703 102.084 41.1358 102.832C41.4322 102.05 41.6324 101.235 41.7321 100.404C41.7321 100.28 41.7655 100.151 41.7798 100.027C41.5795 100.204 41.3791 100.39 41.1835 100.585V100.585ZM58.0376 116.109C57.7405 116.89 57.5356 117.703 57.427 118.532C57.3068 119.358 57.2796 120.195 57.3459 121.027C57.6454 120.247 57.8473 119.433 57.947 118.604C58.0779 117.779 58.1083 116.941 58.0376 116.109ZM47.4233 142.976C47.1293 143.754 46.9276 144.564 46.8222 145.39C46.7012 146.216 46.6756 147.053 46.7459 147.885C47.3129 146.314 47.5437 144.642 47.4233 142.976ZM29.3814 122.692C29.0901 123.476 28.8884 124.291 28.7803 125.12C28.6589 125.944 28.6332 126.78 28.7039 127.61C28.9959 126.828 29.196 126.015 29.3003 125.187C29.4253 124.361 29.4525 123.524 29.3814 122.692V122.692ZM44.3129 119.286C43.4886 119.165 42.653 119.139 41.8228 119.209C42.6015 119.503 43.4114 119.707 44.2366 119.815C45.0606 119.94 45.8964 119.967 46.7268 119.896C45.9507 119.594 45.1423 119.383 44.3177 119.267L44.3129 119.286ZM64.2917 142.184C63.4657 142.063 62.6286 142.037 61.7967 142.108C63.3675 142.675 65.0399 142.905 66.7056 142.785C65.9284 142.49 65.1201 142.286 64.2965 142.174L64.2917 142.184ZM26.9961 139.985C26.1859 139.867 25.3653 139.839 24.5489 139.899H24.5012H24.5441C25.3147 140.183 26.1148 140.38 26.9293 140.486C27.7537 140.607 28.5893 140.632 29.4195 140.562C28.6367 140.277 27.8235 140.083 26.9961 139.985ZM47.948 159.682C47.1237 159.561 46.2881 159.536 45.4579 159.606C47.03 160.174 48.7045 160.403 50.3714 160.278C49.5827 159.987 48.7632 159.787 47.929 159.682H47.948ZM25.4123 157.268C24.5863 157.147 23.7492 157.122 22.9174 157.192C23.6966 157.482 24.5065 157.682 25.3312 157.788C26.1566 157.916 26.9946 157.942 27.8262 157.865C27.0408 157.573 26.2245 157.373 25.3932 157.268H25.4123ZM48.4919 107.426C47.8199 107.926 47.2069 108.501 46.6648 109.139C47.426 108.793 48.146 108.362 48.8115 107.856C49.4822 107.358 50.0908 106.781 50.6243 106.138C49.8683 106.488 49.1531 106.92 48.4919 107.426V107.426ZM54.4359 132.963C53.7655 133.456 53.1568 134.027 52.6231 134.666C53.382 134.322 54.0977 133.889 54.7555 133.378C55.4271 132.886 56.0358 132.314 56.5683 131.675C55.8099 132.024 55.0944 132.459 54.4359 132.972V132.963ZM33.5937 148.572C32.9194 149.063 32.3089 149.637 31.7761 150.279C32.5322 149.93 33.2473 149.498 33.9085 148.991C34.5792 148.494 35.192 147.922 35.7356 147.288C34.9698 147.627 34.25 148.061 33.5937 148.581V148.572ZM68.2083 126.117C67.7145 125.443 67.1428 124.83 66.5052 124.29C67.2109 125.807 68.2303 127.156 69.4963 128.249C69.1536 127.493 68.7212 126.78 68.2083 126.127V126.117ZM61.105 155.012C60.6073 154.341 60.0361 153.728 59.402 153.185C59.7364 153.951 60.1677 154.67 60.6852 155.327C61.1781 155.999 61.7499 156.609 62.3883 157.144C62.0404 156.388 61.61 155.673 61.105 155.012V155.012ZM40.1913 132.285C39.6961 131.612 39.1246 130.999 38.4882 130.458C38.8264 131.223 39.2591 131.943 39.7762 132.6C40.2677 133.273 40.8396 133.884 41.4793 134.418C41.1319 133.66 40.6998 132.945 40.1913 132.285V132.285Z" fill="white"/>
<path d="M38.8794 102.217C28.1983 110.828 0.844358 144.951 7.01258 152.836C13.1808 160.722 54.1783 157.13 66.0806 153.399C69.6203 152.293 59.9649 129.828 56.1389 128.793C52.9523 127.93 35.2824 133.153 34.9389 132.133C34.5525 130.978 39.3039 124.59 45.3434 110.751C52.3083 94.7893 43.5974 98.4149 38.8794 102.217Z" fill="#E9AFA2"/>
<path d="M75.4355 126.918C83.5978 127.873 85.5489 129.356 92.8621 126.494C97.6612 124.619 100.919 126.876 97.4083 130.926C91.6838 137.552 80.8834 138.558 77.0432 137.814L75.4355 126.918Z" fill="#E9AFA2"/>
<path d="M52.542 129.079C52.542 129.079 62.6697 126.461 71.4665 126.604C77.5536 126.704 90.7678 128.397 99.7363 144.192C101.864 147.937 102.241 154.788 96.5401 149.917C92.4947 146.468 90.9729 143.057 88.2538 141.478C88.2538 141.478 87.6956 150.241 83.8602 152.231C80.5055 153.965 77.0318 155.459 73.4653 156.701C73.0875 156.1 72.7496 155.475 72.454 154.831C72.454 154.831 68.6948 156.348 62.913 154.244L52.542 129.079Z" fill="#E9AFA2"/>
<path d="M77.2626 127.629C79.6478 129.766 84.571 134.375 87.2806 139.555C90.3146 145.309 94.608 157.206 90.3385 159.405C87.209 161.018 85.1673 156.615 85.1673 156.615C85.1673 156.615 85.9067 161.91 82.782 162.745C79.9197 163.508 78.5411 160.006 78.5411 160.006C78.5411 160.006 78.4361 163.293 75.5357 163.498C72.0437 163.737 72.8356 156.82 69.086 154C68.2416 153.366 77.2626 127.629 77.2626 127.629Z" fill="#E9AFA2"/>
<path d="M80.6878 141.774C82.596 144.159 85.5108 150.647 85.2627 156.529C85.2627 156.662 85.153 156.729 85.1339 156.605C84.239 151.512 82.7285 146.546 80.6353 141.817C80.6296 141.81 80.6269 141.801 80.6278 141.792C80.6287 141.783 80.6331 141.775 80.6401 141.769C80.6471 141.763 80.656 141.761 80.6649 141.761C80.6739 141.762 80.6821 141.767 80.6878 141.774V141.774Z" fill="#263238"/>
<path d="M74.968 144.98C76.3992 147.198 79.1136 154.043 78.6556 159.983C78.6556 160.116 78.5363 160.173 78.522 160.049C77.8915 154.914 76.68 149.866 74.9108 145.003C74.9107 144.997 74.9126 144.99 74.9162 144.985C74.9199 144.979 74.9252 144.975 74.9313 144.972C74.9375 144.969 74.9443 144.969 74.9508 144.97C74.9573 144.971 74.9633 144.975 74.968 144.98Z" fill="#263238"/>
<path d="M88.2681 141.44C90.6533 142.871 91.9843 144.555 93.7589 146.621C94.6263 147.655 95.55 148.641 96.5258 149.573C97.4226 150.408 98.7441 151.663 100.089 151.067C100.838 150.733 101.043 149.836 101.105 149.092C101.164 148.255 101.042 147.415 100.748 146.63C100.748 146.592 100.805 146.563 100.819 146.606C101.112 147.299 101.305 148.03 101.392 148.777C101.505 149.479 101.404 150.199 101.101 150.842C100.356 152.159 98.6391 151.911 97.561 151.219C96.9232 150.778 96.3304 150.274 95.7911 149.717C95.2616 149.197 94.7559 148.653 94.2646 148.099C93.258 146.954 92.3182 145.757 91.326 144.607C90.3536 143.511 89.3114 142.478 88.2061 141.516C88.1631 141.478 88.2204 141.411 88.2681 141.44Z" fill="#263238"/>
<path d="M91.3021 151.868C91.0207 150.232 88.998 143.2 88.1965 141.488C88.1915 141.479 88.1901 141.468 88.1928 141.458C88.1955 141.448 88.202 141.44 88.2109 141.435C88.2197 141.43 88.2302 141.429 88.2401 141.431C88.2499 141.434 88.2583 141.441 88.2633 141.449C89.7756 143.868 91.6838 149.74 92.0177 151.548C92.3516 153.356 92.6712 155.594 92.2085 157.373C91.512 160.054 89.6038 160.102 88.9121 160.064C88.0949 160.004 87.3226 159.667 86.7225 159.11C86.0389 158.397 85.5067 157.553 85.1577 156.629C85.1577 156.586 85.2007 156.548 85.2245 156.591C85.8829 157.888 87.1566 159.334 88.664 159.52C88.9979 159.572 89.3386 159.556 89.6663 159.474C89.994 159.392 90.302 159.246 90.5722 159.043C91.1384 158.501 91.4892 157.772 91.5597 156.992C91.7678 155.282 91.6806 153.549 91.3021 151.868V151.868Z" fill="#263238"/>
<path d="M78.6556 159.983C78.9466 160.398 79.4284 161.71 80.5876 162.263C80.9908 162.493 81.4437 162.621 81.9074 162.637C82.3711 162.653 82.8317 162.555 83.2496 162.354C84.0464 161.859 84.6195 161.074 84.8477 160.164C85.0405 159 85.1441 157.823 85.1578 156.643C85.1578 156.586 85.2293 156.581 85.2341 156.643C85.3826 157.923 85.3376 159.217 85.1005 160.484C84.9884 160.98 84.7784 161.448 84.4826 161.862C84.1869 162.276 83.8114 162.626 83.3784 162.893C82.9197 163.143 82.4006 163.262 81.8787 163.236C81.3567 163.21 80.8521 163.04 80.4207 162.745C79.9866 162.444 78.7272 161.085 78.5125 160.016C78.5173 159.983 78.6413 159.964 78.6556 159.983Z" fill="#263238"/>
<path d="M69.4533 153.581C69.7983 153.963 70.0976 154.384 70.3454 154.835C70.6269 155.312 70.894 155.766 71.1469 156.243C71.6494 157.207 72.0506 158.22 72.3442 159.267C72.6496 160.317 72.8881 161.461 73.6084 162.325C73.9456 162.752 74.4086 163.062 74.9317 163.211C75.4549 163.36 76.0117 163.34 76.5232 163.155C77.0646 162.94 77.5148 162.544 77.7969 162.034C78.1239 161.484 78.3425 160.877 78.4409 160.245C78.4388 160.239 78.4381 160.233 78.4388 160.227C78.4396 160.221 78.4418 160.215 78.4454 160.21C78.4489 160.205 78.4536 160.201 78.459 160.198C78.4645 160.195 78.4705 160.194 78.4767 160.194C78.4828 160.194 78.4889 160.195 78.4944 160.198C78.4998 160.201 78.5045 160.205 78.508 160.21C78.5115 160.215 78.5138 160.221 78.5146 160.227C78.5153 160.233 78.5146 160.239 78.5125 160.245C78.4717 160.818 78.3726 161.386 78.2167 161.939C78.0364 162.435 77.7288 162.876 77.3246 163.217C76.901 163.541 76.3964 163.741 75.8662 163.797C75.336 163.852 74.8007 163.761 74.3192 163.532C73.2506 163.055 72.6496 161.977 72.2775 160.908C71.8624 159.72 71.5857 158.494 71.1135 157.321C70.8702 156.701 70.6364 156.08 70.3406 155.484C70.0449 154.888 69.6346 154.268 69.3866 153.628C69.3579 153.59 69.4152 153.538 69.4533 153.581Z" fill="#263238"/>
<path d="M65.7276 155.06C67.2357 155.278 68.7611 155.353 70.2834 155.284C70.3311 155.284 70.3597 155.422 70.312 155.432C69.5574 155.573 68.7896 155.632 68.0222 155.608C67.2441 155.575 66.4755 155.426 65.7419 155.164C65.6799 155.131 65.6799 155.05 65.7276 155.06Z" fill="#263238"/>
<path d="M18.8863 137.242C21.4365 136.011 24.0718 134.965 26.7719 134.112C29.4438 133.277 32.1735 132.639 34.939 132.204C36.518 131.942 38.1018 131.756 39.7094 131.56C39.7571 131.56 39.7667 131.627 39.7094 131.632C36.9307 132.082 34.18 132.69 31.4708 133.454C28.7739 134.189 26.0929 134.973 23.4278 135.806C21.9203 136.283 20.4319 136.817 18.9388 137.337C18.8863 137.375 18.8386 137.275 18.8863 137.242Z" fill="#263238"/>
<path d="M16.5631 122.935L39.1704 125.392C39.1704 125.392 44.9379 114.897 47.9385 105.227C50.9391 95.5574 42.4191 97.437 32.4631 106.811C22.5071 116.185 16.5631 122.935 16.5631 122.935Z" fill="#4B3685"/>
<path d="M16.5631 122.935L39.1704 125.392C39.1704 125.392 44.9379 114.897 47.9385 105.227C50.9391 95.5574 42.4191 97.437 32.4631 106.811C22.5071 116.185 16.5631 122.935 16.5631 122.935Z" fill="#4B3685"/>
<path d="M41.2217 100.271C41.224 100.294 41.224 100.318 41.2217 100.342C41.1006 101.168 41.075 102.005 41.1453 102.837C41.4417 102.055 41.6419 101.24 41.7417 100.409C41.7417 100.266 41.7798 100.127 41.7941 99.9844L41.2217 100.271ZM29.3813 122.692C29.1743 123.212 29.0146 123.75 28.9043 124.299L29.3813 124.347C29.4338 123.797 29.4338 123.242 29.3813 122.692V122.692ZM21.5387 117.602L21.3192 117.831C21.5673 117.831 21.7963 117.831 22.0682 117.788C21.8869 117.716 21.7152 117.654 21.5387 117.602ZM41.8275 119.19C41.9611 119.243 42.0994 119.295 42.2378 119.338C42.2625 119.276 42.2912 119.215 42.3237 119.157C42.1615 119.162 41.9945 119.171 41.8275 119.19V119.19ZM34.7386 112.807C34.2409 112.137 33.6696 111.524 33.0355 110.98C33.371 111.747 33.8022 112.468 34.3188 113.127C34.813 113.796 35.3847 114.405 36.0218 114.94C35.6721 114.185 35.2419 113.47 34.7386 112.807V112.807Z" fill="white"/>
<path d="M38.2544 125.182C38.3785 125.182 39.2085 125.182 39.2085 125.182C39.3087 124.891 41.255 120.412 41.7321 119.457C42.7148 117.497 43.812 115.589 44.8806 113.676C44.914 113.614 45.0094 113.676 44.976 113.719C44.2223 115.388 43.4972 117.058 42.7291 118.737C42.9199 118.513 43.1108 118.289 43.2968 118.06C43.6737 117.583 44.0171 117.106 44.3749 116.6C44.4083 116.557 44.4751 116.6 44.4513 116.652C44.1099 117.343 43.6783 117.984 43.168 118.561C42.9514 118.814 42.717 119.051 42.4667 119.271C42.4047 119.41 42.3427 119.553 42.2759 119.686C41.7989 120.641 39.447 125.449 39.3612 125.444L38.2735 125.311C38.1924 125.33 38.1924 125.177 38.2544 125.182Z" fill="#263238"/>
<path d="M20.8231 119.095C25.7271 119.424 30.6169 120.097 35.478 120.86C36.8583 121.079 38.229 121.329 39.5901 121.609C39.6283 121.609 39.6283 121.676 39.5901 121.671C37.1477 121.456 34.71 121.141 32.2722 120.841C29.8345 120.54 27.3777 120.216 24.94 119.83C23.5661 119.62 22.1875 119.41 20.8183 119.176C20.7611 119.181 20.7611 119.09 20.8231 119.095Z" fill="#263238"/>
<path d="M46.8079 98.8872C46.8938 99.8794 50.5861 106.778 55.0083 107.202C56.4395 107.336 57.5415 99.5073 57.5415 99.5073L57.7514 98.9492L60.7234 91.1161L52.0888 83.6503L50.8342 82.6485C50.8342 82.6485 50.1615 84.8429 49.3553 87.5859C49.3172 87.7147 49.2742 87.8435 49.2361 87.9771C49.1979 88.1107 49.1407 88.2776 49.0977 88.4207C48.9737 88.831 48.8449 89.246 48.7304 89.6658C48.6398 89.9855 48.5491 90.2955 48.4632 90.6199C48.3774 90.9443 48.2915 91.2878 48.1961 91.6217C47.5685 94.0091 47.1047 96.4366 46.8079 98.8872V98.8872Z" fill="#E9AFA2"/>
<path d="M49.3553 87.5859C49.847 89.9755 50.8526 92.2296 52.3024 94.1918C53.7522 96.154 55.6115 97.7773 57.7514 98.9492L60.7234 91.1161L52.0888 83.6503L50.8342 82.6485C50.8342 82.6485 50.1615 84.8429 49.3553 87.5859Z" fill="#263238"/>
<path d="M63.3376 79.0849C64.0961 82.4243 67.1015 84.6235 70.0497 83.9604C72.9978 83.2973 74.7677 80.0295 74.0092 76.6711C73.2506 73.3127 70.2452 71.1278 67.2971 71.7956C64.3489 72.4635 62.5791 75.7217 63.3376 79.0849Z" fill="#BCB1D2"/>
<path d="M61.6536 79.686C62.5028 83.4213 65.8421 85.8495 69.1242 85.11C72.4063 84.3706 74.3717 80.7403 73.5273 77.0002C72.683 73.2602 69.3389 70.8368 66.0615 71.5762C62.7842 72.3156 60.8092 75.9412 61.6536 79.686Z" fill="#C7C7C7"/>
<path d="M71.2995 74.906C75.3067 89.0505 67.2875 93.0338 64.2344 93.9116C61.4628 94.6939 51.9314 97.0028 46.4835 83.345C41.0356 69.6871 46.3451 63.3519 52.5849 61.2291C58.8247 59.1062 67.2923 60.7568 71.2995 74.906Z" fill="#E9AFA2"/>
<path d="M66.3764 73.1266C66.0403 73.16 65.7027 73.1743 65.365 73.1696C65.01 73.2373 64.6426 73.1853 64.3203 73.0217C64.2285 72.9508 64.1628 72.8514 64.1335 72.7392C64.1042 72.627 64.1128 72.5083 64.1581 72.4015C64.2798 72.205 64.452 72.0446 64.6567 71.9372C64.8614 71.8298 65.0912 71.7793 65.3221 71.7909C65.792 71.7387 66.2646 71.8628 66.6483 72.1391C66.7311 72.2084 66.7922 72.3 66.8244 72.4031C66.8565 72.5061 66.8584 72.6162 66.8298 72.7203C66.8011 72.8244 66.7431 72.918 66.6627 72.99C66.5824 73.0621 66.483 73.1095 66.3764 73.1266V73.1266Z" fill="#263238"/>
<path d="M57.0501 76.4182C57.3743 76.3178 57.6928 76.2 58.0042 76.0652C58.3574 75.9872 58.6756 75.7963 58.9106 75.5214C58.9663 75.4198 58.9872 75.3027 58.9699 75.1881C58.9527 75.0735 58.8983 74.9677 58.8152 74.8869C58.626 74.7537 58.4047 74.6734 58.1741 74.6541C57.9436 74.6348 57.712 74.6773 57.5033 74.7772C57.0508 74.9133 56.665 75.2125 56.4204 75.6168C56.3702 75.7122 56.3486 75.8201 56.3584 75.9274C56.3682 76.0347 56.4088 76.137 56.4754 76.2217C56.542 76.3065 56.6317 76.3701 56.7337 76.405C56.8357 76.4399 56.9456 76.4445 57.0501 76.4182V76.4182Z" fill="#263238"/>
<path d="M59.9124 78.9132C59.9124 78.875 59.8504 78.98 59.8647 79.0181C60.17 79.9722 60.3417 81.1171 59.5785 81.6848C59.5546 81.6848 59.5785 81.7469 59.6023 81.7373C60.6136 81.2841 60.3465 79.7576 59.9124 78.9132Z" fill="#263238"/>
<path d="M58.7579 78.1499C57.1741 78.4743 57.9374 81.6133 59.4067 81.3128C60.876 81.0122 60.0841 77.878 58.7579 78.1499Z" fill="#263238"/>
<path d="M58.1807 78.4648C57.9517 78.7128 57.7561 79.0897 57.4365 79.2042C57.1169 79.3187 56.6923 79.0754 56.3679 78.8178C56.3345 78.7939 56.3107 78.8178 56.3202 78.8703C56.4586 79.4713 56.8402 80.0343 57.5081 79.9675C58.176 79.9007 58.4097 79.271 58.4097 78.627C58.4145 78.5077 58.2761 78.3694 58.1807 78.4648Z" fill="#263238"/>
<path d="M65.4891 77.1911C65.4891 77.1529 65.5797 77.2197 65.5845 77.2578C65.7848 78.2406 66.176 79.333 67.1349 79.4475C67.1635 79.4475 67.1731 79.5 67.1349 79.5047C66.0281 79.6049 65.5225 78.1499 65.4891 77.1911Z" fill="#263238"/>
<path d="M66.114 75.9698C67.6501 75.4928 68.4993 78.5936 67.0681 79.0468C65.637 79.5 64.8308 76.3753 66.114 75.9698Z" fill="#263238"/>
<path d="M66.8296 75.9937C67.1206 76.0891 67.445 76.3228 67.7455 76.2608C68.0461 76.1988 68.2512 75.7838 68.38 75.3974C68.38 75.3592 68.4277 75.3974 68.4372 75.3974C68.6185 75.9889 68.5947 76.6615 68.0508 76.9335C67.507 77.2054 67.0347 76.776 66.7294 76.2227C66.6722 76.1463 66.7103 75.9412 66.8296 75.9937Z" fill="#263238"/>
<path d="M62.1163 86.7559C62.393 86.9419 62.6888 87.2329 63.0704 87.1709C63.4354 87.0918 63.7798 86.9374 64.0818 86.7177C64.0875 86.7107 64.0957 86.7063 64.1047 86.7054C64.1136 86.7045 64.1225 86.7072 64.1295 86.7129C64.1364 86.7186 64.1409 86.7268 64.1418 86.7358C64.1427 86.7447 64.14 86.7537 64.1343 86.7606C64.0309 86.9812 63.8701 87.1698 63.6686 87.3067C63.4671 87.4435 63.2325 87.5235 62.9893 87.5382C62.7765 87.5276 62.5717 87.4532 62.4015 87.3247C62.2314 87.1963 62.1038 87.0197 62.0353 86.8179C62.0019 86.7654 62.0734 86.732 62.1163 86.7559Z" fill="#263238"/>
<path d="M65.3174 81.9091C65.3174 81.9091 65.885 83.3068 66.0615 83.989C66.0615 84.0558 63.7145 85.2007 62.1975 83.7982C62.1816 83.7874 62.1707 83.7708 62.1672 83.752C62.1636 83.7333 62.1676 83.7138 62.1784 83.698C62.1891 83.6822 62.2057 83.6713 62.2245 83.6677C62.2433 83.6641 62.2627 83.6682 62.2786 83.6789C63.3017 84.0516 64.4178 84.0834 65.4605 83.7696C65.4605 83.5692 64.4014 81.4082 64.5064 81.3843C65.0488 81.2951 65.6007 81.2791 66.1474 81.3366C65.0407 78.3932 63.4759 75.6502 62.4217 72.6973C62.4123 72.6754 62.4115 72.6509 62.4193 72.6284C62.4271 72.606 62.443 72.5873 62.4639 72.576C62.4848 72.5646 62.5091 72.5615 62.5322 72.5672C62.5553 72.5728 62.5754 72.5869 62.5886 72.6066C64.4348 75.3687 65.7801 78.7319 66.9966 81.7421C67.1588 82.1094 65.637 81.9568 65.3174 81.9091Z" fill="#263238"/>
<path d="M65.4557 84.0987C65.2023 84.7318 64.7919 85.29 64.2631 85.7207C63.9662 85.9434 63.6083 86.0699 63.2374 86.0832C62.4217 86.0832 62.207 85.4106 62.1784 84.7761C62.1669 84.4402 62.1941 84.104 62.2595 83.7743C63.2627 84.2217 64.383 84.3354 65.4557 84.0987V84.0987Z" fill="#263238"/>
<path d="M64.2631 85.7207C63.9662 85.9434 63.6083 86.0699 63.2374 86.0832C62.4217 86.0832 62.207 85.4106 62.1784 84.7761C63.0132 84.6282 63.9673 84.9526 64.2631 85.7207Z" fill="#D16488"/>
<path d="M47.1657 82.8727C49.9039 83.0492 50.2188 76.7856 50.2188 76.7856C50.2188 76.7856 61.6679 74.1189 62.0782 64.6352C62.0782 64.6352 64.43 70.5219 70.665 72.869C70.665 72.869 69.6299 62.5648 61.3197 61.0573C61.3197 61.0573 50.9296 57.9756 45.7059 66.3907C40.4823 74.8058 45.3291 82.7534 47.1657 82.8727Z" fill="#263238"/>
<path d="M62.0782 63.9339C62.3043 65.3808 62.2181 66.8594 61.8254 68.2703C61.4547 69.7041 60.7885 71.0446 59.8695 72.2059C59.6441 72.4979 59.4003 72.7751 59.1396 73.036L58.7579 73.4415C58.6244 73.5655 58.4813 73.68 58.3381 73.7992C58.0519 74.0282 57.7752 74.2763 57.4795 74.491C57.1837 74.7056 56.8593 74.8821 56.5254 75.073C56.3679 75.1636 56.2153 75.2638 56.0483 75.3496L55.5713 75.5786L54.5742 76.0318C53.8873 76.2703 53.1908 76.4707 52.4991 76.6615C53.1431 76.3324 53.811 76.07 54.4454 75.7408L55.3757 75.2161L55.8527 74.9537C56.0006 74.8583 56.139 74.7486 56.2821 74.6436C56.5683 74.4337 56.8545 74.2286 57.1455 74.0282C57.4365 73.8279 57.6703 73.5512 57.9327 73.3365L58.3286 72.9883L58.6816 72.5971C58.9243 72.3467 59.1521 72.0823 59.3638 71.8052C60.2307 70.6991 60.9034 69.4538 61.3531 68.1224C61.5832 67.4539 61.7587 66.7679 61.8778 66.0711C62.0047 65.3656 62.0717 64.6507 62.0782 63.9339V63.9339Z" fill="#263238"/>
<path d="M49.2074 82.7248C49.2074 82.7248 45.1907 78.8178 43.3636 80.3396C41.5365 81.8614 45.1573 87.9389 47.7286 88.3683C48.0544 88.4466 48.3927 88.4583 48.7232 88.4025C49.0536 88.3467 49.3694 88.2247 49.6515 88.0438C49.9335 87.8629 50.1761 87.6268 50.3646 87.3497C50.5531 87.0726 50.6836 86.7603 50.7483 86.4315L49.2074 82.7248Z" fill="#E9AFA2"/>
<path d="M44.4465 82.0522C44.4377 82.0522 44.4292 82.0557 44.4229 82.0619C44.4166 82.0682 44.4131 82.0767 44.4131 82.0856C44.4131 82.0944 44.4166 82.1029 44.4229 82.1092C44.4292 82.1154 44.4377 82.1189 44.4465 82.1189C46.2641 82.4767 47.4471 83.8697 48.3822 85.3676C47.762 84.8429 47.013 84.633 46.2927 85.3676C46.2545 85.4106 46.2927 85.4678 46.3547 85.4487C46.6333 85.2986 46.9515 85.2382 47.2657 85.2758C47.5799 85.3134 47.8749 85.4471 48.1102 85.6586C48.5019 86.0138 48.8538 86.4105 49.1597 86.8417C49.2647 86.9801 49.5223 86.8417 49.4317 86.6843L49.4078 86.6461C49.0357 84.528 46.7888 81.8279 44.4465 82.0522Z" fill="#263238"/>
<path d="M46.4597 80.7355C46.4597 80.7355 43.855 73.7945 44.7566 69.2625C45.7584 64.2154 52.0125 58.4574 59.1634 60.6137C59.1634 60.6137 50.6577 61.8874 47.6523 68.7235C46.2688 71.872 48.8831 80.206 48.8831 80.206L46.4597 80.7355Z" fill="#C7C7C7"/>
<path d="M50.4768 90.6278C53.6337 89.6446 55.284 85.9294 54.1628 82.3298C53.0417 78.7301 49.5736 76.6091 46.4167 77.5924C43.2598 78.5757 41.6095 82.2909 42.7306 85.8905C43.8518 89.4901 47.3199 91.6111 50.4768 90.6278Z" fill="#C7C7C7"/>
<path d="M52.4418 82.6199C53.4484 85.8542 51.9648 89.1936 49.1025 90.0761C46.2402 90.9587 43.1489 89.0552 42.1376 85.8209C41.1263 82.5865 42.6147 79.2471 45.4769 78.3598C48.3392 77.4725 51.4353 79.4046 52.4418 82.6199Z" fill="#BCB1D2"/>
<path d="M57.718 98.9969L55.0942 105.618L46.8413 97.2938L44.5276 99.9844C44.5276 99.9844 52.6374 113.237 52.666 112.636L55.3661 106.911L59.3161 110.856L58.9583 100.924L57.718 98.9969Z" fill="#DDDDDE"/>
<path d="M59.4353 105.943C59.3161 104.306 59.2493 102.646 59.0585 101.015C59.0585 100.958 58.9583 100.934 58.944 101.015C58.6244 102.599 59.0966 108.872 59.0966 110.374C58.9344 110.203 55.4377 106.902 55.4043 106.954C54.8175 107.86 52.8378 112.02 52.7042 112.397C51.4209 110.293 45.9921 101.998 44.4799 99.9939C44.4709 99.9848 44.4591 99.9789 44.4463 99.9773C44.4336 99.9757 44.4207 99.9784 44.4097 99.985C44.3987 99.9916 44.3902 100.002 44.3856 100.014C44.3811 100.026 44.3807 100.039 44.3845 100.051C45.5151 102.274 52.5277 113.222 52.6279 113.194C53.6711 111.232 54.6137 109.217 55.452 107.159C56.0435 107.88 59.5737 111.605 59.5832 111.362C59.6275 109.554 59.5781 107.745 59.4353 105.943Z" fill="#263238"/>
<path d="M105.461 54.8795C105.175 57.6237 104.131 60.2343 102.448 62.4201C100.764 64.6058 98.5059 66.2808 95.9257 67.258C93.3455 68.2351 90.5445 68.4761 87.8352 67.954C85.126 67.4319 82.6152 66.1673 80.5829 64.3012L73.1314 65.3936L76.8619 58.9535C76.0176 56.8587 75.6609 54.5993 75.8188 52.3463C75.9768 50.0932 76.6453 47.9057 77.7736 45.9492C78.902 43.9927 80.4607 42.3186 82.3317 41.0536C84.2027 39.7885 86.337 38.9657 88.573 38.6475C90.809 38.3292 93.0881 38.5238 95.2378 39.2166C97.3875 39.9093 99.3514 41.0821 100.981 42.6461C102.61 44.21 103.863 46.1242 104.643 48.2436C105.423 50.3631 105.711 52.6323 105.485 54.8795H105.461Z" fill="white"/>
<path d="M105.461 54.8795C105.173 57.6252 104.133 60.2382 102.455 62.4312C101.632 63.5266 100.647 64.4915 99.536 65.2934C98.4385 66.1252 97.2292 66.7981 95.9438 67.2923C94.6574 67.7955 93.307 68.1166 91.9318 68.2464C91.2451 68.3091 90.5548 68.3219 89.8662 68.2845C89.1746 68.2681 88.4855 68.1963 87.8054 68.0699C85.0576 67.5753 82.502 66.3248 80.4254 64.4586L80.6019 64.5111L73.16 65.656L72.6209 65.7371L72.8929 65.26L76.6091 58.8056V59.0632C75.7353 56.9284 75.3639 54.6214 75.5235 52.3202C75.6832 50.0191 76.3696 47.7854 77.5298 45.7917C78.6882 43.8055 80.2817 42.1077 82.1905 40.8257C84.0978 39.5627 86.2662 38.7478 88.5332 38.4421C90.8002 38.1364 93.107 38.3479 95.2807 39.0606C97.4279 39.7943 99.3838 40.9988 101.005 42.586C102.629 44.1649 103.874 46.0915 104.645 48.2209C105.417 50.3502 105.696 52.6268 105.461 54.8795ZM105.461 54.8795C105.699 52.6369 105.419 50.3696 104.642 48.2523C103.866 46.135 102.613 44.2243 100.982 42.6674C99.3502 41.1105 97.383 39.949 95.2317 39.2724C93.0804 38.5958 90.8024 38.4221 88.5734 38.7648C86.3651 39.0966 84.2618 39.9287 82.4243 41.1978C80.6045 42.4743 79.0841 44.1314 77.9686 46.0541C76.871 47.9838 76.2251 50.1372 76.0797 52.3525C75.9343 54.5678 76.293 56.7872 77.129 58.8438L77.1815 58.9773L77.11 59.0966L73.3604 65.5272L73.0932 65.1312L80.5495 64.0865H80.6544L80.726 64.1581C82.724 66.023 85.2017 67.2949 87.8817 67.8313C88.547 67.9649 89.2217 68.0462 89.8996 68.0746C90.5778 68.1223 91.2584 68.1223 91.9366 68.0746C93.2967 67.9685 94.6356 67.6747 95.9152 67.2016C97.2021 66.7381 98.4128 66.0853 99.5073 65.2648C100.626 64.4682 101.614 63.5026 102.436 62.4025C104.119 60.2214 105.165 57.618 105.461 54.8795V54.8795Z" fill="#263238"/>
<path d="M97.1507 55.5855C98.1466 55.5855 98.954 54.7782 98.954 53.7823C98.954 52.7864 98.1466 51.9791 97.1507 51.9791C96.1548 51.9791 95.3475 52.7864 95.3475 53.7823C95.3475 54.7782 96.1548 55.5855 97.1507 55.5855Z" fill="#263238"/>
<path d="M90.6867 55.5855C91.6826 55.5855 92.49 54.7782 92.49 53.7823C92.49 52.7864 91.6826 51.9791 90.6867 51.9791C89.6908 51.9791 88.8835 52.7864 88.8835 53.7823C88.8835 54.7782 89.6908 55.5855 90.6867 55.5855Z" fill="#263238"/>
<path d="M84.2275 55.5855C85.2234 55.5855 86.0307 54.7782 86.0307 53.7823C86.0307 52.7864 85.2234 51.9791 84.2275 51.9791C83.2316 51.9791 82.4243 52.7864 82.4243 53.7823C82.4243 54.7782 83.2316 55.5855 84.2275 55.5855Z" fill="#263238"/>
<path d="M253.594 54.8795C253.307 57.6237 252.264 60.2343 250.58 62.4201C248.897 64.6059 246.639 66.2808 244.059 67.258C241.478 68.2352 238.677 68.4761 235.968 67.954C233.259 67.4319 230.748 66.1673 228.716 64.3012L221.264 65.3937L224.99 58.9535C224.142 56.8577 223.782 54.5962 223.938 52.3407C224.094 50.0852 224.762 47.8948 225.89 45.9355C227.018 43.9763 228.578 42.2996 230.45 41.0327C232.323 39.7657 234.459 38.9417 236.698 38.6231C238.936 38.3045 241.217 38.4997 243.369 39.1939C245.521 39.8881 247.486 41.063 249.116 42.6297C250.746 44.1963 251.999 46.1135 252.778 48.2359C253.557 50.3584 253.842 52.6303 253.613 54.8795H253.594Z" fill="white"/>
<path d="M253.594 54.8795C253.303 57.6247 252.263 60.2371 250.588 62.4312C250.169 62.9742 249.719 63.4919 249.238 63.9816C248.741 64.4572 248.216 64.9017 247.664 65.3125C246.568 66.1463 245.358 66.8193 244.072 67.3114C242.787 67.8148 241.438 68.1359 240.065 68.2655C239.376 68.3283 238.684 68.341 237.994 68.3036C237.303 68.287 236.614 68.2152 235.933 68.089C233.188 67.5848 230.638 66.3261 228.568 64.4539L228.744 64.5063L221.302 65.6512L220.763 65.7323L221.035 65.2553L224.742 58.8008V59.0584C223.868 56.9238 223.497 54.6171 223.656 52.3161C223.814 50.0152 224.499 47.7814 225.658 45.787C226.818 43.8006 228.413 42.1027 230.323 40.8209C232.231 39.5579 234.399 38.743 236.666 38.4373C238.933 38.1316 241.24 38.3431 243.413 39.0558C245.561 39.7889 247.517 40.9935 249.138 42.5812C250.763 44.1601 252.009 46.0874 252.781 48.2178C253.553 50.3482 253.831 52.626 253.594 54.8795V54.8795ZM253.594 54.8795C253.832 52.6369 253.552 50.3696 252.775 48.2523C251.998 46.1351 250.746 44.2243 249.115 42.6674C247.483 41.1105 245.516 39.949 243.364 39.2724C241.213 38.5958 238.935 38.4222 236.706 38.7648C234.498 39.0966 232.395 39.9287 230.557 41.1978C228.737 42.4743 227.217 44.1314 226.101 46.0541C224.996 47.983 224.344 50.1379 224.193 52.3559C224.053 54.5694 224.41 56.7862 225.238 58.8438L225.295 58.9773L225.224 59.0966L221.474 65.5272L221.207 65.1313L228.663 64.0865H228.768L228.84 64.1581C230.831 66.0191 233.3 67.2907 235.972 67.8313C236.637 67.9649 237.312 68.0462 237.989 68.0746C238.668 68.1223 239.348 68.1223 240.026 68.0746C241.387 67.9685 242.725 67.6748 244.005 67.2016C245.292 66.7372 246.502 66.0845 247.597 65.2648C248.713 64.4666 249.7 63.5012 250.522 62.4025C252.222 60.2277 253.286 57.6233 253.594 54.8795Z" fill="#263238"/>
<path d="M245.26 55.5855C246.256 55.5855 247.063 54.7782 247.063 53.7823C247.063 52.7864 246.256 51.9791 245.26 51.9791C244.264 51.9791 243.456 52.7864 243.456 53.7823C243.456 54.7782 244.264 55.5855 245.26 55.5855Z" fill="#263238"/>
<path d="M238.8 55.5855C239.796 55.5855 240.604 54.7782 240.604 53.7823C240.604 52.7864 239.796 51.9791 238.8 51.9791C237.805 51.9791 236.997 52.7864 236.997 53.7823C236.997 54.7782 237.805 55.5855 238.8 55.5855Z" fill="#263238"/>
<path d="M234.144 53.7823C234.145 54.1391 234.04 54.4882 233.843 54.7854C233.645 55.0826 233.364 55.3145 233.035 55.4517C232.705 55.5889 232.342 55.6253 231.992 55.5562C231.642 55.4872 231.321 55.3158 231.068 55.0638C230.815 54.8118 230.643 54.4905 230.573 54.1406C230.503 53.7907 230.538 53.4279 230.675 53.0981C230.811 52.7683 231.042 52.4864 231.339 52.2881C231.636 52.0897 231.984 51.9838 232.341 51.9838C232.819 51.9838 233.277 52.1732 233.615 52.5103C233.953 52.8474 234.143 53.3049 234.144 53.7823V53.7823Z" fill="#263238"/>
<path d="M80.8071 160.46H77.6156V162.544H80.8071V160.46Z" fill="#BCB1D2"/>
<path d="M84.9478 160.321H81.7564V162.406H84.9478V160.321Z" fill="#BCB1D2"/>
<path d="M89.0886 160.183H85.8972V162.268H89.0886V160.183Z" fill="#BCB1D2"/>
<path d="M93.2246 160.045H90.0332V162.129H93.2246V160.045Z" fill="#BCB1D2"/>
<path d="M97.3654 159.906H94.174V161.991H97.3654V159.906Z" fill="#BCB1D2"/>
<path d="M101.506 159.773H98.3147V161.857H101.506V159.773Z" fill="#BCB1D2"/>
<path d="M105.642 159.634H102.451V161.719H105.642V159.634Z" fill="#BCB1D2"/>
<path d="M109.783 159.496H106.591V161.581H109.783V159.496Z" fill="#BCB1D2"/>
<path d="M113.919 159.358H110.727V161.442H113.919V159.358Z" fill="#BCB1D2"/>
<path d="M114.701 163.742H76.8333V161.204L114.701 160.15V163.742Z" fill="#374C57"/>
<path d="M151.663 153.743H89.1506L99.0923 107.202H161.605L151.663 153.743Z" fill="#BCB1D2"/>
<path d="M153.977 153.743H91.4595L101.401 107.202H163.918L153.977 153.743Z" fill="#374C57"/>
<path d="M133.091 127.777C132.9 128.837 132.351 129.798 131.535 130.502C130.72 131.205 129.688 131.607 128.612 131.641C128.126 131.656 127.644 131.561 127.2 131.363C126.757 131.165 126.364 130.869 126.051 130.497C125.738 130.125 125.514 129.687 125.395 129.216C125.276 128.745 125.265 128.253 125.363 127.777C125.553 126.717 126.101 125.755 126.915 125.05C127.73 124.346 128.762 123.943 129.838 123.908C130.325 123.892 130.808 123.987 131.253 124.185C131.697 124.383 132.091 124.68 132.405 125.052C132.718 125.425 132.942 125.864 133.061 126.336C133.18 126.808 133.191 127.301 133.091 127.777V127.777Z" fill="#263238"/>
<path d="M136.297 165.898H105.552V163.508L136.297 162.516V165.898Z" fill="#BCB1D2"/>
<path d="M144.655 165.893H128.144L118.203 139.813H134.713L144.655 165.893Z" fill="#BCB1D2"/>
<path d="M147.369 165.893H130.864L120.922 139.813H137.428L147.369 165.893Z" fill="#263238"/>
<path d="M75.655 166.533H43.9695C41.2646 166.533 45.1764 158.828 55.0513 155.875C64.9262 152.922 78.7796 163.642 75.655 166.533Z" fill="#374C57"/>
<path d="M63.2517 166.533C63.273 165.655 63.4176 164.784 63.681 163.947C63.9354 163.1 64.2927 162.288 64.7449 161.528C65.1982 160.764 65.7661 160.074 66.4288 159.482C67.0861 158.894 67.8419 158.428 68.6614 158.103C68.3227 158.38 67.9363 158.58 67.6262 158.881L67.1492 159.296L66.7008 159.773C66.1148 160.386 65.601 161.065 65.1694 161.795C64.7307 162.526 64.3541 163.292 64.0436 164.085C63.7254 164.882 63.4608 165.7 63.2517 166.533V166.533Z" fill="#263238"/>
<path d="M66.9822 159.2C68.8678 159.797 70.6516 160.677 72.2727 161.81C73.0931 162.377 73.8356 163.049 74.4814 163.809C75.1588 164.565 75.5708 165.521 75.655 166.533C75.3923 165.6 74.8888 164.752 74.1952 164.076C73.5192 163.387 72.7797 162.764 71.9865 162.215C71.1993 161.648 70.374 161.137 69.5344 160.636C68.6948 160.135 67.8505 159.663 66.9822 159.2Z" fill="#263238"/>
<path d="M227.194 160.46H224.002V162.544H227.194V160.46Z" fill="#BCB1D2"/>
<path d="M231.335 160.321H228.143V162.406H231.335V160.321Z" fill="#BCB1D2"/>
<path d="M235.475 160.183H232.284V162.268H235.475V160.183Z" fill="#BCB1D2"/>
<path d="M239.611 160.045H236.42V162.129H239.611V160.045Z" fill="#BCB1D2"/>
<path d="M243.752 159.906H240.561V161.991H243.752V159.906Z" fill="#BCB1D2"/>
<path d="M247.893 159.773H244.702V161.857H247.893V159.773Z" fill="#BCB1D2"/>
<path d="M252.029 159.634H248.838V161.719H252.029V159.634Z" fill="#BCB1D2"/>
<path d="M256.17 159.496H252.978V161.581H256.17V159.496Z" fill="#BCB1D2"/>
<path d="M260.311 159.358H257.119V161.442H260.311V159.358Z" fill="#BCB1D2"/>
<path d="M261.093 163.742H223.225V161.204L261.093 160.15V163.742Z" fill="#374C57"/>
<path d="M298.05 153.743H235.537L245.479 107.202H307.991L298.05 153.743Z" fill="#BCB1D2"/>
<path d="M300.363 153.743H237.851L247.793 107.202H310.305L300.363 153.743Z" fill="#374C57"/>
<path d="M279.478 127.777C279.287 128.836 278.738 129.797 277.924 130.5C277.11 131.203 276.079 131.606 275.004 131.641C274.518 131.657 274.034 131.562 273.59 131.365C273.146 131.167 272.753 130.871 272.439 130.499C272.126 130.127 271.901 129.688 271.782 129.217C271.663 128.746 271.652 128.253 271.75 127.777C271.941 126.718 272.489 125.755 273.303 125.051C274.118 124.347 275.149 123.944 276.225 123.908C276.711 123.892 277.195 123.987 277.64 124.185C278.084 124.383 278.478 124.68 278.791 125.052C279.105 125.425 279.329 125.864 279.448 126.336C279.567 126.808 279.577 127.301 279.478 127.777V127.777Z" fill="#263238"/>
<path d="M282.684 165.898H251.938V163.508L282.684 162.516V165.898Z" fill="#BCB1D2"/>
<path d="M291.042 165.893H274.531L264.59 139.813H281.1L291.042 165.893Z" fill="#BCB1D2"/>
<path d="M293.761 165.893H277.25L267.309 139.813H283.819L293.761 165.893Z" fill="#263238"/>
<path d="M222.056 166.533H190.356C187.651 166.533 191.563 158.828 201.438 155.875C211.313 152.922 225.166 163.642 222.056 166.533Z" fill="#374C57"/>
<path d="M209.615 166.533C209.638 165.655 209.783 164.785 210.044 163.947C210.3 163.101 210.658 162.289 211.108 161.528C211.564 160.766 212.132 160.076 212.792 159.482C213.449 158.894 214.205 158.428 215.024 158.103C214.686 158.38 214.299 158.58 213.989 158.881L213.512 159.296L213.064 159.773C212.475 160.385 211.959 161.064 211.528 161.795C211.089 162.526 210.712 163.292 210.402 164.085C210.085 164.883 209.822 165.7 209.615 166.533V166.533Z" fill="#263238"/>
<path d="M213.369 159.2C215.255 159.797 217.038 160.677 218.66 161.81C219.48 162.378 220.224 163.05 220.873 163.809C221.548 164.559 221.963 165.508 222.056 166.513C221.792 165.58 221.287 164.733 220.592 164.057C219.916 163.368 219.176 162.745 218.383 162.196C217.6 161.628 216.77 161.118 215.931 160.617C215.091 160.116 214.242 159.663 213.369 159.2Z" fill="#263238"/>
</svg>
