<svg xmlns="http://www.w3.org/2000/svg" viewBox="0 0 538.41 449.91"><defs><style>.fe48341f-1e4a-4245-823d-4e2ae23a248a{opacity:0.41;}.ba748003-ad77-4c0e-84c3-a8d5fb433536,.f4492cc1-1d18-457d-826b-c6a7817c464c{fill:#c5d9ff;}.f97e9bac-34c0-4996-bfb2-4c8b446c0ee3{opacity:0.88;}.f4492cc1-1d18-457d-826b-c6a7817c464c{opacity:0.31;}.ac3f3218-e67c-4a8a-814b-bea67e5c7b92{fill:#5388ff;}.a36215de-ce9b-4266-a32b-04b51145a330,.fd140bfb-38df-4a77-93c6-8e6b9368944a{fill:#243762;}.e274a19b-20cd-48c9-9466-d73c2256776b{fill:#fff;}.b2fb467a-7b00-4765-9c46-6b77d8398eb0,.ec2d3401-d38a-4aa7-bf21-33f6ae2bfe38{fill:#ecf1f7;}.e90d6edd-26a2-43b7-938e-c56e6c3cde55{fill:#af9cda;opacity:0.33;}.a36215de-ce9b-4266-a32b-04b51145a330{opacity:0.29;}.b3f40a10-e4d9-49bf-896c-c881a27c74da{fill:#f7a9b4;}.b2fb467a-7b00-4765-9c46-6b77d8398eb0{opacity:0.35;}</style></defs><g id="e1f24877-f8dd-40e0-8deb-997d29a9c090" data-name="OBJECTS"><g class="fe48341f-1e4a-4245-823d-4e2ae23a248a"><path class="ba748003-ad77-4c0e-84c3-a8d5fb433536" d="M643.94,317.16a153.82,153.82,0,0,0-.71-26.37c-4.65-41.1-25.74-79.86-56.77-107.2-11.07-9.76-23.67-18.49-30.87-31.37-12.14-21.69-11.22-46.61-26.28-68a127.27,127.27,0,0,0-61.82-46.74c-73.88-25.6-177.31,16.08-168,105.09,0,.32.07.78.1,1.37a32.4,32.4,0,0,1-31.74,34.47C199.7,180,141,232.56,128.48,299.13c-8.08,42.81,5.14,89.73,36.46,120,23.37,22.6,54.74,35,86.12,43.56,62.91,17.11,129.12,20.69,194,14.15,60.73-6.12,124.78-23.58,164.05-70.3C630.05,381.64,642.05,349.68,643.94,317.16Z" transform="translate(-105.79 -30.01)"/></g><g class="f97e9bac-34c0-4996-bfb2-4c8b446c0ee3"><path class="ba748003-ad77-4c0e-84c3-a8d5fb433536" d="M587.89,321.35a121.84,121.84,0,0,0-.55-20.66c-3.65-32.19-20.17-62.55-44.48-84-8.67-7.65-18.54-14.49-24.18-24.58-9.51-17-8.79-36.51-20.59-53.29a99.81,99.81,0,0,0-48.43-36.61c-57.87-20-138.9,12.6-131.6,82.33,0,.25.05.61.08,1.07a25.38,25.38,0,0,1-24.86,27c-53.4,1.27-99.36,42.44-109.2,94.59-6.32,33.53,4,70.29,28.57,94C231,419,255.53,428.69,280.11,435.37c49.29,13.41,101.15,16.22,152,11.09,47.57-4.8,97.75-18.47,128.52-55.07C577,371.87,586.41,346.83,587.89,321.35Z" transform="translate(-105.79 -30.01)"/></g><circle class="f4492cc1-1d18-457d-826b-c6a7817c464c" cx="612.65" cy="96.4" r="16.67" transform="translate(271.7 640.27) rotate(-76.66)"/><circle class="f4492cc1-1d18-457d-826b-c6a7817c464c" cx="246.52" cy="77.07" r="19.33" transform="translate(-88.09 166.88) rotate(-45)"/><circle class="f4492cc1-1d18-457d-826b-c6a7817c464c" cx="24.97" cy="418.37" r="24.97"/><circle class="ac3f3218-e67c-4a8a-814b-bea67e5c7b92" cx="221.95" cy="132.91" r="88.48"/><path class="fd140bfb-38df-4a77-93c6-8e6b9368944a" d="M389.18,226.64a.85.85,0,0,1-.59-1.45A87.64,87.64,0,0,0,264.65,101.26a.85.85,0,1,1-1.2-1.2A89.33,89.33,0,1,1,389.78,226.39.86.86,0,0,1,389.18,226.64Z" transform="translate(-105.79 -30.01)"/><circle class="e274a19b-20cd-48c9-9466-d73c2256776b" cx="221.95" cy="132.91" r="67.33"/><path class="fd140bfb-38df-4a77-93c6-8e6b9368944a" d="M327.74,231.09a68.18,68.18,0,0,1,0-136.35.85.85,0,1,1,0,1.69,66.49,66.49,0,0,0,0,133,.85.85,0,0,1,.85.85A.84.84,0,0,1,327.74,231.09Z" transform="translate(-105.79 -30.01)"/><path class="fd140bfb-38df-4a77-93c6-8e6b9368944a" d="M345.19,175.78H326.87a6.81,6.81,0,0,1-6.81-6.81v-25.4a5.92,5.92,0,0,1,11.83,0V164h13.3a5.92,5.92,0,1,1,0,11.83Z" transform="translate(-105.79 -30.01)"/><path class="fd140bfb-38df-4a77-93c6-8e6b9368944a" d="M190.37,193.65,285.69,289a47.75,47.75,0,0,0,67.52,0l11.39-11.4a11,11,0,0,0,0-15.58l-38.89-38.9a11,11,0,0,0-15.58,0l-19.45,19.45a3.9,3.9,0,0,1-5.51,0L238,195.37a3.84,3.84,0,0,1,0-5.43l19.18-19.18a11,11,0,0,0,0-15.58l-40-39.95a11,11,0,0,0-15.44-.13L191,125.55A47.75,47.75,0,0,0,190.37,193.65Z" transform="translate(-105.79 -30.01)"/><path class="ec2d3401-d38a-4aa7-bf21-33f6ae2bfe38" d="M193.35,127.47,246.91,181l1.84-1.84,8.43-8.43a11,11,0,0,0,0-15.58l-40-39.95a11,11,0,0,0-15.44-.13L191,125.55Z" transform="translate(-105.79 -30.01)"/><path class="fd140bfb-38df-4a77-93c6-8e6b9368944a" d="M246.91,182.22,192.79,128.1l-3.1-2.49,11.51-11.12a11.92,11.92,0,0,1,16.63.14l39.95,40a11.89,11.89,0,0,1,0,16.78Zm-54.67-56.73,1.71,1.38,53,53,9.67-9.67a10.16,10.16,0,0,0,0-14.38l-39.95-39.95a10.22,10.22,0,0,0-14.26-.13Z" transform="translate(-105.79 -30.01)"/><path class="ec2d3401-d38a-4aa7-bf21-33f6ae2bfe38" d="M302.31,234.58l53.56,53.56,1.83-1.83,8.43-8.43a11,11,0,0,0,0-15.58l-39.94-40a11,11,0,0,0-15.45-.14l-10.82,10.45Z" transform="translate(-105.79 -30.01)"/><path class="fd140bfb-38df-4a77-93c6-8e6b9368944a" d="M355.87,289.34l-54.13-54.13-3.1-2.49,11.51-11.12a11.93,11.93,0,0,1,16.63.15l40,39.95a11.85,11.85,0,0,1,0,16.78ZM301.2,232.61l1.71,1.38,53,53,9.67-9.67a10.2,10.2,0,0,0,0-14.39l-40-39.95a10.23,10.23,0,0,0-14.26-.12Z" transform="translate(-105.79 -30.01)"/><line class="ec2d3401-d38a-4aa7-bf21-33f6ae2bfe38" x1="91.66" y1="91.14" x2="124.3" y2="123.78"/><path class="fd140bfb-38df-4a77-93c6-8e6b9368944a" d="M230.09,154.63a.85.85,0,0,1-.6-.25l-32.63-32.63a.85.85,0,0,1,1.2-1.2l32.63,32.64a.85.85,0,0,1-.6,1.44Z" transform="translate(-105.79 -30.01)"/><line class="ec2d3401-d38a-4aa7-bf21-33f6ae2bfe38" x1="221.48" y1="220.95" x2="254.11" y2="253.59"/><path class="fd140bfb-38df-4a77-93c6-8e6b9368944a" d="M359.9,284.44a.81.81,0,0,1-.59-.25l-32.64-32.63a.84.84,0,0,1,0-1.19.85.85,0,0,1,1.2,0L360.5,283a.84.84,0,0,1,0,1.19A.82.82,0,0,1,359.9,284.44Z" transform="translate(-105.79 -30.01)"/><path class="fd140bfb-38df-4a77-93c6-8e6b9368944a" d="M503.11,451.26,378.16,432.78a25.85,25.85,0,0,1-21.8-29.36l44.81-303a25.86,25.86,0,0,1,29.37-21.79l125,18.48a25.85,25.85,0,0,1,21.8,29.36l-44.81,303A25.86,25.86,0,0,1,503.11,451.26Z" transform="translate(-105.79 -30.01)"/><rect class="ec2d3401-d38a-4aa7-bf21-33f6ae2bfe38" x="322.73" y="183.05" width="289.22" height="156.82" transform="translate(34.52 655.5) rotate(-81.59)"/><rect class="ac3f3218-e67c-4a8a-814b-bea67e5c7b92" x="476.06" y="50.73" width="21.7" height="156.82" transform="translate(182.13 561.91) rotate(-81.59)"/><path class="ec2d3401-d38a-4aa7-bf21-33f6ae2bfe38" d="M443.56,432.4a10.78,10.78,0,0,1-1.49-.11,10.12,10.12,0,1,1,1.49.11Zm0-18.56a8.42,8.42,0,1,0,1.25.09A8.86,8.86,0,0,0,443.54,413.84Z" transform="translate(-105.79 -30.01)"/><path class="ec2d3401-d38a-4aa7-bf21-33f6ae2bfe38" d="M466,104.2a2.59,2.59,0,0,1-.48,0,3.24,3.24,0,0,1-2.74-3.7,3.26,3.26,0,0,1,3.69-2.74,3.26,3.26,0,0,1,2.75,3.7h0A3.27,3.27,0,0,1,466,104.2Zm0-4.82a1.56,1.56,0,0,0-.22,3.11,1.55,1.55,0,0,0,1.16-.29,1.58,1.58,0,0,0,.61-1h0a1.51,1.51,0,0,0-.29-1.16,1.53,1.53,0,0,0-1-.62Z" transform="translate(-105.79 -30.01)"/><path class="ec2d3401-d38a-4aa7-bf21-33f6ae2bfe38" d="M516.37,111.65a2.59,2.59,0,0,1-.48,0l-39.58-5.85a3.25,3.25,0,1,1,.95-6.44l39.58,5.85a3.29,3.29,0,0,1,2.14,1.28,3.26,3.26,0,0,1-2.61,5.2ZM476.78,101a1.57,1.57,0,0,0-1.25,2.5,1.53,1.53,0,0,0,1,.62l39.57,5.85a1.56,1.56,0,1,0,.46-3.09L477,101Z" transform="translate(-105.79 -30.01)"/><path class="ba748003-ad77-4c0e-84c3-a8d5fb433536" d="M524.39,328.45l-108.22-16a3.22,3.22,0,0,0-3.66,2.72l-4.15,28.07a3.22,3.22,0,0,0,2.72,3.66l92.52,13.69,9.53,13.15,1.7-11.49,4.46.66a3.23,3.23,0,0,0,3.67-2.72l4.15-28.07A3.23,3.23,0,0,0,524.39,328.45Z" transform="translate(-105.79 -30.01)"/><path class="fd140bfb-38df-4a77-93c6-8e6b9368944a" d="M503.6,361.42h-.13L411,347.73a4.07,4.07,0,0,1-3.43-4.62L411.67,315a4.06,4.06,0,0,1,4.63-3.43l25,3.7a.84.84,0,1,1-.24,1.67l-25-3.7a2.39,2.39,0,0,0-2.7,2l-4.16,28.08a2.4,2.4,0,0,0,2,2.7l92.52,13.68a.84.84,0,0,1-.12,1.68Z" transform="translate(-105.79 -30.01)"/><path class="ba748003-ad77-4c0e-84c3-a8d5fb433536" d="M541.6,212.11l-108.22-16a3.21,3.21,0,0,0-3.66,2.71l-4.16,28.08a3.23,3.23,0,0,0,2.72,3.66l92.52,13.69,9.54,13.14L532,245.91l4.47.66a3.23,3.23,0,0,0,3.66-2.72l4.16-28.08A3.23,3.23,0,0,0,541.6,212.11Z" transform="translate(-105.79 -30.01)"/><path class="fd140bfb-38df-4a77-93c6-8e6b9368944a" d="M530.87,259.57,520.33,245,428.16,231.4a4.07,4.07,0,0,1-3.43-4.62.86.86,0,0,1,1-.72.85.85,0,0,1,.71,1,2.38,2.38,0,0,0,.44,1.77,2.41,2.41,0,0,0,1.57.94l92.87,13.73,8.52,11.76L531.32,245l5.31.78a2.36,2.36,0,0,0,1.76-.44,2.39,2.39,0,0,0,.94-1.56l2.76-18.68a.84.84,0,1,1,1.67.25L541,244a4.05,4.05,0,0,1-4.62,3.43l-3.63-.53Z" transform="translate(-105.79 -30.01)"/><path class="ac3f3218-e67c-4a8a-814b-bea67e5c7b92" d="M404.62,248.29l108.22,16a3.22,3.22,0,0,1,2.71,3.67L511.4,296a3.23,3.23,0,0,1-3.66,2.72l-92.52-13.69-12.93,9.83L404,283.4l-4.47-.66a3.23,3.23,0,0,1-2.72-3.66L401,251A3.23,3.23,0,0,1,404.62,248.29Z" transform="translate(-105.79 -30.01)"/><path class="fd140bfb-38df-4a77-93c6-8e6b9368944a" d="M508.22,299.63a3,3,0,0,1-.6-.05L449.86,291a.84.84,0,1,1,.25-1.67l57.75,8.54a2.38,2.38,0,0,0,2.71-2l4.15-28.08a2.38,2.38,0,0,0-2-2.7.84.84,0,0,1,.25-1.67,4.07,4.07,0,0,1,3.43,4.62l-4.15,28.07a4.06,4.06,0,0,1-4,3.48Z" transform="translate(-105.79 -30.01)"/><rect class="e274a19b-20cd-48c9-9466-d73c2256776b" x="434.82" y="312.94" width="26.61" height="156.82" transform="translate(-110.37 747.38) rotate(-81.59)"/><path class="ba748003-ad77-4c0e-84c3-a8d5fb433536" d="M395.4,383.32a9.43,9.43,0,1,1-7.95-10.72A9.44,9.44,0,0,1,395.4,383.32Z" transform="translate(-105.79 -30.01)"/><path class="e90d6edd-26a2-43b7-938e-c56e6c3cde55" d="M509.82,408.89a8.73,8.73,0,0,1-1.24-.09L408,393.92a8.41,8.41,0,0,1-7.09-9.55,8.42,8.42,0,0,1,9.56-7.09L511,392.15a8.41,8.41,0,0,1-1.22,16.74Zm-1-1.77a6.73,6.73,0,0,0,7.63-5.66,6.73,6.73,0,0,0-5.66-7.64L410.26,379a6.72,6.72,0,0,0-6.38,10.66,6.65,6.65,0,0,0,4.41,2.64Z" transform="translate(-105.79 -30.01)"/><path class="e274a19b-20cd-48c9-9466-d73c2256776b" d="M420.59,122.36a4,4,0,0,1-.49,0,3.31,3.31,0,1,1,3.76-2.79h0A3.31,3.31,0,0,1,420.59,122.36Zm0-4.93a1.58,1.58,0,0,0-1,.32,1.6,1.6,0,0,0-.64,1.07,1.66,1.66,0,0,0,.3,1.2,1.59,1.59,0,0,0,1.07.63,1.62,1.62,0,0,0,1.84-1.36h0a1.6,1.6,0,0,0-.31-1.2,1.56,1.56,0,0,0-1.06-.64Z" transform="translate(-105.79 -30.01)"/><path class="e274a19b-20cd-48c9-9466-d73c2256776b" d="M429.74,123.72a4,4,0,0,1-.49,0,3.31,3.31,0,0,1,1-6.55,3.31,3.31,0,0,1-.48,6.59Zm0-4.93a1.61,1.61,0,0,0-1.6,1.38,1.62,1.62,0,1,0,3.21.47h0A1.64,1.64,0,0,0,430,118.8Z" transform="translate(-105.79 -30.01)"/><path class="e274a19b-20cd-48c9-9466-d73c2256776b" d="M438.71,125a3.87,3.87,0,0,1-.48,0,3.35,3.35,0,1,1,.48,0Zm0-4.93a1.58,1.58,0,0,0-1,.32,1.63,1.63,0,0,0-.34,2.27,1.62,1.62,0,0,0,2.9-.73,1.62,1.62,0,0,0-1.36-1.84Z" transform="translate(-105.79 -30.01)"/><path class="fd140bfb-38df-4a77-93c6-8e6b9368944a" d="M565,152.5h-.13l-143.6-21.24a.84.84,0,0,1,.25-1.67l143.6,21.24a.84.84,0,0,1-.12,1.68Z" transform="translate(-105.79 -30.01)"/><path class="e274a19b-20cd-48c9-9466-d73c2256776b" d="M505.13,334.91H505l-76.62-11.33a.86.86,0,0,1-.72-1,.83.83,0,0,1,1-.71l76.62,11.33a.85.85,0,0,1,.72,1A.86.86,0,0,1,505.13,334.91Z" transform="translate(-105.79 -30.01)"/><path class="e274a19b-20cd-48c9-9466-d73c2256776b" d="M459.77,337.54h-.12L427,332.71a.84.84,0,1,1,.25-1.67l32.61,4.82a.84.84,0,0,1-.12,1.68Z" transform="translate(-105.79 -30.01)"/><path class="e274a19b-20cd-48c9-9466-d73c2256776b" d="M448.78,344.66h-.12l-22.89-3.38a.84.84,0,1,1,.25-1.67L448.91,343a.84.84,0,0,1-.13,1.68Z" transform="translate(-105.79 -30.01)"/><path class="e274a19b-20cd-48c9-9466-d73c2256776b" d="M503.78,344.05h-.12l-33.71-5a.85.85,0,0,1-.71-1,.83.83,0,0,1,1-.71l33.7,5a.84.84,0,0,1-.12,1.68Z" transform="translate(-105.79 -30.01)"/><path class="e274a19b-20cd-48c9-9466-d73c2256776b" d="M495.78,271.33h-.13L419,260a.85.85,0,0,1-.71-1,.83.83,0,0,1,1-.71l76.62,11.33a.84.84,0,0,1-.12,1.68Z" transform="translate(-105.79 -30.01)"/><path class="e274a19b-20cd-48c9-9466-d73c2256776b" d="M450.42,274h-.13l-32.61-4.82a.84.84,0,1,1,.25-1.67l32.61,4.82a.84.84,0,0,1-.12,1.68Z" transform="translate(-105.79 -30.01)"/><path class="e274a19b-20cd-48c9-9466-d73c2256776b" d="M484.3,287.72h-.13L418,277.45a.85.85,0,0,1-.7-1,.84.84,0,0,1,1-.7L484.43,286a.85.85,0,0,1-.13,1.68Z" transform="translate(-105.79 -30.01)"/><path class="e274a19b-20cd-48c9-9466-d73c2256776b" d="M494.42,280.47h-.12l-33.7-5a.86.86,0,0,1-.72-1,.84.84,0,0,1,1-.71l33.71,5a.84.84,0,0,1-.13,1.68Z" transform="translate(-105.79 -30.01)"/><path class="ac3f3218-e67c-4a8a-814b-bea67e5c7b92" d="M418.52,142.74l108.21,16a3.22,3.22,0,0,1,2.72,3.66l-4.15,28.08a3.23,3.23,0,0,1-3.66,2.72l-92.52-13.69-12.93,9.83,1.7-11.49-4.47-.66a3.23,3.23,0,0,1-2.72-3.66l4.15-28.08A3.23,3.23,0,0,1,418.52,142.74Z" transform="translate(-105.79 -30.01)"/><path class="fd140bfb-38df-4a77-93c6-8e6b9368944a" d="M525.3,191.33h-.12a.84.84,0,0,1-.72-1l4.16-28.07a2.38,2.38,0,0,0-.45-1.77,2.34,2.34,0,0,0-1.56-.93l-67.19-9.94a.84.84,0,1,1,.25-1.67l67.19,9.93a4.08,4.08,0,0,1,3.43,4.63l-4.15,28.07A.86.86,0,0,1,525.3,191.33Z" transform="translate(-105.79 -30.01)"/><path class="e274a19b-20cd-48c9-9466-d73c2256776b" d="M509.67,165.79h-.12l-76.62-11.33a.85.85,0,0,1,.25-1.68l76.62,11.34a.84.84,0,0,1-.13,1.68Z" transform="translate(-105.79 -30.01)"/><path class="e274a19b-20cd-48c9-9466-d73c2256776b" d="M464.31,168.42h-.12l-32.61-4.82a.85.85,0,0,1,.24-1.68l32.62,4.83a.84.84,0,0,1-.13,1.68Z" transform="translate(-105.79 -30.01)"/><path class="e274a19b-20cd-48c9-9466-d73c2256776b" d="M498.2,182.17h-.13L431.94,171.9a.83.83,0,0,1-.7-1,.85.85,0,0,1,1-.71l66.13,10.26a.85.85,0,0,1,.7,1A.83.83,0,0,1,498.2,182.17Z" transform="translate(-105.79 -30.01)"/><path class="e274a19b-20cd-48c9-9466-d73c2256776b" d="M508.32,174.93h-.12l-33.71-5a.84.84,0,1,1,.25-1.67l33.7,5a.84.84,0,0,1,.72,1A.86.86,0,0,1,508.32,174.93Z" transform="translate(-105.79 -30.01)"/><path class="e274a19b-20cd-48c9-9466-d73c2256776b" d="M522.41,219.66h-.13l-76.62-11.34a.84.84,0,1,1,.25-1.67L522.53,218a.85.85,0,0,1-.12,1.69Z" transform="translate(-105.79 -30.01)"/><path class="e274a19b-20cd-48c9-9466-d73c2256776b" d="M477.05,222.29h-.13l-32.61-4.83a.84.84,0,1,1,.25-1.67l32.61,4.82a.85.85,0,0,1-.12,1.69Z" transform="translate(-105.79 -30.01)"/><path class="e274a19b-20cd-48c9-9466-d73c2256776b" d="M466.06,229.4h-.13L443,226a.84.84,0,0,1,.25-1.67l22.89,3.38a.84.84,0,0,1-.12,1.68Z" transform="translate(-105.79 -30.01)"/><path class="e274a19b-20cd-48c9-9466-d73c2256776b" d="M521.05,228.8h-.12l-33.7-5a.86.86,0,0,1-.72-1,.85.85,0,0,1,1-.71l33.71,5a.85.85,0,0,1-.13,1.69Z" transform="translate(-105.79 -30.01)"/><path class="ac3f3218-e67c-4a8a-814b-bea67e5c7b92" d="M366.61,425.28,193,444.84a6.09,6.09,0,0,1-6.72-5.36l-12.53-111.2a.32.32,0,0,1,.29-.35l185-20.84a.31.31,0,0,1,.35.28l12.54,111.24A6,6,0,0,1,366.61,425.28Z" transform="translate(-105.79 -30.01)"/><path class="fd140bfb-38df-4a77-93c6-8e6b9368944a" d="M192.35,445.72a6.94,6.94,0,0,1-6.88-6.15L172.94,328.38a1.17,1.17,0,0,1,1-1.29l185-20.84a1.16,1.16,0,0,1,1.29,1l12.54,111.24a6.89,6.89,0,0,1-6.07,7.61L193.12,445.68A6.74,6.74,0,0,1,192.35,445.72Zm-17.67-117,12.47,110.67a5.24,5.24,0,0,0,5.79,4.62l173.57-19.56.1.84-.1-.84a5.19,5.19,0,0,0,4.58-5.74L358.61,308Z" transform="translate(-105.79 -30.01)"/><path class="a36215de-ce9b-4266-a32b-04b51145a330" d="M358.47,425.28l-157,19.56c-3.34.37,48.64-66.29,48.26-69.62l-76-46.94a.32.32,0,0,1,.29-.35l185-20.84a.31.31,0,0,1,.35.28L296.12,370C296.49,373.31,361.78,424.91,358.47,425.28Z" transform="translate(-105.79 -30.01)"/><path class="ac3f3218-e67c-4a8a-814b-bea67e5c7b92" d="M174.07,327.93l76.49-75.65a13.89,13.89,0,0,1,17.09-1.95l90.92,56.47a.19.19,0,0,1-.08.35L173.75,328" transform="translate(-105.79 -30.01)"/><path class="fd140bfb-38df-4a77-93c6-8e6b9368944a" d="M173.84,328.8l-.14-1.24-.23-.23.19-.18v0h0L250,251.68a14.69,14.69,0,0,1,18.13-2.07L359,306.08a1,1,0,0,1,.47,1.1,1,1,0,0,1-.89.81Zm86.49-79.71a13,13,0,0,0-9.18,3.79l-74.76,73.94,180.13-20.3L267.2,251.05A13,13,0,0,0,260.33,249.09Z" transform="translate(-105.79 -30.01)"/><path class="a36215de-ce9b-4266-a32b-04b51145a330" d="M174.07,327.93l76.49-75.65a13.89,13.89,0,0,1,17.09-1.95l90.92,56.47a.19.19,0,0,1-.08.35L173.75,328" transform="translate(-105.79 -30.01)"/><path class="b3f40a10-e4d9-49bf-896c-c881a27c74da" d="M259,363.56l-57.5,80,157-17.69-73.86-65.2A17.36,17.36,0,0,0,259,363.56Z" transform="translate(-105.79 -30.01)"/><path class="fd140bfb-38df-4a77-93c6-8e6b9368944a" d="M199.72,444.61l58.61-81.55.69.5-.69-.5a18.2,18.2,0,0,1,26.84-3l75.29,66.46Zm73.39-87.44a16.33,16.33,0,0,0-1.84.1,16.61,16.61,0,0,0-11.57,6.78L203.32,442.5l153.16-17.25-72.43-63.94A16.52,16.52,0,0,0,273.11,357.17Z" transform="translate(-105.79 -30.01)"/><path class="e274a19b-20cd-48c9-9466-d73c2256776b" d="M183.41,273.13,304.3,259.5c7.93-.89,15,4,15.75,10.84l7.77,69-33.61,30.9-44.43,5L205.9,347.77,198.37,281Z" transform="translate(-105.79 -30.01)"/><path class="fd140bfb-38df-4a77-93c6-8e6b9368944a" d="M249.58,376.09,205.1,348.27l-7.52-66.78L186.07,272l118.14-13.31a16.4,16.4,0,0,1,11.13,2.65,12.55,12.55,0,0,1,5.56,8.94l7.81,69.39L294.57,371Zm-42.89-28.82L250,374.34l43.86-4.94L326.94,339l-7.73-68.54a10.81,10.81,0,0,0-4.83-7.73,14.68,14.68,0,0,0-10-2.37L186.24,273.66l12.92,6.75Z" transform="translate(-105.79 -30.01)"/><path class="a36215de-ce9b-4266-a32b-04b51145a330" d="M259,356.65l-57.5,86.91,157-17.69-73.86-72.1A17.37,17.37,0,0,0,259,356.65Z" transform="translate(-105.79 -30.01)"/><path class="ac3f3218-e67c-4a8a-814b-bea67e5c7b92" d="M259,363.56l-57.5,80,157-17.69-73.86-65.2A17.36,17.36,0,0,0,259,363.56Z" transform="translate(-105.79 -30.01)"/><path class="fd140bfb-38df-4a77-93c6-8e6b9368944a" d="M199.72,444.61l58.61-81.55.69.5-.69-.5a18.2,18.2,0,0,1,26.84-3l75.29,66.46Zm73.39-87.44a16.33,16.33,0,0,0-1.84.1,16.61,16.61,0,0,0-11.57,6.78L203.32,442.5l153.16-17.25-72.43-63.94A16.52,16.52,0,0,0,273.11,357.17Z" transform="translate(-105.79 -30.01)"/><path class="b2fb467a-7b00-4765-9c46-6b77d8398eb0" d="M264.59,381.26,222.36,440l115.27-13-54.24-47.89A12.76,12.76,0,0,0,264.59,381.26Z" transform="translate(-105.79 -30.01)"/><line class="b3f40a10-e4d9-49bf-896c-c881a27c74da" x1="68.34" y1="298.07" x2="143.99" y2="345.21"/><rect class="fd140bfb-38df-4a77-93c6-8e6b9368944a" x="211.11" y="307.08" width="1.69" height="89.13" transform="matrix(0.53, -0.85, 0.85, 0.53, -304.38, 315.56)"/><line class="b3f40a10-e4d9-49bf-896c-c881a27c74da" x1="253.58" y1="277.2" x2="190.32" y2="339.98"/><rect class="fd140bfb-38df-4a77-93c6-8e6b9368944a" x="283.18" y="337.76" width="89.13" height="1.69" transform="translate(-249.2 299.28) rotate(-44.8)"/><path class="ec2d3401-d38a-4aa7-bf21-33f6ae2bfe38" d="M201.72,311.74l-21.1,2.38L177.23,284a10.14,10.14,0,0,1,8.93-11.21l1-.1a10.14,10.14,0,0,1,11.21,8.93Z" transform="translate(-105.79 -30.01)"/><path class="fd140bfb-38df-4a77-93c6-8e6b9368944a" d="M179.87,315.06l-3.48-30.95A11,11,0,0,1,186.07,272l1-.1a11,11,0,0,1,12.14,9.68l3.48,30.94Zm8.4-41.57a9.24,9.24,0,0,0-1.05.06l-1,.11a9.26,9.26,0,0,0-8.19,10.26l3.29,29.27L200.78,311l-3.3-29.26a9.26,9.26,0,0,0-9.21-8.25Z" transform="translate(-105.79 -30.01)"/><path class="fd140bfb-38df-4a77-93c6-8e6b9368944a" d="M216,296.07a.85.85,0,0,1-.84-.75.84.84,0,0,1,.75-.93l87.59-9.87a.85.85,0,1,1,.19,1.68l-87.59,9.87Z" transform="translate(-105.79 -30.01)"/><path class="fd140bfb-38df-4a77-93c6-8e6b9368944a" d="M219.4,325.85a.84.84,0,0,1-.84-.75.86.86,0,0,1,.74-.94l87.6-9.86a.85.85,0,0,1,.19,1.68l-87.6,9.87Z" transform="translate(-105.79 -30.01)"/><path class="fd140bfb-38df-4a77-93c6-8e6b9368944a" d="M217.7,310.79a.85.85,0,0,1-.09-1.69l37.85-4.26a.85.85,0,0,1,.19,1.68l-37.85,4.26Z" transform="translate(-105.79 -30.01)"/><path class="fd140bfb-38df-4a77-93c6-8e6b9368944a" d="M265.46,305.41a.85.85,0,0,1-.09-1.69l39.83-4.49a.87.87,0,0,1,.94.75.86.86,0,0,1-.75.94l-39.83,4.48Z" transform="translate(-105.79 -30.01)"/><path class="fd140bfb-38df-4a77-93c6-8e6b9368944a" d="M221.3,342.74a.85.85,0,0,1-.09-1.69l37.85-4.26a.85.85,0,0,1,.19,1.68l-37.85,4.26Z" transform="translate(-105.79 -30.01)"/></g></svg>