<svg width="24" height="24" viewBox="0 0 24 24" fill="none" xmlns="http://www.w3.org/2000/svg">
<path d="M4.2612 2.93037C5.286 2.35677 6.5928 2.22237 7.842 2.53917C8.4504 2.69277 8.97 3.08757 9.282 3.63117L10.3596 5.51037C10.7437 6.18033 10.8546 6.97259 10.6693 7.72227C10.484 8.47194 10.0168 9.12129 9.3648 9.53518L8.4168 10.1376C8.0244 10.386 7.8804 10.7664 7.9704 11.0676C8.292 12.1452 9.0036 13.3404 9.786 14.1588C10.0188 14.4036 10.446 14.4612 10.8636 14.2176L11.388 13.9116C11.7321 13.711 12.1127 13.581 12.5075 13.529C12.9024 13.4771 13.3037 13.5043 13.6879 13.6091C14.0722 13.7139 14.4317 13.8941 14.7456 14.1393C15.0594 14.3845 15.3213 14.6897 15.516 15.0372L16.482 16.7592C16.7976 17.3232 16.8492 17.9964 16.626 18.6024C16.1808 19.806 15.3228 20.7768 14.268 21.2628C13.1964 21.756 11.9424 21.7356 10.8072 20.9784C9.0096 19.7808 6.8436 17.7648 4.8816 14.4024C2.8944 10.9944 2.394 8.09397 2.4504 5.93157C2.4864 4.54797 3.2184 3.51357 4.2612 2.93037V2.93037ZM15.2916 2.47437C15.1525 2.39704 14.9884 2.37812 14.8354 2.42178C14.6824 2.46543 14.5529 2.5681 14.4756 2.70717C14.3983 2.84625 14.3793 3.01036 14.423 3.16339C14.4667 3.31642 14.5693 3.44584 14.7084 3.52317L15.1692 3.77997C16.6087 4.57966 17.8332 5.71599 18.7381 7.09186C19.6429 8.46773 20.2012 10.0422 20.3652 11.6808L20.4036 12.0588C20.4081 12.1397 20.429 12.2188 20.465 12.2914C20.5009 12.3641 20.5512 12.4287 20.6128 12.4813C20.6744 12.534 20.746 12.5736 20.8233 12.5978C20.9007 12.622 20.9821 12.6303 21.0627 12.6222C21.1433 12.6141 21.2215 12.5897 21.2924 12.5506C21.3634 12.5115 21.4257 12.4584 21.4756 12.3945C21.5254 12.3306 21.5619 12.2573 21.5826 12.179C21.6034 12.1007 21.6081 12.019 21.5964 11.9388L21.5592 11.562C21.3761 9.73028 20.7522 7.97017 19.7407 6.43212C18.7293 4.89406 17.3604 3.62382 15.7512 2.72997L15.2916 2.47437V2.47437ZM13.8852 5.69037C13.9672 5.55402 14.0999 5.4558 14.2543 5.41732C14.4087 5.37884 14.572 5.40325 14.7084 5.48517L14.8572 5.57397C15.8258 6.15472 16.6568 6.93888 17.2927 7.87227C17.9285 8.80565 18.3541 9.86599 18.54 10.98L18.5928 11.3004C18.6084 11.3792 18.6079 11.4603 18.5916 11.5389C18.5752 11.6175 18.5432 11.6921 18.4975 11.7581C18.4518 11.8242 18.3933 11.8803 18.3254 11.9233C18.2576 11.9664 18.1818 11.9953 18.1026 12.0085C18.0234 12.0217 17.9423 12.0188 17.8642 12.0001C17.7861 11.9813 17.7126 11.9471 17.6479 11.8994C17.5833 11.8517 17.5289 11.7916 17.488 11.7225C17.447 11.6534 17.4204 11.5768 17.4096 11.4972L17.3556 11.178C17.1987 10.2353 16.8391 9.33799 16.3014 8.54799C15.7637 7.75798 15.061 7.09415 14.2416 6.60237L14.0928 6.51357C14.0252 6.47309 13.9662 6.41967 13.9192 6.35638C13.8723 6.2931 13.8382 6.22118 13.8191 6.14473C13.7999 6.06829 13.796 5.98881 13.8075 5.91086C13.8191 5.8329 13.8459 5.75798 13.8864 5.69037H13.8852Z" fill="#5A5AF6"/>
</svg>
