<svg width="15" height="15" viewBox="0 0 15 15" fill="none" xmlns="http://www.w3.org/2000/svg">
<path d="M14.5312 7.26562C14.5312 11.2793 11.2793 14.5312 7.26562 14.5312C3.25195 14.5312 0 11.2793 0 7.26562C0 3.25195 3.25195 0 7.26562 0C11.2793 0 14.5312 3.25195 14.5312 7.26562ZM5.97656 3.86719V7.26562H3.89941C3.58594 7.26562 3.42773 7.64648 3.65039 7.86621L7.0166 11.2148C7.1543 11.3525 7.37402 11.3525 7.51172 11.2148L10.8779 7.86621C11.1006 7.64355 10.9424 7.26562 10.6289 7.26562H8.55469V3.86719C8.55469 3.67383 8.39648 3.51562 8.20312 3.51562H6.32812C6.13477 3.51562 5.97656 3.67383 5.97656 3.86719Z" fill="#5A5755"/>
</svg>
