<svg xmlns="http://www.w3.org/2000/svg" viewBox="0 0 398.83 427.22"><defs><style>.bfd494fd-9e61-4760-a141-933d7f523aee{isolation:isolate;}.a4210048-14ab-4c46-b82c-e877f22933f0{fill:#1d253d;}.aba83362-d586-4e5d-a323-7c7f4ee34e75{fill:#fea30a;}.b7e5687a-d0bc-4559-8d8b-ca07b3b6a9a6{fill:#36f;}.b71034d0-970d-422a-a595-387aba66464b{fill:#feb12f;}.a671b4a9-d773-42cf-9059-0e91719b1989{fill:#bf6d3e;}.be274407-f35f-4b47-b3f5-651d084a3cd2{fill:#80410e;}.edffa40d-e209-4587-a9c3-c9f918aab0a2{fill:#036;}.b25bf7a1-5636-494e-818a-fa8084b20b49{fill:#001e4a;}.abf24076-a3f4-4695-9a10-0981a29ccc6b{fill:#465a94;}.e6f41513-a42f-44b4-a559-139401bbc08d{fill:#a86114;}.ab26e961-71f3-4d78-a773-ade2f6bc176b{fill:#a6f3ff;}.b798c1e1-2fcb-4395-a49f-04cc56e0a890{fill:#47bed1;}.bf1a6622-932d-478f-becc-4794e16080bd{fill:#dd4f05;}.bb83b5af-9023-425c-9ddd-7c51e341725f{fill:#7a2923;}.f7fb8a87-9698-4089-9310-cb77a55bc6db{fill:#3b1411;}.a4b1bc00-3725-4f19-b91d-7298662327d8{fill:#804e26;}.f5e95fe6-f62e-4b6f-bbe5-e87abc5a4430{fill:#96432a;}.f053f953-a15d-4d50-b9ee-abc20d2257b3{fill:#6c301e;}.f2117422-0108-4c40-9a13-882272031825{fill:#ff941e;}.a7366ddd-daaa-429b-a4b6-f19665f91774{fill:#ffc9b9;}.a5a2ad51-1dee-40a5-a5d7-9de01f3d6038{fill:#fff;}.f5b39d37-9af9-4b6e-ac25-3330ad5b901e{fill:#006cb0;}.a997af94-4c34-4044-a957-dea7c340f2b7{fill:#0081c9;}.ac606e5b-163f-4db6-8774-af13fc38a66a{fill:#ffab90;}.ae3cd045-8170-4662-a4d7-dac0ccd8012f{fill:#ffab91;}.a099d095-b8a1-4464-afb3-a6a64547d59f{fill:#ff8a65;}.b6799cbe-5387-4db5-87e7-172db703e940{fill:#3e2410;}.a998f9ee-7072-45ff-bb5b-c481e00fb7e6,.e44b0b93-bda5-4a93-8661-8b4605fe51d9{fill:#170d05;}.a998f9ee-7072-45ff-bb5b-c481e00fb7e6{opacity:0.37;mix-blend-mode:multiply;}</style></defs><g class="bfd494fd-9e61-4760-a141-933d7f523aee"><g id="fa16852f-711f-469f-8e81-1c8431109ac6" data-name="OBJECTS"><path class="a4210048-14ab-4c46-b82c-e877f22933f0" d="M230.52,96V162h-29a4.66,4.66,0,0,1-4.65-4.66V100.69A4.66,4.66,0,0,1,201.55,96Z" transform="translate(-63.21 -27.69)"/><path class="aba83362-d586-4e5d-a323-7c7f4ee34e75" d="M343.29,127.25c-3,28-18.9,34.72-18.9,34.72H230.52V96c26.34-5.06,38.89-37.5,36.17-53.77a34.79,34.79,0,0,0,0-9.94,6.42,6.42,0,0,1,7.35-4.45c18.11,2.83,19.15,40.41,19,52.66a4,4,0,0,0,3.73,4c6.92.47,22,1.84,35.24,5.3,8.68,2.27,12.28,4.54,13.35,9.51C346.51,104.63,344.82,112.87,343.29,127.25Z" transform="translate(-63.21 -27.69)"/><path class="b7e5687a-d0bc-4559-8d8b-ca07b3b6a9a6" d="M230.52,96v55.9h-29a4.65,4.65,0,0,1-4.65-4.65V100.69A4.66,4.66,0,0,1,201.55,96Z" transform="translate(-63.21 -27.69)"/><path class="b71034d0-970d-422a-a595-387aba66464b" d="M345.38,99.39c-.46,4.59-1.3,10.38-2.09,17.82-3,28-18.9,34.72-18.9,34.72H230.52V96c13.13-2.52,23.35-12.23,29.55-23.7,4.46-8.28,5.86-17.61,6.45-26.88.35-5.42-1.76-19.48,7.54-17.58,18.11,2.83,19.15,40.41,19,52.66a4,4,0,0,0,3.73,4c6.92.47,22,1.84,35.24,5.3C340.71,92.15,344.31,94.42,345.38,99.39Z" transform="translate(-63.21 -27.69)"/><path class="a671b4a9-d773-42cf-9059-0e91719b1989" d="M307.86,162H322l-6.83,7.46v8.08h-10v-7a11.41,11.41,0,0,1,1-4.64Z" transform="translate(-63.21 -27.69)"/><path class="a671b4a9-d773-42cf-9059-0e91719b1989" d="M307.46,168.43a4.47,4.47,0,0,0-.28-8.16c-.28-2.76-2.78-4.93-5.51-5.41a49,49,0,0,1,3.74,14.23Z" transform="translate(-63.21 -27.69)"/><path class="be274407-f35f-4b47-b3f5-651d084a3cd2" d="M305.25,156.2a3,3,0,0,1,1.55,2.41,3.85,3.85,0,0,0,.6,1.58,6.28,6.28,0,0,0,1.44,1,3.87,3.87,0,0,1,1.74,2.8,8.32,8.32,0,0,1-.76,3.73c-.15.38-.72.08-.57-.3a7.33,7.33,0,0,0,.68-3.53,3.6,3.6,0,0,0-2-2.52,3.13,3.13,0,0,1-1.12-.92,4,4,0,0,1-.52-1.29c-.22-.88-.36-2-1.32-2.39C304.56,156.62,304.86,156.05,305.25,156.2Z" transform="translate(-63.21 -27.69)"/><path class="a671b4a9-d773-42cf-9059-0e91719b1989" d="M216.32,162H202.19l6.83,7.46v8.08h10v-7a11.41,11.41,0,0,0-1-4.64Z" transform="translate(-63.21 -27.69)"/><path class="b7e5687a-d0bc-4559-8d8b-ca07b3b6a9a6" d="M276.41,235.35a112.1,112.1,0,0,0,22.77-19.64,410,410,0,0,0,4.69-40.94,70,70,0,0,1,12.86-.25A229.29,229.29,0,0,1,319.8,229C308.46,240.23,296.35,252.74,285,264Z" transform="translate(-63.21 -27.69)"/><path class="edffa40d-e209-4587-a9c3-c9f918aab0a2" d="M318.56,220.78a17.73,17.73,0,0,0,1.69-2.93c-.05,3.72-.19,7.43-.45,11.16C308.46,240.23,296.35,252.74,285,264l-2-6.65C295.57,246,308,234.45,318.56,220.78Z" transform="translate(-63.21 -27.69)"/><path class="a4210048-14ab-4c46-b82c-e877f22933f0" d="M304.9,181.15l8.58.2c.41,0,.45.65,0,.64l-8.58-.2C304.52,181.78,304.49,181.14,304.9,181.15Z" transform="translate(-63.21 -27.69)"/><path class="b7e5687a-d0bc-4559-8d8b-ca07b3b6a9a6" d="M247.65,235.35a112.1,112.1,0,0,1-22.77-19.64,410,410,0,0,1-4.69-40.94,70,70,0,0,0-12.86-.25A229.29,229.29,0,0,0,204.26,229c11.34,11.22,23.45,23.73,34.79,34.95Z" transform="translate(-63.21 -27.69)"/><path class="edffa40d-e209-4587-a9c3-c9f918aab0a2" d="M239.59,254.16c.19,2.15.34,4.3.47,6.45l-1,3.35c-11.34-11.22-23.45-23.73-34.79-34.95-.33-4.85-.48-9.69-.48-14.52C210,231.12,224.11,243.84,239.59,254.16Z" transform="translate(-63.21 -27.69)"/><path class="a4210048-14ab-4c46-b82c-e877f22933f0" d="M208,181.63l11.36-.57a.32.32,0,0,1,0,.64l-11.37.58A.33.33,0,0,1,208,181.63Z" transform="translate(-63.21 -27.69)"/><path class="b25bf7a1-5636-494e-818a-fa8084b20b49" d="M234.11,435.35c0,1.57,0,3.1,0,4.57h9.12l.5-4.57Z" transform="translate(-63.21 -27.69)"/><path class="b25bf7a1-5636-494e-818a-fa8084b20b49" d="M279.23,435.35c0,1.57,0,3.1,0,4.57h9.12l.51-4.57Z" transform="translate(-63.21 -27.69)"/><path class="edffa40d-e209-4587-a9c3-c9f918aab0a2" d="M289.2,311.12c-24.14,2.66-27.64,16.47-27.64,16.47l9.75,57.59,5.12,52.74h16.25C297.58,372,289.2,311.12,289.2,311.12Z" transform="translate(-63.21 -27.69)"/><path class="abf24076-a3f4-4695-9a10-0981a29ccc6b" d="M268.05,326.8s10.74-6.88,12-12.9l-43.53,1.43s-6.06,77.77-5.89,120h16.61Z" transform="translate(-63.21 -27.69)"/><path class="b7e5687a-d0bc-4559-8d8b-ca07b3b6a9a6" d="M266.83,333.18,247.24,437.92H230.63c-.13-31.44,3.2-85.11,4.91-109.2A90,90,0,0,0,266.83,333.18Z" transform="translate(-63.21 -27.69)"/><path class="edffa40d-e209-4587-a9c3-c9f918aab0a2" d="M235.54,328.72c.58-8.29,1-13.39,1-13.39l43.53-1.43c-1.26,6-12,12.9-12,12.9l-1.22,6.38A90,90,0,0,1,235.54,328.72Z" transform="translate(-63.21 -27.69)"/><path class="a4210048-14ab-4c46-b82c-e877f22933f0" d="M276.36,320c2.13-2.14,4-4.58,4.48-6.9l-40.75-1.93s-.33,4.38-.48,6.2A111.87,111.87,0,0,0,276.36,320Z" transform="translate(-63.21 -27.69)"/><path class="b25bf7a1-5636-494e-818a-fa8084b20b49" d="M243.77,439.23l-10.67-.29A24.7,24.7,0,0,0,227,450.09h19.26A45.5,45.5,0,0,0,243.77,439.23Z" transform="translate(-63.21 -27.69)"/><path class="e6f41513-a42f-44b4-a559-139401bbc08d" d="M227,450.09c-.1.39-.21.79-.28,1.19a1,1,0,0,0,1,1.23h17.66a1,1,0,0,0,1-1.09c0-.44-.08-.89-.12-1.33Z" transform="translate(-63.21 -27.69)"/><path class="b25bf7a1-5636-494e-818a-fa8084b20b49" d="M278.66,439.23l10.66-.29c3,3.09,20.87,7,21.91,11.15h-35A45,45,0,0,1,278.66,439.23Z" transform="translate(-63.21 -27.69)"/><path class="e6f41513-a42f-44b4-a559-139401bbc08d" d="M311.23,450.09c.1.39.2.79.28,1.19a1,1,0,0,1-1,1.23H277.08a1,1,0,0,1-1-1.09c0-.44.07-.89.12-1.33Z" transform="translate(-63.21 -27.69)"/><path class="a4210048-14ab-4c46-b82c-e877f22933f0" d="M242.56,389.4c-1.32-2.28-2.71-4.49-3.8-6.89a64,64,0,0,1-2.7-7.47.25.25,0,0,0-.48.13,34.29,34.29,0,0,0,2.51,7.63,31.44,31.44,0,0,0,4,7C242.31,390,242.73,389.68,242.56,389.4Z" transform="translate(-63.21 -27.69)"/><path class="a4210048-14ab-4c46-b82c-e877f22933f0" d="M233.28,433.8h10.59c.41,0,.44.64,0,.64H233.31C232.9,434.44,232.87,433.8,233.28,433.8Z" transform="translate(-63.21 -27.69)"/><path class="ab26e961-71f3-4d78-a773-ade2f6bc176b" d="M284.89,243.12a7.26,7.26,0,0,0-5-6.34,49.47,49.47,0,0,0-19.94-2.5,85,85,0,0,0-18.28,3.5c-3.89,1.14-6.32,4.61-5.72,8.19a285.41,285.41,0,0,1,3.39,64.75c16,4.63,31.87,6,47,.71C286.79,289.39,285.93,265.2,284.89,243.12Z" transform="translate(-63.21 -27.69)"/><path class="b798c1e1-2fcb-4395-a49f-04cc56e0a890" d="M262.41,240.42a24.78,24.78,0,0,0-4.88,3.24c-.64-1.2-1.24-2.43-1.86-3.64l-1-2a10.94,10.94,0,0,0-1.09-1.95c-.19-.23-.55,0-.48.28a11.27,11.27,0,0,0,.9,2c.35.69.7,1.38,1,2.07.69,1.36,1.41,2.7,2.05,4.08a.41.41,0,0,0,.63.08,29.74,29.74,0,0,1,5.1-3.5C263.21,240.83,262.84,240.2,262.41,240.42Z" transform="translate(-63.21 -27.69)"/><path class="b798c1e1-2fcb-4395-a49f-04cc56e0a890" d="M268.71,240.43c0-.59,0-1.17,0-1.75a3.94,3.94,0,0,0-.13-1.68.28.28,0,0,0-.46,0,3.36,3.36,0,0,0-.12,1.61c0,.61,0,1.21,0,1.82,0,1,.11,1.93.19,2.89L265.79,242l-1.48-.82a5.23,5.23,0,0,0-1.52-.7.2.2,0,0,0-.19.33,5.25,5.25,0,0,0,1.37.95l1.46.86,3,1.71A.36.36,0,0,0,269,244C268.84,242.79,268.76,241.61,268.71,240.43Z" transform="translate(-63.21 -27.69)"/><polygon class="bf1a6622-932d-478f-becc-4794e16080bd" points="199.39 213.07 197.12 214.86 198.26 216.64 198.05 276.97 202.55 279.32 206.37 276.97 201.1 216.98 201.75 214.61 199.39 213.07"/><path class="b7e5687a-d0bc-4559-8d8b-ca07b3b6a9a6" d="M234.56,250.25c-.77-5.16,1.34-10.74,5.5-12.25a41.45,41.45,0,0,1,10.5-2.45c2.81,11.73,14.39,35.7,14.39,35.7s9-27.43,3.71-36.88c3.39-.18,9.83.78,13.23,2.51,3.19,1.62,5.19,6.87,5.43,10.94,1.48,25.17,6.18,51.33,8.16,76.85-2.46,1.15-5.67,1.18-8.32,1.41-4.31.39-8.63.59-13,.75-14,.52-27.88.07-41.13-5C235,297.9,238.09,274.06,234.56,250.25Z" transform="translate(-63.21 -27.69)"/><path class="edffa40d-e209-4587-a9c3-c9f918aab0a2" d="M239.59,254.16c2,22.73.07,45.86-4.3,68.45-.74-.26-1.48-.52-2.22-.81,1.91-23.74,5-47.43,1.55-71.08Q237.08,252.49,239.59,254.16Z" transform="translate(-63.21 -27.69)"/><path class="a4210048-14ab-4c46-b82c-e877f22933f0" d="M273.12,255.56l4.76-1.63,1.19-.41a6.63,6.63,0,0,0,1.05-.39c.68-.37.42-1.18.22-1.78-1-3.22-2.12-6.43-3.17-9.65a.32.32,0,0,1,.61-.2l2.7,8.21c.21.63.45,1.27.62,1.92a2.12,2.12,0,0,1-.05,1.45,1.82,1.82,0,0,1-1.14.83l-2,.68-4.61,1.58A.32.32,0,0,1,273.12,255.56Z" transform="translate(-63.21 -27.69)"/><path class="a4210048-14ab-4c46-b82c-e877f22933f0" d="M273.53,255.72l5.37,5.57c.28.29-.15.77-.44.47l-5.36-5.57C272.81,255.9,273.24,255.42,273.53,255.72Z" transform="translate(-63.21 -27.69)"/><path class="a4210048-14ab-4c46-b82c-e877f22933f0" d="M266.27,276.56l12.17-15.27c.26-.33.73.11.48.43L266.75,277C266.49,277.31,266,276.88,266.27,276.56Z" transform="translate(-63.21 -27.69)"/><path class="a4210048-14ab-4c46-b82c-e877f22933f0" d="M253.54,256.68l-4.94-1-1.23-.24a6.94,6.94,0,0,1-1.1-.23c-.73-.28-.58-1.12-.47-1.74.6-3.33,1.21-6.67,1.81-10a.32.32,0,0,0-.64-.11l-1.53,8.5c-.12.66-.27,1.33-.34,2a2,2,0,0,0,.24,1.43,1.9,1.9,0,0,0,1.24.66l2.06.39,4.79.92A.32.32,0,0,0,253.54,256.68Z" transform="translate(-63.21 -27.69)"/><path class="a4210048-14ab-4c46-b82c-e877f22933f0" d="M253.16,256.9l-4.54,6.26c-.25.33.25.74.49.41l4.54-6.26C253.89,257,253.4,256.57,253.16,256.9Z" transform="translate(-63.21 -27.69)"/><path class="a4210048-14ab-4c46-b82c-e877f22933f0" d="M263.24,276.52,249.07,263.1c-.3-.29-.71.21-.41.49L262.84,277C263.14,277.3,263.54,276.81,263.24,276.52Z" transform="translate(-63.21 -27.69)"/><path class="a4210048-14ab-4c46-b82c-e877f22933f0" d="M265.26,272.31q.69,10.79,1.07,21.57t.47,21.59q0,6.07,0,12.16c0,.41-.64.44-.64,0q.09-10.8-.12-21.6t-.73-21.58q-.3-6.08-.68-12.14A.32.32,0,0,1,265.26,272.31Z" transform="translate(-63.21 -27.69)"/><path class="a4210048-14ab-4c46-b82c-e877f22933f0" d="M276.4,305a18.65,18.65,0,0,0,11.49-.47c.39-.14.59.47.2.61a19.25,19.25,0,0,1-11.84.48C275.86,305.49,276,304.87,276.4,305Z" transform="translate(-63.21 -27.69)"/><path class="a4210048-14ab-4c46-b82c-e877f22933f0" d="M241.88,305.82a18.68,18.68,0,0,0,11.5-.46c.39-.15.59.46.2.61a19.4,19.4,0,0,1-11.84.48C241.35,306.34,241.49,305.71,241.88,305.82Z" transform="translate(-63.21 -27.69)"/><path class="bb83b5af-9023-425c-9ddd-7c51e341725f" d="M274,214.15a17.68,17.68,0,0,0-.78-11.91,4,4,0,0,0-.42-2.78,5.3,5.3,0,0,0-2-1.92,4.78,4.78,0,0,0-3.63-.53,3.11,3.11,0,0,0-2.27,2.71,14.5,14.5,0,0,0-2.74-1.47,5.35,5.35,0,0,0-3.21-.2,3.28,3.28,0,0,0-2.28,2.13,2.37,2.37,0,0,0,1.17,2.75,3.57,3.57,0,0,0-3.8-.66,5.05,5.05,0,0,0-2.48,2.74,5.23,5.23,0,0,0-.42,2.94,3.2,3.2,0,0,0,1.7,2.34c-1.72.86-2.28,3-1.92,4.84a10.94,10.94,0,0,0,2.8,5,23.32,23.32,0,0,1,3.49,4.58Z" transform="translate(-63.21 -27.69)"/><path class="f7fb8a87-9698-4089-9310-cb77a55bc6db" d="M273.48,214.54a18.28,18.28,0,0,0-.69-11.46,4.1,4.1,0,0,0-.38-2.67,4.8,4.8,0,0,0-1.78-1.85,4,4,0,0,0-3.23-.51,3,3,0,0,0-2,2.61,12.22,12.22,0,0,0-2.44-1.42,4.44,4.44,0,0,0-2.85-.19,3,3,0,0,0-2,2,2.35,2.35,0,0,0,1,2.65,3,3,0,0,0-3.38-.64,4.77,4.77,0,0,0-2.21,2.64,5.35,5.35,0,0,0-.37,2.82,3.09,3.09,0,0,0,1.51,2.26c-1.53.83-2,2.84-1.71,4.66a11.08,11.08,0,0,0,2.49,4.79,22.28,22.28,0,0,1,3.11,4.4Z" transform="translate(-63.21 -27.69)"/><path class="a671b4a9-d773-42cf-9059-0e91719b1989" d="M255.72,219.49a78.12,78.12,0,0,1-.36,15.59,2.82,2.82,0,0,0,1.18,2.68,11.59,11.59,0,0,0,8.27,2,2.8,2.8,0,0,0,2.35-3,92.35,92.35,0,0,1-.28-10A22.45,22.45,0,0,0,255.72,219.49Z" transform="translate(-63.21 -27.69)"/><path class="be274407-f35f-4b47-b3f5-651d084a3cd2" d="M266.88,226.7a22.45,22.45,0,0,0-11.16-7.21c.1,1.36.17,2.73.21,4.1A15.93,15.93,0,0,0,267,234.37C266.86,231.84,266.81,229.35,266.88,226.7Z" transform="translate(-63.21 -27.69)"/><path class="a671b4a9-d773-42cf-9059-0e91719b1989" d="M274.09,211c1,7.24-.55,19.66-6,20.22-6.44.66-10.38-5.06-11.82-10.33,0,.09-.59.43-1.22.39a3,3,0,0,1-1.77-1.27c-.66-1-1.33-2.51-.62-3.63.85-1.35,2.72-1.63,3.51,0a20.21,20.21,0,0,1,1.72-7.54,2.88,2.88,0,0,1,1.74-1.74,20.49,20.49,0,0,1,12.06-.25,2.9,2.9,0,0,1,1.93,2A16.58,16.58,0,0,1,274.09,211Z" transform="translate(-63.21 -27.69)"/><path class="f7fb8a87-9698-4089-9310-cb77a55bc6db" d="M266.33,211.48c-1.16-1.48-4.37-.46-5.56.49-.21.17-.47.4-.45.7a.4.4,0,0,0,.27.35c.36.1.7-.2,1-.36a4.77,4.77,0,0,1,1.26-.46,4.88,4.88,0,0,1,1.66-.1,6.17,6.17,0,0,0,1.59.23C266.53,212.26,266.54,211.74,266.33,211.48Z" transform="translate(-63.21 -27.69)"/><path class="f7fb8a87-9698-4089-9310-cb77a55bc6db" d="M264.63,214.07a.65.65,0,0,0-.15-.23.68.68,0,0,0-.23-.14.46.46,0,0,0-.28-.06l-.19,0a.87.87,0,0,0-.31.18l-.11.15a.65.65,0,0,0-.1.36v.07a.67.67,0,0,0,.06.28.67.67,0,0,0,.38.38.63.63,0,0,0,.27.06l.19,0a.68.68,0,0,0,.32-.18l.11-.15a.75.75,0,0,0,.1-.36v-.07A.67.67,0,0,0,264.63,214.07Z" transform="translate(-63.21 -27.69)"/><path class="f7fb8a87-9698-4089-9310-cb77a55bc6db" d="M272.42,214.52a.67.67,0,0,0-.38-.38.42.42,0,0,0-.27-.06l-.19,0a.77.77,0,0,0-.31.19l-.11.14a.65.65,0,0,0-.1.36v.08a.43.43,0,0,0,.06.27.67.67,0,0,0,.38.38.6.6,0,0,0,.27.06l.19,0a.65.65,0,0,0,.31-.18l.12-.14a.8.8,0,0,0,.09-.36v-.08A.42.42,0,0,0,272.42,214.52Z" transform="translate(-63.21 -27.69)"/><path class="f7fb8a87-9698-4089-9310-cb77a55bc6db" d="M273.83,212.51a2.14,2.14,0,0,0-1.44-1,3.34,3.34,0,0,0-1.69,0,.54.54,0,0,0-.38.59c.06.43.43.44.77.45a3.21,3.21,0,0,1,1.33.25c.29.12,1.8.87,1.5-.08A.67.67,0,0,0,273.83,212.51Z" transform="translate(-63.21 -27.69)"/><path class="a4b1bc00-3725-4f19-b91d-7298662327d8" d="M267.18,226.7a2.28,2.28,0,0,0-.69,0,5.68,5.68,0,0,1-.61,0,6.39,6.39,0,0,1-.63-.13,2,2,0,0,0-.68-.14.29.29,0,0,0-.2.47,1.26,1.26,0,0,0,.66.36,3.48,3.48,0,0,0,.69.17,4.76,4.76,0,0,0,.75.07,1.67,1.67,0,0,0,.8-.1A.37.37,0,0,0,267.18,226.7Z" transform="translate(-63.21 -27.69)"/><path class="a4b1bc00-3725-4f19-b91d-7298662327d8" d="M255.57,219.09a.46.46,0,0,1-.59-.3.43.43,0,0,1,.12-.35.45.45,0,0,1,.32-.16.29.29,0,0,0,.27-.36,1.74,1.74,0,0,0-1.7-1.45,1.11,1.11,0,0,0-.91.62.91.91,0,0,0-.05.54c0,.1.16.37.31.23s.06-.19.09-.29a.87.87,0,0,1,.14-.31.58.58,0,0,1,.57-.24,1.13,1.13,0,0,1,.9.78.93.93,0,0,0-.53,1.09,1,1,0,0,0,1.19.67C256,219.47,255.87,219,255.57,219.09Z" transform="translate(-63.21 -27.69)"/><path class="be274407-f35f-4b47-b3f5-651d084a3cd2" d="M270.63,218.18a9.53,9.53,0,0,0-1.11-.77,1.1,1.1,0,0,1-.52-1.11c0-.33-.42-.37-.58-.15-.48.67.18,1.52.72,1.91a7.8,7.8,0,0,1,1,.69,2.27,2.27,0,0,1,.2,2.95,3.15,3.15,0,0,1-1.88,1,.23.23,0,0,0,0,.45,2.45,2.45,0,0,0,2.17-.67,2.82,2.82,0,0,0,.94-2.14A3,3,0,0,0,270.63,218.18Z" transform="translate(-63.21 -27.69)"/><path class="f7fb8a87-9698-4089-9310-cb77a55bc6db" d="M268.19,225.23a5.48,5.48,0,0,1-6.12-2.23c-.23-.34.31-.69.54-.35a4.81,4.81,0,0,0,5.38,2A.32.32,0,0,1,268.19,225.23Z" transform="translate(-63.21 -27.69)"/><path class="a4210048-14ab-4c46-b82c-e877f22933f0" d="M287.44,247q.75,14.4,2.61,28.7.52,4,1.14,8c.06.41-.58.43-.64,0q-2.19-14.25-3.25-28.64-.29-4-.5-8.06A.32.32,0,0,1,287.44,247Z" transform="translate(-63.21 -27.69)"/><path class="a671b4a9-d773-42cf-9059-0e91719b1989" d="M216.72,168.43a4.47,4.47,0,0,1,.28-8.16c.28-2.76,2.78-4.93,5.51-5.41a48.65,48.65,0,0,0-3.74,14.23Z" transform="translate(-63.21 -27.69)"/><path class="be274407-f35f-4b47-b3f5-651d084a3cd2" d="M218.93,156.2c-1,.37-1.33,1.46-1.55,2.41a3.85,3.85,0,0,1-.6,1.58,6.28,6.28,0,0,1-1.44,1,3.91,3.91,0,0,0-1.75,2.8,8.47,8.47,0,0,0,.77,3.73c.15.38.71.08.57-.3a7.33,7.33,0,0,1-.68-3.53,3.6,3.6,0,0,1,2-2.52,3.22,3.22,0,0,0,1.12-.92,4.26,4.26,0,0,0,.52-1.29c.21-.88.35-2,1.32-2.39C219.62,156.62,219.32,156.05,218.93,156.2Z" transform="translate(-63.21 -27.69)"/><path class="f5e95fe6-f62e-4b6f-bbe5-e87abc5a4430" d="M379.57,211.28a12.91,12.91,0,0,1,9,10.16,7.7,7.7,0,0,0,.85,3.17c.66,1,1.91,1.56,2.17,2.7s-.73,2.56-.15,3.67,2.41,1.12,3,2.26-.79,2.82-.22,4.11,2.17,1.14,3.27,1.8a3.48,3.48,0,0,1,1.52,3,7.63,7.63,0,0,1-1,3.37c-3.16,6.25-9.59,10.51-16.46,11.91s-14.08.17-20.54-2.54a9.86,9.86,0,0,1-4.13-2.72,4,4,0,0,1-.39-4.64,9.41,9.41,0,0,0,1.17-1.45c.94-2-2-4-1.59-6.19.23-1.17,1.38-1.89,2.35-2.57s2-1.73,1.73-2.9c-.12-.57-.54-1-.68-1.62-.35-1.49,1.2-2.63,2.18-3.8,1.75-2.08,1.85-5,2.19-7.72A12.28,12.28,0,0,1,379.57,211.28Z" transform="translate(-63.21 -27.69)"/><path class="f053f953-a15d-4d50-b9ee-abc20d2257b3" d="M379.45,213.93a12.19,12.19,0,0,1,8.51,9.59,7,7,0,0,0,.8,3c.62.92,1.8,1.47,2.05,2.55s-.69,2.42-.14,3.46,2.27,1.06,2.8,2.13-.75,2.67-.21,3.88,2.05,1.08,3.09,1.7a3.32,3.32,0,0,1,1.43,2.86,7.39,7.39,0,0,1-.93,3.18c-3,5.9-9,9.91-15.52,11.24s-13.29.15-19.38-2.4a9.41,9.41,0,0,1-3.89-2.57,3.7,3.7,0,0,1-.37-4.37,9,9,0,0,0,1.1-1.38c.89-1.88-1.92-3.8-1.5-5.84.22-1.1,1.3-1.77,2.22-2.42s1.87-1.63,1.63-2.73c-.12-.55-.51-1-.64-1.53-.33-1.4,1.13-2.48,2.06-3.58,1.65-2,1.74-4.75,2.06-7.29A11.58,11.58,0,0,1,379.45,213.93Z" transform="translate(-63.21 -27.69)"/><path class="f2117422-0108-4c40-9a13-882272031825" d="M422.47,229.65a2.43,2.43,0,0,0-1.21-2,6.47,6.47,0,0,0-2.31-.79,42,42,0,0,0-7.16-.71,2.59,2.59,0,0,0-2.55,2.09,12.45,12.45,0,0,0-.28,1.84c-1.63,1.12-1.56,3.65-1.29,5.6-3.79,3.35-10,8.11-14.91,9.35s-10.15,3.29-12.51,7.77c-1.64,3.1-1.56,6.8-1.41,10.31.11,2.55.37,5.44,3.73,6.28a7.64,7.64,0,0,0,3.23,0c6.87-1.33,11.26-7.28,17.23-10.87,5.71-3.43,11.53-7.1,15.36-12.55S426.11,235.22,422.47,229.65Z" transform="translate(-63.21 -27.69)"/><path class="f2117422-0108-4c40-9a13-882272031825" d="M423.07,238.26a8.74,8.74,0,0,0-.6-8.61,2.43,2.43,0,0,0-1.21-2,6.47,6.47,0,0,0-2.31-.79,42,42,0,0,0-7.16-.71,2.59,2.59,0,0,0-2.55,2.09,12.45,12.45,0,0,0-.28,1.84c-1.63,1.12-1.56,3.65-1.29,5.6-3.79,3.35-10,8.11-14.91,9.35s-10.15,3.29-12.51,7.77c-1.64,3.1-1.56,6.8-1.41,10.31,0,.57.06,1.16.13,1.73C395.11,259.49,411.58,251.11,423.07,238.26Z" transform="translate(-63.21 -27.69)"/><path class="e6f41513-a42f-44b4-a559-139401bbc08d" d="M379,264.82c.25,2,1,3.9,3.6,4.55a7.64,7.64,0,0,0,3.23,0c6.87-1.33,11.26-7.28,17.23-10.87,5.71-3.43,11.53-7.1,15.36-12.55a40.85,40.85,0,0,0,4.68-7.71C411.58,251.11,395.11,259.49,379,264.82Z" transform="translate(-63.21 -27.69)"/><path class="a7366ddd-daaa-429b-a4b6-f19665f91774" d="M410.5,205.16l-.59,22.46a3.14,3.14,0,0,0,2.86,3.22,9.51,9.51,0,0,0,4.81-.91,3.13,3.13,0,0,0,1.71-3.29L416,204.75A19.64,19.64,0,0,0,410.5,205.16Z" transform="translate(-63.21 -27.69)"/><path class="e6f41513-a42f-44b4-a559-139401bbc08d" d="M415.18,240.48a9.74,9.74,0,0,1-6.43-4c-.24-.34-.71.1-.47.43a10.35,10.35,0,0,0,6.88,4.18C415.56,241.18,415.59,240.54,415.18,240.48Z" transform="translate(-63.21 -27.69)"/><path class="e6f41513-a42f-44b4-a559-139401bbc08d" d="M416.85,232.61a10.74,10.74,0,0,1-5.55-1.51c-.36-.21-.7.33-.35.54a11.49,11.49,0,0,0,5.88,1.62C417.24,233.25,417.27,232.61,416.85,232.61Z" transform="translate(-63.21 -27.69)"/><path class="f2117422-0108-4c40-9a13-882272031825" d="M377.11,242.9a21.07,21.07,0,0,0-13.06.74c-1.93.76-4,2.24-3.93,4.31.07,1.8,1.74,3.09,3.32,3.94a27.94,27.94,0,0,0,19.36,2.61c3.16-.73,6.3-3.34,3.47-6.41A19.68,19.68,0,0,0,377.11,242.9Z" transform="translate(-63.21 -27.69)"/><path class="f2117422-0108-4c40-9a13-882272031825" d="M363.33,250.72c-4.58.73-8.29,4.46-11,8.56s-4.69,8.71-7.64,12.59c-2.43,3.18-5.46,5.81-7.63,9.2s-3.36,8-1.6,11.66c1.68,3.49,5.58,5.1,9.2,5.15,2.64,0,5.46-.74,7.17-2.91a9.24,9.24,0,0,0,1.7-6c0-.43-.05-.86-.11-1.29a8.05,8.05,0,0,1,2.29-6.59,14.79,14.79,0,0,0,1.42-1.71c3-4.14,5.72-8.56,7.14-13.56S365.79,255.23,363.33,250.72Z" transform="translate(-63.21 -27.69)"/><path class="f2117422-0108-4c40-9a13-882272031825" d="M363.88,267.14c.14-.44.29-.86.41-1.3,1.43-5,1.5-10.61-1-15.12-4.58.73-8.29,4.46-11,8.56s-4.69,8.71-7.64,12.59c-2.43,3.18-5.46,5.81-7.63,9.2s-3.36,8-1.6,11.66c1.68,3.49,5.58,5.1,9.2,5.15,2.64,0,5.46-.74,7.17-2.91a9.24,9.24,0,0,0,1.7-6c0-.43-.05-.86-.11-1.29,0-.09,0-.19,0-.29a30.13,30.13,0,0,0-3.2-5.36A64.2,64.2,0,0,0,363.88,267.14Z" transform="translate(-63.21 -27.69)"/><path class="e6f41513-a42f-44b4-a559-139401bbc08d" d="M350.22,282.05a30.13,30.13,0,0,1,3.2,5.36,8.07,8.07,0,0,1,2.31-6.3,14.79,14.79,0,0,0,1.42-1.71,47.5,47.5,0,0,0,6.73-12.26A64.2,64.2,0,0,1,350.22,282.05Z" transform="translate(-63.21 -27.69)"/><path class="a4210048-14ab-4c46-b82c-e877f22933f0" d="M383.12,322.69c2.47-3,4.53-6.07,4.9-8.33l-33-6.1c-1,2.69-2.58,5.42-3.37,8.18C361.56,320.17,372.68,322.82,383.12,322.69Z" transform="translate(-63.21 -27.69)"/><path class="a5a2ad51-1dee-40a5-a5d7-9de01f3d6038" d="M378.35,444l6.85-.19c1.91,2,13.42,4.49,14.08,7.16H376.76A28.77,28.77,0,0,1,378.35,444Z" transform="translate(-63.21 -27.69)"/><path class="abf24076-a3f4-4695-9a10-0981a29ccc6b" d="M399.28,451c.07.26.13.51.18.77a.65.65,0,0,1-.63.79h-21.5a.65.65,0,0,1-.65-.7c0-.29.05-.57.08-.86Z" transform="translate(-63.21 -27.69)"/><path class="edffa40d-e209-4587-a9c3-c9f918aab0a2" d="M395.13,312.22c-9.95,3.72-14.56,2.27-25,2.14-.91,5.89,2.73,18.46,2.73,18.46l.43,9.2h25.49C398.69,331.59,397.69,321.12,395.13,312.22Z" transform="translate(-63.21 -27.69)"/><path class="f5b39d37-9af9-4b6e-ac25-3330ad5b901e" d="M373.3,342l.29,4.38,24.93.28a26.71,26.71,0,0,0,.27-4.66Z" transform="translate(-63.21 -27.69)"/><path class="a5a2ad51-1dee-40a5-a5d7-9de01f3d6038" d="M367.61,444l-6.85-.19c-1.91,2-5.07,4.49-5.74,7.16H369.2A28.77,28.77,0,0,0,367.61,444Z" transform="translate(-63.21 -27.69)"/><path class="abf24076-a3f4-4695-9a10-0981a29ccc6b" d="M355,451c-.06.26-.13.51-.18.77a.66.66,0,0,0,.64.79h13.15a.65.65,0,0,0,.65-.7c0-.29,0-.57-.08-.86Z" transform="translate(-63.21 -27.69)"/><path class="b7e5687a-d0bc-4559-8d8b-ca07b3b6a9a6" d="M373.31,332.82a109.51,109.51,0,0,0,9.81-10.13c-10.44.13-21.56-2.52-31.51-6.25A108.69,108.69,0,0,0,347.69,342h25.2Z" transform="translate(-63.21 -27.69)"/><path class="a997af94-4c34-4044-a957-dea7c340f2b7" d="M347.69,342a21.35,21.35,0,0,0,0,4.66h25.18V342Z" transform="translate(-63.21 -27.69)"/><path class="f2117422-0108-4c40-9a13-882272031825" d="M392.44,289.68c.05-12.22,1.33-22.15,1.82-34.37.06-1.35-.36-2.88-1.53-3.47-17.48-8.93-30.39-1.69-33.23.37a4.26,4.26,0,0,0-1.53,4.71c3.17,10.14,2.91,19.53,1.22,30-1.33,8.2-10.15,17.83-7.93,28.41,14.07,6.3,30.93,5.68,46.36,2.74C401.71,310.74,392.42,296.36,392.44,289.68Z" transform="translate(-63.21 -27.69)"/><path class="a7366ddd-daaa-429b-a4b6-f19665f91774" d="M371.75,232.28a110.73,110.73,0,0,1,.87,15.33,3.49,3.49,0,0,0,1,2.58,6,6,0,0,0,5.68,1.53c1-.28,1.54-1.64,1.35-3.07-.42-3.29-.71-6.42-.9-9.83A15.91,15.91,0,0,0,371.75,232.28Z" transform="translate(-63.21 -27.69)"/><path class="ac606e5b-163f-4db6-8774-af13fc38a66a" d="M379.73,238.82a15.91,15.91,0,0,0-8-6.54c.17,1.33.31,2.67.43,4,2.06,4.1,5,8.18,8.18,10C380.09,243.87,379.88,241.43,379.73,238.82Z" transform="translate(-63.21 -27.69)"/><path class="e6f41513-a42f-44b4-a559-139401bbc08d" d="M392.07,316.32a58.6,58.6,0,0,1-36.78-1.43c-.38-.15-.58.47-.19.61a58.6,58.6,0,0,0,14.25,3.38,59.51,59.51,0,0,0,14.73-.21,57.92,57.92,0,0,0,8.13-1.73C392.6,316.83,392.46,316.2,392.07,316.32Z" transform="translate(-63.21 -27.69)"/><path class="a7366ddd-daaa-429b-a4b6-f19665f91774" d="M385.38,222.79c1.78,7.89-.27,17.08-2.35,17.4-6.9,1.07-11.5-5.38-11.54-5.46a3.94,3.94,0,0,1-1.6.76,3,3,0,0,1-2-.81c-.85-.78-1.85-2.09-1.43-3.33a2.36,2.36,0,0,1,3.87-.88c2.1-4.08.28-6.2.2-9.16a17.77,17.77,0,0,1,12.27-3.52C383.54,217.85,385.21,222.06,385.38,222.79Z" transform="translate(-63.21 -27.69)"/><path class="f7fb8a87-9698-4089-9310-cb77a55bc6db" d="M377.39,226.33a.49.49,0,0,0-.2-.18.48.48,0,0,0-.25-.09.66.66,0,0,0-.28,0l-.17.07a.63.63,0,0,0-.26.25l-.08.16a.93.93,0,0,0,0,.37l0,.07a.53.53,0,0,0,.12.25.61.61,0,0,0,.2.19.46.46,0,0,0,.25.08.45.45,0,0,0,.28,0l.18-.07a.67.67,0,0,0,.25-.25l.08-.16a.77.77,0,0,0,0-.37l0-.07A.53.53,0,0,0,377.39,226.33Z" transform="translate(-63.21 -27.69)"/><path class="f7fb8a87-9698-4089-9310-cb77a55bc6db" d="M384.13,225.14a.58.58,0,0,0-.19-.19.5.5,0,0,0-.26-.08.42.42,0,0,0-.27,0l-.18.07a.69.69,0,0,0-.26.25l-.07.16a.67.67,0,0,0,0,.37l0,.07a.53.53,0,0,0,.12.25.58.58,0,0,0,.19.19.91.91,0,0,0,.53.08l.18-.07a.69.69,0,0,0,.26-.25l.07-.16a.67.67,0,0,0,0-.37l0-.07A.53.53,0,0,0,384.13,225.14Z" transform="translate(-63.21 -27.69)"/><path class="ac606e5b-163f-4db6-8774-af13fc38a66a" d="M369.88,233.24a.45.45,0,0,1-.63-.15.39.39,0,0,1,0-.36.39.39,0,0,1,.26-.23.28.28,0,0,0,.18-.41,1.72,1.72,0,0,0-2-1,1.08,1.08,0,0,0-.72.81.78.78,0,0,0,.08.52c.05.09.24.32.35.15s0-.2,0-.3a1,1,0,0,1,.06-.33.6.6,0,0,1,.5-.36,1.1,1.1,0,0,1,1,.54.92.92,0,0,0-.26,1.16,1,1,0,0,0,1.3.37C370.39,233.5,370.15,233.07,369.88,233.24Z" transform="translate(-63.21 -27.69)"/><path class="f053f953-a15d-4d50-b9ee-abc20d2257b3" d="M378.38,222.18a7.9,7.9,0,0,0-4,1.55c-.33.25.1.73.43.48a7.23,7.23,0,0,1,3.69-1.4.32.32,0,0,0-.13-.63Z" transform="translate(-63.21 -27.69)"/><path class="f053f953-a15d-4d50-b9ee-abc20d2257b3" d="M384.89,222.34a3,3,0,0,0-2.63-.76.32.32,0,0,0,.12.63l.3,0h.23l.3,0h.17l.08,0,.27.1.13,0h0l.07,0,.24.16.12.09,0,0,0,.05a.34.34,0,0,0,.46,0A.33.33,0,0,0,384.89,222.34Z" transform="translate(-63.21 -27.69)"/><path class="ac606e5b-163f-4db6-8774-af13fc38a66a" d="M382.57,236.19l-2.1.3a.33.33,0,0,0-.25.38.32.32,0,0,0,.38.25l2.1-.3a.33.33,0,0,0,.25-.38A.33.33,0,0,0,382.57,236.19Z" transform="translate(-63.21 -27.69)"/><path class="ac606e5b-163f-4db6-8774-af13fc38a66a" d="M383.47,230.06a2.48,2.48,0,0,0-1-.78,1.35,1.35,0,0,1-.75-.68.32.32,0,0,0-.57.29c.26.72,1,.84,1.56,1.29a.54.54,0,0,1,.19.71,4.56,4.56,0,0,1-.81.77.33.33,0,0,0,0,.45.31.31,0,0,0,.45,0,6,6,0,0,0,.92-.89A1.09,1.09,0,0,0,383.47,230.06Z" transform="translate(-63.21 -27.69)"/><path class="f7fb8a87-9698-4089-9310-cb77a55bc6db" d="M382.49,234.39a.33.33,0,0,0-.43-.15,4.67,4.67,0,0,1-2.91.13.32.32,0,0,0-.4.2.33.33,0,0,0,.19.41,5.52,5.52,0,0,0,3.41-.16A.33.33,0,0,0,382.49,234.39Z" transform="translate(-63.21 -27.69)"/><path class="e6f41513-a42f-44b4-a559-139401bbc08d" d="M368.21,298.17a14.77,14.77,0,0,1-6,9.65c-.33.24.1.71.44.47a15.43,15.43,0,0,0,6.21-10.09C368.92,297.79,368.28,297.77,368.21,298.17Z" transform="translate(-63.21 -27.69)"/><path class="e6f41513-a42f-44b4-a559-139401bbc08d" d="M388.19,297.27l-19.71.57c-.41,0-.44.66,0,.64l19.7-.57C388.57,297.9,388.6,297.26,388.19,297.27Z" transform="translate(-63.21 -27.69)"/><path class="e6f41513-a42f-44b4-a559-139401bbc08d" d="M392.17,305.39a8.7,8.7,0,0,1-3.75-7.8c0-.41-.61-.44-.65,0a9.37,9.37,0,0,0,4.05,8.37C392.16,306.16,392.51,305.62,392.17,305.39Z" transform="translate(-63.21 -27.69)"/><path class="a7366ddd-daaa-429b-a4b6-f19665f91774" d="M367.47,301l-19.9-15.07a9.43,9.43,0,0,0-4.51,8.75l21.53,11.05A19.59,19.59,0,0,0,367.47,301Z" transform="translate(-63.21 -27.69)"/><path class="e6f41513-a42f-44b4-a559-139401bbc08d" d="M347.74,285.67a9.86,9.86,0,0,0-5.5,10c.05.41.68.26.63-.14a9.19,9.19,0,0,1,5.17-9.28C348.41,286.06,348.11,285.5,347.74,285.67Z" transform="translate(-63.21 -27.69)"/><path class="e6f41513-a42f-44b4-a559-139401bbc08d" d="M351,285.59a6.26,6.26,0,0,0-7-1.77c-.38.15-.08.72.3.57a5.61,5.61,0,0,1,6.27,1.63C350.82,286.34,351.3,285.91,351,285.59Z" transform="translate(-63.21 -27.69)"/><path class="e6f41513-a42f-44b4-a559-139401bbc08d" d="M360.39,265.56c0-.41-.67-.44-.64,0a95.89,95.89,0,0,1-.48,18.4c0,.41.59.44.64,0A95.89,95.89,0,0,0,360.39,265.56Z" transform="translate(-63.21 -27.69)"/><path class="e6f41513-a42f-44b4-a559-139401bbc08d" d="M382.4,248c-.13-.39-.76-.25-.63.15.51,1.51-.27,3-1.16,4.14a8.7,8.7,0,0,1-1.38,1.58,1.43,1.43,0,0,1-1.86,0c-.57-.39-1.07-.87-1.62-1.28a21.54,21.54,0,0,0-1.8-1.19,20.5,20.5,0,0,0-3.89-1.73c-1.39-.45-3.23-1-3.46-2.7-.06-.41-.68-.27-.63.14.21,1.54,1.63,2.39,3,2.86a27.33,27.33,0,0,1,4.6,1.94,21,21,0,0,1,2,1.35,13.21,13.21,0,0,0,1.87,1.4c1.49.74,2.55-.53,3.4-1.59C382,251.58,383,249.81,382.4,248Z" transform="translate(-63.21 -27.69)"/><path class="a5a2ad51-1dee-40a5-a5d7-9de01f3d6038" d="M372,255.87c-.14-.38-.77-.25-.63.14a25.41,25.41,0,0,1,1.11,12.41c-.06.4.58.43.65,0A25.82,25.82,0,0,0,372,255.87Z" transform="translate(-63.21 -27.69)"/><path class="a5a2ad51-1dee-40a5-a5d7-9de01f3d6038" d="M383.26,255c-.12-.39-.75-.25-.63.14a28.16,28.16,0,0,1,.72,14.23c-.09.4.52.6.61.19A28.88,28.88,0,0,0,383.26,255Z" transform="translate(-63.21 -27.69)"/><path class="a7366ddd-daaa-429b-a4b6-f19665f91774" d="M360.76,443.79l-3.93-21.36c-1.33-7.25-1.92-22.31-1.75-29.68l.18-7.78-6.37-38.29h22.72l-6.13,39.45.81,3.94c1.8,8.67,2.52,25.23,2.15,34.08L367.61,444Z" transform="translate(-63.21 -27.69)"/><path class="a7366ddd-daaa-429b-a4b6-f19665f91774" d="M398.52,346.68,385.2,443.79h-6.85l-1.16-26.25c-.34-7.54.77-22.79,3.26-29.91h0l-5.89-41.22Z" transform="translate(-63.21 -27.69)"/><polygon class="ac606e5b-163f-4db6-8774-af13fc38a66a" points="308.4 318.99 285.69 318.99 286.03 321.05 308.08 321.05 308.4 318.99"/><path class="a7366ddd-daaa-429b-a4b6-f19665f91774" d="M365.48,386.13l5.81-37.39H349.24l6,36.23-.18,7.78c-.17,7.37.42,22.43,1.75,29.68l3.93,21.36,6.85.19.83-19.83c.37-8.85-.35-25.41-2.15-34.08Z" transform="translate(-63.21 -27.69)"/><polygon class="ac606e5b-163f-4db6-8774-af13fc38a66a" points="335.32 318.99 311.36 318.71 311.69 321.05 335.04 321.05 335.32 318.99"/><path class="a7366ddd-daaa-429b-a4b6-f19665f91774" d="M374.9,348.74l5.55,38.89h0c-2.49,7.12-3.6,22.37-3.26,29.91l1.16,26.25h6.85l13-95.05Z" transform="translate(-63.21 -27.69)"/><path class="a7366ddd-daaa-429b-a4b6-f19665f91774" d="M416.1,206.05V206l3.91-7.31-4.19-3.18-4.15,1.59-.74,6.1a9.11,9.11,0,0,0-.4,2.53Z" transform="translate(-63.21 -27.69)"/><polygon class="b71034d0-970d-422a-a595-387aba66464b" points="352.14 95.11 366.57 124.34 398.83 129.03 375.49 151.78 381 183.91 352.14 168.74 323.29 183.91 328.8 151.78 305.46 129.03 337.72 124.34 352.14 95.11"/><path class="aba83362-d586-4e5d-a323-7c7f4ee34e75" d="M381.56,154.85l-12.89,1.87L392,179.47,386.5,211.6l28.85-15.17L444.2,211.6l-4.67-27.26C417.08,183.38,394.78,172.89,381.56,154.85Z" transform="translate(-63.21 -27.69)"/><path class="a7366ddd-daaa-429b-a4b6-f19665f91774" d="M411.7,205.2a4,4,0,0,0,1.43-3.3,3.77,3.77,0,0,0-1.59-3.16,4.66,4.66,0,0,0-3.15-4.28,50.87,50.87,0,0,1,2.14,11.26Z" transform="translate(-63.21 -27.69)"/><path class="ac606e5b-163f-4db6-8774-af13fc38a66a" d="M410.43,195.52c.57.3.77,1.16.89,1.91a2.27,2.27,0,0,0,1.17,2,3.41,3.41,0,0,1,1,2.22,9,9,0,0,1-.44,2.94c-.09.31-.41.07-.33-.23a7.72,7.72,0,0,0,.39-2.8,2.83,2.83,0,0,0-1.15-2,2.11,2.11,0,0,1-.64-.74,3.67,3.67,0,0,1-.3-1c-.12-.69-.2-1.6-.76-1.89C410,195.86,410.21,195.41,410.43,195.52Z" transform="translate(-63.21 -27.69)"/><path class="f053f953-a15d-4d50-b9ee-abc20d2257b3" d="M379.71,218.3a9.75,9.75,0,0,1-2.35,1.8,4.91,4.91,0,0,0-2,2c-.37.94,0,1.95-.07,2.93a4.46,4.46,0,0,1-2,3.4,7.06,7.06,0,0,1-4.52,1.14c-.17-3.08-.3-6.33,1.53-9a10.63,10.63,0,0,1,5.57-3.91C377.79,216,382,215.47,379.71,218.3Z" transform="translate(-63.21 -27.69)"/><path class="b7e5687a-d0bc-4559-8d8b-ca07b3b6a9a6" d="M153.65,227c-1,1.27-2,2.48-2.82,3.54-5.71,1.21-7.49,3-9.88,8.32l4.17,20.33c8.29-2.88,14.61-11.06,20.13-17.88l1.39-1.73a12,12,0,0,1-1.31-.16A14.76,14.76,0,0,1,153.65,227Z" transform="translate(-63.21 -27.69)"/><path class="ae3cd045-8170-4662-a4d7-dac0ccd8012f" d="M172.46,220.36c-.88-2.74-2.88-5.65-5.75-5.58a7,7,0,0,0-4.15,2c-2.73,2.28-6,6.51-8.91,10.23a14.76,14.76,0,0,0,11.68,12.42,12,12,0,0,0,1.31.16C171.47,233.46,174.91,228,172.46,220.36Z" transform="translate(-63.21 -27.69)"/><path class="ae3cd045-8170-4662-a4d7-dac0ccd8012f" d="M116.18,240.36a6.08,6.08,0,0,0-2-4.38,11,11,0,0,0-4.24-2.43,19.1,19.1,0,0,0-10.52-.28,205.94,205.94,0,0,1-17.59-13.4c-3.47,2.56-7.09,8-9.81,11.36,10.65,13.05,24.56,21.68,40.37,27.49Z" transform="translate(-63.21 -27.69)"/><path class="b7e5687a-d0bc-4559-8d8b-ca07b3b6a9a6" d="M116.18,240.36a6.08,6.08,0,0,0-2-4.38,11,11,0,0,0-4.24-2.43,19.1,19.1,0,0,0-10.52-.28C97.62,232,95.8,230.71,94,229.4c-3.74,4.78-5.46,10.53-6.15,16.57a102.43,102.43,0,0,0,24.6,12.75Z" transform="translate(-63.21 -27.69)"/><path class="edffa40d-e209-4587-a9c3-c9f918aab0a2" d="M109.42,257.57c-7-5.49-13.79-11.38-20.61-17.1a43.29,43.29,0,0,0-1,5.5A101,101,0,0,0,109.42,257.57Z" transform="translate(-63.21 -27.69)"/><path class="e6f41513-a42f-44b4-a559-139401bbc08d" d="M108.5,312.9c21.9,2.62,21.58,16.26,21.58,16.26L121.23,386l-6.31,49.55H104.47C100,370.44,108.5,312.9,108.5,312.9Z" transform="translate(-63.21 -27.69)"/><path class="f2117422-0108-4c40-9a13-882272031825" d="M124.19,328.38s-9.74-6.8-10.88-12.74l36.56,1.41s6.12,76.79,6,118.52H145.47Z" transform="translate(-63.21 -27.69)"/><path class="ae3cd045-8170-4662-a4d7-dac0ccd8012f" d="M155,435.57c0,1.55,0,3.06,0,4.5h-8.26l-.46-4.5Z" transform="translate(-63.21 -27.69)"/><path class="ae3cd045-8170-4662-a4d7-dac0ccd8012f" d="M114.05,435.57c0,1.55,0,3.06,0,4.5h-8.26l-.46-4.5Z" transform="translate(-63.21 -27.69)"/><path class="e6f41513-a42f-44b4-a559-139401bbc08d" d="M116.66,321.61c-1.93-2.11-3.63-4.52-4.06-6.81l36.94-1.9s.3,4.32.44,6.12A93.36,93.36,0,0,1,116.66,321.61Z" transform="translate(-63.21 -27.69)"/><path class="abf24076-a3f4-4695-9a10-0981a29ccc6b" d="M146.21,439.4l9.67-.29a25.13,25.13,0,0,1,5.56,11H144A48.67,48.67,0,0,1,146.21,439.4Z" transform="translate(-63.21 -27.69)"/><path class="e6f41513-a42f-44b4-a559-139401bbc08d" d="M161.44,450.12c.09.39.18.78.25,1.18a1,1,0,0,1-.9,1.21h-16a1,1,0,0,1-.92-1.07c0-.44.07-.88.11-1.32Z" transform="translate(-63.21 -27.69)"/><path class="abf24076-a3f4-4695-9a10-0981a29ccc6b" d="M114.58,439.4l-9.68-.29c-2.69,3.05-18.92,6.9-19.86,11h31.77A48.09,48.09,0,0,0,114.58,439.4Z" transform="translate(-63.21 -27.69)"/><path class="e6f41513-a42f-44b4-a559-139401bbc08d" d="M85,450.12c-.09.39-.19.78-.26,1.18a1,1,0,0,0,.9,1.21H116a1,1,0,0,0,.92-1.07c0-.44-.07-.88-.11-1.32Z" transform="translate(-63.21 -27.69)"/><path class="e6f41513-a42f-44b4-a559-139401bbc08d" d="M147.31,390.19c1.2-2.24,2.45-4.43,3.44-6.8A65.1,65.1,0,0,0,153.2,376c.09-.31.49-.18.44.13a36.27,36.27,0,0,1-2.28,7.54,32.19,32.19,0,0,1-3.63,6.87C147.54,390.81,147.16,390.47,147.31,390.19Z" transform="translate(-63.21 -27.69)"/><path class="b7e5687a-d0bc-4559-8d8b-ca07b3b6a9a6" d="M109.4,243a7.8,7.8,0,0,1,4.81-6.76,42.27,42.27,0,0,1,18.85-2.87,71.66,71.66,0,0,1,17.23,3.5,7.81,7.81,0,0,1,5.3,8.69,340.15,340.15,0,0,0-4,66.16c.06,1.43.19,3.49-1.18,3.92-12.57,3.92-30.5,4.57-42.46,1.38-3-.79-.63-3.53-.64-6.6C107.25,288.44,108.27,264.75,109.4,243Z" transform="translate(-63.21 -27.69)"/><path class="ae3cd045-8170-4662-a4d7-dac0ccd8012f" d="M137,219.41a73,73,0,0,0,.34,14.7,2.68,2.68,0,0,1-1.11,2.53,11,11,0,0,1-7.8,1.87,2.66,2.66,0,0,1-2.22-2.85,89.44,89.44,0,0,0,.27-9.45A21.23,21.23,0,0,1,137,219.41Z" transform="translate(-63.21 -27.69)"/><path class="a099d095-b8a1-4464-afb3-a6a64547d59f" d="M126.52,226.21a21.23,21.23,0,0,1,10.52-6.8q-.24,3.14-.21,6.28c-1.87,5.1-5.24,10-9.79,12.09a2.65,2.65,0,0,1-.79-2.12A89.44,89.44,0,0,0,126.52,226.21Z" transform="translate(-63.21 -27.69)"/><path class="b6799cbe-5387-4db5-87e7-172db703e940" d="M138,218.2c.57-2.13,1.14-4.25,1.7-6.38a7.61,7.61,0,0,0,.37-3.4,2.62,2.62,0,0,0-2.28-2.23,15,15,0,0,0-13.94-6.36,8,8,0,0,0-5,2.24c-1.45,1.59-1.81,3.89-1.8,6,0,2.57,1.17,2.85,2.93,4.71s3.55,5,6,5.36A36.7,36.7,0,0,0,138,218.2Z" transform="translate(-63.21 -27.69)"/><path class="e44b0b93-bda5-4a93-8661-8b4605fe51d9" d="M137.4,218.24l1.53-5.82a7,7,0,0,0,.34-3.09,2.39,2.39,0,0,0-2.07-2,13.48,13.48,0,0,0-12.62-5.79,7.14,7.14,0,0,0-4.53,2,8.08,8.08,0,0,0-1.63,5.52c0,2.33,1.06,2.59,2.65,4.29s3.22,4.51,5.4,4.88A32.87,32.87,0,0,0,137.4,218.24Z" transform="translate(-63.21 -27.69)"/><path class="ae3cd045-8170-4662-a4d7-dac0ccd8012f" d="M119.71,211.43c-.91,6.84,1.9,18.94,5.68,19.08,8.07.29,9.8-4.78,11.15-9.75a1.47,1.47,0,0,0,1.14.37,2.81,2.81,0,0,0,1.68-1.2c.62-.93,1.25-2.37.59-3.42-.8-1.28-2.57-1.54-3.32,0a19.16,19.16,0,0,0-1.63-7.15,2.63,2.63,0,0,0-1.6-1.59,19.23,19.23,0,0,0-11.65-.17,2.3,2.3,0,0,0-1.49,1.5A16.45,16.45,0,0,0,119.71,211.43Z" transform="translate(-63.21 -27.69)"/><path class="a998f9ee-7072-45ff-bb5b-c481e00fb7e6" d="M133,222.65a16.73,16.73,0,0,0-12.08,1.29c1.06,3.67,2.65,6.5,4.46,6.57,7.69.27,9.62-4.32,11-9.06l.52-5.24C135.58,218.36,134.3,220.51,133,222.65Z" transform="translate(-63.21 -27.69)"/><path class="ae3cd045-8170-4662-a4d7-dac0ccd8012f" d="M140,216.51a1.9,1.9,0,0,0-2.87-.64l-.21.34-.52,5.24c.06-.23.13-.46.19-.69a1.47,1.47,0,0,0,1.14.37,2.81,2.81,0,0,0,1.68-1.2C140,219,140.61,217.56,140,216.51Z" transform="translate(-63.21 -27.69)"/><path class="ae3cd045-8170-4662-a4d7-dac0ccd8012f" d="M136.63,216.47a19.16,19.16,0,0,0-1.63-7.15,2.63,2.63,0,0,0-1.6-1.59,19.23,19.23,0,0,0-11.65-.17,2.3,2.3,0,0,0-1.49,1.5,16.45,16.45,0,0,0-.55,2.37,33.58,33.58,0,0,0,1.22,12.51A16.73,16.73,0,0,1,133,222.65c1.29-2.14,2.57-4.29,3.86-6.44l0-.13A1.56,1.56,0,0,0,136.63,216.47Z" transform="translate(-63.21 -27.69)"/><path class="ae3cd045-8170-4662-a4d7-dac0ccd8012f" d="M136.89,216.08l0,.13.21-.34A1.9,1.9,0,0,0,136.89,216.08Z" transform="translate(-63.21 -27.69)"/><path class="e44b0b93-bda5-4a93-8661-8b4605fe51d9" d="M127,211.86c1.1-1.4,4.13-.44,5.24.46.2.16.45.37.43.66a.38.38,0,0,1-.25.33c-.34.09-.67-.19-.95-.34a4.67,4.67,0,0,0-1.2-.44,5.11,5.11,0,0,0-1.56-.09,6,6,0,0,1-1.5.22C126.84,212.6,126.84,212.1,127,211.86Z" transform="translate(-63.21 -27.69)"/><path class="f7fb8a87-9698-4089-9310-cb77a55bc6db" d="M128.64,214.3A.64.64,0,0,1,129,214a.58.58,0,0,1,.26-.06l.18,0a.6.6,0,0,1,.3.17l.1.13a.69.69,0,0,1,.09.34v.08a.43.43,0,0,1,0,.25.55.55,0,0,1-.14.22.46.46,0,0,1-.22.14.55.55,0,0,1-.26.06l-.18,0a.66.66,0,0,1-.29-.17l-.11-.14a.63.63,0,0,1-.09-.33v-.08A.58.58,0,0,1,128.64,214.3Z" transform="translate(-63.21 -27.69)"/><path class="f7fb8a87-9698-4089-9310-cb77a55bc6db" d="M121.29,214.72a.44.44,0,0,1,.14-.22.46.46,0,0,1,.21-.13.4.4,0,0,1,.26-.06l.18,0a.75.75,0,0,1,.3.17l.1.14a.67.67,0,0,1,.09.34v.07a.4.4,0,0,1-.06.26.5.5,0,0,1-.13.22.74.74,0,0,1-.22.14.47.47,0,0,1-.26.05l-.18,0a.66.66,0,0,1-.29-.17l-.11-.14a.67.67,0,0,1-.09-.34V215A.4.4,0,0,1,121.29,214.72Z" transform="translate(-63.21 -27.69)"/><path class="e44b0b93-bda5-4a93-8661-8b4605fe51d9" d="M120,212.82a2,2,0,0,1,1.36-.9,3.06,3.06,0,0,1,1.59,0,.5.5,0,0,1,.36.55c-.06.41-.41.42-.73.42a3.4,3.4,0,0,0-1.26.24c-.27.11-1.69.83-1.41-.07A1.33,1.33,0,0,1,120,212.82Z" transform="translate(-63.21 -27.69)"/><path class="a099d095-b8a1-4464-afb3-a6a64547d59f" d="M137.18,219a.43.43,0,0,0,.56-.28.39.39,0,0,0-.12-.32.37.37,0,0,0-.3-.15.27.27,0,0,1-.25-.34,1.63,1.63,0,0,1,1.6-1.37,1,1,0,0,1,.86.58.75.75,0,0,1,0,.51c0,.09-.15.35-.29.22s-.05-.19-.08-.28a1,1,0,0,0-.13-.29.56.56,0,0,0-.54-.23,1.06,1.06,0,0,0-.85.74.87.87,0,0,1,.5,1,.93.93,0,0,1-1.12.64C136.77,219.39,136.9,218.94,137.18,219Z" transform="translate(-63.21 -27.69)"/><path class="a4210048-14ab-4c46-b82c-e877f22933f0" d="M117.07,312.92a30.36,30.36,0,0,0,15.27-2.57,29.86,29.86,0,0,0,11.21-8.9,29.48,29.48,0,0,0,4-6.89c.15-.35.69-.07.54.29a30.94,30.94,0,0,1-8.52,11.62,30.51,30.51,0,0,1-13.76,6.6,31.18,31.18,0,0,1-8.89.44C116.55,313.48,116.69,312.89,117.07,312.92Z" transform="translate(-63.21 -27.69)"/><path class="a4210048-14ab-4c46-b82c-e877f22933f0" d="M126.72,239.65a12.63,12.63,0,0,0,11.94-2.88c.28-.26.73.14.44.41a13.2,13.2,0,0,1-12.52,3.06C126.21,240.14,126.34,239.55,126.72,239.65Z" transform="translate(-63.21 -27.69)"/><path class="a099d095-b8a1-4464-afb3-a6a64547d59f" d="M122.92,217.65a4.17,4.17,0,0,0,1.14-1.85c.06-.39.65-.25.59.13-.23,1.3-1.5,2-1.93,3.17a1.85,1.85,0,0,0,2.35,2.39.31.31,0,0,1,.19.58,2.49,2.49,0,0,1-3.26-2.44A3.47,3.47,0,0,1,122.92,217.65Z" transform="translate(-63.21 -27.69)"/><path class="f7fb8a87-9698-4089-9310-cb77a55bc6db" d="M129.62,223.86a5.08,5.08,0,0,1-5,1.89c-.4-.08-.6.53-.2.61a5.75,5.75,0,0,0,5.7-2.16C130.41,223.87,129.87,223.53,129.62,223.86Z" transform="translate(-63.21 -27.69)"/><polygon class="b71034d0-970d-422a-a595-387aba66464b" points="57.59 76.99 72.02 106.22 104.28 110.91 80.94 133.66 86.45 165.79 57.59 150.62 28.74 165.79 34.25 133.66 10.91 110.91 43.17 106.22 57.59 76.99"/><path class="aba83362-d586-4e5d-a323-7c7f4ee34e75" d="M87,136.73l-12.9,1.87,23.35,22.76L92,193.48l28.85-15.16,28.85,15.16L145,166.22C122.53,165.26,100.23,154.77,87,136.73Z" transform="translate(-63.21 -27.69)"/><path class="ae3cd045-8170-4662-a4d7-dac0ccd8012f" d="M100.58,180.77a3,3,0,0,1,1.15,0,1.07,1.07,0,0,1,.78.77,1.14,1.14,0,0,1-.67,1.12,4.44,4.44,0,0,1-1.35.32,9.37,9.37,0,0,0-4.35,1.84,14.86,14.86,0,0,1-2,1.5c-2.47,1.39-4.4-1.28-1.83-2.86A20.2,20.2,0,0,1,100.58,180.77Z" transform="translate(-63.21 -27.69)"/><path class="ae3cd045-8170-4662-a4d7-dac0ccd8012f" d="M102.05,183.16a2.78,2.78,0,0,1,1.15,0,1.1,1.1,0,0,1,.78.78,1.15,1.15,0,0,1-.67,1.12,4.43,4.43,0,0,1-1.35.31,9.39,9.39,0,0,0-4.35,1.85,16.82,16.82,0,0,1-2,1.5c-2.47,1.38-4.4-1.28-1.83-2.86A20.2,20.2,0,0,1,102.05,183.16Z" transform="translate(-63.21 -27.69)"/><path class="ae3cd045-8170-4662-a4d7-dac0ccd8012f" d="M101.62,185.85a3,3,0,0,1,1.15,0,1,1,0,0,1,.77.77,1.11,1.11,0,0,1-.67,1.12,4.37,4.37,0,0,1-1.35.32A9.25,9.25,0,0,0,97.18,190a17.34,17.34,0,0,1-2,1.49c-2.48,1.39-4.41-1.28-1.83-2.86A20.15,20.15,0,0,1,101.62,185.85Z" transform="translate(-63.21 -27.69)"/><path class="ae3cd045-8170-4662-a4d7-dac0ccd8012f" d="M100.33,188.6a2.47,2.47,0,0,1,.94,0,.87.87,0,0,1,.63.64.91.91,0,0,1-.55.91,3.76,3.76,0,0,1-1.1.26A7.61,7.61,0,0,0,96.7,192a13.41,13.41,0,0,1-1.59,1.22c-2,1.13-3.59-1-1.49-2.34A16.46,16.46,0,0,1,100.33,188.6Z" transform="translate(-63.21 -27.69)"/><path class="ae3cd045-8170-4662-a4d7-dac0ccd8012f" d="M92.06,183.71a14,14,0,0,0-3,3.4,6.8,6.8,0,0,0-1.19,5,4.18,4.18,0,0,0,3.63,3.37,4.68,4.68,0,0,0,2.94-1,7.18,7.18,0,0,0,.13-11.39Z" transform="translate(-63.21 -27.69)"/><path class="ae3cd045-8170-4662-a4d7-dac0ccd8012f" d="M89.59,188.57c-4,4.82-19.56,29.18-19.65,35.35a11.63,11.63,0,0,0,3.53,8.88c2.77,2.43,6,1.82,7.85-1.36,3.3-5.74,9.82-31.13,11.38-38.92Z" transform="translate(-63.21 -27.69)"/><path class="ae3cd045-8170-4662-a4d7-dac0ccd8012f" d="M141.39,178.39a2.78,2.78,0,0,0-1.15,0,1.07,1.07,0,0,0-.78.77,1.13,1.13,0,0,0,.68,1.12,4.09,4.09,0,0,0,1.35.31,9.5,9.5,0,0,1,4.34,1.85,16.32,16.32,0,0,0,1.95,1.5c2.47,1.38,4.41-1.28,1.83-2.86A20.15,20.15,0,0,0,141.39,178.39Z" transform="translate(-63.21 -27.69)"/><path class="ae3cd045-8170-4662-a4d7-dac0ccd8012f" d="M139.92,180.78a2.78,2.78,0,0,0-1.15,0,1.08,1.08,0,0,0-.78.78,1.12,1.12,0,0,0,.68,1.11A4.1,4.1,0,0,0,140,183a9.4,9.4,0,0,1,4.34,1.85,17.34,17.34,0,0,0,1.95,1.49c2.47,1.39,4.41-1.27,1.83-2.86A20.14,20.14,0,0,0,139.92,180.78Z" transform="translate(-63.21 -27.69)"/><path class="ae3cd045-8170-4662-a4d7-dac0ccd8012f" d="M140.36,183.47a3,3,0,0,0-1.15,0,1.07,1.07,0,0,0-.78.77,1.14,1.14,0,0,0,.67,1.12,4.21,4.21,0,0,0,1.36.31,9.5,9.5,0,0,1,4.34,1.85,15.56,15.56,0,0,0,1.95,1.5c2.47,1.38,4.4-1.28,1.83-2.86A20.15,20.15,0,0,0,140.36,183.47Z" transform="translate(-63.21 -27.69)"/><path class="ae3cd045-8170-4662-a4d7-dac0ccd8012f" d="M141.65,186.22a2.47,2.47,0,0,0-.94,0,.9.9,0,0,0-.64.64.94.94,0,0,0,.55.91,3.45,3.45,0,0,0,1.11.25,7.72,7.72,0,0,1,3.54,1.51,13.17,13.17,0,0,0,1.59,1.22c2,1.14,3.6-1,1.5-2.33A16.56,16.56,0,0,0,141.65,186.22Z" transform="translate(-63.21 -27.69)"/><path class="ae3cd045-8170-4662-a4d7-dac0ccd8012f" d="M149.92,181.33a14.25,14.25,0,0,1,3,3.4,6.8,6.8,0,0,1,1.19,5.05,4.19,4.19,0,0,1-3.64,3.37,4.67,4.67,0,0,1-2.93-1,7.18,7.18,0,0,1-.13-11.39Z" transform="translate(-63.21 -27.69)"/><path class="ae3cd045-8170-4662-a4d7-dac0ccd8012f" d="M152.39,186.19c4,4.82,19.56,29.18,19.65,35.35a11.64,11.64,0,0,1-3.54,8.87c-2.76,2.44-6,1.83-7.85-1.35-3.29-5.74-9.82-31.13-11.37-38.92Z" transform="translate(-63.21 -27.69)"/><path class="a4210048-14ab-4c46-b82c-e877f22933f0" d="M165.79,239.9q-5.89,6.94-11.77,13.9-1.68,2-3.37,4c-.26.32.17.79.44.48l11.76-13.91,3.37-4C166.48,240.06,166.05,239.58,165.79,239.9Z" transform="translate(-63.21 -27.69)"/><path class="a4210048-14ab-4c46-b82c-e877f22933f0" d="M108.62,242.41q-.53,8.15-.86,16.28t-.47,16.37c-.05,3.06-.08,6.13-.09,9.19,0,.41.64.44.64,0q0-8.16.25-16.3t.64-16.37q.24-4.58.54-9.17A.33.33,0,0,0,108.62,242.41Z" transform="translate(-63.21 -27.69)"/><path class="e44b0b93-bda5-4a93-8661-8b4605fe51d9" d="M120.74,218.78a3.15,3.15,0,1,1,3.15-3.15A3.16,3.16,0,0,1,120.74,218.78Zm0-6a2.83,2.83,0,1,0,2.83,2.83A2.83,2.83,0,0,0,120.74,212.8Z" transform="translate(-63.21 -27.69)"/><path class="e44b0b93-bda5-4a93-8661-8b4605fe51d9" d="M128.45,218.78a3.15,3.15,0,1,1,3.15-3.15A3.15,3.15,0,0,1,128.45,218.78Zm0-6a2.83,2.83,0,1,0,2.83,2.83A2.83,2.83,0,0,0,128.45,212.8Z" transform="translate(-63.21 -27.69)"/><path class="e44b0b93-bda5-4a93-8661-8b4605fe51d9" d="M123.77,214.65l-.22-.23a1.62,1.62,0,0,1,2.1-.09l-.2.25A1.33,1.33,0,0,0,123.77,214.65Z" transform="translate(-63.21 -27.69)"/><path class="e44b0b93-bda5-4a93-8661-8b4605fe51d9" d="M137.56,215.63a12.51,12.51,0,0,0-6.18-.67l0-.31a12.68,12.68,0,0,1,6.34.68Z" transform="translate(-63.21 -27.69)"/><rect class="b25bf7a1-5636-494e-818a-fa8084b20b49" y="424.82" width="373.59" height="2.4"/></g></g></svg>