<svg xmlns="http://www.w3.org/2000/svg" xmlns:xlink="http://www.w3.org/1999/xlink" viewBox="0 0 3314.37 3020.55"><defs><style>.b74fe3ce-39aa-4ac6-999f-9d7fabfcf4e5,.be029479-e263-48d3-97cb-672e864636ee{fill:#36f;}.b74fe3ce-39aa-4ac6-999f-9d7fabfcf4e5{opacity:0.74;}.e2bb8685-230b-4fea-9ea9-7c93e34db89d{fill:none;}.ff1b768d-dc9d-4740-9d1a-3ac6c3b9c823{isolation:isolate;}.b79f32ac-af51-4e01-9ad7-ba81a6dee25f{fill:#f4f7fa;}.f3155a49-a652-4231-a48e-bfd29f2ae9f6{clip-path:url(#ac8592bd-0142-4589-a90b-c8e2e6ee0560);}.bcec6e2e-f4a6-4bfa-8cfe-0e8985e55206{opacity:0.5;}.ba7b590b-eb69-430c-adb7-adb67fdff4e7,.bcec6e2e-f4a6-4bfa-8cfe-0e8985e55206{mix-blend-mode:soft-light;}.aea99144-5ab1-490e-832f-9cde32de4ee0,.ba7b590b-eb69-430c-adb7-adb67fdff4e7{fill:#fff;}.abcb779e-ef04-427f-9ff0-f4b026f3796b{fill:url(#fc916a81-d491-4b7d-9653-63539bf49590);}.a6dab44e-b028-48cd-be64-ef5a47c9de94{clip-path:url(#a42bdde0-7885-4d92-92dc-530d5613efba);}.b5c219c5-b684-45fe-a8a5-4a8180c189e4{fill:url(#bba71887-65eb-487a-a9bf-a3ccfa04de29);}.e32a3e07-8d78-406d-b245-2ac45ee066fc{fill:#d8dee8;}.bb4af96c-bc4c-4f4f-8728-26c0a66292df{fill:#fc79ab;}.f1073b79-f0b5-4fa2-8fac-f634ef4860af{fill:url(#b2227543-5c36-4383-811b-a7543090aa37);}.b2c6d55d-55ec-445c-854a-bdcaee9ddb25{fill:url(#a5419e38-e360-406f-b84f-a0de6eb558e9);}.e34513cd-d215-41a9-ac96-a1f3a50836de{fill:url(#bf84f865-7494-48c3-b366-1c4a1d03fb8c);}.f563ad99-69d5-47ea-a37f-130683ef6979{fill:url(#baf0e402-389f-48a4-8cb1-1843aa76bceb);}.bcd46f80-7fef-4cec-9339-ff81ccb1f86c{fill:url(#ae8df1e5-f4d6-4a8c-b252-842172717ce5);}.a7593ba1-e434-42ff-b12b-17879e1b1703,.ae6ffb6a-17e2-4124-b0ca-6c21e2cbc2c1,.b0e08b9f-2532-434c-b986-61e5de5d4d6c,.fbce1ea2-200d-432f-9d5b-4d6efe745a70,.feda926f-b32b-475b-a00b-6854f9f7f866{opacity:0.3;}.a68ee2a3-f1de-4a1a-b847-e9e216c669cd,.a7593ba1-e434-42ff-b12b-17879e1b1703,.ae6ffb6a-17e2-4124-b0ca-6c21e2cbc2c1,.b0e08b9f-2532-434c-b986-61e5de5d4d6c,.fbce1ea2-200d-432f-9d5b-4d6efe745a70,.feda926f-b32b-475b-a00b-6854f9f7f866{mix-blend-mode:multiply;}.fbce1ea2-200d-432f-9d5b-4d6efe745a70{fill:url(#aaf574ea-8ef7-46f7-a5c4-2ab234362e84);}.a70c919f-296f-4720-9261-1d25a74fd9ab{fill:url(#af24c308-206c-4058-9f13-70c6451a0158);}.feda926f-b32b-475b-a00b-6854f9f7f866{fill:url(#b439c707-96f1-4d1b-ae7c-fadad93d5098);}.a9413c2a-1595-46bc-94de-de249455ae5e{fill:url(#a6087782-7b40-466c-bff9-1936907f92f5);}.adfb9280-248a-417f-a05d-4eca1185e9bc{fill:#26264f;}.b7b83deb-1cd1-4252-9e9a-f34743f97261{fill:url(#f60d5eae-957a-4e44-8c1f-3b58d667a0fd);}.a68ee2a3-f1de-4a1a-b847-e9e216c669cd{fill:url(#b6a7673e-840f-4f64-a993-6277c3d7cd80);}.a7593ba1-e434-42ff-b12b-17879e1b1703{fill:url(#ea22b982-229c-4814-bd61-fdf2b91cbd31);}.f7aace9e-6cde-4d27-8eb7-b2435d91467d{fill:url(#a0e5b70c-aeff-43f4-b00b-33004c77de55);}.f9a1729d-fa47-4c03-879a-42f7077740a6{fill:url(#a177b817-f167-4dea-82d6-a123e34fb4f9);}.a7321a46-5f65-4482-91f2-0e65f2952507{fill:url(#aa434de7-8109-4c87-8eb2-b40ec9a06a1d);}.ab8b0093-c5b1-4cb2-a476-62058508da2a{fill:url(#e8c5432b-3d90-4588-8498-d518d15abea4);}.b74415fc-f529-4cff-83d1-335b5b09b50e{fill:url(#a7963a59-3941-47a7-b050-1e28bfea8ac9);}.e51de035-e9cf-49bc-8879-c141aed1b4a2{fill:url(#f0bb186b-d62a-4ec6-af92-1d9b527bcd53);}.a71f5ecb-e5d3-484d-b14f-706627ee1e4d{fill:url(#aa9bcc4b-1c5e-45d9-ab50-aad2bd311e4a);}.ae57f798-a01a-4cac-8d7c-86811f8c9583{fill:url(#a21d3de9-7e88-4a7e-9a84-307d721e86ea);}.f6bcb84e-59ee-480d-8516-7364e6fd2f88{fill:url(#ba283d3f-cc12-4cad-b6e5-505eb92c6600);}.b0e08b9f-2532-434c-b986-61e5de5d4d6c{fill:url(#e8f231c4-c560-4b9f-a8e3-088208938f1b);}.a45681e4-26c2-4180-aa29-6c0c7deed74f{fill:url(#b85dc96b-dca5-4b71-9739-7cd0a7865904);}.b91659c9-ad99-4265-bb96-7437aba1b182{fill:url(#fb80eb7a-f3e1-44c6-b48d-5ba5a633d2b3);}.ad851e37-ba73-42f5-9c77-9387baf14daa{fill:url(#e7a7e032-ec07-4d43-8c1d-afb0181aa102);}.ebd0c52d-5168-4030-98a6-5d127adaa571{fill:url(#a0583ff5-262e-4565-81fc-a6337fbe3a20);}.e8ab02fa-85c6-41eb-bc2a-00b78f14d248{fill:url(#f3afbce5-b951-43b5-875e-66f6eca6a75e);}.ae6ffb6a-17e2-4124-b0ca-6c21e2cbc2c1{fill:url(#b0d57eb9-70bc-4e63-a464-c7989b4a3e90);}</style><clipPath id="ac8592bd-0142-4589-a90b-c8e2e6ee0560" transform="translate(-430.31 -345.23)"><path class="b74fe3ce-39aa-4ac6-999f-9d7fabfcf4e5" d="M1486.1,2740c135.74-89.11,320.68-240.05,434.19-479.27C2069.14,1947,1964.35,1757,2076.82,1201.5,2147.93,850.25,2201.1,605.84,2402,505.19c157.43-78.87,386.73-60,507,59.55,100,99.4,136.42,280,135.46,404.3-.78,101.26-26.4,170.42,21.28,232.15,48.73,63.09,116.54,44,163.9,92.71,96,98.75-13.59,351.23-31.31,392-197.11,453.91-689.5,697.33-905.56,800.93C2114.16,2572.51,1842,2680.71,1486.1,2740Z"/></clipPath><linearGradient id="fc916a81-d491-4b7d-9653-63539bf49590" x1="3560.16" y1="1945.72" x2="2470.1" y2="2401.32" gradientTransform="translate(397.66 -139.79) rotate(5.38)" gradientUnits="userSpaceOnUse"><stop offset="0" stop-color="#ff9085"/><stop offset="1" stop-color="#fb6fbb"/></linearGradient><clipPath id="a42bdde0-7885-4d92-92dc-530d5613efba" transform="translate(-430.31 -345.23)"><path class="e2bb8685-230b-4fea-9ea9-7c93e34db89d" d="M1987.61,3057.65c189.32,57,432.9-7.7,693.94-59.65,66.62-13.26,518.33,69.7,521.95-133,1.27-71.41-84-156-83.72-251.44.28-113.12,71.24-148.89,143.8-268.74,43.29-71.51,170-280.78,80.83-443.28-53.28-97.11-181.23-173.12-292.19-175.82-162.75-3.94-257,150.63-412.67,415.2-138,234.53-134.19,303.12-236.09,470.1C2327.84,2734.94,2202.4,2899.33,1987.61,3057.65Z"/></clipPath><linearGradient id="bba71887-65eb-487a-a9bf-a3ccfa04de29" x1="272.78" y1="2166.14" x2="3152.75" y2="2166.14" gradientTransform="matrix(1, 0, -0.2, 1.05, 646.85, -147.46)" gradientUnits="userSpaceOnUse"><stop offset="0" stop-color="#ffc444"/><stop offset="1" stop-color="#f36f56"/></linearGradient><linearGradient id="b2227543-5c36-4383-811b-a7543090aa37" x1="322.33" y1="3130.36" x2="347.89" y2="3455.64" gradientTransform="matrix(-1, 0, 0, 1, 1523.12, 0)" gradientUnits="userSpaceOnUse"><stop offset="0" stop-color="#311944"/><stop offset="1" stop-color="#a03976"/></linearGradient><linearGradient id="a5419e38-e360-406f-b84f-a0de6eb558e9" x1="388.31" y1="3311.45" x2="383.67" y2="2974.56" gradientTransform="matrix(-1, 0, 0, 1, 1523.12, 0)" xlink:href="#bba71887-65eb-487a-a9bf-a3ccfa04de29"/><linearGradient id="bf84f865-7494-48c3-b366-1c4a1d03fb8c" x1="805.32" y1="3092.41" x2="830.87" y2="3417.69" xlink:href="#b2227543-5c36-4383-811b-a7543090aa37"/><linearGradient id="baf0e402-389f-48a4-8cb1-1843aa76bceb" x1="830.95" y1="3305.35" x2="826.3" y2="2968.45" gradientTransform="matrix(-1, 0, 0, 1, 1523.12, 0)" xlink:href="#bba71887-65eb-487a-a9bf-a3ccfa04de29"/><linearGradient id="ae8df1e5-f4d6-4a8c-b252-842172717ce5" x1="307.91" y1="2765.69" x2="557" y2="2765.69" gradientTransform="matrix(-1, 0, 0, 1, 1523.12, 0)" gradientUnits="userSpaceOnUse"><stop offset="0" stop-color="#444b8c"/><stop offset="1" stop-color="#3e4177"/></linearGradient><linearGradient id="aaf574ea-8ef7-46f7-a5c4-2ab234362e84" x1="307.91" y1="2765.7" x2="557" y2="2765.7" xlink:href="#ae8df1e5-f4d6-4a8c-b252-842172717ce5"/><linearGradient id="af24c308-206c-4058-9f13-70c6451a0158" x1="377.06" y1="2741.14" x2="878.51" y2="2741.14" xlink:href="#ae8df1e5-f4d6-4a8c-b252-842172717ce5"/><linearGradient id="b439c707-96f1-4d1b-ae7c-fadad93d5098" x1="380.99" y1="2360.22" x2="562.21" y2="1854.88" gradientTransform="matrix(-1, 0, 0, 1, 1523.12, 0)" gradientUnits="userSpaceOnUse"><stop offset="0" stop-color="#aa80f9"/><stop offset="1" stop-color="#6165d7"/></linearGradient><linearGradient id="a6087782-7b40-466c-bff9-1936907f92f5" x1="291.73" y1="1850.34" x2="291.73" y2="1649.07" gradientTransform="matrix(-1, 0, 0, 1, 1523.12, 0)" xlink:href="#bba71887-65eb-487a-a9bf-a3ccfa04de29"/><linearGradient id="f60d5eae-957a-4e44-8c1f-3b58d667a0fd" x1="-39.3" y1="1117.05" x2="115.39" y2="1693.14" gradientTransform="matrix(-0.62, -0.41, -0.55, 0.83, 2158.24, 966.24)" xlink:href="#b2227543-5c36-4383-811b-a7543090aa37"/><linearGradient id="b6a7673e-840f-4f64-a993-6277c3d7cd80" x1="715" y1="1482.82" x2="736.77" y2="1482.82" gradientTransform="matrix(0.74, 0, 0, -1, 348.62, 3383.63)" xlink:href="#b439c707-96f1-4d1b-ae7c-fadad93d5098"/><linearGradient id="ea22b982-229c-4814-bd61-fdf2b91cbd31" x1="-39.78" y1="1115.25" x2="115.29" y2="1692.74" gradientTransform="matrix(-0.62, -0.41, -0.55, 0.83, 2158.24, 966.24)" xlink:href="#b2227543-5c36-4383-811b-a7543090aa37"/><linearGradient id="a0e5b70c-aeff-43f4-b00b-33004c77de55" x1="-124.35" y1="2476.56" x2="-33.62" y2="2476.56" gradientTransform="matrix(-1, 0, 0, 1, 1523.12, 0)" xlink:href="#bba71887-65eb-487a-a9bf-a3ccfa04de29"/><linearGradient id="a177b817-f167-4dea-82d6-a123e34fb4f9" x1="609.7" y1="2023.31" x2="720.37" y2="2023.31" gradientTransform="matrix(-1, 0, 0, 1, 1523.12, 0)" xlink:href="#bba71887-65eb-487a-a9bf-a3ccfa04de29"/><linearGradient id="aa434de7-8109-4c87-8eb2-b40ec9a06a1d" x1="-6527.94" y1="-107.69" x2="-6540.24" y2="-255.25" gradientTransform="matrix(-0.48, -0.88, -0.88, 0.48, -2006.73, -3974.44)" gradientUnits="userSpaceOnUse"><stop offset="0" stop-color="#444b8c"/><stop offset="1" stop-color="#26264f"/></linearGradient><linearGradient id="e8c5432b-3d90-4588-8498-d518d15abea4" x1="9301.08" y1="1379.23" x2="9417.06" y2="1501.48" gradientTransform="translate(-3677.07 -6397.01) rotate(49.4)" gradientUnits="userSpaceOnUse"><stop offset="0" stop-color="#f36f56"/><stop offset="1" stop-color="#ffc444"/></linearGradient><linearGradient id="a7963a59-3941-47a7-b050-1e28bfea8ac9" x1="2451.25" y1="1724.56" x2="2145.68" y2="1822.62" gradientUnits="userSpaceOnUse"><stop offset="0" stop-color="#fcb148"/><stop offset="0.05" stop-color="#fdba46"/><stop offset="0.14" stop-color="#ffc244"/><stop offset="0.32" stop-color="#ffc444"/><stop offset="0.48" stop-color="#fdb946"/><stop offset="0.78" stop-color="#f99c4d"/><stop offset="0.87" stop-color="#f8924f"/><stop offset="1" stop-color="#f8924f"/></linearGradient><linearGradient id="f0bb186b-d62a-4ec6-af92-1d9b527bcd53" x1="2698.45" y1="1420.39" x2="2425.65" y2="2022.23" gradientUnits="userSpaceOnUse"><stop offset="0" stop-color="#ffdb44"/><stop offset="1" stop-color="#feef06"/></linearGradient><linearGradient id="aa9bcc4b-1c5e-45d9-ab50-aad2bd311e4a" x1="2648.27" y1="2055.87" x2="2595.63" y2="1768.31" xlink:href="#a7963a59-3941-47a7-b050-1e28bfea8ac9"/><linearGradient id="a21d3de9-7e88-4a7e-9a84-307d721e86ea" x1="2536.66" y1="1590.43" x2="2753.59" y2="2050.92" xlink:href="#a7963a59-3941-47a7-b050-1e28bfea8ac9"/><linearGradient id="ba283d3f-cc12-4cad-b6e5-505eb92c6600" x1="2528.02" y1="1491.34" x2="2637.1" y2="1900.14" xlink:href="#f0bb186b-d62a-4ec6-af92-1d9b527bcd53"/><linearGradient id="e8f231c4-c560-4b9f-a8e3-088208938f1b" x1="2472.85" y1="1620.23" x2="2689.33" y2="2079.79" xlink:href="#a7963a59-3941-47a7-b050-1e28bfea8ac9"/><linearGradient id="b85dc96b-dca5-4b71-9739-7cd0a7865904" x1="2617.09" y1="1027.78" x2="2188.79" y2="1165.23" xlink:href="#a7963a59-3941-47a7-b050-1e28bfea8ac9"/><linearGradient id="fb80eb7a-f3e1-44c6-b48d-5ba5a633d2b3" x1="2963.56" y1="601.45" x2="2581.2" y2="1445.01" xlink:href="#f0bb186b-d62a-4ec6-af92-1d9b527bcd53"/><linearGradient id="e7a7e032-ec07-4d43-8c1d-afb0181aa102" x1="2893.23" y1="1492.15" x2="2819.45" y2="1089.11" xlink:href="#a7963a59-3941-47a7-b050-1e28bfea8ac9"/><linearGradient id="a0583ff5-262e-4565-81fc-a6337fbe3a20" x1="2736.81" y1="839.78" x2="3040.85" y2="1485.22" xlink:href="#a7963a59-3941-47a7-b050-1e28bfea8ac9"/><linearGradient id="f3afbce5-b951-43b5-875e-66f6eca6a75e" x1="2724.69" y1="700.9" x2="2877.58" y2="1273.88" xlink:href="#f0bb186b-d62a-4ec6-af92-1d9b527bcd53"/><linearGradient id="b0d57eb9-70bc-4e63-a464-c7989b4a3e90" x1="2647.36" y1="881.55" x2="2950.79" y2="1525.68" xlink:href="#a7963a59-3941-47a7-b050-1e28bfea8ac9"/></defs><g class="ff1b768d-dc9d-4740-9d1a-3ac6c3b9c823"><g id="fdff3157-e325-44f1-b9e3-0bd144f520ff" data-name="Illustration"><path class="b79f32ac-af51-4e01-9ad7-ba81a6dee25f" d="M1580.58,373.94C1212.89,380.1,644,512.6,480.26,853.12c-57.19,118.93-53.31,293.76-45.57,643.44,2.27,102.78,6.05,252.58,32.55,438.45,55.06,386.11,92.54,649,234.39,802,355.43,383.51,1639.34,372.42,2187.61-318,299.08-376.64,345.1-912.42,71.62-1355.22C2659.77,576.29,2072.83,365.7,1580.58,373.94Z" transform="translate(-430.31 -345.23)"/><path class="b74fe3ce-39aa-4ac6-999f-9d7fabfcf4e5" d="M1486.1,2740c135.74-89.11,320.68-240.05,434.19-479.27C2069.14,1947,1964.35,1757,2076.82,1201.5,2147.93,850.25,2201.1,605.84,2402,505.19c157.43-78.87,386.73-60,507,59.55,100,99.4,136.42,280,135.46,404.3-.78,101.26-26.4,170.42,21.28,232.15,48.73,63.09,116.54,44,163.9,92.71,96,98.75-13.59,351.23-31.31,392-197.11,453.91-689.5,697.33-905.56,800.93C2114.16,2572.51,1842,2680.71,1486.1,2740Z" transform="translate(-430.31 -345.23)"/><g class="f3155a49-a652-4231-a48e-bfd29f2ae9f6"><g class="bcec6e2e-f4a6-4bfa-8cfe-0e8985e55206"><path class="aea99144-5ab1-490e-832f-9cde32de4ee0" d="M1337.25,2802.91l-1.34-6.93c216.13-41.66,406.55-103.07,566-182.53,235.2-117.23,395.7-270.82,477-456.5,63.68-145.4,77.94-304.92,97.67-525.71,15.74-176.26,11-302.57,6.83-414-5.45-145.46-9.76-260.35,34.71-418.12C2563.27,639,2645.3,486.27,2762,345.23l5.43,4.49C2651.37,490,2569.79,641.84,2524.92,801c-44.17,156.7-39.88,271.11-34.45,416,4.19,111.65,8.93,238.2-6.86,414.89-19,213.14-34.08,381.48-98.23,527.93-82,187.24-243.63,342-480.35,460C1745,2699.51,1554,2761.13,1337.25,2802.91Z" transform="translate(-430.31 -345.23)"/><path class="aea99144-5ab1-490e-832f-9cde32de4ee0" d="M2490.09,1505.5l-3.33-2.19c-1.06-.71-107.45-71.9-202-210.66-55.56-81.49-96.28-170-121-263.17-30.94-116.4-36.88-240.31-17.66-368.3l7,1.05c-19.06,127-13.19,249.85,17.45,365.26,24.52,92.33,64.87,180.12,119.92,260.94,84.49,124,178.41,193.62,197,206.72,149.58-298.27,352.79-466.06,497.21-554.4,157.2-96.16,280.75-121.55,282-121.79l1.38,6.92c-1.22.24-123.78,25.47-280,121.07-144.12,88.21-347.17,256.09-496.1,555Z" transform="translate(-430.31 -345.23)"/><path class="aea99144-5ab1-490e-832f-9cde32de4ee0" d="M2435.56,1980.77l-1.07-2.34c-.84-1.86-86.1-188.31-208.15-358.5-121.61-169.56-456.15-279.4-459.52-280.49l2.18-6.72c3.38,1.1,340.13,111.67,463.07,283.1,115,160.4,197.48,335.17,207.77,357.35,197.65-24.06,435.7-247.53,600.91-431.21,180.08-200.21,314.82-397.66,316.16-399.63l5.84,4c-1.35,2-136.32,199.76-316.7,400.32-106,117.85-206.72,213.61-299.38,284.62-116.12,89-219.93,139.2-308.57,149.24Z" transform="translate(-430.31 -345.23)"/><path class="aea99144-5ab1-490e-832f-9cde32de4ee0" d="M2029.5,2588.24c-31.83,0-49.76-.91-50.32-.94l-7-.38,4.5-5.4c66.12-79.3,100.82-168.2,103.15-264.24,1.86-76.93-16.92-158.66-55.83-242.89-66.35-143.68-169.54-246-170.58-247l4.95-5c1,1,105.15,104.25,172,249.09,39.36,85.22,58.36,168,56.47,246-2.3,95.45-36,183.93-100.25,263.09,35,1.21,196.82,4.31,408-30.39,219.54-36.07,538.86-121.55,813.33-323.89l532.52-392.61,4.19,5.68-532.52,392.61c-275.66,203.22-596.2,289-816.56,325.2C2232.31,2584,2098.39,2588.24,2029.5,2588.24Z" transform="translate(-430.31 -345.23)"/></g></g><path class="abcb779e-ef04-427f-9ff0-f4b026f3796b" d="M1987.61,3057.65c189.32,57,432.9-7.7,693.94-59.65,66.62-13.26,518.73,61.58,522.35-141.13,1.27-71.41-84.36-147.86-84.12-243.32.28-113.12,71.24-148.89,143.8-268.74,43.29-71.51,170-280.78,80.83-443.28-53.28-97.11-181.23-173.12-292.19-175.82-162.75-3.94-257,150.63-412.67,415.2-138,234.53-134.19,303.12-236.09,470.1C2327.84,2734.94,2202.4,2899.33,1987.61,3057.65Z" transform="translate(-430.31 -345.23)"/><g class="a6dab44e-b028-48cd-be64-ef5a47c9de94"><g class="bcec6e2e-f4a6-4bfa-8cfe-0e8985e55206"><path class="aea99144-5ab1-490e-832f-9cde32de4ee0" d="M1774.91,3077.35q-7.74,0-15.5-.12c-205.15-3.25-407.17-68.14-600.44-192.87l3.83-5.93c192.14,124,392.91,188.52,596.72,191.75,5.12.08,10.27.12,15.39.12,266.12,0,524.25-109.57,767.54-325.85,258.3-229.61,435.12-521.94,538-726.75,71.28-141.94,106.08-312,103.42-505.46l7.06-.1c2.67,194.6-32.38,365.76-104.18,508.73-103.12,205.35-280.45,498.5-539.58,728.86C2302.53,2967.18,2042.8,3077.35,1774.91,3077.35Z" transform="translate(-430.31 -345.23)"/><path class="aea99144-5ab1-490e-832f-9cde32de4ee0" d="M2844.33,2414.78l-1.25-3.28c-.35-.91-34.88-92.14-49.4-220.29-13.41-118.35-12-293.38,70.61-455.12l6.28,3.21c-81.82,160.11-83.17,333.58-69.9,450.91,12.86,113.69,41.55,198.06,47.79,215.46,476.39-181.49,556.59-525.32,569.84-626.57.39-3,.54-4.12.72-4.82l6.83,1.75-3.42-.88,3.42.86c-.12.53-.28,1.89-.56,4-13.4,102.47-94.65,451-577.67,633.52Z" transform="translate(-430.31 -345.23)"/><path class="aea99144-5ab1-490e-832f-9cde32de4ee0" d="M2904,2836c-96.68,0-216.24-22.18-356.45-89.57l-1.69-.81-.27-1.85c-.45-3-43.36-300.31,69.22-654.66l113.64-357.67,6.73,2.13-113.64,357.67c-107.45,338.18-72.67,624.07-69.23,649.64,130.43,62.41,325.64,123.68,518.23,63.64,115.44-36,175.79-99.38,176.39-100l5.15,4.83c-.61.64-62.24,65.39-179.44,101.93C3028.2,2825.11,2971.72,2836,2904,2836Z" transform="translate(-430.31 -345.23)"/></g></g><path class="b5c219c5-b684-45fe-a8a5-4a8180c189e4" d="M2334.9,1027.05,664.64,1179.74c100.91,62.33,257.08,187.28,351.08,440.42C1200.8,2118.55,995.17,2582.77,1217.6,2918c59.19,89.19,186.8,250.72,383.94,290.32l1595.13-217.48c-522.33-151.43-664-437.75-691.25-681.86-27.34-245,50.45-538-42.74-932.28C2424.58,1215.45,2372.57,1099.44,2334.9,1027.05Z" transform="translate(-430.31 -345.23)"/><path class="e32a3e07-8d78-406d-b245-2ac45ee066fc" d="M861.71,755.22l1471.41-92.39c66,55.95,158.78,155.42,219.21,327.48,139.08,396-22.92,787.61,23.89,1172.5,29.85,245.45,153,553,594.09,758.49l-1580,206.76c-108.82-41.68-253.87-128.33-337.79-329.94-89-213.74-26.68-358.33-57.34-1030.21-21.57-472.85-64-659.35-152.39-808.86C981.56,855.54,912.58,792.83,861.71,755.22Z" transform="translate(-430.31 -345.23)"/><path class="aea99144-5ab1-490e-832f-9cde32de4ee0" d="M871.12,755.22l1471.41-92.39c66,55.95,158.78,155.42,219.21,327.48,139.08,396-22.92,787.61,23.89,1172.5,29.85,245.45,153,553,594.09,758.49l-1580,206.76c-108.82-41.68-253.87-128.33-337.8-329.94-89-213.74-26.68-358.33-57.33-1030.21-21.57-472.85-64-659.35-152.39-808.86C991,855.54,922,792.83,871.12,755.22Z" transform="translate(-430.31 -345.23)"/><path class="e32a3e07-8d78-406d-b245-2ac45ee066fc" d="M2478.93,2126.62q.46,5.82,1,11.63a6.72,6.72,0,0,1-6,7.3L1323.5,2271.9a6.7,6.7,0,0,1-7.46-6.72q.06-5.85.1-11.8a6.76,6.76,0,0,1,6-6.67L2471.5,2120.47A6.73,6.73,0,0,1,2478.93,2126.62Z" transform="translate(-430.31 -345.23)"/><path class="e32a3e07-8d78-406d-b245-2ac45ee066fc" d="M2474.33,2002.79q0,5.87,0,11.75a6.72,6.72,0,0,1-6,6.72L1323.86,2143.14a6.7,6.7,0,0,1-7.44-6.63c0-3.91,0-7.84-.06-11.79a6.76,6.76,0,0,1,6-6.75L2466.9,1996.08A6.72,6.72,0,0,1,2474.33,2002.79Z" transform="translate(-430.31 -345.23)"/><path class="e32a3e07-8d78-406d-b245-2ac45ee066fc" d="M2495.37,2249.19q1.08,5.74,2.23,11.47a6.71,6.71,0,0,1-5.82,8L1322,2401a6.73,6.73,0,0,1-7.48-6.76c0-3.9.09-7.83.14-11.82a6.75,6.75,0,0,1,6-6.61l1167.43-132A6.72,6.72,0,0,1,2495.37,2249.19Z" transform="translate(-430.31 -345.23)"/><path class="e32a3e07-8d78-406d-b245-2ac45ee066fc" d="M2304,2896.25l530.5-67.94a6.69,6.69,0,0,1,6.06,2.44,34.1,34.1,0,0,0,10.35,8.44,6.74,6.74,0,0,1-2.17,12.69l-520.62,66.68Q2316.09,2907.42,2304,2896.25Z" transform="translate(-430.31 -345.23)"/><path class="e32a3e07-8d78-406d-b245-2ac45ee066fc" d="M1573.55,2989.81l599.19-76.74q11.64,11.26,23.43,22.39l-602.57,77.18a6.84,6.84,0,0,1-3.88-.64q-9.45-4.65-18.59-9.62A6.73,6.73,0,0,1,1573.55,2989.81Z" transform="translate(-430.31 -345.23)"/><path class="e32a3e07-8d78-406d-b245-2ac45ee066fc" d="M2478.64,1878.08q-.37,5.93-.71,11.87a6.7,6.7,0,0,1-6,6.29L1322.38,2014.73a6.7,6.7,0,0,1-7.41-6.54q-.12-5.85-.23-11.76a6.75,6.75,0,0,1,6-6.85L2471.26,1871A6.7,6.7,0,0,1,2478.64,1878.08Z" transform="translate(-430.31 -345.23)"/><path class="e32a3e07-8d78-406d-b245-2ac45ee066fc" d="M2637.55,2605.92q3.59,5.45,7.25,10.84a6.72,6.72,0,0,1-4.73,10.46L1372.15,2782.3a6.72,6.72,0,0,1-6.94-3.85q-2.57-5.6-5-11.3a6.74,6.74,0,0,1,5.34-9.41l1265.65-154.8A6.68,6.68,0,0,1,2637.55,2605.92Z" transform="translate(-430.31 -345.23)"/><path class="e32a3e07-8d78-406d-b245-2ac45ee066fc" d="M2572.3,2489.23q2.61,5.58,5.29,11.1a6.72,6.72,0,0,1-5.23,9.63L1332.7,2657.86a6.72,6.72,0,0,1-7.42-5.47q-1-5.85-2-11.79a6.74,6.74,0,0,1,5.87-7.69l1236.24-147.5A6.71,6.71,0,0,1,2572.3,2489.23Z" transform="translate(-430.31 -345.23)"/><path class="e32a3e07-8d78-406d-b245-2ac45ee066fc" d="M2525.78,2370.18q1.8,5.67,3.66,11.3a6.71,6.71,0,0,1-5.59,8.79L1321.87,2530a6.72,6.72,0,0,1-7.5-6.52q-.13-5.85-.22-11.84a6.76,6.76,0,0,1,5.95-6.8l1198.51-139.31A6.71,6.71,0,0,1,2525.78,2370.18Z" transform="translate(-430.31 -345.23)"/><path class="e32a3e07-8d78-406d-b245-2ac45ee066fc" d="M2488.67,1753q-.57,6-1.11,11.9a6.73,6.73,0,0,1-6,6.08L1319,1886.67a6.72,6.72,0,0,1-7.39-6.46q-.2-5.84-.4-11.73a6.74,6.74,0,0,1,6-7l1164-115.89A6.72,6.72,0,0,1,2488.67,1753Z" transform="translate(-430.31 -345.23)"/><path class="e32a3e07-8d78-406d-b245-2ac45ee066fc" d="M2454,1008.38a6.75,6.75,0,0,1,6.83,4.36c1.42,3.83,2.82,7.67,4.18,11.55l0,.09a6.72,6.72,0,0,1-5.86,8.87l-1222.1,93.09a6.73,6.73,0,0,1-7-4.93q-1.6-5.76-3.24-11.44a6.7,6.7,0,0,1,5.93-8.57Z" transform="translate(-430.31 -345.23)"/><path class="e32a3e07-8d78-406d-b245-2ac45ee066fc" d="M2495.3,1133.46q1.22,5.83,2.35,11.68a6.73,6.73,0,0,1-6.08,8l-1226.14,98.54a6.75,6.75,0,0,1-7.15-5.53q-1-5.82-2.14-11.54a6.71,6.71,0,0,1,6.07-7.94l1225.94-98.52A6.75,6.75,0,0,1,2495.3,1133.46Z" transform="translate(-430.31 -345.23)"/><path class="e32a3e07-8d78-406d-b245-2ac45ee066fc" d="M2401.84,908.49l-1209,91.91a6.7,6.7,0,0,1-6.65-4,814.27,814.27,0,0,0-45.74-89.51Q1127.73,885.37,1114,865a6.73,6.73,0,0,1,5.1-10.5l1189.73-80.17a6.74,6.74,0,0,1,5.27,2,613.67,613.67,0,0,1,93,122.11A6.73,6.73,0,0,1,2401.84,908.49Z" transform="translate(-430.31 -345.23)"/><path class="e32a3e07-8d78-406d-b245-2ac45ee066fc" d="M2500.91,1627.78q-.59,5.94-1.16,11.9a6.76,6.76,0,0,1-6.06,6.06L1313.87,1758.92a6.73,6.73,0,0,1-7.36-6.4q-.29-5.88-.56-11.72a6.72,6.72,0,0,1,6.08-7l1181.53-113.35A6.74,6.74,0,0,1,2500.91,1627.78Z" transform="translate(-430.31 -345.23)"/><path class="e32a3e07-8d78-406d-b245-2ac45ee066fc" d="M2511.62,1503q-.4,5.92-.85,11.86a6.75,6.75,0,0,1-6.11,6.23L1306.94,1631.49a6.74,6.74,0,0,1-7.33-6.3q-.36-5.88-.74-11.7a6.71,6.71,0,0,1,6.09-7.12l1199.31-110.59A6.74,6.74,0,0,1,2511.62,1503Z" transform="translate(-430.31 -345.23)"/><path class="e32a3e07-8d78-406d-b245-2ac45ee066fc" d="M2516.93,1378.75q-.07,5.93-.17,11.85a6.75,6.75,0,0,1-6.15,6.59L1297.55,1504.4a6.75,6.75,0,0,1-7.29-6.15q-.51-5.87-1-11.66a6.7,6.7,0,0,1,6.11-7.28L2509.59,1372A6.74,6.74,0,0,1,2516.93,1378.75Z" transform="translate(-430.31 -345.23)"/><path class="e32a3e07-8d78-406d-b245-2ac45ee066fc" d="M2512.8,1255.52q.48,5.88.9,11.77a6.73,6.73,0,0,1-6.16,7.18L1284.42,1377.75a6.74,6.74,0,0,1-7.24-5.91q-.72-5.85-1.46-11.61a6.7,6.7,0,0,1,6.1-7.54l1223.69-103.32A6.75,6.75,0,0,1,2512.8,1255.52Z" transform="translate(-430.31 -345.23)"/><path class="bb4af96c-bc4c-4f4f-8728-26c0a66292df" d="M2794.85,2890.05l-212.43-131.57c-70.6-44.13-141.42-88.05-210.64-134-17.17-11.56-34.57-23.2-50.52-35.63-2-1.56-3.88-3.14-5.61-4.7-.85-.77-1.67-1.55-2.3-2.23-.28-.31-.55-.64-.62-.74s.09.09.1.18a3.06,3.06,0,0,1,.32.77,6,6,0,0,1,.3,2.12,7.11,7.11,0,0,1-3.76,6.16,8.46,8.46,0,0,1-1.14.45c-.18.06-.5.09-.45.1s-.16,0,0,0a2.37,2.37,0,0,1,.42,0,24.88,24.88,0,0,1,2.89.4c2.17.4,4.52,1,6.85,1.67a199.9,199.9,0,0,1,28,10.7c18.25,8.5,35.66,19.09,50.64,32s27.46,28.56,33,46.32c5.89,17.77,3.23,36.63-5.33,53.83s-21.45,33.11-34.37,49.59a278.77,278.77,0,0,0-18.83,26.28c-5.81,9.41-11,20.15-13,32.49a58,58,0,0,0,.23,18.86,63.79,63.79,0,0,0,6.24,17.59c5.71,10.93,14,19.49,22.79,26.7,17.81,14.28,38.14,23.41,58.85,30a280,280,0,0,0,63.71,12c43,3.14,87.06-2.65,127.47-19.65a252.34,252.34,0,0,0,56-33.4,276.66,276.66,0,0,0,46.34-45.57,194.06,194.06,0,0,0,18.5-27.47c5.35-9.86,10.08-20.43,12.1-32.83a49.65,49.65,0,0,0-.59-20.07,32.17,32.17,0,0,0-1.78-5.28l-1.17-2.6c-.46-.9-1.12-1.88-1.7-2.8a27.3,27.3,0,0,0-9.61-8.72c-7.34-4-14.05-4.58-20.12-4.94a105.79,105.79,0,0,0-17.32.86c-22,2.73-42.09,8.2-62.35,13.41-20.14,5.48-40.14,11-60.25,16.06s-40.29,9.76-60.63,13.86c-20.37,3.86-40.85,7.22-61.44,9.74a1087,1087,0,0,1-124.12,8.05,965.79,965.79,0,0,1-124-6.66h0a10.81,10.81,0,1,0-1.33,21.55c42,.14,83.93-.26,125.74-2.29,20.89-1.13,41.78-2.19,62.61-4.11,10.42-.79,20.83-1.83,31.24-2.78,10.38-1.18,20.79-2.15,31.15-3.54,41.49-5,83-10.56,124.26-18,20.61-3.69,41.13-7.82,61.53-11.87,10.19-2.07,20.31-4.26,30.39-6.15s20.07-3.84,29.74-4.82a99.2,99.2,0,0,1,13.86-.58c4.25.15,8.21.92,10,2.06,2.65.53,5,8,3.51,16.12-1.27,8.22-4.95,17.08-9.53,25.44a170.41,170.41,0,0,1-16.33,24.3,254.07,254.07,0,0,1-42.47,41.91,230.39,230.39,0,0,1-50.94,30.57c-36.46,15.48-77.25,20.91-117.2,18.44a259.13,259.13,0,0,1-58.91-10.52c-19-5.76-37.32-14-52.16-25.78-14.86-11.59-25.11-27.63-22.33-44.11,1.22-8.3,5-16.85,10-25.13a277.69,277.69,0,0,1,17.31-24.63c12.48-16.41,26.17-33.15,35.85-53.46a98.86,98.86,0,0,0,9.44-32.93,82.85,82.85,0,0,0-3.93-34.51,102.86,102.86,0,0,0-16-30,148,148,0,0,0-22.92-23.89c-16.74-14.08-35.44-25.07-55-33.91a215.35,215.35,0,0,0-30.48-11.2c-2.69-.73-5.39-1.4-8.34-1.91a39.55,39.55,0,0,0-4.86-.58,14.61,14.61,0,0,0-1.52,0,17.25,17.25,0,0,0-1.94.14,10.74,10.74,0,0,0-1.41.29,8.93,8.93,0,0,0-2.06.78,8.61,8.61,0,0,0-3.11,2.6,8.9,8.9,0,0,0-1.73,5,10,10,0,0,0,.47,3.07,14.57,14.57,0,0,0,.71,1.68,15.2,15.2,0,0,0,1.15,1.81,24.59,24.59,0,0,0,1.89,2.24c1.17,1.22,2.26,2.22,3.34,3.17,2.16,1.91,4.29,3.6,6.43,5.26,17.07,13,34.49,24.26,52,35.74,35,22.74,70.45,44.73,105.94,66.59s71.09,43.51,106.83,64.93c71.48,42.81,143,85.62,215,127.39a3.34,3.34,0,0,0,3.44-5.73Z" transform="translate(-430.31 -345.23)"/><path class="f1073b79-f0b5-4fa2-8fac-f634ef4860af" d="M1150.94,3292.58s102.88,46.76,104.56,54.23-66.16-2.51-93.86-1.43-50.48-7.11-48-18.84,12.2-41.24,12.2-41.24Z" transform="translate(-430.31 -345.23)"/><path class="b2c6d55d-55ec-445c-854a-bdcaee9ddb25" d="M1154.7,3254.64l-6.26,46.32s-16.28,5.79-27.23-1.06l-4.66-50.8Z" transform="translate(-430.31 -345.23)"/><path class="e34513cd-d215-41a9-ac96-a1f3a50836de" d="M670.2,3255.75l-12,19.21a23,23,0,0,0-2.74,18c4.19,16,12.55,47.11,16.19,55.23,5,11.06,71.54,17.62,71.54,17.62s5.94-8.35-7.89-18.44-22.7-11.68-27.58-26.57-8.14-57-8.14-57Z" transform="translate(-430.31 -345.23)"/><path class="f563ad99-69d5-47ea-a37f-130683ef6979" d="M720,3206.93c-4.37,3.48-25.76,68.39-25.76,68.39s-6.92,8.85-20.07-4.22-5.95-5.85-5.95-5.85l2.47-63.84Z" transform="translate(-430.31 -345.23)"/><path class="bcd46f80-7fef-4cec-9339-ff81ccb1f86c" d="M1211.31,2324c5.42,138.18,5.65,288.3-2.3,448.67-9,180.59-26.94,347.51-49.61,498.81-8.43.27-17.29.32-26.54.06q-9.36-.27-18.15-.89a1149.36,1149.36,0,0,1-38.12-121.91A1171.61,1171.61,0,0,1,1050,3006c-19.82-156.5,3.4-170.15-12.68-286.14-14.24-102.72-34.49-106.73-58.26-252.56-25.79-158.24-6.59-182,2.75-190.56C1021.54,2240.24,1114.91,2265.1,1211.31,2324Z" transform="translate(-430.31 -345.23)"/><path class="fbce1ea2-200d-432f-9d5b-4d6efe745a70" d="M981.79,2276.75c37.91-34.82,124.61-13.74,216.19,39.41-105.35,113.82-116.83,187.66-104.21,235.56,14.28,54.15,57.67,69.75,57.51,129-.2,72.76-65.87,92-64.48,169,.93,50.91,29.78,50.39,36.6,113.27,8.06,74.4-29.64,100-17.43,155.09,5.26,23.68,20.25,54.63,63,86.51-3.08,22.6-6.24,45-9.53,66.93-8.42.27-17.28.32-26.53.05q-9.36-.26-18.15-.88a1149.36,1149.36,0,0,1-38.12-121.91A1171.61,1171.61,0,0,1,1050,3006c-19.81-156.5,3.4-170.15-12.68-286.14-14.24-102.72-34.49-106.73-58.26-252.57C953.25,2309.06,972.45,2285.32,981.79,2276.75Z" transform="translate(-430.31 -345.23)"/><path class="a70c919f-296f-4720-9261-1d25a74fd9ab" d="M1146.05,2321.71a3102.48,3102.48,0,0,0-425.34,910.37,55.46,55.46,0,0,1-30.36,4.7c-19.59-2.59-31.33-15.09-34.4-18.58a893.82,893.82,0,0,1-7.89-220.32c3.11-35.08,8.63-93.49,31-165.6C704.09,2751.5,721.3,2747,754,2661.51c33.91-88.71,25.7-110.84,58.18-221.85A1464.43,1464.43,0,0,1,884.67,2245Z" transform="translate(-430.31 -345.23)"/><path class="be029479-e263-48d3-97cb-672e864636ee" d="M1564.85,2490.15c-17.45,27.13-77.49,24-118.5,9.3-95.87-34.29-157.24-156.22-162.64-253.26-1.16-20.83-.42-41.2-4.64-41.82-10.62-1.56-37.9,124.41-59.31,231.21-17.21,6.3-43.31,13-73.13,8.1-48.8-8-54.61-38.31-109.2-58.08C1005.58,2374.06,974.38,2374,912,2374c-70.46-.06-72.4,8.63-86,2.33-25.11-11.67-54.69-58.25,94.69-636.89,9.82-38,26.37-98.85,72.62-116.55,37.88-14.5,86.58,12.48,182.43,67,47.9,27.26,101.42,58.11,164.22,113,42.78,37.36,72.56,63.37,97.1,99.47,98.94,145.57-15.41,266.9,74.35,453.07C1542.27,2419.41,1583.12,2461.74,1564.85,2490.15Z" transform="translate(-430.31 -345.23)"/><path class="feda926f-b32b-475b-a00b-6854f9f7f866" d="M935.2,2297.31c28-14.59,20.95-45.23,45.31-62.73,36.31-26.1,80.61,21.47,129,13.94,105.48-16.44,116.16-277.53,184.71-278.81,32.26-.61,63.36,56.69,73.19,101.07,17.18,77.64-48.62,112.28-38.34,209.1,1.85,17.37,3.79,14.58,48.79,142.89,6,17.08,11.48,32.87,16.44,47.24-65.59-51.7-106.19-145.77-110.54-223.82-1.16-20.83-.42-41.2-4.64-41.82-10.62-1.56-37.9,124.41-59.31,231.21-17.21,6.3-43.31,13-73.13,8.1-48.8-8-54.61-38.31-109.2-58.08C1005.58,2374.06,974.38,2374,912,2374c-70.46-.06-72.4,8.63-86,2.33-10.28-4.78-21.28-15.46-20.48-66,20.71-12.88,38.49-16.6,53-16.48C888.29,2294.08,910.05,2310.4,935.2,2297.31Z" transform="translate(-430.31 -345.23)"/><path class="a9413c2a-1595-46bc-94de-de249455ae5e" d="M1298.82,1663.66s-25.76,29.25-53.44,44.41c-25,13.7-80.18-9.38-92.94-12.09s2.55,31.66,26.63,55.34,103.65,77.85,125.12,78.75-3.46-17.89-16.64-39.77,5.4-67.14,22-81.09S1298.82,1663.66,1298.82,1663.66Z" transform="translate(-430.31 -345.23)"/><path class="e32a3e07-8d78-406d-b245-2ac45ee066fc" d="M539.88,1801.66,961.62,2083c12,8,30.35,1.38,41.1-14.73h0c10.74-16.1,9.76-35.62-2.19-43.59L578.79,1743.33c-11.95-8-30.35-1.38-41.09,14.73h0C527,1774.16,527.93,1793.68,539.88,1801.66Z" transform="translate(-430.31 -345.23)"/><path class="e32a3e07-8d78-406d-b245-2ac45ee066fc" d="M472.51,1616.17H583.08a3.68,3.68,0,0,1,3.68,3.68v78.35a3.68,3.68,0,0,1-3.68,3.68H472.51a0,0,0,0,1,0,0v-85.71a0,0,0,0,1,0,0Z" transform="translate(-380.73 2987.85) rotate(-146.29)"/><path class="adfb9280-248a-417f-a05d-4eca1185e9bc" d="M2180.77,2782.54l39.32,26.23c4.43,2.95,11.24.51,15.21-5.45h0c4-6,3.62-13.19-.81-16.14L2195.17,2761Z" transform="translate(-430.31 -345.23)"/><path class="e32a3e07-8d78-406d-b245-2ac45ee066fc" d="M2210.68,2786.89h0c-7.3,10.93-19.28,16.55-28.7,13.46l-194.37-63.84,90.87-136.22,133.6,154.94C2218.55,2762.73,2218,2776,2210.68,2786.89Z" transform="translate(-430.31 -345.23)"/><path class="ba7b590b-eb69-430c-adb7-adb67fdff4e7" d="M2206.23,2770.25h0c-2,3-9.42,1.77-17.77-2.92L2028.6,2651.76l24.89-37.31L2196.71,2755C2204.25,2760.87,2208.23,2767.26,2206.23,2770.25Z" transform="translate(-430.31 -345.23)"/><path class="b7b83deb-1cd1-4252-9e9a-f34743f97261" d="M525.36,1757.44l1466.22,981.71c27.91,18.62,118.78-117.6,90.87-136.22L616.23,1621.22c-16.65-11.11-42.29-1.92-57.26,20.52l-36.66,55C507.34,1719.14,508.71,1746.33,525.36,1757.44Z" transform="translate(-430.31 -345.23)"/><polygon class="ba7b590b-eb69-430c-adb7-adb67fdff4e7" points="467.33 1546.54 1619.6 2318.82 1641.01 2286.72 488.75 1514.43 467.33 1546.54"/><rect class="a68ee2a3-f1de-4a1a-b847-e9e216c669cd" x="879.26" y="1818.68" width="16.15" height="164.4" transform="translate(140.48 3629.41) rotate(-146.3)"/><rect class="ba7b590b-eb69-430c-adb7-adb67fdff4e7" x="571.36" y="1613.29" width="16.15" height="164.4" transform="translate(-309.69 3082.28) rotate(-146.29)"/><path class="a7593ba1-e434-42ff-b12b-17879e1b1703" d="M616.23,1621.22,1318.08,2093c27.08,146.19,77.68,192.83,124.81,204.06,32.72,7.79,83.37,3.2,134.31,43.06,49.19,38.49,35.59,69.08,79.6,93.57,65.24,36.3,124-14.86,162.87,29.53,20.88,23.87,5.7,40.75,26.08,88.63,7.55,17.76,39,91.7,116.77,103.75,45.22,7,89.63-9.49,123.52-28.27-10.78,44.15-72.35,126.53-94.46,111.78L525.36,1757.44c-16.65-11.11-18-38.3-3.05-60.74l36.66-55C573.94,1619.3,599.58,1610.11,616.23,1621.22Z" transform="translate(-430.31 -345.23)"/><path class="f7aace9e-6cde-4d27-8eb7-b2435d91467d" d="M1556.73,2448.19s37,17.68,63.21,21.38,31.89,24.63,24.62,32.32-49-.73-62.9-8.58S1556.73,2448.19,1556.73,2448.19Z" transform="translate(-430.31 -345.23)"/><path class="f9a1729d-fa47-4c03-879a-42f7077740a6" d="M802.75,2014.73s29-4.35,43.23,9.59,51,34,67.43,27l-58.07-39.13-52.59-18.41Z" transform="translate(-430.31 -345.23)"/><path class="be029479-e263-48d3-97cb-672e864636ee" d="M816.71,2032.44c-21.17-.72-107.52-6.06-171.94-74.35C579.54,1888.94,554.49,1774,603,1695.54c38.7-62.65,110-78.88,183-95.51,95.22-21.69,170-5.21,199.88,2.88,50.84,13.77,129.39,35.06,137.82,82.08,9.31,52-68.32,128.26-143.91,132-76.29,3.76-117.11-68-186.11-46.23-4.68,1.49-37.8,12.45-53.37,41.83-24.56,46.37,3.26,122.3,75.81,183.14Q816.38,2014.08,816.71,2032.44Z" transform="translate(-430.31 -345.23)"/><path class="a7321a46-5f65-4482-91f2-0e65f2952507" d="M1336.91,1687.53c22.57.51,24.28,4.36,34.95,2,24.3-5.32,45.63-31.93,40.6-43.4-3.24-7.4-14.85-2.58-39.87-9.52-30.66-8.52-33.32-21.33-57.4-23.45-5.64-.49-31-2.71-42.28,11.55-14.4,18.2,0,55.81,21.74,64C1305,1692.59,1309.11,1686.9,1336.91,1687.53Z" transform="translate(-430.31 -345.23)"/><path class="ab8b0093-c5b1-4cb2-a476-62058508da2a" d="M1283.29,1692s.94,27.94,27.09,40.54c23.42,11.29,55.33-37.5,47-56.39-2.79-6.3-11.59-13.24-20.67-15.47-5.36-1.31-8-.27-16.73-2.59-8-2.15-9.59-4-12.71-3.46-3.91.74-8.93,5.11-12.87,22.41-1.85-6.79-6.07-11.39-10.72-11.73a9,9,0,0,0-4.66,1.23C1272.57,1670.52,1273.68,1680.89,1283.29,1692Z" transform="translate(-430.31 -345.23)"/><path class="b74415fc-f529-4cff-83d1-335b5b09b50e" d="M2803,1713.47c0,141.76-110.85,253.27-252.53,248.92-147.44-4.52-271.44-131.86-271.44-284.25s124-263,271.44-247.65C2692.19,1445.25,2803,1571.71,2803,1713.47Z" transform="translate(-430.31 -345.23)"/><path class="e51de035-e9cf-49bc-8879-c141aed1b4a2" d="M2841.32,1701.25c0,141.76-110.85,253.27-252.52,248.92-147.45-4.53-271.45-131.87-271.45-284.25s124-263,271.45-247.65C2730.47,1433,2841.32,1559.49,2841.32,1701.25Z" transform="translate(-430.31 -345.23)"/><path class="a71f5ecb-e5d3-484d-b14f-706627ee1e4d" d="M2830.2,1700.5c0,135.51-106.06,241.94-241.4,237.56-140.6-4.56-258.64-126.08-258.64-271.28s118-250.8,258.64-236.39C2724.14,1444.25,2830.2,1565,2830.2,1700.5Z" transform="translate(-430.31 -345.23)"/><path class="ae57f798-a01a-4cac-8d7c-86811f8c9583" d="M2822.24,1700c0,131-102.63,233.83-233.44,229.44-135.72-4.55-249.52-121.93-249.52-262s113.8-242.1,249.52-228.36C2719.61,1452.29,2822.24,1568.91,2822.24,1700Z" transform="translate(-430.31 -345.23)"/><path class="f6bcb84e-59ee-480d-8516-7364e6fd2f88" d="M2587.46,1483.62h0a14.26,14.26,0,0,1,12.59,14v24.13a354,354,0,0,1,41.82,7.25q15.43,3.63,30.67,8.64a14.11,14.11,0,0,1,9.61,14.48l-3,30.25a11.34,11.34,0,0,1-16.19,9.41,175.65,175.65,0,0,0-20.57-7.66,186.58,186.58,0,0,0-38.81-7.25l-3.56-.3v69.1c36.32,10.16,63,23.83,80.22,41s25.7,38.43,25.7,64q0,41.52-28.42,66.56-28.61,25.21-80.39,28.31v26.63a12.11,12.11,0,0,1-12.61,12.3h-.22a13.39,13.39,0,0,1-12.65-13.36v-26.27l-5.61-.25a368.4,368.4,0,0,1-46.57-5,301.25,301.25,0,0,1-32.19-7.4,13.87,13.87,0,0,1-10.09-14.34l3.48-38.89c.76-8.41,9.2-13.3,17.2-10.15a250.12,250.12,0,0,0,28.3,9.29,246.93,246.93,0,0,0,45.25,7.56l.23-76.86q-52.29-12.93-78.1-38.32t-25.87-65.21q0-41.07,28.05-63.34c18.57-14.76,45-22.1,79.06-22.08v-24.66A11.39,11.39,0,0,1,2587.46,1483.62Zm-12.64,92.24q-16.17,1.17-25.19,8.88t-9,20.74a27.83,27.83,0,0,0,8.36,20.61q8.36,8.27,25.87,13.2ZM2597.16,1715v70.49q17.57,0,27-8.38t9.38-23.73q0-14-8.72-23.2T2597.16,1715Z" transform="translate(-430.31 -345.23)"/><path class="b0e08b9f-2532-434c-b986-61e5de5d4d6c" d="M2546.55,1732.05c7.89-77.9,79.48-110.87,70.14-182.53-5.76-44.16-39.23-81.38-76.57-110.44-113.26,11.88-200.84,105.66-200.84,228.32,0,140.07,113.8,257.45,249.52,262a235.91,235.91,0,0,0,38.56-1.88C2573.46,1873.89,2539.78,1799,2546.55,1732.05Z" transform="translate(-430.31 -345.23)"/><path class="a45681e4-26c2-4180-aa29-6c0c7deed74f" d="M3110.16,1012.24c0,198.69-155.37,355-353.95,348.9-206.65-6.35-380.46-184.83-380.46-398.41s173.81-368.63,380.46-347.11C2954.79,636.29,3110.16,813.54,3110.16,1012.24Z" transform="translate(-430.31 -345.23)"/><path class="b91659c9-ad99-4265-bb96-7437aba1b182" d="M3163.82,995.11c0,198.69-155.37,355-354,348.89-206.66-6.34-380.46-184.82-380.46-398.41S2603.21,577,2809.87,598.48C3008.45,619.16,3163.82,796.41,3163.82,995.11Z" transform="translate(-430.31 -345.23)"/><path class="ad851e37-ba73-42f5-9c77-9387baf14daa" d="M3148.23,994.05c0,190-148.66,339.12-338.36,333-197.06-6.38-362.51-176.71-362.51-380.22s165.45-351.53,362.51-331.34C2999.57,634.9,3148.23,804.11,3148.23,994.05Z" transform="translate(-430.31 -345.23)"/><path class="ebd0c52d-5168-4030-98a6-5d127adaa571" d="M3137.07,993.3c0,183.68-143.85,327.75-327.2,321.59-190.21-6.38-349.73-170.89-349.73-367.22s159.52-339.34,349.73-320.08C2993.22,646.16,3137.07,809.62,3137.07,993.3Z" transform="translate(-430.31 -345.23)"/><path class="e8ab02fa-85c6-41eb-bc2a-00b78f14d248" d="M2808,690.08h0a20,20,0,0,1,17.65,19.62v33.82a496.9,496.9,0,0,1,58.61,10.17q21.64,5.09,43,12.1a19.76,19.76,0,0,1,13.47,20.3l-4.16,42.4a15.89,15.89,0,0,1-22.69,13.19A244.58,244.58,0,0,0,2885,830.94a262.09,262.09,0,0,0-54.39-10.17l-5-.41v96.85c50.9,14.24,88.28,33.4,112.43,57.5s36,53.86,36,89.74q0,58.2-39.83,93.3-40.09,35.32-112.68,39.67v37.33a17,17,0,0,1-17.67,17.24h-.31a18.77,18.77,0,0,1-17.73-18.72v-36.82l-7.86-.35a517.11,517.11,0,0,1-65.28-7,424.43,424.43,0,0,1-45.11-10.38,19.44,19.44,0,0,1-14.15-20.09l4.89-54.52c1.05-11.78,12.89-18.64,24.1-14.22a356.28,356.28,0,0,0,39.67,13,348,348,0,0,0,63.43,10.59l.31-107.73c-48.85-12.09-85.43-30-109.46-53.71s-36.26-54.33-36.26-91.41q0-57.56,39.31-88.77,39.06-31,110.81-30.95V706.4C2790.28,696.46,2798.22,689.15,2808,690.08Zm-17.72,129.28q-22.65,1.65-35.3,12.45t-12.67,29.07q0,17.28,11.72,28.89t36.25,18.49Zm31.31,195.08v98.8q24.63,0,37.79-11.75t13.15-33.25q0-19.6-12.22-32.52T2821.59,1014.44Z" transform="translate(-430.31 -345.23)"/><path class="ae6ffb6a-17e2-4124-b0ca-6c21e2cbc2c1" d="M2750.66,1038.28c11.06-109.18,111.4-155.4,98.31-255.83-8.07-61.9-55-114.07-107.33-154.8-158.74,16.65-281.5,148.09-281.5,320,0,196.33,159.52,360.84,349.73,367.22a331.2,331.2,0,0,0,54.05-2.63C2788.38,1237.08,2741.17,1132.08,2750.66,1038.28Z" transform="translate(-430.31 -345.23)"/></g></g></svg>