<svg width="32" height="32" viewBox="0 0 32 32" fill="none" xmlns="http://www.w3.org/2000/svg">
<path d="M16.0003 0C10.768 0 6.48001 4.2752 6.48001 9.49312C6.48001 11.5149 7.12577 13.3939 8.21857 14.9382L14.8384 26.3824C15.7655 27.5936 16.3818 27.3635 17.1527 26.3184L24.4544 13.8928C24.6016 13.6259 24.7175 13.3418 24.8183 13.0515C25.2816 11.9224 25.5199 10.7136 25.5197 9.49312C25.52 4.2752 21.2333 0 16.0003 0ZM16.0003 4.448C18.8183 4.448 21.0589 6.68352 21.0589 9.49312C21.0589 12.3027 18.8183 14.5373 16.0003 14.5373C13.1827 14.5373 10.9411 12.303 10.9411 9.49312C10.9411 6.68352 13.1827 4.44832 16.0003 4.44832V4.448Z" fill="#5F3FFF"/>
<path d="M22.0522 15.6506L22.0368 15.6909C22.0416 15.6787 22.0455 15.6663 22.0503 15.6541L22.0522 15.6506V15.6506ZM10.8819 22.0983C6.36161 22.737 3.20001 24.265 3.20001 26.5143C3.20001 29.544 8.48257 32 16 32C23.5175 32 28.8 29.544 28.8 26.5143C28.8 24.265 25.6387 22.737 21.1187 22.0983L20.4925 23.1645C23.8992 23.6371 26.24 24.6304 26.24 25.7831C26.24 27.3991 21.6554 28.7088 16 28.7088C10.3447 28.7088 5.76001 27.3991 5.76001 25.7831C5.75969 24.6343 8.08513 23.6419 11.5024 23.1674C11.296 22.8109 11.0883 22.4551 10.8816 22.0983H10.8819Z" fill="#5F3FFF"/>
</svg>
