<svg width="150" height="150" viewBox="0 0 150 150" fill="none" xmlns="http://www.w3.org/2000/svg">
<circle cx="75" cy="75" r="75" fill="#00BB07"/>
<path d="M117.857 75.0002L108.35 63.6125L109.675 48.5512L95.6101 45.2043L88.2465 32.1431L74.9997 38.1023L61.753 32.1431L54.3893 45.1635L40.3244 48.4696L41.6491 63.5716L32.1426 75.0002L41.6491 86.388L40.3244 101.49L54.3893 104.837L61.753 117.857L74.9997 111.857L88.2465 117.817L95.6101 104.796L109.675 101.449L108.35 86.388L117.857 75.0002ZM67.5582 94.2655L52.753 78.7145L58.5192 72.6737L67.5582 82.1839L90.3504 58.2247L96.1166 64.2655L67.5582 94.2655Z" fill="white"/>
</svg>
