<svg width="15" height="15" viewBox="0 0 15 15" fill="none" xmlns="http://www.w3.org/2000/svg">
<path d="M6.79648 6.29629C6.79648 6.29629 6.73438 6.11699 6.59961 6.05488C6.46602 5.99277 6.24219 5.9834 6.24219 5.9834L5.86719 10.4189L6.17187 12.608C6.17187 12.608 6.26094 12.867 6.49414 12.8764C6.72617 12.8857 8.65859 12.8764 8.82852 12.8764C8.99844 12.8764 9.05234 12.6525 9.06055 12.5541C9.06992 12.4557 9.06641 12.2904 9.06641 12.2904L9.89141 12.2869C9.89141 12.2869 9.93945 12.6385 9.85977 12.86C9.79063 13.0521 9.72852 13.2057 9.72969 13.2713C9.73086 13.365 9.85508 13.4588 9.99805 13.4506C10.141 13.4412 10.3555 13.2537 10.4984 13.1377C10.6414 13.0217 12.9336 13.0486 12.9336 13.0486C12.9336 13.0486 13.0438 13.2525 13.1668 13.3756C13.2406 13.4494 13.3602 13.4857 13.468 13.4857C13.5758 13.4857 13.7094 13.3428 13.6824 13.2443C13.6555 13.1459 13.5336 12.9197 13.5125 12.6994C13.5031 12.5998 13.5148 12.3221 13.5641 12.2764C13.5758 12.2658 13.7539 12.2717 13.9203 12.2541C14.2039 12.2248 14.4875 11.858 14.5227 11.5721C14.559 11.2861 14.532 10.3826 14.532 10.3826L6.79648 6.29629Z" fill="#B3AFAF"/>
<path d="M6.09766 11.2627H14.5387C14.5387 11.2627 14.5586 11.4994 14.5176 11.6518C14.4958 11.7326 14.4588 11.8086 14.4086 11.8756L6.1457 11.8744L6.09766 11.2627Z" fill="#9A9A9A"/>
<path d="M3.1332 10.8795L1.34609 11.4326L0.453125 11.1244C0.453125 11.1244 0.484766 9.44395 0.495312 9.27403C0.505859 9.10411 0.548047 8.95528 0.708594 8.84864C0.867969 8.742 1.31445 8.47598 1.31445 8.47598C1.31445 8.47598 2.68672 6.27403 2.80391 6.11465C2.92109 5.95528 3.06523 5.76075 3.40625 5.72911C3.74727 5.69746 5.85195 5.72325 6.04297 5.73379C6.23399 5.74434 6.37695 5.83106 6.37695 6.2459C6.37695 6.66075 6.36641 9.82715 6.35586 9.98653C6.34531 10.1459 5.54727 10.7307 5.54727 10.7307L3.1332 10.8795Z" fill="#E0E0E0"/>
<path d="M5.73481 12.8938C5.73481 12.8938 5.90591 12.8984 6.02427 12.882C6.14263 12.8656 6.32075 12.7473 6.32896 12.4672C6.33364 12.3008 6.35591 9.98633 6.35591 9.98633L3.16841 9.99336L2.13716 11.1219L0.453174 11.1242C0.453174 11.1242 0.446143 11.7863 0.45083 11.9633C0.455518 12.1414 1.37192 12.5293 1.37192 12.5293L5.73481 12.8938Z" fill="#DC0D28"/>
<path d="M0.453685 11.9637H2.37322C2.37322 11.9637 2.78454 11.1433 3.96697 11.1574C5.70369 11.1785 5.73884 12.893 5.73884 12.893H1.2154C0.961107 12.893 0.597826 12.8086 0.505248 12.4875C0.426732 12.218 0.453685 11.9637 0.453685 11.9637Z" fill="#B10A1B"/>
<path d="M1.62804 8.93677C1.62804 8.93677 1.62804 8.74575 1.50265 8.73872C1.37726 8.73169 1.23898 8.8102 1.11359 8.91684C0.981166 9.02934 0.915541 9.1313 0.88976 9.22036C0.849916 9.35278 0.882729 9.47114 1.08781 9.477C1.33859 9.4852 5.32062 9.45942 5.5046 9.44419C5.73546 9.42427 5.87374 9.32583 5.86671 9.15356C5.86085 8.98833 5.74132 8.93559 5.24679 8.92973C4.75226 8.92387 1.62804 8.93677 1.62804 8.93677Z" fill="white"/>
<path d="M0.492578 9.49595C0.492578 9.49595 1.68906 9.45845 1.71484 9.48775C1.75117 9.53111 1.7582 10.096 1.74531 10.1815C1.73242 10.267 1.61992 10.3268 1.48164 10.3327C1.34336 10.3385 0.472656 10.3526 0.472656 10.3526L0.492578 9.49595Z" fill="#FDEDC5"/>
<path d="M5.41907 8.73182C5.60423 8.73182 5.66986 8.52088 5.66986 8.37557V6.5369C5.66986 6.39159 5.57728 6.31307 5.28782 6.29901C4.9972 6.28612 3.67298 6.30135 3.52767 6.30604C3.30384 6.31307 3.1515 6.41151 2.94759 6.6951C2.81517 6.87909 1.99837 8.23143 1.93275 8.34276C1.86712 8.45526 1.78743 8.75174 2.13079 8.7576C2.48587 8.76463 5.41907 8.73182 5.41907 8.73182Z" fill="#5F6369"/>
<path d="M2.30078 8.42254H5.25391C5.31367 8.42254 5.36641 8.35691 5.36641 8.27722C5.36641 8.19754 5.37109 6.95301 5.37344 6.87918C5.38047 6.67527 5.22812 6.6284 5.09687 6.63543C4.96445 6.64246 3.63086 6.63777 3.55234 6.64129C3.40117 6.64832 3.25117 6.85105 3.11992 7.05144C2.96172 7.29402 2.30078 8.42254 2.30078 8.42254Z" fill="#AFE3FB"/>
<path d="M2.34782 8.64023C2.36071 8.93672 2.83532 9.18047 2.95485 9.1875C3.07321 9.19453 3.14586 8.96367 3.15875 8.65312C3.17165 8.34258 3.04743 8.08594 2.94782 8.08594C2.84938 8.08594 2.33727 8.38945 2.34782 8.64023Z" fill="#5F6369"/>
<path d="M2.44942 13.0809C2.4588 13.6669 2.9252 14.5094 3.94005 14.5153C4.95489 14.5211 5.48224 13.743 5.44942 12.945C5.41661 12.134 4.78731 11.561 3.88145 11.5868C3.03419 11.6126 2.43653 12.2711 2.44942 13.0809Z" fill="#4E433D"/>
<path d="M3.17586 13.0462C3.18055 13.3544 3.42547 13.7997 3.95985 13.8032C4.49422 13.8068 4.75203 13.42 4.73563 12.9993C4.71805 12.5716 4.37703 12.2528 3.92938 12.2599C3.48407 12.2657 3.17 12.6185 3.17586 13.0462Z" fill="#C8C8C8"/>
<path d="M10.1838 13.0809C10.1932 13.6669 10.6596 14.5094 11.6744 14.5153C12.6893 14.5211 13.2166 13.743 13.1838 12.945C13.151 12.134 12.5217 11.561 11.6158 11.5868C10.7686 11.6126 10.1709 12.2711 10.1838 13.0809Z" fill="#4E433D"/>
<path d="M10.9102 13.0462C10.9149 13.3544 11.1598 13.7997 11.6942 13.8032C12.2274 13.8068 12.4864 13.42 12.47 12.9993C12.4524 12.5716 12.1114 12.2528 11.6638 12.2599C11.2184 12.2657 10.9044 12.6185 10.9102 13.0462Z" fill="#C8C8C8"/>
<path d="M6.66523 3.35391C6.66523 3.04688 6.8 2.92383 7.04609 2.93672C7.29219 2.94844 14.0363 2.91211 14.2566 2.91211C14.477 2.91211 14.5637 3.14531 14.5637 3.28008C14.5637 3.41484 14.5215 10.2516 14.5309 10.384C14.5391 10.5164 14.5027 10.7004 14.2695 10.725C14.0363 10.7496 7.11992 10.7367 6.97227 10.725C6.82461 10.7133 6.64062 10.5902 6.64062 10.418C6.64062 10.2445 6.66523 3.51328 6.66523 3.35391Z" fill="#D16E1D"/>
<path d="M7.27969 3.62305C7.27969 3.78242 7.23047 9.75312 7.23047 9.90078C7.23047 10.0484 7.3043 10.2207 7.50117 10.2207C7.69805 10.2207 13.7414 10.2324 13.8645 10.2207C13.9875 10.209 14.0613 10.1352 14.073 9.93828C14.0848 9.74141 14.0848 3.74727 14.0848 3.55039C14.0848 3.35352 13.8879 3.3418 13.6793 3.3418C13.4707 3.3418 7.56211 3.35352 7.47539 3.36641C7.38984 3.37695 7.27969 3.46367 7.27969 3.62305Z" fill="#F5B03A"/>
<path d="M8.72599 10.4297C8.71896 8.26758 8.70372 3.225 8.72833 3.08789L8.90177 3.11953L9.07638 3.14062C9.05997 3.33398 9.06817 7.6043 9.07755 10.4285L8.72599 10.4297ZM10.519 3.10781H10.8705V10.4414H10.519V3.10781ZM12.2932 3.11367H12.6447V10.4109H12.2932V3.11367Z" fill="#D16E1D"/>
</svg>
