<svg width="265" height="171" viewBox="0 0 265 171" fill="none" xmlns="http://www.w3.org/2000/svg">
<path d="M227.805 130.024H243.529L252.531 85.1593L238.133 78.5446L227.805 130.024Z" fill="#DBDBDB"/>
<path d="M182.803 130.024H227.805L238.133 78.5446H193.127L182.803 130.024Z" fill="#EBEBEB"/>
<path d="M235.879 155.394H259.977V105.952H235.879V155.394Z" fill="#DBDBDB"/>
<path d="M171.237 155.398H177.822L187.63 105.956H171.237V155.398Z" fill="#DBDBDB"/>
<path d="M222.637 155.394H235.879V105.952H222.637V155.394Z" fill="#EBEBEB"/>
<path d="M157.995 155.394H171.237V105.952H157.995V155.394Z" fill="#EBEBEB"/>
<path d="M171.237 155.398H222.637V130.024H171.237V155.398Z" fill="#EBEBEB"/>
<path d="M171.237 130.128H222.637V119.056H171.237V130.128Z" fill="#EBEBEB"/>
<path d="M232.637 105.956L227.647 105.864L222.658 105.802H222.509V105.956L222.43 111.743L222.409 117.531C222.409 121.389 222.384 125.247 222.409 129.101C222.434 132.955 222.409 136.818 222.475 140.676C222.542 144.534 222.563 148.393 222.642 152.247C222.725 148.391 222.782 144.534 222.812 140.676C222.858 136.818 222.866 132.96 222.874 129.101C222.883 125.243 222.874 121.389 222.874 117.531V111.743L222.82 105.96L222.667 106.11L227.656 106.047L232.637 105.956Z" fill="#DBDBDB"/>
<path d="M171.237 105.956C171.133 109.827 171.087 113.697 171.045 117.568L170.987 129.205L171.045 140.822L171.116 146.642L171.237 152.463L171.361 146.642L171.428 140.822L171.486 129.205L171.428 117.564C171.391 113.697 171.341 109.827 171.237 105.956Z" fill="#DBDBDB"/>
<path d="M171.237 130.037C175.519 130.141 179.806 130.191 184.088 130.228L196.939 130.286L209.786 130.228L216.214 130.161L222.637 130.037L216.214 129.916L209.786 129.846L196.939 129.787L184.088 129.846C179.806 129.875 175.519 129.92 171.237 130.037Z" fill="#DBDBDB"/>
<path d="M171.237 119.056C175.519 119.16 179.806 119.206 184.088 119.248L196.939 119.306L209.786 119.248L216.214 119.177L222.637 119.056L216.214 118.932L209.786 118.865L196.939 118.807L184.088 118.865C179.806 118.907 175.519 118.953 171.237 119.056Z" fill="#DBDBDB"/>
<path d="M250.818 155.398L251.146 159.402L251.907 168.657H255.395L256.156 159.402L256.481 155.398H250.818Z" fill="#C7C7C7"/>
<path d="M256.481 155.398H250.818L251.146 159.402H256.156L256.481 155.398Z" fill="#A6A6A6"/>
<path d="M226.429 155.398L226.753 159.402L227.514 168.657H231.003L231.763 159.402L232.092 155.398H226.429Z" fill="#C7C7C7"/>
<path d="M232.092 155.398H226.429L226.753 159.402H231.763L232.092 155.398Z" fill="#A6A6A6"/>
<path d="M185.971 155.398L186.296 159.402L187.056 168.657H190.545L191.306 159.402L191.634 155.398H185.971Z" fill="#C7C7C7"/>
<path d="M191.634 155.398H185.971L186.296 159.402H191.306L191.634 155.398Z" fill="#A6A6A6"/>
<path d="M161.574 155.398L161.899 159.402L162.659 168.657H166.148L166.909 159.402L167.237 155.398H161.574Z" fill="#C7C7C7"/>
<path d="M161.574 155.398L161.899 159.402H166.909L167.237 155.398H161.574Z" fill="#A6A6A6"/>
<path d="M13.6792 0.318787V86.6519H74.1602V0.318787H13.6792ZM72.3891 84.8849H15.4503V2.08578H72.4098L72.3891 84.8849Z" fill="#EBEBEB"/>
<path d="M72.3891 2.08582H15.4503V84.8808H72.3891V2.08582Z" fill="white"/>
<path d="M15.4503 38.1324L72.3891 38.1324V36.3613L15.4503 36.3613V38.1324Z" fill="#EBEBEB"/>
<path d="M10.4196 91.7367L77.4239 91.7367V86.6519L10.4196 86.6519V91.7367Z" fill="#DBDBDB"/>
<path d="M15.4503 2.08582H72.4098V47.5827H15.4503V2.08582ZM70.7468 3.74887H17.0884V45.9405H70.7468V3.74887Z" fill="#DBDBDB"/>
<path d="M54.0373 2.08582H53.1517V45.9405H54.0373V2.08582Z" fill="#DBDBDB"/>
<path d="M34.6835 2.08582H33.798V45.9405H34.6835V2.08582Z" fill="#DBDBDB"/>
<path d="M101.875 0.318787V86.6519H162.356V0.318787H101.875ZM160.585 84.8849H103.625V2.08578H160.585V84.8849Z" fill="#EBEBEB"/>
<path d="M160.585 2.08582H103.646V84.8808H160.585V2.08582Z" fill="white"/>
<path d="M103.646 38.1324L160.585 38.1324V36.3613L103.646 36.3613V38.1324Z" fill="#EBEBEB"/>
<path d="M98.6112 91.7367L165.616 91.7367V86.6519L98.6112 86.6519V91.7367Z" fill="#DBDBDB"/>
<path d="M103.642 2.08582H160.601V47.5827H103.642V2.08582ZM158.938 3.74887H105.284V45.9405H158.943L158.938 3.74887Z" fill="#DBDBDB"/>
<path d="M142.233 2.08582H141.347V45.9405H142.233V2.08582Z" fill="#DBDBDB"/>
<path d="M122.879 2.08582H121.994V45.9405H122.879V2.08582Z" fill="#DBDBDB"/>
<path d="M228.221 1.74902H200.644V29.3266H228.221V1.74902Z" fill="white"/>
<path d="M199.209 0.318787V30.7693H229.656V0.318787H199.209ZM228.221 29.3349H200.644V1.74901H228.221V29.3349Z" fill="#DBDBDB"/>
<path d="M226.234 23.9881V14.4547L204.739 14.4547V23.9881H226.234Z" fill="#EBEBEB"/>
<path d="M219.935 21.0487V10.0352H208.921V21.0487H219.935Z" fill="#C7C7C7"/>
<path d="M230.832 0.314636H229.656V30.7651H230.832V0.314636Z" fill="#C7C7C7"/>
<path d="M255.183 40.9097H227.606V68.4873H255.183V40.9097Z" fill="white"/>
<path d="M239.551 45.3251H232.35V66.1257H239.551V45.3251Z" fill="#C7C7C7"/>
<path d="M226.176 39.4753V69.9217H256.622V39.4753H226.176ZM255.179 68.5039H227.606V40.9097H255.179V68.5039Z" fill="#DBDBDB"/>
<path d="M246.905 49.1917H235.892V60.2053H246.905V49.1917Z" fill="#EBEBEB"/>
<path d="M257.798 39.4753H256.622V69.9258H257.798V39.4753Z" fill="#C7C7C7"/>
<path d="M4.24969 168.657C86.155 168.403 178.059 168.403 259.977 168.657C178.072 168.915 86.1882 168.915 4.24969 168.657V168.657Z" fill="#263238"/>
<path d="M230.154 118.882C230.286 116.658 230.6 114.448 231.094 112.275C231.56 110.321 232.221 108.321 233.456 106.704C234.582 105.228 236.2 104.056 238.079 103.823C239.892 103.603 241.592 104.409 242.947 105.552C244.61 106.966 245.912 108.837 247.105 110.65C248.428 112.681 249.631 114.787 250.71 116.957C250.743 117.028 250.635 117.09 250.597 117.019C249.665 115.177 248.588 113.411 247.375 111.739C246.273 110.136 245.032 108.634 243.667 107.249C242.419 106.035 240.844 104.9 239.043 104.842C237.243 104.783 235.597 105.789 234.516 107.174C233.31 108.716 232.695 110.646 232.237 112.525C231.763 114.592 231.456 116.695 231.319 118.811C230.965 123.16 230.869 127.542 230.77 131.899C230.717 134.369 230.68 136.837 230.657 139.304C230.657 140.551 230.657 141.799 230.628 143.046C230.676 144.254 230.627 145.463 230.483 146.663C230.441 146.908 230.046 146.883 230.005 146.663C229.858 145.526 229.802 144.379 229.838 143.233C229.822 142.05 229.808 140.863 229.797 139.674C229.776 137.371 229.764 135.063 229.772 132.76C229.784 128.141 229.838 123.497 230.154 118.882Z" fill="#263238"/>
<path d="M236.37 115.601C236.603 114.354 237.019 112.766 237.721 111.814C238.969 110.101 240.341 110.845 239.081 112.741C238.146 114.148 237.538 115.746 237.301 117.418C237.301 117.418 239.418 120.445 241.975 121.934C241.862 120.769 241.534 118.982 241.762 117.256C242.253 113.514 244.515 113.731 243.954 116.699C243.505 119.077 243.322 121.605 243.442 122.699C244.296 123.251 245.213 123.701 246.174 124.037C246.028 123.622 245.87 123.085 245.7 122.453C244.793 119.106 247.026 118.059 247.097 119.959C247.242 121.566 247.533 123.156 247.966 124.711C249.213 125.127 250.207 125.401 250.83 125.621C252.44 126.216 253.878 127.198 255.017 128.482C256.181 127.431 257.149 126.181 257.873 124.79C257.092 124.116 255.857 123.127 254.131 121.909C250.922 119.643 252.053 116.778 254.585 118.558C256.426 119.842 257.848 122.225 258.493 123.447C259.374 121.312 259.876 119.04 259.977 116.732C257.453 114.367 251.217 111.065 253.096 111.065C254.788 111.065 258.576 113.56 259.965 114.504C259.931 113.857 259.86 113.213 259.753 112.575C257.379 111.016 249.658 108.596 250.888 107.897C252.24 107.132 257.624 109.627 259.254 110.417C258.947 109.359 258.465 108.359 257.828 107.461C254.543 103.066 248.627 101.553 246.041 102.389C244.216 102.983 244.748 107.619 244.378 107.461C237.01 104.505 233.672 106.596 236.37 115.601ZM254.368 115.09C254.888 114.462 257.3 116.312 256.601 117.327C255.903 118.341 253.695 115.901 254.368 115.09V115.09ZM241.779 111.136C242.411 111.552 241.476 113.884 240.499 113.173C239.667 112.575 241.139 110.729 241.779 111.136V111.136Z" fill="#5A5AF6"/>
<path d="M242.74 111.855C243.072 111.199 243.417 110.55 243.796 109.918C244.144 109.295 244.55 108.706 245.01 108.159L244.694 107.773C244.652 107.723 244.727 107.648 244.773 107.702C244.893 107.839 245.01 107.985 245.13 108.118C245.154 108.131 245.172 108.154 245.18 108.18C245.637 108.725 246.061 109.282 246.469 109.843C247.191 110.006 247.903 110.212 248.602 110.458C249.321 110.7 250.036 110.949 250.735 111.244C250.809 111.277 250.772 111.398 250.701 111.365C250.007 111.057 249.304 110.762 248.585 110.533C247.866 110.305 247.213 110.118 246.506 109.93C246.731 110.246 246.951 110.567 247.163 110.891C248.46 111.3 249.721 111.814 250.934 112.429C252.206 113.032 253.429 113.735 254.655 114.441C254.667 114.451 254.674 114.465 254.676 114.48C254.678 114.494 254.675 114.51 254.667 114.522C254.659 114.535 254.647 114.544 254.632 114.548C254.618 114.553 254.602 114.552 254.589 114.545C253.389 113.846 252.154 113.207 250.888 112.633C249.708 112.08 248.485 111.627 247.296 111.099C250.294 115.776 252.09 121.177 254.493 126.174C254.531 126.245 254.414 126.307 254.385 126.232C253.653 124.482 252.805 122.773 252.007 121.048C251.288 119.501 250.589 117.946 249.87 116.396C249.662 115.942 249.454 115.493 249.225 115.04C249.354 117.535 249.304 120.083 249.712 122.553C249.714 122.562 249.715 122.572 249.713 122.581C249.711 122.591 249.707 122.599 249.701 122.607C249.695 122.615 249.688 122.621 249.679 122.625C249.671 122.629 249.661 122.631 249.652 122.631C249.642 122.631 249.633 122.629 249.624 122.625C249.615 122.621 249.608 122.615 249.602 122.607C249.596 122.599 249.592 122.591 249.59 122.581C249.589 122.572 249.589 122.562 249.591 122.553C249.417 119.884 248.947 117.252 248.963 114.566C248.963 114.566 248.963 114.566 248.963 114.533C248.456 113.514 247.912 112.504 247.325 111.527C246.332 113.864 245.288 116.238 244.831 118.749C244.831 118.824 244.689 118.79 244.71 118.711C245.388 116.196 246.012 113.676 247.226 111.348C246.59 110.288 245.884 109.271 245.114 108.305C244.781 108.928 244.353 109.515 243.974 110.109C243.596 110.704 243.243 111.273 242.898 111.872C242.161 113.137 241.534 114.463 241.022 115.834C240.997 115.909 240.873 115.872 240.906 115.797C241.505 114.487 242.087 113.148 242.74 111.855Z" fill="#263238"/>
<path d="M219.108 117.564C221.033 115.635 223.265 113.103 226.242 113.107C229.111 113.107 231.231 115.423 232.437 117.805C233.705 120.3 234.162 123.123 234.516 125.867C234.935 129.156 235.189 132.464 235.277 135.778C235.326 137.62 235.322 139.462 235.277 141.3C235.282 143.165 235.143 145.027 234.861 146.871C234.85 146.936 234.816 146.994 234.766 147.036C234.715 147.078 234.652 147.102 234.586 147.102C234.521 147.102 234.457 147.078 234.407 147.036C234.357 146.994 234.323 146.936 234.312 146.871C234.229 145.324 234.312 143.765 234.312 142.214C234.312 140.664 234.312 139.163 234.237 137.641C234.125 134.556 233.9 131.471 233.539 128.403C233.223 125.725 232.969 122.969 232.167 120.379C231.443 118.046 230.088 115.389 227.722 114.346C224.492 112.949 221.336 115.506 219.22 117.672C219.149 117.68 219.054 117.601 219.108 117.564Z" fill="#263238"/>
<path d="M209.291 121.855C209.291 122.249 209.329 122.64 209.358 123.019C210.285 122.331 211.368 121.883 212.509 121.713C215.241 121.426 215.066 123.501 213.241 123.588C211.959 123.606 210.69 123.86 209.499 124.337C209.944 127.945 210.938 130.843 211.088 130.881C213.51 130.745 215.921 130.441 218.301 129.97C217.623 128.523 216.077 126.598 216.862 126.445C217.648 126.291 218.526 127.999 218.941 129.837C220.725 129.495 222.48 129.012 224.188 128.394C222.987 127.355 221.132 126.058 221.839 125.509C222.546 124.96 224.022 126.777 224.907 128.103C225.711 127.782 226.472 127.363 227.173 126.856C225.556 124.478 221.61 123.996 222.126 122.283C222.642 120.57 226.329 122.948 227.988 126.133C229.934 124.112 230.483 121.26 230.3 118.819C228.604 118.62 225.344 118.977 225.581 117.759C225.818 116.541 228.171 116.778 230.1 117.485C229.922 116.52 229.536 115.605 228.969 114.803C227.182 112.512 221.731 115.427 221.731 115.427C221.731 115.427 222.313 109.947 220.234 109.003C219.037 108.459 216.908 108.463 214.8 109.71C215.994 109.81 217.432 110.188 218.006 111.011C218.746 112.063 217.59 112.637 216.838 112.151C216.318 111.806 215.341 110.725 213.582 110.579C212.831 111.213 212.17 111.946 211.616 112.758C211.408 113.049 211.216 113.351 211.042 113.664C212.048 113.212 213.141 112.989 214.244 113.009C215.346 113.029 216.431 113.292 217.42 113.78C219.785 114.953 218.463 117.406 216.43 116.454C214.397 115.502 212.46 114.562 210.306 115.103C209.547 117.048 209.195 119.128 209.271 121.214C210.325 120.449 211.512 119.886 212.771 119.551C215.12 118.932 215.831 120.337 213.25 120.599C211.859 120.746 210.513 121.173 209.291 121.855ZM212.152 118.084C211.99 117.323 213.657 117.102 213.931 117.722C214.164 118.25 212.31 118.844 212.152 118.084ZM226.404 122.299C226.562 121.884 227.676 122.358 227.577 122.873C227.439 123.563 226.255 122.715 226.404 122.299ZM218.538 124.969C219.37 124.644 220.617 126.665 219.731 127.126C218.846 127.588 217.873 125.235 218.538 124.969Z" fill="#5A5AF6"/>
<path d="M211.399 130.453C212.626 128.407 213.836 126.349 215.12 124.337C215.719 123.401 216.368 122.482 216.995 121.584L216.704 121.514L216.218 121.422C215.844 121.356 215.461 121.302 215.083 121.264C214.705 121.227 214.368 121.206 214.006 121.202C213.623 121.181 213.238 121.202 212.859 121.264C212.813 121.264 212.805 121.202 212.859 121.202C213.241 121.202 213.632 121.169 214.014 121.164C214.397 121.16 214.759 121.164 215.133 121.189C215.507 121.214 215.827 121.243 216.172 121.297C216.364 121.327 216.555 121.36 216.742 121.397C216.858 121.416 216.973 121.441 217.087 121.472C217.752 120.557 218.445 119.663 219.166 118.79C217.046 117.758 214.789 117.037 212.464 116.649C212.426 116.649 212.439 116.583 212.464 116.591C214.825 116.923 217.118 117.625 219.261 118.67C219.652 118.188 220.046 117.709 220.442 117.235C220.887 116.703 221.361 116.179 221.76 115.614C221.789 115.577 221.843 115.614 221.81 115.651C221.257 116.246 220.754 116.899 220.255 117.556C221.131 118.166 221.965 118.836 222.75 119.56C223.581 120.279 224.359 121.027 225.128 121.792C225.157 121.821 225.128 121.867 225.086 121.838C224.321 121.077 223.531 120.354 222.704 119.668C221.877 118.982 221.008 118.35 220.172 117.668C219.981 117.917 219.794 118.171 219.602 118.416L219.315 118.795V118.819L218.363 120.067C218.733 120.604 219.05 121.176 219.307 121.776C219.582 122.353 219.823 122.952 220.043 123.551C220.48 124.801 220.82 126.082 221.062 127.384C221.062 127.426 221.012 127.442 221.003 127.405C220.743 126.121 220.37 124.861 219.889 123.642C219.652 123.019 219.382 122.395 219.099 121.801C218.817 121.206 218.538 120.711 218.301 120.137L217.469 121.235C217.395 121.343 217.32 121.455 217.241 121.564C217.245 121.568 217.247 121.574 217.248 121.58C217.249 121.586 217.248 121.593 217.245 121.598C217.242 121.604 217.238 121.609 217.233 121.612C217.228 121.615 217.222 121.617 217.216 121.618V121.618C216.384 122.794 215.574 123.996 214.792 125.21C214.841 125.293 214.877 125.382 214.9 125.476C214.95 125.626 214.996 125.775 215.041 125.925C215.129 126.224 215.2 126.528 215.253 126.835C215.307 127.122 215.349 127.413 215.378 127.704C215.381 128.037 215.404 128.369 215.449 128.698C215.449 128.748 215.382 128.748 215.391 128.698C215.411 128.389 215.387 128.078 215.32 127.775C215.278 127.458 215.22 127.143 215.145 126.831C215.079 126.553 215.004 126.27 214.921 126C214.879 125.858 214.834 125.721 214.788 125.584C214.763 125.513 214.725 125.434 214.7 125.359C214.335 125.929 213.977 126.503 213.62 127.081C212.917 128.228 212.218 129.376 211.512 130.519C211.458 130.577 211.366 130.527 211.399 130.453Z" fill="#263238"/>
<path d="M230.283 146.189C230.317 145.029 230.499 143.861 230.624 142.709C230.749 141.558 230.882 140.389 231.007 139.229C231.244 136.997 231.377 134.714 231.901 132.523C232.292 130.616 233.243 128.868 234.632 127.505C235.352 126.787 236.295 126.337 237.306 126.228C238.325 126.197 239.325 126.506 240.149 127.106C241.088 127.797 241.897 128.648 242.54 129.621C243.232 130.584 243.855 131.596 244.403 132.648C244.403 132.689 244.361 132.714 244.34 132.677C243.306 130.92 241.935 129.385 240.307 128.157C239.582 127.564 238.699 127.195 237.767 127.097C237.311 127.091 236.859 127.175 236.436 127.344C236.013 127.513 235.627 127.764 235.302 128.083C233.95 129.259 233.165 130.993 232.699 132.685C232.146 134.702 231.967 136.818 231.693 138.884C231.526 140.131 231.373 141.341 231.21 142.568C231.048 143.794 230.944 145.042 230.687 146.243C230.677 146.294 230.648 146.34 230.606 146.371C230.563 146.401 230.511 146.414 230.459 146.408C230.408 146.401 230.36 146.374 230.328 146.333C230.295 146.293 230.279 146.241 230.283 146.189V146.189Z" fill="#263238"/>
<path d="M235.992 137.18C236.344 137.666 236.764 138.1 237.239 138.468C237.048 137.338 236.823 135.325 237.389 134.253C238.278 132.59 239.326 133.421 238.798 134.868C238.278 136.174 237.996 137.562 237.967 138.967C239.173 139.726 240.467 140.336 241.821 140.784C241.675 140.134 241.631 139.465 241.692 138.801C241.871 137.022 243.23 137.055 242.877 138.905C242.746 139.622 242.683 140.35 242.69 141.079C244.654 141.684 246.663 142.136 248.697 142.431C249.739 141.085 250.579 139.595 251.192 138.007C249.745 137.645 246.814 137.562 246.876 136.527C246.96 135.134 249.787 136.207 251.45 137.217C251.829 136.007 251.999 134.742 251.953 133.475C250.65 133.112 249.312 132.891 247.962 132.814C244.981 132.556 245.126 130.868 247.288 130.906C248.88 130.935 250.893 131.912 251.861 132.419C251.242 128.365 248.149 125.767 245.671 125.667C241.513 125.501 243.001 130.689 243.001 130.689C243.001 130.689 240.178 128.698 237.513 128.752C234.848 128.806 233.144 133.213 235.992 137.18ZM247.122 129.696C247.03 129.11 248.889 128.972 248.988 129.721C249.097 130.548 247.217 130.278 247.122 129.683V129.696ZM250.115 135.778C250.078 135.396 250.88 135.329 251.063 135.812C251.184 136.111 250.148 136.144 250.115 135.766V135.778ZM240.108 136.136C240.736 136.223 241.093 138.468 240.012 138.427C239.185 138.377 239.576 136.045 240.108 136.124V136.136Z" fill="#5A5AF6"/>
<path d="M240.977 138.618C241.081 138.335 241.172 138.053 241.259 137.766C241.18 138.057 241.106 138.348 241.056 138.639C241.043 138.693 240.956 138.672 240.977 138.618Z" fill="#263238"/>
<path d="M242.078 135.026C242.274 134.452 242.494 133.883 242.715 133.317C242.834 133.015 242.959 132.716 243.089 132.419C243.186 132.155 243.311 131.903 243.463 131.667C243.331 131.433 243.219 131.19 243.126 130.939C243.123 130.934 243.123 130.928 243.124 130.923C243.126 130.917 243.13 130.913 243.135 130.91C243.139 130.907 243.145 130.906 243.151 130.908C243.156 130.91 243.161 130.913 243.164 130.918C243.469 131.31 243.74 131.728 243.974 132.165C244.091 132.361 244.199 132.56 244.315 132.76C244.55 132.781 244.783 132.818 245.014 132.868C245.267 132.914 245.513 132.964 245.762 133.022L246.506 133.192C246.752 133.251 246.997 133.334 247.242 133.371C247.248 133.369 247.255 133.369 247.262 133.37C247.268 133.371 247.274 133.373 247.28 133.377C247.285 133.381 247.289 133.386 247.292 133.392C247.295 133.398 247.297 133.404 247.297 133.411C247.297 133.417 247.295 133.424 247.292 133.43C247.289 133.435 247.285 133.441 247.28 133.444C247.274 133.448 247.268 133.451 247.262 133.452C247.255 133.453 247.248 133.452 247.242 133.45C246.99 133.36 246.729 133.291 246.465 133.246C246.224 133.192 245.987 133.151 245.741 133.118C245.496 133.084 245.259 133.051 245.014 133.026L244.465 132.985C244.561 133.159 244.665 133.33 244.764 133.508C244.764 133.533 244.793 133.562 244.806 133.592C245.008 133.588 245.209 133.612 245.405 133.662C245.621 133.7 245.82 133.741 246.049 133.787C246.465 133.887 246.918 133.987 247.346 134.107C248.248 134.361 249.138 134.648 250.028 134.939C250.078 134.939 250.049 135.03 249.999 135.013C249.115 134.715 248.216 134.465 247.305 134.265C246.889 134.169 246.473 134.07 246.024 133.982L245.38 133.845C245.211 133.82 245.045 133.783 244.881 133.737C245.342 134.569 245.775 135.446 246.17 136.323C247.034 138.236 247.762 140.206 248.502 142.169C248.523 142.214 248.444 142.248 248.427 142.198C247.708 140.247 246.875 138.339 245.933 136.485C245.766 136.144 245.596 135.808 245.425 135.471C245.425 135.537 245.396 135.608 245.384 135.679C245.338 135.907 245.301 136.14 245.259 136.373C245.18 136.839 245.101 137.304 245.035 137.77C244.835 138.728 244.722 139.702 244.698 140.68C244.698 140.738 244.606 140.734 244.619 140.68C244.689 140.219 244.689 139.737 244.719 139.271C244.748 138.805 244.785 138.298 244.843 137.812C244.902 137.325 244.956 136.876 245.035 136.41C245.071 136.178 245.112 135.945 245.159 135.712C245.17 135.538 245.214 135.367 245.288 135.209C245.043 134.718 244.802 134.228 244.556 133.741C244.311 133.255 244.091 132.827 243.85 132.369C243.75 132.178 243.642 131.983 243.534 131.787C243.459 132.027 243.367 132.262 243.259 132.49L242.935 133.28C242.698 133.862 242.473 134.448 242.253 135.034C241.937 135.866 241.588 136.722 241.33 137.591C241.575 136.714 241.792 135.857 242.078 135.026Z" fill="#263238"/>
<path d="M241.259 137.766L241.322 137.566L241.259 137.766Z" fill="#263238"/>
<path d="M225.248 143.836L225.485 150.039L226.084 166.034H239.206L239.808 150.039L240.041 143.836H225.248Z" fill="#455A64"/>
<path d="M225.248 143.836L225.406 147.985L239.854 148.817L240.041 143.836H225.248Z" fill="#37474F"/>
<path d="M224.317 146.343H240.973V141.325H224.317V146.343Z" fill="#455A64"/>
<path d="M238.145 166.033H235.842V168.661H238.145V166.033Z" fill="#455A64"/>
<path d="M238.145 166.033H235.842V167.347H238.145V166.033Z" fill="#37474F"/>
<path d="M229.448 166.033H227.144V168.661H229.448V166.033Z" fill="#455A64"/>
<path d="M229.448 166.033H227.144V167.347H229.448V166.033Z" fill="#37474F"/>
<path d="M201.267 113.589H62.9596V155.931H201.267V113.589Z" fill="#5A5AF6"/>
<path opacity="0.4" d="M201.267 113.589H62.9596V155.931H201.267V113.589Z" fill="black"/>
<path d="M183.481 155.93L183.793 159.776L184.524 168.657H187.871L188.603 159.776L188.915 155.93H183.481Z" fill="#5A5AF6"/>
<path opacity="0.4" d="M183.481 155.93L183.793 159.776L184.524 168.657H187.871L188.603 159.776L188.915 155.93H183.481Z" fill="black"/>
<path opacity="0.4" d="M188.915 155.93H183.481L183.635 157.826L188.603 159.776L188.915 155.93Z" fill="black"/>
<path d="M75.3119 155.93L75.6237 159.776L76.3554 168.657H79.7023L80.4341 159.776L80.7459 155.93H75.3119Z" fill="#5A5AF6"/>
<path opacity="0.4" d="M75.3119 155.93L75.6237 159.776L76.3554 168.657H79.7023L80.4341 159.776L80.7459 155.93H75.3119Z" fill="black"/>
<path opacity="0.4" d="M75.3119 155.93L75.6237 159.776L80.5546 158.292L80.7459 155.93H75.3119Z" fill="black"/>
<g opacity="0.3">
<path d="M130.263 117.605H67.1837V132.731H130.263V117.605Z" fill="black"/>
<path d="M197.043 136.381H67.1837V151.507H197.043V136.381Z" fill="black"/>
<path d="M197.043 117.605H133.964V132.731H197.043V117.605Z" fill="black"/>
</g>
<path d="M74.1935 114.812H4.71534V168.657H74.1935V114.812Z" fill="#5A5AF6"/>
<path opacity="0.2" d="M74.1935 114.812H47.8798V168.657H74.1935V114.812Z" fill="black"/>
<path d="M72.3807 164.961C70.4405 161.13 68.5086 157.29 66.585 153.44L60.8766 141.844L55.243 130.203C53.3721 126.323 51.5219 122.426 49.6926 118.512C51.6328 122.34 53.5633 126.181 55.4841 130.037L61.1926 141.62L66.8261 153.261C68.6971 157.142 70.5486 161.042 72.3807 164.961Z" fill="#5A5AF6"/>
<path d="M72.3807 118.52C70.5458 122.428 68.6943 126.325 66.8261 130.211L61.1926 141.853L55.4841 153.436C53.5716 157.289 51.6411 161.129 49.6926 164.957C51.5219 161.049 53.3721 157.151 55.243 153.265L60.8766 141.624L66.585 130.037C68.4975 126.19 70.4294 122.351 72.3807 118.52Z" fill="#5A5AF6"/>
<path d="M57.0931 121.381H65.0841V114.812H57.0931V121.381Z" fill="#EBEBEB"/>
<path d="M19.3128 165.077H19.8741V157.182H19.3128V165.077Z" fill="#263238"/>
<path d="M17.9699 165.077H18.5311V157.182H17.9699V165.077Z" fill="#263238"/>
<path d="M16.6311 165.077H17.1924V157.182H16.6311V165.077Z" fill="#263238"/>
<path d="M15.284 165.077H15.8453L15.8453 157.182H15.284L15.284 165.077Z" fill="#263238"/>
<path d="M13.9411 165.077H14.5024L14.5024 157.182H13.9411L13.9411 165.077Z" fill="#263238"/>
<path d="M12.5982 165.077H13.1595L13.1595 157.182H12.5982L12.5982 165.077Z" fill="#263238"/>
<path d="M11.2553 165.077H11.8166L11.8166 157.182H11.2553L11.2553 165.077Z" fill="#263238"/>
<path d="M9.91238 165.077H10.4737L10.4737 157.182H9.91238L9.91238 165.077Z" fill="#263238"/>
<path d="M8.56946 165.077H9.13074L9.13074 157.182H8.56946L8.56946 165.077Z" fill="#263238"/>
<path d="M25.3663 164.474L23.2126 165.073H28.2683L26.1147 164.466V161.556C27.6571 161.356 28.2683 159.834 28.2683 157.174H23.2126C23.2126 159.826 23.828 161.356 25.3663 161.556V164.474Z" fill="#263238"/>
<path d="M29.4449 161.211H30.767V165.073H34.1472V161.211H35.4735L32.455 157.182L29.4449 161.211Z" fill="#263238"/>
<path opacity="0.1" d="M4.71534 168.657V164.878L47.8798 157.88V168.657H4.71534Z" fill="black"/>
<path d="M70.5888 79.9H16.9097V114.812H70.5888V79.9Z" fill="#5A5AF6"/>
<path opacity="0.2" d="M70.5846 79.9H54.1828V114.812H70.5846V79.9Z" fill="black"/>
<path d="M69.4538 113.502C68.2397 110.905 67.0368 108.297 65.8449 105.677L62.286 97.811L58.7728 89.9115C57.6087 87.27 56.4556 84.623 55.3137 81.9705C56.5277 84.5704 57.7306 87.1786 58.9225 89.7951L62.4814 97.6613L65.9946 105.561C67.1588 108.2 68.3118 110.847 69.4538 113.502Z" fill="#5A5AF6"/>
<path d="M69.4538 81.9705C68.3146 84.6286 67.1615 87.2756 65.9946 89.9115L62.4814 97.811L58.9391 105.677C57.75 108.297 56.5471 110.905 55.3303 113.502C56.4695 110.849 57.6225 108.204 58.7895 105.565L62.3026 97.6655L65.8616 89.8034C67.0396 87.1814 68.237 84.5704 69.4538 81.9705Z" fill="#5A5AF6"/>
<path d="M59.9286 84.041H64.9095V79.9H59.9286V84.041Z" fill="#EBEBEB"/>
<path d="M26.0066 112.579H26.3558V107.656H26.0066V112.579Z" fill="#263238"/>
<path d="M25.1709 112.579H25.5201V107.656H25.1709V112.579Z" fill="#263238"/>
<path d="M24.3352 112.579H24.6844V107.656H24.3352V112.579Z" fill="#263238"/>
<path d="M23.4995 112.579H23.8487V107.656H23.4995V112.579Z" fill="#263238"/>
<path d="M22.6597 112.579H23.0089V107.656H22.6597V112.579Z" fill="#263238"/>
<path d="M21.8198 112.579H22.1691V107.656H21.8198V112.579Z" fill="#263238"/>
<path d="M20.9883 112.579H21.3375V107.656H20.9883V112.579Z" fill="#263238"/>
<path d="M20.1485 112.579H20.4977V107.656H20.1485V112.579Z" fill="#263238"/>
<path d="M19.3086 112.579H19.6579V107.656H19.3086V112.579Z" fill="#263238"/>
<path d="M29.7817 112.205L28.4388 112.579H31.5902L30.2515 112.201V110.392C31.2119 110.263 31.5944 109.315 31.5944 107.66H28.4429C28.4429 109.323 28.8254 110.263 29.7858 110.392L29.7817 112.205Z" fill="#263238"/>
<path d="M32.3262 110.167H33.1494V112.575H35.2531V110.167H36.0805L34.2012 107.66L32.3262 110.167Z" fill="#263238"/>
<path opacity="0.1" d="M16.9097 114.812V112.454L54.1828 108.093V114.812H16.9097Z" fill="black"/>
<path d="M106.095 133.75H52.4158V168.661H106.095V133.75Z" fill="#5A5AF6"/>
<path opacity="0.2" d="M106.095 133.75H89.6931V168.661H106.095V133.75Z" fill="black"/>
<path d="M104.964 167.352C103.75 164.749 102.546 162.139 101.351 159.523L97.7922 151.656L94.279 143.757C93.1148 141.121 91.9618 138.474 90.8198 135.816C92.0394 138.419 93.2437 141.028 94.4328 143.645L97.9917 151.511L101.505 159.41C102.669 162.046 103.822 164.693 104.964 167.352Z" fill="#5A5AF6"/>
<path d="M104.964 135.816C103.822 138.474 102.669 141.121 101.505 143.757L97.9917 151.656L94.4328 159.523C93.2382 162.142 92.0338 164.752 90.8198 167.352C91.9646 164.696 93.1176 162.049 94.279 159.41L97.7922 151.511L101.347 143.645C102.544 141.025 103.75 138.416 104.964 135.816Z" fill="#5A5AF6"/>
<path d="M95.4348 137.886H100.416V133.745H95.4348V137.886Z" fill="#EBEBEB"/>
<path d="M61.5169 166.424H61.8661V161.502H61.5169V166.424Z" fill="#263238"/>
<path d="M60.6812 166.424H61.0304V161.502H60.6812V166.424Z" fill="#263238"/>
<path d="M59.8455 166.424H60.1947V161.502H59.8455V166.424Z" fill="#263238"/>
<path d="M59.0056 166.424H59.3549V161.502H59.0056V166.424Z" fill="#263238"/>
<path d="M58.1658 166.424H58.5151V161.502H58.1658V166.424Z" fill="#263238"/>
<path d="M57.3343 166.424H57.6835V161.502H57.3343V166.424Z" fill="#263238"/>
<path d="M56.4944 166.424H56.8437V161.502H56.4944V166.424Z" fill="#263238"/>
<path d="M55.6546 166.424H56.0038V161.502H55.6546V166.424Z" fill="#263238"/>
<path d="M54.8189 166.424H55.1682V161.502H54.8189V166.424Z" fill="#263238"/>
<path d="M65.292 166.05L63.9491 166.424H67.1006L65.7576 166.046V164.237C66.718 164.113 67.1006 163.165 67.1006 161.506H63.9491C63.9491 163.169 64.3316 164.113 65.292 164.237V166.05Z" fill="#263238"/>
<path d="M67.8323 164.013H68.6555V166.424H70.7634V164.013H71.5908L69.7115 161.506L67.8323 164.013Z" fill="#263238"/>
<path opacity="0.1" d="M52.4158 168.657V166.304L89.6889 161.938V168.657H52.4158Z" fill="black"/>
<path d="M112.739 110.587H57.5837V133.745H112.739V110.587Z" fill="#5A5AF6"/>
<path opacity="0.2" d="M112.739 110.587H92.7323V133.75H112.739V110.587Z" fill="black"/>
<path d="M111.358 132.153C109.878 130.507 108.411 128.855 106.956 127.197L102.615 122.208L98.3327 117.219C96.9107 115.556 95.5041 113.88 94.1127 112.192C95.5928 113.833 97.0604 115.485 98.5156 117.148L102.856 122.137L107.139 127.126C108.56 128.79 109.967 130.465 111.358 132.153Z" fill="#5A5AF6"/>
<path d="M111.358 112.184C109.973 113.864 108.566 115.539 107.139 117.211L102.856 122.2L98.5156 127.189C97.0604 128.852 95.5928 130.504 94.1127 132.145C95.4985 130.462 96.9052 128.785 98.3327 127.114L102.615 122.125L106.956 117.136C108.411 115.481 109.878 113.83 111.358 112.184Z" fill="#5A5AF6"/>
<path d="M66.7846 131.026H67.1089V126.424H66.7846V131.026Z" fill="#263238"/>
<path d="M65.9988 131.026H66.3231V126.424H65.9988V131.026Z" fill="#263238"/>
<path d="M65.2171 131.026H65.5414V126.424H65.2171V131.026Z" fill="#263238"/>
<path d="M64.4355 131.026H64.7598V126.424H64.4355V131.026Z" fill="#263238"/>
<path d="M63.6497 131.026H63.974V126.424H63.6497V131.026Z" fill="#263238"/>
<path d="M62.8681 131.026H63.1924V126.424H62.8681V131.026Z" fill="#263238"/>
<path d="M62.0823 131.026H62.4066V126.424H62.0823V131.026Z" fill="#263238"/>
<path d="M61.3007 131.026H61.625V126.424H61.3007V131.026Z" fill="#263238"/>
<path d="M60.519 131.026H60.8433V126.424H60.519V131.026Z" fill="#263238"/>
<path d="M70.3102 130.673L69.063 131.022H72.0107L70.7634 130.669V128.977C71.6615 128.86 72.0107 127.97 72.0107 126.424H69.063C69.063 127.966 69.4205 128.86 70.3102 128.977V130.673Z" fill="#263238"/>
<path d="M72.6884 128.769H73.4576V131.022H75.4283V128.769H76.2016L74.4429 126.424L72.6884 128.769Z" fill="#263238"/>
<path opacity="0.1" d="M57.5879 133.75V130.872L92.7323 125.555V133.745L57.5879 133.75Z" fill="black"/>
<path d="M118.68 104.796H98.6736L92.7323 110.587H112.743L118.68 104.796Z" fill="#5A5AF6"/>
<path opacity="0.1" d="M118.68 104.796H98.6736L92.7323 110.587H112.743L118.68 104.796Z" fill="black"/>
<path d="M51.6466 104.796H71.6532L77.5944 110.587H57.5837L51.6466 104.796Z" fill="#5A5AF6"/>
<path opacity="0.1" d="M51.6466 104.796H71.6532L77.5944 110.587H57.5837L51.6466 104.796Z" fill="black"/>
<path d="M61.4379 62.5169H10.6566V79.9914H61.4379V62.5169Z" fill="#5A5AF6"/>
<path opacity="0.2" d="M61.4379 62.5169H41.4314V79.9914H61.4379V62.5169Z" fill="black"/>
<path d="M60.0575 78.3949C58.5774 77.3361 57.1098 76.2704 55.6546 75.1977L51.314 71.988L47.0275 68.7575C45.6056 67.6821 44.1989 66.6011 42.8075 65.5146C44.2932 66.5789 45.7622 67.6447 47.2146 68.7118L51.551 71.9256L55.8375 75.1561C57.2761 76.2288 58.6647 77.3139 60.0575 78.3949Z" fill="#5A5AF6"/>
<path d="M60.0575 65.5146C58.6717 66.5983 57.265 67.6793 55.8375 68.7575L51.551 71.988L47.2146 75.1977C45.7594 76.2704 44.2904 77.3361 42.8075 78.3949C44.2003 77.3139 45.6056 76.2288 47.0275 75.152L51.314 71.9256L55.6546 68.7118C57.107 67.6447 58.5746 66.5789 60.0575 65.5146Z" fill="#5A5AF6"/>
<path d="M19.8533 77.2682H20.1776V72.6657H19.8533V77.2682Z" fill="#263238"/>
<path d="M19.0716 77.2682H19.3959V72.6657H19.0716V77.2682Z" fill="#263238"/>
<path d="M18.2858 77.2682H18.6101V72.6657H18.2858V77.2682Z" fill="#263238"/>
<path d="M17.5042 77.2682H17.8285V72.6657H17.5042V77.2682Z" fill="#263238"/>
<path d="M16.7226 77.2682H17.0469V72.6657H16.7226V77.2682Z" fill="#263238"/>
<path d="M15.9368 77.2682H16.2611V72.6657H15.9368V77.2682Z" fill="#263238"/>
<path d="M15.1551 77.2682H15.4794V72.6657H15.1551V77.2682Z" fill="#263238"/>
<path d="M14.3735 77.2682H14.6978V72.6657H14.3735V77.2682Z" fill="#263238"/>
<path d="M13.5877 77.2682H13.912V72.6657H13.5877V77.2682Z" fill="#263238"/>
<path d="M23.3831 76.9189L22.1358 77.2681H25.0836L23.8363 76.9147V75.2226C24.7385 75.102 25.0836 74.2164 25.0836 72.6656H22.1358C22.1358 74.2123 22.4934 75.102 23.3831 75.2226V76.9189Z" fill="#263238"/>
<path d="M25.7613 75.0147H26.5304V77.2681H28.5011V75.0147H29.2745L27.5158 72.6656L25.7613 75.0147Z" fill="#263238"/>
<path opacity="0.1" d="M10.6566 79.9914V77.1185L41.4314 71.7968V79.9914H10.6566Z" fill="black"/>
<path d="M67.3791 56.7253H47.3684L41.4314 62.5169H61.4379L67.3791 56.7253Z" fill="#5A5AF6"/>
<path opacity="0.1" d="M67.3791 56.7253H47.3684L41.4314 62.5169H61.4379L67.3791 56.7253Z" fill="black"/>
<path d="M4.71534 56.7253H24.726L30.6631 62.5169H10.6566L4.71534 56.7253Z" fill="#5A5AF6"/>
<path opacity="0.1" d="M4.71534 56.7253H24.726L30.6631 62.5169H10.6566L4.71534 56.7253Z" fill="black"/>
<path d="M181.167 19.4112L76.2944 9.97772L71.2894 65.6191L176.162 75.0525L181.167 19.4112Z" fill="#455A64"/>
<path d="M130.887 75.181L115.807 73.8256C115.261 73.7765 114.729 73.6202 114.243 73.3657C113.757 73.1111 113.326 72.7633 112.974 72.3421C112.622 71.9209 112.357 71.4346 112.193 70.9108C112.029 70.3871 111.97 69.8362 112.02 69.2897V69.2897L135.439 71.4142C135.391 71.9615 135.234 72.4936 134.978 72.9799C134.722 73.4661 134.372 73.8969 133.949 74.2471C133.525 74.5974 133.037 74.8603 132.511 75.0206C131.986 75.1809 131.434 75.2354 130.887 75.181V75.181Z" fill="#455A64"/>
<path d="M135.439 71.4143C135.386 71.9928 135.227 72.5565 134.97 73.0773L112.057 70.3416C112.012 69.9955 112.005 69.6456 112.036 69.298L135.439 71.4143Z" fill="#263238"/>
<path d="M152.124 76.2568L94.719 71.0931L94.5078 73.441L151.913 78.6047L152.124 76.2568Z" fill="#455A64"/>
<path d="M177.717 22.5447L79.13 13.6767L74.7396 62.4856L173.326 71.3536L177.717 22.5447Z" fill="#263238"/>
<path d="M128.372 18.1135L75.1539 62.5294L74.7381 62.492L75.7609 51.1334L116.58 17.0408L128.372 18.1135ZM171.889 22.0258L118.672 66.4459L130.45 67.5061L177.17 28.4992L177.706 22.5538L171.889 22.0258ZM98.6237 15.436L77.374 33.1641L76.9957 37.3716L102.827 15.8018L98.6237 15.436ZM163.067 70.4372L167.274 70.8156L173.864 65.3109L174.243 61.1075L163.067 70.4372ZM132.379 18.4669L79.1618 62.887L80.0183 62.9618L133.236 18.5459L132.379 18.4669ZM159.18 70.088L160.04 70.167L174.521 58.0766L174.6 57.216L159.18 70.088ZM84.6915 14.1804L78.6255 19.2485L78.5507 20.105L85.5479 14.2594L84.6915 14.1804ZM163.961 21.3148L110.743 65.7308L111.6 65.8098L164.817 21.3938L163.961 21.3148Z" fill="#37474F"/>
<path d="M89.0986 168.898C88.0716 169.231 58.8393 168.852 57.7376 168.129C57.3218 167.863 57.1181 163.597 57.0349 158.442V158.28C57.0349 157.215 57.0017 156.122 57.0017 155.012C57.0017 154.862 57.0017 154.708 57.0017 154.554C56.9601 147.112 57.0765 139.387 57.0765 139.387L76.6174 139.587L76.027 154.608L76.0062 155.203L75.8856 158.313V158.633C75.8856 158.633 87.0114 163.784 88.1382 164.707C89.2649 165.63 90.1213 168.574 89.0986 168.898Z" fill="#D3766A"/>
<path d="M80.3135 160.633C80.2387 160.633 80.1971 160.587 80.1929 160.566C80.2343 160.586 80.2746 160.608 80.3135 160.633V160.633Z" fill="#5A5AF6"/>
<path d="M89.0986 168.898C88.0716 169.227 58.8393 168.852 57.7334 168.129C57.3592 167.892 57.1638 164.495 57.064 160.121C62.4232 161.24 83.1823 165.439 83.7477 163.664C83.9722 162.969 82.1969 161.76 81.0743 161.082C84.1427 162.541 87.5394 164.217 88.1423 164.707C89.2565 165.622 90.1213 168.57 89.0986 168.898Z" fill="#263238"/>
<path d="M51.0687 55.1995C51.0687 55.1995 55.4592 104.596 56.1743 108.367C56.3406 109.228 56.4404 113.897 56.5069 119.896C56.6607 132.993 56.5693 156.608 56.5693 156.608H77.1786C77.1786 156.608 76.5675 115.689 75.6528 108.159C74.7381 100.63 68.9174 55.1995 68.9174 55.1995H51.0687Z" fill="#263238"/>
<path d="M76.2473 152.999C73.0293 152.929 73.9565 152.904 70.7385 152.875C69.1669 152.875 58.8227 152.767 57.3509 153.012C57.3218 153.012 57.3218 153.07 57.3509 153.078C58.8227 153.32 69.1669 153.232 70.7385 153.216C73.9565 153.182 73.0293 153.157 76.2473 153.091C76.2595 153.091 76.2711 153.086 76.2797 153.077C76.2882 153.069 76.2931 153.057 76.2931 153.045C76.2931 153.033 76.2882 153.021 76.2797 153.013C76.2711 153.004 76.2595 152.999 76.2473 152.999V152.999Z" fill="#37474F"/>
<path d="M60.4858 129.621C60.4636 126.63 60.4414 123.641 60.4192 120.653C60.3985 117.743 60.4192 114.861 60.2654 111.972C59.9869 106.114 58.7978 100.356 57.9538 94.5681C57.1098 88.7807 56.403 82.96 55.7627 77.1393C55.0476 70.6118 54.4156 64.0719 53.7462 57.5403C53.7462 57.4945 53.6714 57.4987 53.6756 57.5403C54.6443 69.2066 55.7294 80.8687 57.3426 92.4643C57.7473 95.3442 58.1866 98.2226 58.6606 101.1C59.1429 104.01 59.621 106.92 59.8497 109.856C60.0783 112.791 60.1116 115.626 60.1407 118.512L60.228 127.472C60.2945 134.124 60.3569 144.318 60.4234 150.954C60.4281 150.976 60.4403 150.996 60.4581 151.011C60.4759 151.025 60.4982 151.033 60.5211 151.033C60.5441 151.033 60.5663 151.025 60.5841 151.011C60.6019 150.996 60.6141 150.976 60.6188 150.954C60.5772 145.004 60.5315 135.525 60.4858 129.621Z" fill="#37474F"/>
<path d="M46.724 55.1995C46.724 55.1995 55.455 104.596 56.1743 108.367C56.3406 109.228 56.4404 113.897 56.5069 119.896L66.3355 55.1995H46.724Z" fill="#37474F"/>
<path d="M40.367 170.561C39.3026 170.395 13.3882 156.841 12.7312 155.71C12.4735 155.294 14.228 151.39 16.4731 146.75C16.4981 146.701 16.5188 146.651 16.5438 146.605C17.0053 145.649 26.2602 130.045 26.2602 130.045L42.1964 139.4L33.3572 155.153L33.2034 155.436C33.2034 155.436 40.8036 165.052 41.3939 166.387C41.9843 167.722 41.4272 170.732 40.367 170.561Z" fill="#D3766A"/>
<path d="M40.3628 170.561C39.2985 170.395 13.3923 156.841 12.7312 155.706C12.5109 155.344 13.7582 152.446 15.5293 148.725C19.2421 151.536 37.1739 165.002 38.4878 163.601C38.7622 163.306 38.5543 162.608 38.1884 161.855C39.7641 163.934 41.1653 165.842 41.4064 166.383C41.9885 167.713 41.4272 170.732 40.3628 170.561Z" fill="#263238"/>
<path d="M35.6564 154.567L16.7766 142.925C16.7766 142.925 38.6208 111.668 38.7247 108.891C38.8786 104.763 40.8576 87.7246 42.5207 73.9296C42.5207 73.9296 39.3692 66.4459 45.2688 55.1787H68.9174C68.9174 55.1787 67.3292 65.9137 64.6143 72.7197C62.7926 73.3545 61.0322 74.1532 59.3549 75.1062C59.3549 75.1062 57.0017 105.873 56.9102 109.698C56.7481 117.281 35.6564 154.567 35.6564 154.567Z" fill="#263238"/>
<path d="M36.8122 150.218C34.089 148.509 34.8956 148.971 32.1515 147.283C30.8086 146.451 21.982 141.075 20.5933 140.526C20.5642 140.526 20.5351 140.564 20.5601 140.585C21.6993 141.549 30.6174 146.784 31.9769 147.578C34.75 149.203 33.9726 148.705 36.7665 150.301C36.7775 150.307 36.7905 150.309 36.8026 150.305C36.8147 150.302 36.8249 150.293 36.8309 150.282C36.837 150.271 36.8384 150.258 36.8349 150.246C36.8314 150.234 36.8233 150.224 36.8122 150.218V150.218Z" fill="#37474F"/>
<path d="M65.5248 72.2458C63.393 73.0215 61.3327 73.9814 59.3674 75.1145C59.3548 75.1244 59.346 75.1382 59.3423 75.1537C59.3386 75.1692 59.3403 75.1855 59.347 75.2C59.3538 75.2144 59.3652 75.2262 59.3794 75.2333C59.3937 75.2404 59.41 75.2425 59.4256 75.2393C61.5044 74.3495 63.6165 73.4972 65.6371 72.4952C65.6673 72.4786 65.6902 72.4512 65.7012 72.4185C65.7121 72.3858 65.7104 72.3501 65.6962 72.3186C65.682 72.2872 65.6565 72.2622 65.6248 72.2487C65.593 72.2352 65.5573 72.2341 65.5248 72.2458V72.2458Z" fill="#37474F"/>
<path d="M62.6269 68.8116C62.8307 67.5643 62.997 66.317 63.1009 65.0697C63.3172 62.7451 63.2921 60.4043 63.0261 58.0849C63.0261 58.0694 63.0199 58.0546 63.009 58.0437C62.9981 58.0328 62.9833 58.0267 62.9679 58.0267C62.9524 58.0267 62.9376 58.0328 62.9267 58.0437C62.9158 58.0546 62.9097 58.0694 62.9097 58.0849C62.9626 61.3097 62.7736 64.534 62.3442 67.7306C62.1114 69.2647 61.3381 71.5805 62.9429 71.8134C64.5478 72.0462 65.6412 68.1837 65.8533 67.1235C66.3633 64.1024 66.4793 61.0278 66.1983 57.9768C66.1983 57.9061 66.0653 57.8895 66.0653 57.9768C66.0663 60.2913 65.9511 62.6045 65.7202 64.9075C65.6204 65.976 64.764 71.8799 62.9097 71.4516C62.5978 71.381 62.4398 71.0733 62.3941 70.6201C62.3974 70.0078 62.4798 69.3985 62.6394 68.8074" fill="#37474F"/>
<path d="M62.9471 71.6263C62.7804 72.0321 62.6414 72.4488 62.5313 72.8735C62.4097 73.1948 62.3504 73.5363 62.3567 73.8797C62.3593 73.8936 62.3661 73.9063 62.3761 73.9164C62.3861 73.9264 62.3988 73.9331 62.4127 73.9358C62.4266 73.9385 62.4409 73.937 62.4539 73.9314C62.4669 73.9259 62.4779 73.9165 62.4856 73.9046C62.6724 73.6017 62.8126 73.2723 62.9013 72.9276C63.0427 72.5493 63.1924 72.1709 63.3171 71.7884C63.3252 71.7425 63.3176 71.6953 63.2956 71.6542C63.2737 71.6131 63.2385 71.5806 63.1958 71.5619C63.1531 71.5432 63.1054 71.5394 63.0603 71.5511C63.0152 71.5627 62.9753 71.5892 62.9471 71.6263Z" fill="#37474F"/>
<path d="M48.0461 56.6505C47.3292 57.8878 46.736 59.1926 46.275 60.5462C45.8007 61.8978 45.4487 63.2893 45.2231 64.7038C45.0859 65.4065 45.0402 66.1174 44.9653 66.8284C44.8905 67.5393 44.878 68.2503 44.9196 68.9612C44.9469 70.3834 45.1126 71.7995 45.4144 73.1896V73.2353C44.86 79.2029 44.2932 85.1621 43.7139 91.1131C43.1346 97.064 42.5484 103.023 41.9552 108.991L41.897 109.548L41.8679 109.827C41.8661 109.93 41.8464 110.033 41.8097 110.13C41.6511 110.487 41.4691 110.833 41.2651 111.165C40.8909 111.818 40.4959 112.458 40.1051 113.099C39.3193 114.375 38.521 115.639 37.7186 116.907C36.1138 119.435 34.4798 121.946 32.8459 124.457C29.5821 129.48 26.2602 134.465 22.9341 139.446L32.5881 124.291L37.386 116.732C38.1801 115.464 38.9742 114.196 39.7558 112.92C40.1425 112.28 40.5291 111.639 40.8992 110.995C41.078 110.679 41.2817 110.325 41.4023 110.047C41.4338 109.969 41.4493 109.886 41.448 109.802L41.4729 109.523L41.527 108.962C42.098 103 42.687 97.0405 43.294 91.084C43.901 85.1275 44.5094 79.1682 45.1192 73.2062V73.2519C44.8315 71.8408 44.6797 70.4054 44.666 68.9654C44.6369 68.2461 44.7076 67.5269 44.745 66.8076C44.7824 66.0883 44.8947 65.3774 45.0485 64.6747C45.3023 63.2574 45.6835 61.8658 46.1877 60.5171C46.679 59.1705 47.3015 57.8754 48.0461 56.6505V56.6505Z" fill="#37474F"/>
<path d="M61.7497 16.6625C61.0172 16.9442 60.3707 17.4116 59.8735 18.0188C59.3764 18.626 59.0458 19.3521 58.9142 20.1258C58.7823 21.1259 58.5195 22.1044 58.1325 23.0361C57.6395 23.9548 57.0133 24.7954 56.2741 25.5307C55.1515 26.7489 54.3449 27.9837 54.0705 29.6883C53.7442 31.4893 53.7966 33.3385 54.2244 35.1182C54.2244 35.1182 54.2244 35.1182 54.2244 35.1182C53.8948 33.2457 53.9528 31.3255 54.3948 29.4763C54.8356 27.6095 55.9831 26.4911 57.168 25.1274C58.1121 24.0695 58.754 22.777 59.0264 21.3855C59.1927 20.554 59.2343 19.6352 59.6335 18.8494C60.1116 17.9056 60.9722 17.3443 61.8245 16.8496C61.8432 16.836 61.8569 16.8165 61.8633 16.7943C61.8697 16.7721 61.8685 16.7484 61.8599 16.7269C61.8513 16.7054 61.8358 16.6874 61.8158 16.6758C61.7959 16.6641 61.7726 16.6594 61.7497 16.6625Z" fill="#263238"/>
<path d="M76.3513 27.5929C75.3992 26.1751 74.393 24.9569 73.8941 23.2398C73.4409 21.6766 73.2289 20.0426 72.7632 18.4793C72.7632 18.4544 72.7175 18.4793 72.7258 18.4793C73.4201 21.2442 73.4077 23.9924 75.0125 26.3788C75.8815 27.676 76.7587 28.8734 77.2909 30.4117C77.8263 32.0092 78.0535 33.6938 77.9603 35.3759C77.9603 35.387 77.9647 35.3976 77.9725 35.4053C77.9802 35.4131 77.9908 35.4175 78.0018 35.4175C78.0129 35.4175 78.0235 35.4131 78.0312 35.4053C78.039 35.3976 78.0434 35.387 78.0434 35.3759C78.4713 32.6613 77.8677 29.8848 76.3513 27.5929V27.5929Z" fill="#263238"/>
<path d="M61.8495 16.5336C62.4897 16.4255 63.6955 13.2075 61.8245 11.216C59.9536 9.22445 56.8063 10.4717 57.4465 13.4195C57.8457 15.2613 60.4941 16.7373 61.8495 16.5336Z" fill="#263238"/>
<path d="M58.8061 10.4052C58.0566 10.8176 57.47 11.4731 57.143 12.2637C56.9814 12.6296 56.9189 13.0317 56.962 13.4295C57.005 13.8273 57.1521 14.2067 57.3883 14.5296C57.8963 15.1934 58.5764 15.7053 59.3549 16.0097C59.7453 16.1869 60.1518 16.3261 60.5689 16.4255C60.9851 16.5423 61.4196 16.579 61.8495 16.5336C61.4248 16.6721 60.975 16.7161 60.5315 16.6624C60.0845 16.6193 59.6437 16.5259 59.2177 16.3839C58.3338 16.1094 57.5576 15.5658 56.9975 14.8289C56.7183 14.4375 56.5502 13.9777 56.5111 13.4985C56.4877 13.0245 56.5895 12.5528 56.8063 12.1306C57.0041 11.7217 57.2836 11.3577 57.6276 11.0609C57.9715 10.7642 58.3726 10.541 58.8061 10.4052V10.4052Z" fill="#263238"/>
<path d="M69.2667 54.7838L68.9673 60.4049L45.3229 55.2951C45.3229 55.2951 49.5429 39.7872 57.7958 32.6319C61.4545 29.4597 65.5082 31.131 67.296 34.1328C67.7491 34.8937 72.8755 44.9427 72.7425 48.7594C72.6219 52.1312 69.2667 54.7838 69.2667 54.7838Z" fill="#5A5AF6"/>
<path d="M65.9822 52.2892C64.8193 52.1679 63.6483 52.1443 62.4814 52.2185C61.8994 52.2601 61.3214 52.3349 60.7435 52.4222C60.4525 52.468 60.1656 52.5012 59.8787 52.5303C59.5767 52.5721 59.2703 52.5721 58.9682 52.5303C58.9433 52.5303 58.935 52.5719 58.9682 52.5761C59.2413 52.6475 59.5192 52.6989 59.7998 52.7299C60.0765 52.7507 60.3545 52.7507 60.6313 52.7299C61.2217 52.6925 61.812 52.6218 62.4024 52.5761C63.5915 52.4846 64.7806 52.3931 65.9738 52.3973C66.032 52.3848 66.0404 52.2892 65.9822 52.2892Z" fill="#263238"/>
<path d="M68.564 53.9522C67.6502 53.6519 66.7184 53.4089 65.7743 53.2247C65.3003 53.1373 64.8263 53.075 64.3482 53.0334C64.1195 53.0085 63.8909 52.9918 63.658 52.9794C63.4252 52.9669 63.1508 52.9794 62.8972 52.9794C62.8722 52.9794 62.8639 53.0209 62.8972 53.0251C63.1342 53.05 63.367 53.1207 63.604 53.1623L64.3108 53.2829C64.7806 53.366 65.2546 53.4575 65.7244 53.5323C66.6723 53.6903 67.6161 53.8566 68.5557 54.0479C68.5973 54.0645 68.6098 53.9813 68.564 53.9522Z" fill="#263238"/>
<path d="M55.7502 57.2783C55.7835 57.3864 55.8209 57.482 55.8583 57.5735L56.2533 57.6525C56.102 57.5071 55.933 57.3814 55.7502 57.2783V57.2783ZM66.9384 34.2534C66.7187 33.9696 66.4462 33.7311 66.136 33.5507C66.2442 33.8953 66.4226 34.2138 66.6598 34.4862C66.8779 34.7703 67.1508 35.0079 67.4623 35.1847C67.3518 34.8435 67.1736 34.5282 66.9384 34.2575V34.2534ZM49.8921 45.242C49.6138 45.4662 49.3773 45.7378 49.1936 46.0444C49.5345 45.9364 49.8509 45.7627 50.125 45.533C50.4094 45.3025 50.6478 45.0204 50.8276 44.7015C50.485 44.8215 50.1688 45.0064 49.8963 45.2461L49.8921 45.242ZM57.3759 33.6796C57.0964 33.9047 56.861 34.1796 56.6815 34.4903C57.0201 34.3761 57.3345 34.1999 57.6087 33.9706C57.8936 33.7493 58.1335 33.4756 58.3155 33.1641C57.9716 33.2778 57.6516 33.4539 57.3717 33.6838L57.3759 33.6796ZM62.997 46.1899C62.7142 46.4134 62.4746 46.6868 62.2902 46.9965C62.6316 46.8821 62.9499 46.7075 63.2298 46.4809C63.5114 46.2568 63.7483 45.9818 63.9283 45.6702C63.5867 45.7854 63.2695 45.963 62.9928 46.1941L62.997 46.1899ZM56.299 49.0254C55.9424 48.9859 55.5816 49.0127 55.2347 49.1044C55.5561 49.2639 55.9043 49.3626 56.2616 49.3954C56.6181 49.4393 56.9798 49.4125 57.326 49.3164C57.0026 49.1588 56.6532 49.0616 56.2949 49.0296L56.299 49.0254ZM70.8507 48.8258C70.4941 48.7863 70.1333 48.8131 69.7864 48.9048C70.1071 49.0662 70.4556 49.1649 70.8133 49.1959C71.1682 49.239 71.5282 49.2136 71.8735 49.121C71.5584 48.9604 71.2155 48.8616 70.8632 48.83L70.8507 48.8258ZM63.5874 38.5981C63.2306 38.5538 62.8686 38.5821 62.523 38.6812C63.1726 38.9828 63.9047 39.0574 64.6018 38.8933C64.2881 38.7367 63.9486 38.6381 63.5998 38.6022L63.5874 38.5981ZM64.8346 55.0207C64.8806 54.6631 64.8551 54.2999 64.7598 53.9522C64.5999 54.2738 64.4999 54.6218 64.4646 54.9791C64.4292 55.3358 64.4559 55.6959 64.5436 56.0435C64.7079 55.7266 64.8082 55.3805 64.8388 55.0249L64.8346 55.0207ZM49.5263 53.0292C49.5622 52.6723 49.534 52.3119 49.4431 51.9649C49.1361 52.613 49.0612 53.3469 49.2311 54.0437C49.39 53.7273 49.4913 53.3852 49.5304 53.0334L49.5263 53.0292ZM70.5971 42.0905C70.5971 42.0032 70.5971 41.9159 70.5971 41.8244C70.5514 41.5874 70.5056 41.3546 70.4641 41.1218C70.1845 41.7517 70.1231 42.4569 70.2895 43.1257C70.4574 42.8047 70.5632 42.4549 70.6013 42.0946L70.5971 42.0905ZM56.8603 41.7329C56.9055 41.3753 56.8801 41.0123 56.7855 40.6644C56.4706 41.3102 56.3941 42.0465 56.5693 42.7432C56.7257 42.4265 56.8243 42.0844 56.8603 41.7329V41.7329Z" fill="white"/>
<path d="M60.5731 32.7483C60.5523 33.2389 61.9201 36.8228 64.0488 37.3217C64.739 37.4797 65.7618 33.7378 65.7618 33.7378L65.899 33.4759L67.8323 29.8504L64.0904 25.6928L63.5416 25.1274C63.5416 25.1274 63.0801 26.1543 62.5147 27.439C62.4856 27.4972 62.4606 27.5596 62.4315 27.622C62.4024 27.6843 62.365 27.7633 62.3401 27.8298C62.2528 28.0211 62.1613 28.2165 62.0781 28.4119C61.995 28.6073 61.9534 28.7071 61.891 28.8651C61.8287 29.0231 61.7663 29.1769 61.6998 29.3349C61.2472 30.4458 60.8708 31.5863 60.5731 32.7483V32.7483Z" fill="#D3766A"/>
<path d="M67.8364 29.838L65.9738 33.3262C64.0925 32.0165 62.7952 30.0257 62.3567 27.7758L62.5188 27.4141C63.0843 26.1294 63.5458 25.1024 63.5458 25.1024L64.0946 25.6679L67.8364 29.838Z" fill="#263238"/>
<path d="M73.9731 23.0028C74.8753 30.1664 70.6886 31.5135 69.1461 31.7089C67.7408 31.8835 62.9471 32.2993 61.309 25.2729C59.6709 18.2465 62.7143 15.5607 65.8824 14.9911C69.0505 14.4215 73.0751 15.8434 73.9731 23.0028Z" fill="#D3766A"/>
<path d="M72.9836 22.5829C72.8188 22.565 72.6551 22.5387 72.493 22.5039C72.3155 22.4998 72.1445 22.4369 72.0066 22.3252C71.9725 22.2803 71.9541 22.2256 71.9541 22.1692C71.9541 22.1129 71.9725 22.0582 72.0066 22.0133C72.0845 21.931 72.1831 21.8711 72.292 21.8396C72.4009 21.8082 72.5162 21.8065 72.626 21.8346C72.858 21.8564 73.0732 21.9647 73.2289 22.1381C73.2631 22.1805 73.2839 22.2321 73.2887 22.2864C73.2934 22.3407 73.2819 22.3951 73.2556 22.4429C73.2293 22.4906 73.1894 22.5294 73.1409 22.5543C73.0925 22.5793 73.0377 22.5892 72.9836 22.5829V22.5829Z" fill="#263238"/>
<path d="M68.0859 22.8157C68.2564 22.7866 68.406 22.7326 68.5682 22.691C68.7456 22.6711 68.9111 22.592 69.038 22.4665C69.0714 22.4214 69.0895 22.3667 69.0895 22.3106C69.0895 22.2544 69.0714 22.1998 69.038 22.1547C68.952 22.0802 68.8479 22.0299 68.7362 22.0087C68.6245 21.9875 68.5091 21.9963 68.4019 22.0341C68.1739 22.0804 67.9711 22.2092 67.8323 22.3958C67.8051 22.4389 67.7905 22.4886 67.79 22.5395C67.7895 22.5904 67.8032 22.6405 67.8295 22.684C67.8558 22.7276 67.8937 22.763 67.939 22.7863C67.9843 22.8095 68.0352 22.8197 68.0859 22.8157V22.8157Z" fill="#263238"/>
<path d="M69.196 24.0589C69.196 24.0589 69.1627 24.088 69.1627 24.1046C69.2126 24.5952 69.1877 25.1648 68.747 25.3519C68.747 25.3519 68.747 25.3852 68.747 25.381C69.2999 25.2646 69.3332 24.5162 69.196 24.0589Z" fill="#263238"/>
<path d="M68.722 23.6016C67.9321 23.6016 67.982 25.1815 68.722 25.1856C69.4621 25.1898 69.3872 23.6016 68.722 23.6016Z" fill="#263238"/>
<path d="M68.4144 23.6722C68.2813 23.7678 68.1483 23.93 67.9986 23.9508C67.8489 23.9715 67.6535 23.8136 67.5246 23.6597C67.5246 23.6597 67.4955 23.6597 67.4997 23.6597C67.4997 23.9632 67.6286 24.2709 67.957 24.3042C68.2855 24.3374 68.4601 24.0589 68.5266 23.7512C68.5225 23.7179 68.4684 23.6348 68.4144 23.6722Z" fill="#263238"/>
<path d="M71.9483 23.9092C71.9483 23.9092 71.9858 23.93 71.9858 23.9508C71.9858 24.4414 72.0814 25.0068 72.5346 25.1482V25.1773C71.9858 25.1232 71.8735 24.3748 71.9483 23.9092Z" fill="#263238"/>
<path d="M72.3641 23.377C73.1499 23.2855 73.2829 24.8654 72.5512 24.9527C71.8195 25.04 71.703 23.456 72.3641 23.377Z" fill="#263238"/>
<path d="M72.7009 23.456C72.8339 23.5267 72.9711 23.6722 73.1166 23.668C73.2622 23.6639 73.4035 23.4851 73.4991 23.3105C73.4991 23.3105 73.5241 23.3105 73.5282 23.3105C73.5615 23.6098 73.4867 23.9341 73.1998 24.0131C72.9129 24.0921 72.7258 23.8468 72.626 23.5516C72.6136 23.5142 72.6593 23.4269 72.7009 23.456Z" fill="#263238"/>
<path d="M70.6886 27.3434C70.4812 27.6029 70.2106 27.8048 69.9028 27.9296C69.7326 27.9943 69.5461 28.003 69.3706 27.9546C68.9881 27.8465 68.984 27.4972 69.063 27.1979C69.1032 27.0386 69.1633 26.8849 69.2417 26.7405C69.6467 27.0917 70.1541 27.3031 70.6886 27.3434V27.3434Z" fill="#263238"/>
<path d="M69.9028 27.9338C69.7326 27.9984 69.5461 28.0072 69.3706 27.9587C68.9881 27.8506 68.984 27.5014 69.063 27.202C69.2646 27.2124 69.457 27.2901 69.6093 27.4228C69.7616 27.5555 69.8649 27.7354 69.9028 27.9338V27.9338Z" fill="#FF99BA"/>
<path d="M61.3339 25.4143C62.5438 25.4808 62.76 22.9447 62.76 22.9447C62.76 22.9447 65.213 22.8989 65.9406 19.3566C65.8943 20.4147 65.5403 21.4362 64.922 22.2961C64.922 22.2961 69.2334 21.7389 70.9713 18.0844C70.9713 18.0844 70.2853 19.9428 69.6201 20.6122C69.6201 20.6122 71.4203 20.0634 72.2726 18.575C72.2726 18.575 73.0751 20.6538 73.6696 21.2068C73.6696 21.2068 73.3204 13.6524 66.3355 14.6128C66.3355 14.6128 61.9576 15.0036 60.4608 18.5085C58.9641 22.0133 61.3339 25.4143 61.3339 25.4143Z" fill="#263238"/>
<path d="M62.5147 25.6804C62.5147 25.6804 60.8516 23.4893 59.8538 24.088C58.856 24.6867 60.1656 27.9089 61.3838 28.308C61.5364 28.3698 61.6998 28.4001 61.8644 28.3972C62.0289 28.3942 62.1912 28.3581 62.3415 28.2909C62.4917 28.2238 62.6269 28.1269 62.7388 28.0063C62.8507 27.8856 62.9371 27.7436 62.9928 27.5887L62.5147 25.6804Z" fill="#D3766A"/>
<path d="M60.2529 25.0027C60.2529 25.0027 60.2529 25.0276 60.2529 25.0359C61.0845 25.3436 61.5792 26.1045 61.916 26.9027C61.8644 26.8198 61.7953 26.7492 61.7135 26.6958C61.6318 26.6424 61.5393 26.6076 61.4426 26.5937C61.346 26.5798 61.2475 26.5873 61.154 26.6155C61.0605 26.6438 60.9743 26.6921 60.9015 26.7572C60.8975 26.7611 60.895 26.7663 60.8943 26.7718C60.8936 26.7774 60.8948 26.783 60.8977 26.7878C60.9005 26.7926 60.9049 26.7963 60.9102 26.7983C60.9154 26.8003 60.9211 26.8004 60.9265 26.7988C61.0723 26.7487 61.23 26.7442 61.3785 26.7858C61.527 26.8274 61.6593 26.9131 61.758 27.0316C61.9213 27.2324 62.0608 27.4515 62.1738 27.6844C62.2195 27.755 62.3525 27.7093 62.3193 27.6261V27.6054C62.2985 26.5327 61.4088 25.065 60.2529 25.0027Z" fill="#263238"/>
<path d="M62.1987 27.9463C62.2021 28.0404 62.1682 28.1321 62.1043 28.2014C62.0405 28.2707 61.9519 28.312 61.8578 28.3163C61.8114 28.3185 61.765 28.3115 61.7213 28.2957C61.6776 28.28 61.6374 28.2558 61.603 28.2245C61.5687 28.1933 61.5408 28.1555 61.521 28.1135C61.5012 28.0714 61.4899 28.0259 61.4878 27.9795C61.4856 27.9331 61.4925 27.8867 61.5083 27.843C61.524 27.7993 61.5482 27.7591 61.5795 27.7248C61.6108 27.6904 61.6485 27.6625 61.6905 27.6427C61.7326 27.623 61.7781 27.6117 61.8245 27.6095C61.9187 27.6049 62.0108 27.6378 62.0809 27.7009C62.151 27.7639 62.1933 27.8521 62.1987 27.9463Z" fill="white"/>
<path d="M55.4259 38.9848C55.2305 42.8223 55.5839 57.7814 58.1076 61.939C59.7706 64.6456 68.3853 69.3646 72.1105 70.6992C73.6738 71.2563 79.2741 60.5254 77.5154 60.1804C76.2349 59.9309 67.1671 54.8295 66.0445 54.1268C66.0445 54.1268 63.0676 44.9801 60.8017 38.9889C58.6772 33.3138 55.8001 31.8212 55.4259 38.9848Z" fill="#D3766A"/>
<path d="M81.8435 62.9743C81.2406 62.4712 81.5026 62.1427 82.8954 62.1968C84.2882 62.2508 89.7804 63.5937 90.0922 61.6397C90.4041 59.6856 82.6334 57.8978 80.3052 57.9893C77.9769 58.0807 74.2434 59.0827 74.2434 59.0827C75.6819 59.7355 79.0288 61.6563 81.8435 62.9743Z" fill="#D3766A"/>
<path d="M70.6179 70.1669C74.7464 71.8633 79.7647 74.2206 84.7538 73.4931C85.3089 73.4272 85.8257 73.1768 86.2215 72.7821C88.4624 72.4994 88.9988 71.356 88.9988 71.356C91.0069 70.458 91.3977 69.2149 91.3977 69.2149C91.3977 69.2149 94.0212 68.8531 94.0711 67.2317C94.1251 65.4106 90.429 66.2713 88.1049 65.5021C82.7831 63.7351 75.711 59.7355 74.2267 59.0744L70.6179 70.1669Z" fill="#D3766A"/>
<path d="M81.2448 67.5809C82.7969 68.114 84.3832 68.5418 85.9928 68.8615C87.7743 69.1018 89.5713 69.2074 91.3686 69.1774C91.3755 69.1753 91.3827 69.1748 91.3898 69.176C91.3969 69.1772 91.4036 69.18 91.4094 69.1843C91.4151 69.1885 91.4198 69.1941 91.4231 69.2005C91.4263 69.2069 91.428 69.2139 91.428 69.2211C91.428 69.2283 91.4263 69.2353 91.4231 69.2418C91.4198 69.2482 91.4151 69.2537 91.4094 69.2579C91.4036 69.2622 91.3969 69.265 91.3898 69.2662C91.3827 69.2674 91.3755 69.2669 91.3686 69.2648C87.9038 69.6712 84.3938 69.1204 81.2199 67.6724C81.145 67.6183 81.1616 67.556 81.2448 67.5809Z" fill="#263238"/>
<path d="M79.7273 70.6368C81.2864 71.0276 84.0346 71.697 89.032 71.3144C89.032 71.3144 89.0528 71.3394 89.032 71.3436C85.9237 72.0023 82.6934 71.7835 79.7023 70.7116C79.5942 70.6783 79.6067 70.6118 79.7273 70.6368Z" fill="#263238"/>
<path d="M78.9165 72.2956C81.5982 72.8569 83.3569 72.8736 86.2256 72.7779C86.2256 72.7779 86.2464 72.807 86.2256 72.807C82.9744 73.2602 81.7437 73.0523 78.8791 72.3913C78.7876 72.3622 78.8126 72.2749 78.9165 72.2956Z" fill="#263238"/>
<path d="M64.4397 46.6057L54.8231 51.9898C54.8231 51.9898 54.4822 39.8745 55.3885 36.2823C56.4071 32.2411 58.2531 33.6464 60.3111 37.0307C62.3692 40.415 64.4397 46.6057 64.4397 46.6057Z" fill="#5A5AF6"/>
<path d="M57.222 33.8251C57.0059 34.0167 56.8233 34.2429 56.6815 34.4945C57.0201 34.3803 57.3345 34.204 57.6087 33.9748L57.6461 33.9415C57.5135 33.8761 57.3695 33.8365 57.222 33.8251V33.8251ZM62.9928 46.1941C62.71 46.4176 62.4705 46.691 62.286 47.0007C62.6275 46.8862 62.9457 46.7116 63.2256 46.4851C63.5072 46.261 63.7441 45.986 63.9241 45.6744C63.5843 45.7888 63.2686 45.965 62.9928 46.1941ZM56.2949 49.0296C55.9383 48.9901 55.5774 49.0169 55.2305 49.1086C55.552 49.2681 55.9001 49.3667 56.2575 49.3996C56.614 49.4435 56.9757 49.4167 57.3218 49.3206C57 49.162 56.652 49.0634 56.2949 49.0296V49.0296ZM56.7855 40.6478C56.4706 41.2936 56.3941 42.0299 56.5693 42.7266C56.7276 42.4047 56.8262 42.0568 56.8603 41.6997C56.9033 41.3475 56.8779 40.9903 56.7855 40.6478V40.6478Z" fill="white"/>
<path d="M55.2181 49.5285C55.5216 49.2873 58.4943 47.5619 59.147 47.2044C59.7998 46.8468 62.4731 45.3376 63.1633 45.0216C63.1965 45.0216 63.2215 45.0507 63.1924 45.0673C62.5646 45.5122 59.8871 47.0339 59.226 47.4164C58.5649 47.7989 55.5922 49.437 55.2388 49.5742C55.1973 49.5867 55.1973 49.5451 55.2181 49.5285Z" fill="#263238"/>
<path d="M63.6747 47.0256C63.9532 46.8427 64.3939 46.5766 64.3939 46.5766C64.0031 45.3584 61.4545 39.3881 60.8641 37.9329C60.8641 37.9121 60.8891 37.8996 60.8974 37.9329C61.284 38.7353 61.6665 39.5336 62.0407 40.336L61.9534 40.0117C61.8495 39.625 61.758 39.2384 61.6374 38.8559C61.6374 38.8226 61.6748 38.8018 61.6873 38.8559C61.8437 39.228 61.9756 39.6099 62.0823 39.9992C62.153 40.2736 62.207 40.548 62.2528 40.8308C62.4648 41.2922 62.6685 41.7537 62.8806 42.2236C63.4959 43.6579 64.1861 45.1339 64.6891 46.6099C64.3779 46.8151 64.048 46.9905 63.7038 47.1337C63.658 47.1129 63.6331 47.0547 63.6747 47.0256Z" fill="#263238"/>
<path d="M55.7544 51.4576C55.4301 51.678 55.0975 51.8734 54.769 52.0937C54.5209 49.8854 54.4652 47.6596 54.6027 45.4415C54.6443 44.714 54.7067 43.9864 54.8023 43.2629C54.8314 44.5102 54.8272 46.3479 54.8397 47.6243C54.8522 48.9007 54.8605 50.7176 54.8896 51.9815L54.7898 51.9274C55.11 51.7736 55.4259 51.6156 55.7544 51.4659V51.4576Z" fill="#263238"/>
<path d="M54.6983 46.0195C54.361 45.512 54.2357 44.8927 54.3491 44.2941C54.5168 44.8576 54.6337 45.4351 54.6983 46.0195V46.0195Z" fill="#263238"/>
<path d="M152.947 168.133C154.02 168.495 184.658 168.603 185.826 167.867C186.271 167.593 186.549 163.131 186.728 157.731C186.77 156.567 186.803 155.361 186.828 154.139L189.322 137.795L168.838 137.666L166.904 154.01L166.983 157.606C166.983 157.606 155.234 162.811 154.037 163.755C152.839 164.699 151.879 167.771 152.947 168.133Z" fill="#EB9481"/>
<path d="M152.947 168.133C154.02 168.495 184.657 168.603 185.826 167.867C186.366 167.53 186.657 161.015 186.828 154.147L166.896 154.018L166.975 157.614C166.975 157.614 155.226 162.82 154.028 163.763C152.831 164.707 151.879 167.771 152.947 168.133Z" fill="white"/>
<path d="M152.947 168.133C154.02 168.495 184.657 168.603 185.826 167.867C186.271 167.593 186.549 163.131 186.728 157.731L166.975 157.606C166.975 157.606 155.226 162.811 154.028 163.755C152.831 164.699 151.879 167.771 152.947 168.133Z" fill="#5A5AF6"/>
<path d="M153.392 166.911C158.531 166.803 179.257 166.848 184.342 167.135C184.383 167.135 184.383 167.164 184.342 167.164C179.253 167.385 158.527 167.164 153.392 166.994C153.284 166.99 153.284 166.911 153.392 166.911Z" fill="#263238"/>
<path d="M164.984 158.109C167.037 158.109 169.42 158.82 170.692 160.508C170.738 160.57 170.646 160.641 170.584 160.608C168.791 159.659 166.901 158.906 164.946 158.363C164.915 158.355 164.889 158.336 164.871 158.309C164.853 158.283 164.846 158.251 164.851 158.219C164.855 158.188 164.872 158.159 164.896 158.139C164.921 158.118 164.952 158.108 164.984 158.109V158.109Z" fill="#263238"/>
<path d="M163.391 158.724C165.449 158.704 167.832 159.439 169.1 161.123C169.15 161.19 169.058 161.261 168.996 161.227C167.202 160.279 165.312 159.525 163.358 158.978C163.328 158.97 163.301 158.951 163.284 158.925C163.266 158.899 163.259 158.868 163.263 158.836C163.267 158.805 163.282 158.777 163.306 158.756C163.329 158.735 163.36 158.724 163.391 158.724Z" fill="#263238"/>
<path d="M161.803 159.336C163.861 159.315 166.239 160.047 167.511 161.735C167.561 161.797 167.466 161.868 167.407 161.834C165.614 160.886 163.724 160.133 161.77 159.589C161.739 159.581 161.713 159.563 161.695 159.536C161.678 159.51 161.67 159.479 161.674 159.448C161.679 159.417 161.694 159.388 161.718 159.367C161.741 159.347 161.772 159.335 161.803 159.336Z" fill="#263238"/>
<path d="M221.698 65.6891C221.698 65.6891 194.815 106.151 194.178 108.995C193.201 113.361 187.979 157.14 187.979 157.14L165.557 156.695C165.557 156.695 170.625 118.03 174.663 105.49C177.573 96.4722 198.565 66.5539 198.565 66.5539L221.698 65.6891Z" fill="#37474F"/>
<path d="M166.227 152.85C169.777 152.825 182.375 152.683 187.106 153.124C187.14 153.124 187.14 153.186 187.106 153.195C185.481 153.428 169.781 153.062 166.227 152.949C166.213 152.949 166.201 152.944 166.191 152.935C166.182 152.925 166.177 152.913 166.177 152.9C166.177 152.886 166.182 152.874 166.191 152.864C166.201 152.855 166.213 152.85 166.227 152.85V152.85Z" fill="#263238"/>
<path d="M198.635 170.237C199.766 170.312 230.163 162.296 231.111 161.29C231.151 161.227 231.175 161.156 231.181 161.082C231.302 160.088 229.747 156.355 228.658 151.577C228.587 151.27 228.017 149.823 227.215 147.861C225.011 142.481 221.074 133.246 221.074 133.246L201.238 138.352L208.547 153.041L209.537 156.496C209.537 156.496 199.5 164.524 198.586 165.742C197.671 166.961 197.525 170.158 198.635 170.237Z" fill="#EB9481"/>
<path d="M198.635 170.237C199.766 170.312 230.163 162.296 231.111 161.29C231.151 161.227 231.175 161.156 231.181 161.082C231.302 160.088 229.747 156.355 228.658 151.577C228.587 151.27 228.017 149.823 227.215 147.86L208.535 153.024L209.524 156.479C209.524 156.479 199.488 164.508 198.573 165.726C197.658 166.944 197.525 170.158 198.635 170.237Z" fill="white"/>
<path d="M198.635 170.237C199.762 170.312 230.159 162.296 231.107 161.29C231.464 160.907 230.691 156.795 228.654 151.577L209.528 156.483C209.528 156.483 199.492 164.508 198.573 165.726C197.654 166.944 197.525 170.158 198.635 170.237Z" fill="#5A5AF6"/>
<path d="M198.768 168.94C203.708 167.526 223.764 162.287 228.757 161.277C228.795 161.277 228.803 161.298 228.757 161.31C223.893 162.815 203.812 167.879 198.785 169.019C198.685 169.044 198.665 168.969 198.768 168.94Z" fill="#263238"/>
<path d="M207.736 157.477C209.72 156.932 212.21 157.036 213.869 158.342C213.931 158.396 213.869 158.483 213.79 158.471C211.819 158.011 209.805 157.763 207.782 157.731C207.749 157.736 207.715 157.728 207.687 157.708C207.66 157.689 207.641 157.659 207.635 157.626C207.629 157.593 207.637 157.559 207.656 157.531C207.674 157.503 207.703 157.484 207.736 157.477V157.477Z" fill="#263238"/>
<path d="M206.356 158.475C208.339 157.93 210.83 158.034 212.489 159.34C212.551 159.394 212.489 159.481 212.41 159.469C210.434 159.005 208.414 158.755 206.385 158.724C206.356 158.721 206.329 158.708 206.309 158.688C206.288 158.667 206.275 158.64 206.272 158.611C206.268 158.582 206.275 158.553 206.29 158.528C206.305 158.504 206.329 158.485 206.356 158.475V158.475Z" fill="#263238"/>
<path d="M204.976 159.473C206.959 158.928 209.445 159.032 211.104 160.338C211.171 160.387 211.104 160.479 211.029 160.466C209.054 160.004 207.034 159.756 205.005 159.726C204.974 159.726 204.944 159.714 204.921 159.693C204.898 159.672 204.884 159.643 204.88 159.612C204.877 159.581 204.884 159.55 204.902 159.525C204.919 159.499 204.946 159.481 204.976 159.473V159.473Z" fill="#263238"/>
<path d="M206.971 156.392L229.206 150.571C229.206 150.571 210.152 109.091 210.327 106.197C210.476 103.632 225.922 81.1472 226.774 76.9397C228.171 70.0505 224.816 63.8972 221.565 60.0847L198.565 66.5664C198.565 66.5664 200.394 70.5452 203.762 73.0606C203.762 73.0606 189.306 97.1749 188.936 105.133C188.566 113.09 206.971 156.392 206.971 156.392Z" fill="#37474F"/>
<path d="M206.61 152.392C209.836 151.469 208.896 151.69 212.135 150.8C213.719 150.384 224.126 147.524 225.672 147.374C225.71 147.374 225.722 147.428 225.693 147.441C224.271 148.081 213.815 150.742 212.227 151.145C208.971 151.977 209.898 151.698 206.635 152.488C206.623 152.489 206.611 152.486 206.601 152.48C206.591 152.473 206.584 152.463 206.581 152.451C206.578 152.439 206.579 152.427 206.584 152.416C206.59 152.405 206.599 152.397 206.61 152.392Z" fill="#263238"/>
<path d="M200.228 72.121C202.432 72.939 204.563 73.9433 206.597 75.1228C206.614 75.1311 206.627 75.1458 206.634 75.1638C206.64 75.1817 206.639 75.2014 206.631 75.2185C206.622 75.2355 206.608 75.2487 206.59 75.2549C206.572 75.2611 206.552 75.26 206.535 75.2517C204.39 74.3121 202.199 73.414 200.107 72.3663C200.078 72.3485 200.056 72.3204 200.047 72.2875C200.037 72.2546 200.04 72.2193 200.055 72.1885C200.07 72.1577 200.097 72.1337 200.128 72.1212C200.16 72.1088 200.196 72.1087 200.228 72.121V72.121Z" fill="#263238"/>
<path d="M202.93 71.5514C203.098 71.957 203.237 72.3738 203.346 72.7987C203.465 73.1231 203.52 73.4677 203.508 73.8131C203.508 73.8797 203.408 73.8838 203.375 73.8381C203.185 73.5309 203.045 73.1955 202.959 72.8444C202.822 72.4619 202.672 72.0794 202.544 71.6928C202.542 71.647 202.555 71.6019 202.58 71.5638C202.605 71.5258 202.642 71.4968 202.685 71.4811C202.728 71.4654 202.775 71.4637 202.819 71.4763C202.863 71.489 202.902 71.5153 202.93 71.5514V71.5514Z" fill="#263238"/>
<path d="M202.93 69.4684C202.839 69.115 202.747 68.7616 202.648 68.4124C202.548 68.0632 202.419 67.689 202.344 67.3189C202.344 67.2607 202.24 67.2857 202.257 67.3481C202.348 67.7014 202.39 68.0673 202.452 68.429C202.514 68.7907 202.581 69.1483 202.652 69.51C202.785 70.1752 202.964 70.8488 203.163 71.5015C202.801 71.4755 202.45 71.3674 202.136 71.1855C201.83 70.932 201.612 70.5888 201.513 70.2043C201.367 69.7886 201.238 69.3978 201.097 68.9986C200.911 68.5648 200.763 68.1154 200.656 67.6557C200.656 67.5975 200.552 67.6266 200.565 67.6848C200.746 68.6555 201.025 69.6054 201.396 70.5203C201.554 70.882 201.671 71.2479 202.024 71.4267C202.418 71.5931 202.843 71.6752 203.271 71.6678C203.321 71.6678 203.392 71.6678 203.379 71.6013C203.238 70.8903 203.109 70.1669 202.93 69.4684Z" fill="#263238"/>
<path d="M203.313 73.8339C202.44 75.4138 201.438 76.9314 200.502 78.4738C199.567 80.0163 198.723 81.5172 197.87 83.0472C196.149 86.1655 194.544 89.3668 193.097 92.6098C192.38 94.2202 191.701 95.8472 191.06 97.4908C190.387 99.1303 189.831 100.816 189.397 102.534C188.988 104.25 188.912 106.028 189.173 107.773C189.447 109.556 191.035 116.45 192.777 120.179C192.836 120.304 193.039 120.208 192.994 120.079C191.78 116.653 189.002 107.777 189.584 104.205C189.976 102.321 190.533 100.475 191.247 98.6882C191.867 97.0252 192.536 95.3621 193.243 93.7407C194.64 90.5268 196.207 87.4044 197.816 84.2904C198.71 82.5442 199.654 80.8229 200.56 79.085C201.467 77.3471 202.369 75.5427 203.396 73.8547C203.395 73.8455 203.391 73.8367 203.385 73.8297C203.379 73.8227 203.371 73.8177 203.362 73.8155C203.353 73.8132 203.343 73.8137 203.334 73.8171C203.326 73.8204 203.318 73.8263 203.313 73.8339V73.8339Z" fill="#263238"/>
<path d="M220.06 70.4579C219.644 70.3873 219.037 70.5328 217.233 70.4122C216.734 70.3673 216.239 70.2867 215.752 70.1711C215.257 70.0942 214.787 69.9019 214.38 69.6098C213.726 68.9952 213.193 68.2633 212.809 67.452C212.33 66.6149 211.963 65.719 211.715 64.7869C211.715 64.7329 211.62 64.7578 211.628 64.8119C211.724 65.3399 211.778 65.8679 211.915 66.3876C212.053 66.8775 212.23 67.3557 212.443 67.8178C212.825 68.6826 213.274 69.6139 214.052 70.196C214.829 70.7781 216.002 70.9236 216.987 70.9901C217.557 71.0317 219.789 70.9901 220.093 70.6533C220.143 70.5827 220.139 70.4746 220.06 70.4579Z" fill="#263238"/>
<path d="M224.691 146.759C222.28 140.431 212.439 117.36 209.861 111.527C209.25 110.13 208.518 108.721 208.198 107.22C207.853 105.59 208.356 104.114 209.03 102.646C210.314 99.9708 211.748 97.3696 213.324 94.8549C214.888 92.3229 216.538 89.8658 218.172 87.3712C219.806 84.8766 221.498 82.4403 222.812 79.8002C224.059 77.2765 224.783 74.5823 224.421 71.751C224.059 68.9196 222.845 66.3045 221.54 63.8224C221.195 63.1697 220.841 62.5211 220.496 61.8642C220.471 61.8143 220.392 61.8642 220.421 61.9099C221.918 64.5042 223.303 67.2566 223.997 70.1669C224.347 71.6094 224.457 73.0999 224.321 74.5782C224.141 76.0732 223.719 77.5291 223.074 78.8896C221.864 81.5464 220.164 83.9911 218.588 86.4274C217.012 88.8638 215.303 91.3916 213.723 93.9111C212.113 96.435 210.635 99.0412 209.296 101.719C208.705 102.917 208.048 104.168 207.919 105.511C207.761 106.987 208.294 108.396 208.863 109.731C211.358 115.527 224.246 146.139 224.579 146.854C224.604 146.929 224.725 146.85 224.691 146.759Z" fill="#263238"/>
<path d="M196.02 38.7934C197.238 38.4151 198.931 35.2678 199.222 33.0227C199.222 32.8688 198.523 31.6091 197.729 30.0333C197.247 29.0771 196.735 28.0002 196.34 26.9858L190.57 31.0145C191.429 32.1434 192.147 33.3735 192.707 34.6774C192.76 34.8187 192.799 34.9649 192.823 35.1139C192.832 35.137 192.839 35.1606 192.844 35.1846C193.023 36.0286 194.108 39.4005 196.02 38.7934Z" fill="#EB9481"/>
<path d="M193.509 34.9684C193.292 35.0587 193.068 35.131 192.84 35.1846C192.843 35.1598 192.843 35.1347 192.84 35.1098C192.817 34.9668 192.776 34.8272 192.719 34.694C192.162 33.3898 191.446 32.1595 190.586 31.0312L195.941 27.2893C196.303 29.0064 196.918 33.5465 193.509 34.9684Z" fill="#263238"/>
<path d="M196.291 18.9865C197.434 21.2482 197.38 28.3703 195.95 30.2121C193.871 32.873 189.879 33.7918 187.468 31.16C185.127 28.6114 185.364 19.3316 187.019 17.602C189.455 15.0492 194.594 15.6479 196.291 18.9865Z" fill="#EB9481"/>
<path d="M189.859 24.2209C189.859 24.2209 189.896 24.2417 189.892 24.2625C189.855 24.7407 189.892 25.2978 190.308 25.4766C190.308 25.4766 190.308 25.5057 190.308 25.5015C189.788 25.4017 189.746 24.6658 189.859 24.2209Z" fill="#263238"/>
<path d="M190.32 23.7387C191.093 23.7387 191.081 25.2646 190.366 25.2853C189.651 25.3061 189.663 23.7595 190.32 23.7387Z" fill="#263238"/>
<path d="M187.306 24.117C187.306 24.117 187.268 24.1378 187.268 24.1586C187.268 24.6367 187.214 25.1897 186.778 25.3435V25.3726C187.314 25.3019 187.41 24.5702 187.306 24.117Z" fill="#263238"/>
<path d="M186.882 23.6015C186.113 23.5391 186.05 25.0858 186.753 25.144C187.456 25.2022 187.53 23.6639 186.882 23.6015Z" fill="#263238"/>
<path d="M190.927 23.036C190.724 22.9746 190.524 22.9024 190.329 22.8198C190.107 22.7726 189.907 22.6544 189.759 22.4831C189.719 22.4179 189.702 22.3406 189.713 22.2647C189.724 22.1888 189.76 22.1189 189.817 22.0673C189.936 21.982 190.076 21.9297 190.222 21.9158C190.368 21.902 190.515 21.927 190.649 21.9883C190.933 22.0707 191.176 22.256 191.33 22.508C191.372 22.5687 191.394 22.6411 191.392 22.7149C191.391 22.7887 191.366 22.86 191.321 22.9186C191.276 22.9773 191.214 23.0202 191.143 23.0413C191.072 23.0624 190.997 23.0606 190.927 23.036V23.036Z" fill="#263238"/>
<path d="M186.35 23.0028C186.557 22.9618 186.763 22.9105 186.965 22.8489C187.19 22.8242 187.4 22.7264 187.564 22.5704C187.612 22.5121 187.639 22.4385 187.639 22.3625C187.639 22.2865 187.612 22.2129 187.564 22.1546C187.454 22.0607 187.323 21.9967 187.181 21.969C187.04 21.9413 186.894 21.9508 186.757 21.9966C186.465 22.0484 186.204 22.2088 186.025 22.4457C185.984 22.5006 185.959 22.5666 185.955 22.6354C185.951 22.7042 185.967 22.7727 186.002 22.8323C186.037 22.8918 186.088 22.9398 186.15 22.9701C186.212 23.0005 186.281 23.0118 186.35 23.0028V23.0028Z" fill="#263238"/>
<path d="M190.553 28.6904C190.437 28.8027 190.32 28.9565 190.137 28.969C189.958 28.9657 189.782 28.9231 189.622 28.8443C189.622 28.8443 189.588 28.8443 189.601 28.8692C189.668 28.9647 189.76 29.04 189.867 29.0869C189.974 29.1338 190.092 29.1506 190.208 29.1353C190.305 29.1105 190.392 29.058 190.459 28.9841C190.527 28.9102 190.571 28.8182 190.586 28.7195C190.607 28.6863 190.57 28.6738 190.553 28.6904Z" fill="#263238"/>
<path d="M188.595 27.8048C188.796 28.0705 189.062 28.2797 189.368 28.4118C189.535 28.4815 189.721 28.4946 189.896 28.4493C190.279 28.3536 190.291 28.0002 190.225 27.7009C190.188 27.5409 190.132 27.3859 190.058 27.2394C189.644 27.5804 189.131 27.7786 188.595 27.8048Z" fill="#263238"/>
<path d="M189.368 28.4119C189.535 28.4815 189.721 28.4947 189.896 28.4493C190.279 28.3537 190.291 28.0003 190.225 27.7009C190.022 27.7051 189.828 27.7777 189.672 27.9068C189.517 28.036 189.409 28.214 189.368 28.4119V28.4119Z" fill="#FF99BA"/>
<path d="M185.705 20.2754C188.345 22.0548 191.942 19.3067 191.942 19.3067C192.17 19.878 192.576 20.3606 193.101 20.6826C193.625 21.0047 194.239 21.1491 194.852 21.0944C194.852 21.0944 195.405 25.5348 196.573 25.5181C198.361 25.4932 198.868 19.4272 198.299 18.2381C197.729 17.0491 196.22 16.758 196.22 16.758C196.045 16.0337 195.598 15.4043 194.973 14.9994C193.746 14.0722 189.568 15.3611 189.568 15.3611C189.323 14.8002 188.95 14.3047 188.478 13.9142C188.365 13.8168 188.234 13.7434 188.091 13.6985C187.949 13.6535 187.799 13.638 187.65 13.6528C187.502 13.6675 187.358 13.7123 187.227 13.7844C187.097 13.8565 186.982 13.9544 186.89 14.0722C187.107 14.4021 187.249 14.7753 187.306 15.1657C187.526 16.467 186.474 16.4712 186.474 15.2904C186.46 14.8472 186.608 14.4139 186.89 14.0722C186.358 13.303 185.501 13.0577 184.982 13.4777C184.005 14.2177 183.51 18.7786 185.705 20.2754Z" fill="#263238"/>
<path d="M195.072 19.6684C195.073 19.66 195.075 19.6518 195.079 19.6444C195.083 19.637 195.089 19.6305 195.095 19.6255C195.102 19.6204 195.11 19.6169 195.118 19.6151C195.126 19.6133 195.135 19.6133 195.143 19.6152C195.151 19.617 195.159 19.6206 195.166 19.6257C195.172 19.6307 195.178 19.6372 195.182 19.6447C195.186 19.6521 195.188 19.6603 195.189 19.6687C195.189 19.6771 195.188 19.6855 195.185 19.6933C194.997 20.5826 194.916 21.4913 194.943 22.3999C195.006 23.298 195.501 25.5514 196.785 25.277C196.798 25.2731 196.812 25.2745 196.823 25.2807C196.835 25.2869 196.844 25.2976 196.848 25.3103C196.852 25.3229 196.85 25.3366 196.844 25.3483C196.838 25.36 196.827 25.3688 196.814 25.3726C195.983 25.7884 195.376 24.7032 195.089 23.9465C194.573 22.5787 194.74 21.0487 195.072 19.6684Z" fill="#263238"/>
<path d="M185.015 13.4028C183.664 15.1449 183.352 17.6104 184.62 19.5062C186.212 21.8885 189.389 20.3378 191.272 19.2859C191.368 19.236 191.459 19.369 191.364 19.4231C189.526 20.4916 186.3 21.9883 184.637 19.8388C183.173 17.9014 183.493 15.1781 185.015 13.4028Z" fill="#263238"/>
<path d="M195.808 16.7373C197.567 16.9119 198.827 17.7309 199.014 19.5894C199.088 20.5276 198.967 21.471 198.658 22.3599C198.349 23.2488 197.858 24.0638 197.218 24.7532C197.155 24.8197 197.06 24.7282 197.114 24.6575C198.032 23.557 198.622 22.2197 198.814 20.7993C198.931 19.7224 198.814 18.5167 198.033 17.6852C197.484 17.0823 196.548 16.9451 195.796 16.8038C195.75 16.7955 195.767 16.7331 195.808 16.7373Z" fill="#263238"/>
<path d="M189.006 15.7269C191.185 14.3674 195.513 13.0619 196.166 16.7164C196.166 16.7455 196.12 16.7539 196.112 16.7164C195.251 13.0619 191.293 14.7332 189.044 15.8101C188.998 15.8433 188.956 15.756 189.006 15.7269Z" fill="#263238"/>
<path d="M190.59 27.0024C189.999 26.9199 189.464 26.6061 189.103 26.13C188.742 25.6538 188.585 25.0541 188.665 24.4621V24.4621C188.723 24.0449 188.897 23.6523 189.167 23.3289C189.437 23.0054 189.792 22.7642 190.192 22.6324C190.592 22.5006 191.021 22.4836 191.431 22.5833C191.84 22.683 192.213 22.8954 192.508 23.1964C192.802 23.4974 193.007 23.875 193.098 24.2864C193.189 24.6977 193.162 25.1262 193.022 25.5234C192.882 25.9206 192.633 26.2705 192.304 26.5334C191.975 26.7963 191.578 26.9616 191.16 27.0107C190.971 27.0315 190.779 27.0287 190.59 27.0024V27.0024ZM188.965 24.5078C188.912 24.8898 188.973 25.279 189.141 25.6261C189.309 25.9732 189.577 26.2627 189.909 26.4579C190.242 26.6531 190.625 26.7453 191.01 26.7228C191.395 26.7003 191.765 26.5642 192.072 26.3316C192.38 26.0989 192.612 25.7803 192.738 25.416C192.865 25.0517 192.88 24.658 192.783 24.2848C192.686 23.9116 192.48 23.5755 192.192 23.3192C191.904 23.0629 191.546 22.8978 191.164 22.8448C191.003 22.8241 190.839 22.8241 190.678 22.8448C190.249 22.8942 189.849 23.0835 189.54 23.3835C189.23 23.6834 189.028 24.0772 188.965 24.5037V24.5078Z" fill="#5A5AF6"/>
<path d="M185.83 26.9691C184.907 26.9691 184.167 25.9505 184.167 24.7074C184.161 24.1449 184.33 23.5945 184.649 23.1317C184.774 22.9241 184.95 22.7524 185.16 22.6331C185.371 22.5139 185.609 22.4512 185.851 22.4512C186.093 22.4512 186.331 22.5139 186.541 22.6331C186.752 22.7524 186.928 22.9241 187.052 23.1317C187.371 23.5943 187.535 24.1458 187.522 24.7074C187.522 25.884 186.84 26.8486 185.984 26.9484L185.83 26.9691ZM184.89 23.3104C184.608 23.7205 184.462 24.2095 184.475 24.7074C184.475 25.7842 185.082 26.6615 185.842 26.6656C186.603 26.6698 187.223 25.7967 187.227 24.7199C187.236 24.2212 187.091 23.7319 186.811 23.3187C186.708 23.156 186.567 23.0205 186.401 22.9235C186.235 22.8266 186.047 22.771 185.855 22.7616H185.747C185.573 22.7878 185.408 22.8502 185.26 22.9448C185.112 23.0393 184.987 23.1639 184.89 23.3104V23.3104Z" fill="#5A5AF6"/>
<path d="M188.74 24.7241L188.936 24.4954C188.595 24.2044 187.805 23.8135 187.252 24.4039L187.472 24.6076C187.967 24.0838 188.707 24.6991 188.74 24.7241Z" fill="#5A5AF6"/>
<path d="M198.781 25.3477L199.047 25.2105C198.985 25.0858 198.403 23.9632 197.729 23.8718C197.056 23.7803 193.06 24.1295 192.89 24.1462L192.919 24.4455C194.075 24.3416 197.197 24.088 197.679 24.1711C198.161 24.2543 198.635 25.0442 198.781 25.3477Z" fill="#5A5AF6"/>
<path d="M195.33 24.8696C195.33 24.8696 196.548 22.375 197.654 22.7908C198.76 23.2065 198.07 26.6199 196.952 27.2477C196.811 27.3347 196.655 27.393 196.492 27.4192C196.329 27.4454 196.163 27.439 196.002 27.4003C195.842 27.3617 195.69 27.2915 195.557 27.1939C195.424 27.0964 195.311 26.9733 195.226 26.832L195.33 24.8696Z" fill="#EB9481"/>
<path d="M197.434 23.7678C197.434 23.7678 197.459 23.7927 197.434 23.801C196.648 24.2667 196.328 25.1107 196.145 25.963C196.18 25.8715 196.235 25.7888 196.306 25.7207C196.376 25.6526 196.461 25.6007 196.553 25.5686C196.646 25.5365 196.744 25.5251 196.842 25.535C196.939 25.545 197.034 25.5761 197.118 25.6262C197.143 25.6262 197.118 25.6761 197.118 25.672C196.964 25.6485 196.806 25.673 196.666 25.7422C196.526 25.8114 196.411 25.9218 196.336 26.0586C196.214 26.2905 196.117 26.5343 196.045 26.7862C196.02 26.8652 195.879 26.8486 195.891 26.7571C195.725 25.6803 196.307 24.0546 197.434 23.7678Z" fill="#263238"/>
<path d="M224.458 63.548C224.417 63.6478 194.823 71.9672 194.461 71.7593C193.958 71.4683 190.337 42.4938 192.91 34.719C193.551 32.7774 197.301 30.3909 199.517 31.447C205.94 34.5028 208.219 38.0701 210.522 40.839C212.227 42.8929 214.68 46.5516 217.029 50.3434C220.92 56.5923 224.604 63.1988 224.458 63.548Z" fill="#5A5AF6"/>
<path opacity="0.1" d="M199.933 31.6506L193.771 33.3761C194.167 32.9553 194.614 32.5852 195.101 32.2743L198.843 31.2307C199.084 31.2699 199.317 31.3427 199.538 31.4469L199.933 31.6506ZM202.082 32.8189L192.702 35.4466C192.644 35.6877 192.586 35.9496 192.536 36.2199L202.889 33.3095C202.631 33.164 202.377 32.9852 202.082 32.8189ZM204.668 34.5942L192.266 38.0659C192.241 38.307 192.216 38.5606 192.191 38.8142L205.333 35.1347C205.121 34.9518 204.897 34.773 204.668 34.5942ZM206.809 36.4943L192.071 40.6186C192.071 40.8598 192.05 41.1051 192.041 41.3545L207.366 37.068C207.188 36.8768 207.001 36.6855 206.809 36.4901V36.4943ZM208.614 38.4858L191.983 43.1382C191.983 43.3751 191.983 43.6204 191.983 43.8657L209.084 39.0762L208.614 38.4858ZM210.522 40.839L210.26 40.523L192.008 45.6369V46.3603L210.718 41.1176C210.662 41.0178 210.597 40.9249 210.522 40.839ZM211.861 42.5727L192.071 48.1315L192.095 48.8507L212.302 43.1922L211.861 42.5727ZM213.337 44.6515L192.179 50.5845C192.179 50.8215 192.179 51.0626 192.216 51.2996L213.753 45.271L213.337 44.6515ZM214.746 46.7553L192.295 53.0333L192.345 53.7484L215.125 47.3706L214.746 46.7553ZM216.097 48.8798L192.474 55.4946C192.474 55.7316 192.515 55.9686 192.532 56.2056L216.513 49.4993L216.097 48.8798ZM217.428 51.0044L192.69 57.9352C192.69 58.1763 192.727 58.4091 192.752 58.6461L217.823 51.628L217.428 51.0044ZM218.733 53.1414L192.898 60.3715C192.923 60.6085 192.944 60.8455 192.969 61.0783L219.108 53.7609L218.733 53.1414ZM220.01 55.2826L193.147 62.7996C193.172 63.0407 193.197 63.2735 193.222 63.5064L220.376 55.9062C220.255 55.7025 220.147 55.4946 220.022 55.2826H220.01ZM221.257 57.4279L193.401 65.2235C193.43 65.4646 193.459 65.6974 193.488 65.9261L221.602 58.0557L221.257 57.4279ZM222.479 59.5857L193.721 67.6349C193.75 67.8802 193.783 68.113 193.813 68.3375L222.829 60.2177L222.479 59.5857ZM223.652 61.756L194.066 70.038C194.108 70.2958 194.149 70.5286 194.187 70.7323L223.997 62.3921L223.652 61.756Z" fill="#030402"/>
<path d="M197.962 36.5858C199.375 40.864 202.12 59.4735 199.937 61.8351C195.018 67.1111 186.217 72.7571 183.219 74.9856C182.471 75.5428 175.877 63.5397 177.814 62.3963C180.812 60.6252 188.512 55.8855 189.015 55.3284C189.892 54.368 190.748 43.6288 191.842 37.4256C192.815 31.8419 197.126 34.0663 197.962 36.5858Z" fill="#EB9481"/>
<path d="M172.588 68.5039C173.062 67.8137 172.704 67.5601 171.282 68.005C169.86 68.4498 164.63 71.4017 163.74 69.4809C162.851 67.5601 170.326 63.5023 172.75 62.9493C175.174 62.3963 179.286 62.3464 179.286 62.3464C177.993 63.4357 175.103 66.3585 172.588 68.5039Z" fill="#EB9481"/>
<path d="M186.163 72.6989C182.421 75.6092 177.906 79.4717 172.584 80.1535C171.994 80.2437 171.391 80.1339 170.871 79.8417C168.493 80.191 167.615 79.1682 167.615 79.1682C165.295 78.8148 164.543 77.6506 164.543 77.6506C164.543 77.6506 161.745 78.029 161.217 76.3743C160.639 74.5241 164.684 74.3536 166.85 72.9026C171.815 69.5765 177.939 63.4565 179.273 62.3547L186.163 72.6989Z" fill="#EB9481"/>
<path d="M174.521 73.0773C173.081 74.0702 171.574 74.9621 170.01 75.7465C168.249 76.4987 166.434 77.1185 164.58 77.6008C164.568 77.6035 164.558 77.611 164.551 77.6215C164.544 77.632 164.542 77.6448 164.545 77.6569C164.548 77.669 164.555 77.6796 164.566 77.6862C164.576 77.6928 164.589 77.695 164.601 77.6922C168.281 77.1193 171.733 75.5458 174.579 73.1438C174.625 73.0773 174.588 73.0232 174.521 73.0773Z" fill="#263238"/>
<path d="M176.958 75.7714C175.465 76.6029 172.837 78.0872 167.599 79.0975V79.1307C170.982 78.9314 174.243 77.7941 177.016 75.8462C177.086 75.7838 177.057 75.7173 176.958 75.7714Z" fill="#263238"/>
<path d="M178.263 77.2349C175.669 78.5736 173.868 79.0892 170.892 79.8084C170.892 79.8084 170.892 79.8459 170.892 79.8417C174.355 79.3802 175.561 78.8189 178.313 77.318C178.396 77.2806 178.346 77.1974 178.263 77.2349Z" fill="#263238"/>
<path d="M180.221 60.0722L186.578 73.7133C186.578 73.7133 198.349 66.3336 200.565 61.3444C201.962 58.2012 200.565 45.1962 198.852 38.7269C197.139 32.2576 192.549 29.8379 191.039 40.232C189.53 50.626 188.961 54.3679 188.62 54.8543C188.279 55.3408 180.221 60.0722 180.221 60.0722Z" fill="#5A5AF6"/>
<path d="M193.871 68.6036C194.012 68.1879 199.297 64.1882 200.594 60.4131C201.159 58.7708 201.234 53.8898 200.955 50.8506C200.847 49.6906 200.631 48.5431 200.452 47.3914C200.086 45.0715 199.675 42.7473 199.467 40.4066C199.467 40.4011 199.469 40.3958 199.473 40.3919C199.477 40.388 199.482 40.3858 199.488 40.3858C199.493 40.3858 199.499 40.388 199.502 40.3919C199.506 40.3958 199.509 40.4011 199.509 40.4066C199.924 41.8618 200.228 43.3419 200.494 44.8303L200.519 44.5809C200.594 43.8657 200.693 43.1506 200.698 42.4355C200.698 42.3856 200.781 42.3898 200.777 42.4355C200.748 43.1465 200.777 43.8574 200.777 44.5642C200.777 44.9093 200.777 45.2502 200.731 45.5912C200.731 45.72 200.706 45.8614 200.689 46.0069C200.76 46.4684 200.835 46.9299 200.897 47.3914C201.059 48.568 201.155 49.7488 201.313 50.9295C201.7 54.1725 201.729 58.5047 200.976 60.8039C199.729 64.6871 194.149 68.5163 193.908 68.7034C193.838 68.745 193.85 68.6577 193.871 68.6036Z" fill="#263238"/>
<path d="M189.102 70.9194C188.609 69.9723 188.163 69.001 187.767 68.0091C187.352 67.0473 186.936 66.0772 186.52 65.0988C185.689 63.1447 184.857 61.1989 184.15 59.1949C184.15 59.145 184.196 59.1118 184.221 59.1575C185.231 61.0326 186.05 63.0241 186.886 64.9782C187.307 65.9649 187.712 66.9558 188.1 67.9509C188.509 68.8998 188.863 69.8715 189.16 70.8612C189.166 70.8692 189.169 70.8791 189.168 70.8891C189.168 70.8991 189.163 70.9085 189.156 70.9156C189.149 70.9227 189.14 70.9269 189.13 70.9277C189.12 70.9284 189.11 70.9254 189.102 70.9194V70.9194Z" fill="#263238"/>
</svg>
